<svg width="150" height="80" viewBox="0 0 150 80" fill="none" xmlns="http://www.w3.org/2000/svg">
<mask id="mask0_99_573" style="mask-type:alpha" maskUnits="userSpaceOnUse" x="0" y="0" width="150" height="80">
<rect width="150" height="80" rx="20" fill="#C4C4C4"/>
</mask>
<g mask="url(#mask0_99_573)">
<path d="M0.194799 97.7329L0.67983 16.2917C0.792626 -2.64783 16.2363 -17.9086 35.1758 -17.7958L116.617 -17.3108C135.556 -17.198 150.817 -1.75434 150.704 17.1851L150.219 98.6276C150.107 117.566 134.663 132.827 115.723 132.714L34.281 132.229C15.3428 132.116 0.0820023 116.672 0.194799 97.7329Z" fill="url(#paint0_linear_99_573)"/>
</g>
<path d="M41.517 48V30.5455H53.0739V33.5881H45.2074V37.7472H52.3068V40.7898H45.2074V48H41.517ZM55.4879 48V34.9091H59.1186V48H55.4879ZM57.3118 33.2216C56.772 33.2216 56.3089 33.0426 55.9226 32.6847C55.5419 32.321 55.3516 31.8864 55.3516 31.3807C55.3516 30.8807 55.5419 30.4517 55.9226 30.0938C56.3089 29.7301 56.772 29.5483 57.3118 29.5483C57.8516 29.5483 58.3118 29.7301 58.6925 30.0938C59.0788 30.4517 59.272 30.8807 59.272 31.3807C59.272 31.8864 59.0788 32.321 58.6925 32.6847C58.3118 33.0426 57.8516 33.2216 57.3118 33.2216ZM65.6577 40.4318V48H62.027V34.9091H65.4872V37.2188H65.6406C65.9304 36.4574 66.4162 35.8551 67.098 35.4119C67.7798 34.9631 68.6065 34.7386 69.5781 34.7386C70.4872 34.7386 71.2798 34.9375 71.956 35.3352C72.6321 35.733 73.1577 36.3011 73.5327 37.0398C73.9077 37.7727 74.0952 38.6477 74.0952 39.6648V48H70.4645V40.3125C70.4702 39.5114 70.2656 38.8864 69.8509 38.4375C69.4361 37.983 68.8651 37.7557 68.1378 37.7557C67.6491 37.7557 67.2173 37.8608 66.8423 38.071C66.473 38.2812 66.1832 38.5881 65.973 38.9915C65.7685 39.3892 65.6634 39.8693 65.6577 40.4318ZM76.9567 48V34.9091H80.5874V48H76.9567ZM78.7805 33.2216C78.2408 33.2216 77.7777 33.0426 77.3913 32.6847C77.0107 32.321 76.8203 31.8864 76.8203 31.3807C76.8203 30.8807 77.0107 30.4517 77.3913 30.0938C77.7777 29.7301 78.2408 29.5483 78.7805 29.5483C79.3203 29.5483 79.7805 29.7301 80.1612 30.0938C80.5476 30.4517 80.7408 30.8807 80.7408 31.3807C80.7408 31.8864 80.5476 32.321 80.1612 32.6847C79.7805 33.0426 79.3203 33.2216 78.7805 33.2216ZM94.3878 38.642L91.0639 38.8466C91.0071 38.5625 90.8849 38.3068 90.6974 38.0795C90.5099 37.8466 90.2628 37.6619 89.956 37.5256C89.6548 37.3835 89.294 37.3125 88.8736 37.3125C88.3111 37.3125 87.8366 37.4318 87.4503 37.6705C87.0639 37.9034 86.8707 38.2159 86.8707 38.608C86.8707 38.9205 86.9957 39.1847 87.2457 39.4006C87.4957 39.6165 87.9247 39.7898 88.5327 39.9205L90.902 40.3977C92.1747 40.6591 93.1236 41.0795 93.7486 41.6591C94.3736 42.2386 94.6861 43 94.6861 43.9432C94.6861 44.8011 94.4332 45.554 93.9276 46.2017C93.4276 46.8494 92.7401 47.3551 91.8651 47.7188C90.9957 48.0767 89.9929 48.2557 88.8565 48.2557C87.1236 48.2557 85.7429 47.8949 84.7145 47.1733C83.6918 46.446 83.0923 45.4574 82.9162 44.2074L86.4872 44.0199C86.5952 44.5483 86.8565 44.9517 87.2713 45.2301C87.6861 45.5028 88.2173 45.6392 88.8651 45.6392C89.5014 45.6392 90.0128 45.517 90.3991 45.2727C90.7912 45.0227 90.9901 44.7017 90.9957 44.3097C90.9901 43.9801 90.8509 43.7102 90.5781 43.5C90.3054 43.2841 89.8849 43.1193 89.3168 43.0057L87.0497 42.554C85.7713 42.2983 84.8196 41.8551 84.1946 41.2244C83.5753 40.5937 83.2656 39.7898 83.2656 38.8125C83.2656 37.9716 83.4929 37.2472 83.9474 36.6392C84.4077 36.0312 85.0526 35.5625 85.8821 35.233C86.7173 34.9034 87.6946 34.7386 88.8139 34.7386C90.4673 34.7386 91.7685 35.0881 92.7173 35.7869C93.6719 36.4858 94.2287 37.4375 94.3878 38.642ZM100.603 40.4318V48H96.9723V30.5455H100.501V37.2188H100.654C100.95 36.446 101.427 35.8409 102.086 35.4034C102.745 34.9602 103.572 34.7386 104.566 34.7386C105.475 34.7386 106.268 34.9375 106.944 35.3352C107.626 35.7273 108.154 36.2926 108.529 37.0312C108.91 37.7642 109.097 38.642 109.092 39.6648V48H105.461V40.3125C105.467 39.5057 105.262 38.8778 104.847 38.429C104.438 37.9801 103.864 37.7557 103.126 37.7557C102.631 37.7557 102.194 37.8608 101.813 38.071C101.438 38.2812 101.143 38.5881 100.927 38.9915C100.717 39.3892 100.609 39.8693 100.603 40.4318Z" fill="white"/>
<defs>
<linearGradient id="paint0_linear_99_573" x1="75.8964" y1="-17.5533" x2="75.0029" y2="132.471" gradientUnits="userSpaceOnUse">
<stop stop-color="#FF8E61"/>
<stop offset="1" stop-color="#DA4200"/>
</linearGradient>
</defs>
</svg>
