<svg width="24" height="24" viewBox="0 0 24 24" fill="none" xmlns="http://www.w3.org/2000/svg">
<path d="M3 6.66667H21C21.2652 6.66667 21.5196 6.52619 21.7071 6.27614C21.8946 6.02609 22 5.68696 22 5.33333C22 4.97971 21.8946 4.64057 21.7071 4.39052C21.5196 4.14048 21.2652 4 21 4H3C2.73478 4 2.48043 4.14048 2.29289 4.39052C2.10536 4.64057 2 4.97971 2 5.33333C2 5.68696 2.10536 6.02609 2.29289 6.27614C2.48043 6.52619 2.73478 6.66667 3 6.66667V6.66667ZM21 17.3333H3C2.73478 17.3333 2.48043 17.4738 2.29289 17.7239C2.10536 17.9739 2 18.313 2 18.6667C2 19.0203 2.10536 19.3594 2.29289 19.6095C2.48043 19.8595 2.73478 20 3 20H21C21.2652 20 21.5196 19.8595 21.7071 19.6095C21.8946 19.3594 22 19.0203 22 18.6667C22 18.313 21.8946 17.9739 21.7071 17.7239C21.5196 17.4738 21.2652 17.3333 21 17.3333ZM21 10.6667H3C2.73478 10.6667 2.48043 10.8071 2.29289 11.0572C2.10536 11.3072 2 11.6464 2 12C2 12.3536 2.10536 12.6928 2.29289 12.9428C2.48043 13.1929 2.73478 13.3333 3 13.3333H21C21.2652 13.3333 21.5196 13.1929 21.7071 12.9428C21.8946 12.6928 22 12.3536 22 12C22 11.6464 21.8946 11.3072 21.7071 11.0572C21.5196 10.8071 21.2652 10.6667 21 10.6667Z" fill="black"/>
</svg>
