<svg width="346" height="351" viewBox="0 0 346 351" fill="none" xmlns="http://www.w3.org/2000/svg">
<path d="M30.3634 204.745C34.3227 201.786 38.8397 199.681 43.6466 198.56C48.5136 197.417 53.6814 197.28 58.8766 198.286C58.9094 197.745 58.9368 197.198 58.975 196.651C59.5383 187.951 70.1583 180.617 87.4281 175.438C92.5412 173.907 98.234 172.567 104.424 171.435C125.796 167.514 153.068 166.093 182.598 168.007C249.566 172.349 302.797 192.205 301.49 212.368C291.789 362.125 146.39 387.548 85.2571 302.889C84.7813 302.917 84.3165 302.938 83.8407 302.949C68.9497 303.496 54.7095 299.351 42.5966 290.016C42.4599 289.912 42.3232 289.803 42.181 289.694C40.0264 288.004 37.9374 286.15 35.925 284.127C32.6985 280.884 29.6744 277.203 26.8744 273.075C26.1471 272.008 25.4417 270.914 24.7526 269.782C7.99141 240.405 14.9912 216.19 30.3634 204.745ZM46.709 267.114C47.7918 268.426 48.9402 269.684 50.1542 270.871C51.9588 272.632 53.9002 274.245 55.9618 275.645C60.9711 279.068 66.7021 281.277 72.9199 281.6V281.606C64.646 263.762 59.5055 242.538 58.6961 218.017V218.093C55.158 217.727 52.0627 217.869 49.3777 218.438C49.148 218.482 48.9183 218.536 48.6941 218.586C29.7126 223.228 32.5727 249.981 46.709 267.114Z" fill="url(#paint0_linear_598_4732)"/>
<path d="M30.3634 204.745C34.3227 201.786 38.8397 199.681 43.6466 198.56C48.5136 197.417 53.6814 197.28 58.8766 198.286C58.9094 197.745 58.9368 197.198 58.975 196.651C59.5383 187.951 70.1583 180.617 87.4281 175.438C92.5412 173.907 98.234 172.567 104.424 171.435C125.796 167.514 153.068 166.093 182.598 168.007C249.566 172.349 302.797 192.205 301.49 212.368C291.789 362.125 146.39 387.548 85.2571 302.889C84.7813 302.917 84.3165 302.938 83.8407 302.949C68.9497 303.496 54.7095 299.351 42.5966 290.016C42.4599 289.912 42.3232 289.803 42.181 289.694C40.0264 288.004 37.9374 286.15 35.925 284.127C32.6985 280.884 29.6744 277.203 26.8744 273.075C26.1471 272.008 25.4417 270.914 24.7526 269.782C7.99141 240.405 14.9912 216.19 30.3634 204.745ZM46.709 267.114C47.7918 268.426 48.9402 269.684 50.1542 270.871C51.9588 272.632 53.9002 274.245 55.9618 275.645C60.9711 279.068 66.7021 281.277 72.9199 281.6V281.606C64.646 263.762 59.5055 242.538 58.6961 218.017V218.093C55.158 217.727 52.0627 217.869 49.3777 218.438C49.148 218.482 48.9183 218.536 48.6941 218.586C29.7126 223.228 32.5727 249.981 46.709 267.114Z" fill="url(#paint1_linear_598_4732)"/>
<path d="M275.055 242.013C270.188 241.368 266.196 237.479 265.627 232.383C264.096 218.646 264.621 198.22 275.81 178.927C283.318 165.983 293.862 156.78 295.901 155.068C302.229 149.747 307.276 147.045 310.962 145.077C314.708 143.075 316.42 142.157 318.541 139.346C322.654 133.899 325.607 125.182 323.261 122.114C321.784 120.184 317.355 118.456 313.488 120.025C310.038 121.425 308.6 125.007 308.343 125.707C306.292 131.389 300.019 134.331 294.343 132.28C288.661 130.23 285.719 123.963 287.77 118.281C288.902 115.142 293.512 104.533 305.253 99.7586C317.623 94.733 332.831 98.6266 340.629 108.82C351.894 123.541 343.019 143.212 335.997 152.52C330.977 159.175 326.044 161.811 321.276 164.364C317.973 166.131 314.555 167.957 309.978 171.807C309.026 172.606 300.533 179.895 294.731 189.897C286.528 204.039 286.2 219.488 287.37 229.96C288.038 235.965 283.717 241.373 277.713 242.04C276.805 242.139 275.919 242.122 275.055 242.013Z" fill="#FDE0D4"/>
<path opacity="0.31" d="M288.924 178.812C287.524 176.762 285.117 173.727 281.24 170.752C279.365 173.256 277.511 175.991 275.81 178.922C274.716 180.809 273.726 182.706 272.83 184.604C277.811 192.987 282.793 201.37 287.775 209.754C288.77 203.623 290.717 197.187 294.135 190.969C293.238 187.004 291.68 182.848 288.924 178.812Z" fill="#EA6124"/>
<path opacity="0.31" d="M315.884 115.689C309.382 116.055 305.761 121.71 304.542 123.607C302.786 126.347 302.174 128.977 301.671 132.313C304.662 131.263 307.178 128.923 308.337 125.707C308.589 125.002 310.032 121.425 313.483 120.025C317.344 118.456 321.779 120.184 323.255 122.114C325.601 125.182 322.648 133.899 318.536 139.346C316.414 142.157 314.702 143.07 310.956 145.077C310.754 145.186 310.546 145.296 310.339 145.41C312.482 145.241 314.67 144.727 316.524 143.945C324.409 140.631 331.633 130.432 328.079 122.759C326.11 118.489 320.997 115.404 315.884 115.689Z" fill="#EA6124"/>
<path d="M214.004 142.911C233.964 146.542 247.319 154.526 252.114 157.616C260.12 162.773 284.806 178.67 287.048 203.995C288.967 225.645 273.409 242.128 269.898 245.852C236.075 281.693 151.039 292.461 112.381 252.638C95.0731 234.811 86.378 206.134 97.1402 182.504C114.902 143.496 177.474 136.261 214.004 142.911Z" fill="#F8CBBC"/>
<path opacity="0.31" d="M287.048 203.995C286.162 194.004 281.787 185.484 276.318 178.506C276.324 183.275 275.558 189.115 272.802 195.076C264.463 213.106 244.535 217.951 237.71 219.614C222.83 223.234 210.088 220.374 203.187 218.186C195.29 224.749 188.881 231.814 190.631 236.73C195.006 249.007 251.393 251.255 279.206 233.859C283.832 226.335 288.109 215.955 287.048 203.995Z" fill="#EA6124"/>
<path d="M244.841 224.18C206.085 234.625 174.898 230.316 145.98 226.318C107.022 220.937 89.5499 211.679 77.076 201.496C70.5356 196.159 65.6303 192.15 62.8851 188.311C60.5172 190.914 59.1719 193.703 58.9805 196.651C58.9477 197.198 58.9149 197.739 58.8821 198.286C53.6869 197.28 48.5191 197.422 43.652 198.56C38.8397 199.681 34.3281 201.786 30.3688 204.745C14.9966 216.19 7.99686 240.405 24.7635 269.788C25.4526 270.914 26.158 272.014 26.8854 273.08C29.6798 277.209 32.7094 280.884 35.9359 284.132C37.9483 286.155 40.0373 288.009 42.1919 289.699C42.3286 289.808 42.4654 289.918 42.6075 290.022C54.7205 299.351 68.9607 303.502 83.8516 302.955C84.3274 302.944 84.7922 302.922 85.268 302.895C146.396 387.554 291.8 362.13 301.501 212.373C301.737 208.742 300.194 205.122 297.132 201.606C285.735 213.155 258.119 220.603 244.841 224.18ZM72.9199 281.6C66.7021 281.283 60.9711 279.068 55.9618 275.645C53.9002 274.245 51.9588 272.632 50.1542 270.871C48.9402 269.679 47.7918 268.421 46.709 267.114C32.5727 249.986 29.7126 223.228 48.6941 218.591C48.9183 218.536 49.148 218.487 49.3777 218.438C52.0627 217.869 55.1579 217.721 58.6961 218.093V218.017C59.5055 242.538 64.6459 263.762 72.9199 281.6Z" fill="url(#paint2_linear_598_4732)"/>
<path d="M86.7609 254.946C87.3296 263.723 88.3905 270.433 89.6756 276.372C90.9607 282.311 91.6006 287.435 94.652 292.614C97.698 297.793 97.6488 303.764 103.992 310.048C102.182 308.347 101.302 307.466 99.5902 305.645C93.4763 299.865 92.0982 294.112 88.7897 288.698C85.4812 283.284 83.0532 278.472 81.0353 273.359C79.0173 268.246 77.3002 263.078 75.8456 257.686C74.3909 252.294 73.1769 246.683 72.2472 240.624C71.3176 234.565 71.1371 228.899 70.552 222.599C69.9668 216.3 68.1075 209.311 72.2035 203.191C73.7183 205.127 74.7683 206.09 77.3276 208.25C73.68 214.429 75.5175 221.2 76.1463 227.199C76.7752 233.198 76.8901 238.415 77.7268 244.31C78.5689 250.205 79.6626 255.876 81.1392 261.738C82.6157 267.595 84.4695 273.649 86.9905 280.096C87.0452 280.14 87.0726 280.162 87.1273 280.206C85.3445 274.371 84.218 268.88 83.4524 263.559C82.6868 258.238 82.2876 253.087 82.1563 247.728C82.0251 242.368 82.6266 237.687 82.8071 232.273C82.9875 226.859 81.8884 220.516 85.782 214.872C87.1546 215.89 87.8655 216.393 89.3639 217.393C86.4492 223.524 88.1007 230.277 88.7405 236.298C89.3803 242.319 89.5334 247.564 90.3537 253.431C91.1685 259.294 92.2185 264.943 93.6075 270.789C95.002 276.635 96.741 282.677 99.0816 289.136C99.1308 289.169 99.1581 289.185 99.2074 289.218C97.5394 283.197 96.4129 277.52 95.5817 272.008C94.7505 266.496 94.2145 261.137 93.8864 255.559C93.5583 249.981 93.8591 244.982 93.6896 239.208C93.52 233.433 92.5029 226.931 95.4614 221.074C97.709 222.299 98.9066 222.9 101.504 224.06C98.3433 231.021 99.8636 239.164 99.7597 246.251C99.6558 253.338 99.6995 260.01 100.219 266.43C100.739 272.85 101.526 278.773 102.609 284.509C103.692 290.246 104.178 295.786 107.027 301.331C109.877 306.876 109.991 313.203 115.427 319.377C113.453 317.988 112.485 317.266 110.587 315.757C105.474 310.452 104.255 305.602 101.898 300.789C99.5409 295.977 97.1676 291.958 95.4723 287.523C93.7825 283.082 92.2459 278.456 90.8021 273.211C89.3584 267.967 88.0132 262.105 86.8866 255.034C86.832 254.995 86.8101 254.979 86.7609 254.946Z" fill="url(#paint3_linear_598_4732)"/>
<path d="M132.828 314.062C135.382 321.242 134.338 325.026 138.548 331.621C132.156 329.204 129.049 327.738 123.122 324.304C117.74 317.818 117.308 311.229 114.29 305.405C111.271 299.581 110.467 293.789 109.089 287.812C107.711 281.835 106.595 275.694 105.71 269.044C104.824 262.394 104.364 255.493 104.009 248.149C103.653 240.804 101.69 232.41 104.146 225.192C107.738 226.674 110.79 227.718 114.066 228.73C117.341 229.736 120.814 230.709 126.113 231.891C124.549 239.404 125.736 244.528 125.982 253.672C119.507 252.119 116.608 251.266 111.309 249.434C111.545 253.82 111.517 256.674 111.78 260.136C112.037 263.597 112.343 266.999 112.857 271.374C117.686 273.162 120.278 273.993 125.921 275.503C126.583 283.744 127.037 287.648 128.158 295.025C122.985 293.516 120.568 292.685 116.001 290.875C117.675 298.903 118.036 302.528 121.257 309.665C125.67 311.601 127.978 312.487 132.828 314.062Z" fill="url(#paint4_linear_598_4732)"/>
<path d="M155.939 319.612C157.032 326.776 155.605 330.478 157.956 336.975C151.476 335.81 148.228 334.979 141.917 332.83C138.166 326.426 138.499 319.929 136.531 314.094C134.562 308.254 134.398 302.446 133.681 296.453C132.965 290.459 132.424 284.291 132.035 277.624C131.647 270.953 131.581 263.986 131.56 256.494C131.538 249.002 130.46 240.433 131.871 233.094C136.126 233.914 138.39 234.297 143.262 235.013C141.972 242.319 142.568 250.637 142.349 257.872C142.13 265.107 141.868 271.74 141.928 278.319C141.988 284.898 142.18 291.165 142.541 297.557C142.901 303.95 142.912 310.365 144.52 317.299C149.595 318.464 151.498 318.863 155.939 319.612Z" fill="url(#paint5_linear_598_4732)"/>
<path d="M170.879 339.933C167.204 339.726 163.698 336.231 161.172 327.93C159.909 323.779 158.356 318.912 157.601 313.05C156.846 307.193 156.42 300.193 156.469 291.706C156.518 283.241 157.213 274.742 158.235 267.95C159.258 261.158 160.8 254.875 161.681 249.828C163.447 239.727 168.002 236.479 172.421 236.862C174.882 237.075 177.2 238.737 179.552 242.079C181.903 245.414 183.385 250.888 184.539 257.965C185.113 261.503 184.725 265.49 185.502 269.115C186.278 272.741 185.491 277.149 185.288 281.441C182.221 281.376 180.7 281.31 177.676 281.135C177.786 274.606 177.414 269.252 176.457 265.101C175.494 260.951 174.061 258.763 172.339 258.616C170.19 258.43 166.919 262.121 166.821 267.661C166.772 270.428 165.366 274.382 164.923 278.631C164.48 282.88 164.202 287.588 164.103 292.625C164.005 297.738 164.103 302.096 164.371 305.826C164.639 309.555 165.066 312.662 165.629 315.237C166.761 320.383 168.598 322.866 170.501 323.003C172.016 323.112 172.984 321.729 174.138 318.786C175.292 315.85 176.123 311.726 176.599 306.105C179.47 306.236 180.908 306.274 183.806 306.285C183.336 311.929 182.33 316.692 181.805 320.777C181.275 324.862 180.033 328.575 178.786 331.577C176.298 337.593 174.034 340.108 170.879 339.933Z" fill="url(#paint6_linear_598_4732)"/>
<path d="M194.033 252.026C196.734 241.154 199.687 237.715 204.664 237.387C209.64 237.058 215.377 239.809 218.384 250.314C219.888 255.564 220.796 261.804 220.555 268.59C220.315 275.377 219.861 283.312 218.548 291.329C217.23 299.346 215.502 306.001 213.577 311.623C211.658 317.25 209.81 321.914 207.65 325.923C203.324 333.94 199.884 337.702 196.22 338.369C192.545 339.042 189.898 336.33 188.471 328.712C187.755 324.906 186.94 320.329 186.798 314.707C186.656 309.091 186.842 302.331 187.399 294.129C187.957 285.926 188.548 277.663 190.079 270.772C191.605 263.876 192.682 257.462 194.033 252.026ZM210.821 268.443C209.23 262.586 208.098 259.217 205.714 259.381C203.329 259.545 200.546 263.198 199.49 269.23C198.965 272.243 197.697 276.11 197.04 280.299C196.39 284.482 195.859 289.07 195.427 293.943C194.569 303.633 194.443 310.507 195.028 315.341C195.613 320.175 197.035 322.275 199.015 322.018C200.983 321.761 202.782 319.268 204.921 314.198C205.993 311.661 206.993 308.659 207.901 305.099C208.803 301.538 209.607 297.426 210.247 292.636C210.892 287.823 211.248 283.312 211.319 279.221C211.39 275.125 211.614 271.374 210.821 268.443Z" fill="url(#paint7_linear_598_4732)"/>
<path d="M236.474 321.329C234.544 322.587 233.56 323.183 231.58 324.326C234.659 318.682 237.743 313.34 239.914 308.155C242.085 302.966 244.223 297.798 246.143 291.832C248.062 285.866 249.927 279.123 251.672 270.296C251.611 270.318 251.579 270.329 251.518 270.346C248.768 279.369 246.165 286.314 243.616 292.483C241.068 298.651 238.361 304.043 235.774 309.473C233.182 314.904 229.792 320.689 226.286 326.65C224.958 327.306 224.29 327.624 222.951 328.231C224.739 322.932 226.587 317.583 227.582 312.574C228.578 307.565 229.841 302.528 230.771 296.71C231.7 290.891 232.203 284.378 232.504 275.803C232.428 275.82 232.389 275.831 232.313 275.847C230.858 284.848 229.36 291.739 227.839 297.847C226.319 303.956 224.52 309.255 222.989 314.587C221.458 319.918 218.751 325.496 216.798 331.408C214.693 332.223 213.632 332.6 211.499 333.3C212.899 327.569 215.437 321.767 216.705 316.205C217.974 310.649 219.637 305.077 220.856 299.318C222.076 293.56 223.153 287.615 224.115 281.157C225.078 274.699 226.007 267.819 226.729 260.141C227.451 252.463 229.026 243.648 226.374 236.293C230.585 235.505 232.723 235.04 237.098 233.952C240.428 239.629 239.63 246.038 239.663 252.004C239.695 257.97 239.411 263.171 239.127 268.388C238.842 273.605 238.454 278.598 237.885 283.727C237.317 288.851 236.578 294.112 235.49 299.674C235.55 299.652 235.583 299.641 235.643 299.624C238.109 293.604 240.133 287.971 241.905 282.519C243.676 277.067 245.202 271.8 246.613 266.321C248.024 260.847 249.408 255.356 250.561 249.089C251.715 242.822 253.821 236.162 251.557 230.091C255.33 228.987 257.337 228.369 261.269 227.007C265.458 234.231 262.844 243.025 261.81 250.67C260.777 258.315 259.448 265.058 257.944 271.33C256.44 277.602 254.723 283.372 252.738 288.939C250.753 294.506 248.369 299.882 245.831 305.224C243.294 310.567 239.887 315.992 236.474 321.329Z" fill="url(#paint8_linear_598_4732)"/>
<path d="M265.102 293.144C260.821 299.449 258.469 302.331 253.454 307.57C248.297 312.744 245.514 315.062 239.712 319.147C243.43 313.854 246.99 308.484 249.73 303.168C252.47 297.853 254.98 292.504 257.096 286.959C259.213 281.414 261.039 275.672 262.647 269.421C264.255 263.171 265.666 256.439 266.77 248.805C267.875 241.165 270.664 232.377 266.3 225.164C275.307 221.659 279.9 219.543 285.21 214.572C287.983 218.257 287.967 220.762 287.666 224.508C287.365 228.254 286.982 231.923 286.271 236.643C282.591 239.738 280.174 241.149 274.995 243.692C274.322 248.247 273.672 251.512 272.983 254.766C272.294 258.019 271.55 261.208 270.412 265.293C275.083 262.876 277.286 261.552 280.918 258.676C278.626 266.31 277.254 269.903 274.142 276.635C270.571 279.549 268.498 280.895 264.14 283.372C261.023 290.754 259.207 294.167 255.429 300.499C259.563 297.782 261.548 296.311 265.102 293.144Z" fill="url(#paint9_linear_598_4732)"/>
<path d="M127.36 225.465C126.966 222.824 125.801 212.756 131.855 203.64C136.695 196.345 143.601 193.742 156.89 188.875C168.997 184.445 175.735 181.979 184.495 181.815C205.632 181.416 221.469 194.737 227.293 200.217C214.753 217.071 201.76 228.145 192.201 235.095C175.117 247.514 163.179 256.1 149.83 252.431C138.499 249.308 129.219 237.89 127.36 225.465Z" fill="url(#paint10_linear_598_4732)"/>
<path d="M69.5841 174.749C67.0029 178.041 67.8286 182.553 69.5841 191.439C72.2199 204.794 77.9619 233.887 99.7543 241.515C101.663 242.182 113.294 246.257 123.504 240.23C135.158 233.356 136.219 218.493 136.345 215.195C136.777 203.82 131.22 195.53 129.285 192.725C114.148 170.801 77.9073 164.129 69.5841 174.749Z" fill="url(#paint11_linear_598_4732)"/>
<path opacity="0.31" d="M194.126 233.673C176.243 245.972 158.804 248.86 149.83 241.586C149.387 241.231 145.165 237.704 144.126 231.885C141.758 218.646 157.36 201.846 182.931 190.515C181.712 189.99 172.951 186.365 162.315 186.901C160.625 187.508 158.826 188.164 156.895 188.875C149.365 191.631 143.886 193.665 139.669 196.235C136.919 198.822 134.786 201.726 133.124 204.766C134.485 207.162 135.557 209.737 136.334 212.406C136.377 213.314 136.383 214.243 136.35 215.2C136.252 217.732 135.601 227.084 130.028 234.406C133.944 243.046 141.31 250.09 149.836 252.436C163.184 256.111 175.117 247.525 192.206 235.101C192.83 234.636 193.469 234.165 194.126 233.673Z" fill="#EA6124"/>
<path opacity="0.31" d="M133.124 204.761C131.959 202.716 130.592 200.796 129.006 199.074C117.079 186.113 93.8263 184.686 77.076 198.789C79.7228 213.281 85.0602 218.421 89.3421 220.472C99.1855 225.192 109.931 216.737 117.019 223.327C119.747 225.859 121.727 230.43 120.442 233.881C119.638 236.036 117.724 237.326 114.738 238.732C110.314 240.815 106.267 241.882 103.046 242.494C107.645 243.621 115.963 244.687 123.515 240.23C126.217 238.633 128.344 236.61 130.028 234.395C128.782 231.65 127.89 228.741 127.414 225.771C127.994 219.482 129.307 211.761 133.124 204.761Z" fill="#EA6124"/>
<path opacity="0.31" d="M136.334 212.401C135.552 209.737 134.48 207.156 133.124 204.761C129.306 211.761 127.994 219.482 127.414 225.771C127.89 228.741 128.782 231.65 130.028 234.395C135.601 227.078 136.257 217.727 136.35 215.19C136.388 214.238 136.377 213.308 136.334 212.401Z" fill="#EA6124"/>
<path opacity="0.31" d="M136.334 212.401C135.552 209.737 134.48 207.156 133.124 204.761C129.306 211.761 127.994 219.482 127.414 225.771C127.89 228.741 128.782 231.65 130.028 234.395C135.601 227.078 136.257 217.727 136.35 215.19C136.388 214.238 136.377 213.308 136.334 212.401Z" fill="#EA6124"/>
<path d="M225.701 157.671C226.035 155.981 226.024 154.308 225.641 152.656L216.126 152.503C216.087 152.481 216.044 152.454 216.005 152.432L216.213 152.345C216.137 152.301 216.06 152.252 215.989 152.208L216.197 152.12C216.12 152.077 216.044 152.027 215.973 151.984L216.18 151.896C216.104 151.852 216.027 151.803 215.956 151.759L216.164 151.672C216.087 151.628 216.011 151.579 215.94 151.535L216.148 151.448C216.071 151.404 215.994 151.355 215.923 151.311L216.131 151.223C216.055 151.18 215.978 151.131 215.907 151.087L216.115 150.999C216.038 150.956 215.962 150.906 215.891 150.863L216.098 150.775C216.022 150.731 215.945 150.682 215.874 150.638L216.082 150.551C216.005 150.507 215.929 150.458 215.858 150.414L216.066 150.327C215.989 150.283 215.912 150.234 215.841 150.19L216.049 150.102C215.973 150.059 215.896 150.009 215.825 149.966L216.033 149.878C215.956 149.834 215.88 149.785 215.809 149.742L216.016 149.654C215.94 149.61 215.863 149.561 215.792 149.517L216 149.43C215.923 149.386 215.847 149.337 215.776 149.293L215.984 149.206C215.907 149.162 215.83 149.113 215.759 149.069L215.967 148.981C215.891 148.938 215.814 148.888 215.743 148.845L215.951 148.757C215.874 148.713 215.798 148.664 215.727 148.62L215.934 148.533C215.858 148.489 215.781 148.44 215.71 148.396L215.918 148.309C215.841 148.265 215.765 148.216 215.694 148.172L215.902 148.085C215.825 148.041 215.748 147.992 215.677 147.948L215.885 147.86C215.809 147.817 215.732 147.767 215.661 147.724L215.869 147.636C215.792 147.592 215.716 147.543 215.644 147.499L215.852 147.412C215.776 147.368 215.699 147.319 215.628 147.275L215.836 147.188C215.759 147.144 215.683 147.095 215.612 147.051L215.819 146.963C215.743 146.92 215.666 146.87 215.595 146.827L215.803 146.739C215.727 146.695 215.65 146.646 215.579 146.603L215.787 146.515C215.71 146.471 215.634 146.422 215.562 146.378L215.77 146.291C215.694 146.247 215.617 146.198 215.546 146.154L215.754 146.067C215.677 146.023 215.601 145.974 215.53 145.93L215.737 145.842C215.661 145.799 215.584 145.749 215.513 145.706L215.721 145.618C215.644 145.574 215.568 145.525 215.497 145.481L215.705 145.394C215.628 145.35 215.552 145.301 215.48 145.257L215.688 145.17C215.612 145.126 215.535 145.077 215.464 145.033L215.672 144.946C215.595 144.902 215.519 144.853 215.448 144.809L215.655 144.721C215.579 144.678 215.502 144.628 215.431 144.585L215.639 144.497C215.562 144.453 215.486 144.404 215.415 144.36L215.623 144.273C215.546 144.229 215.469 144.18 215.398 144.136L215.606 144.049C215.53 144.005 215.453 143.956 215.382 143.912L215.59 143.824C215.513 143.781 215.437 143.732 215.366 143.688L215.573 143.6C215.497 143.557 215.42 143.507 215.349 143.464L215.557 143.376C215.48 143.332 215.404 143.283 215.333 143.239L215.541 143.152C215.464 143.108 215.387 143.059 215.316 143.015L215.524 142.928C215.448 142.884 215.371 142.835 215.3 142.791L215.508 142.703C215.431 142.66 215.355 142.61 215.284 142.567L215.491 142.479C215.415 142.435 215.338 142.386 215.267 142.343L215.475 142.255C215.398 142.211 215.322 142.162 215.251 142.118L215.459 142.031C215.382 141.987 215.305 141.938 215.234 141.894L215.442 141.807C215.366 141.763 215.289 141.714 215.218 141.67L215.426 141.582C215.349 141.539 215.273 141.489 215.202 141.446L215.409 141.358C215.387 141.342 215.36 141.331 215.338 141.314L215.847 141.096C214.212 140.079 212.413 139.089 210.4 138.159C208.459 137.246 206.342 136.404 204.117 135.622L187.432 139.318L176.03 136.868L176.101 136.693C176.068 136.688 176.03 136.688 175.992 136.683L176.079 136.464C176.046 136.458 176.008 136.458 175.97 136.453L176.057 136.234C176.025 136.229 175.986 136.229 175.948 136.223L176.036 136.004C176.003 135.999 175.964 135.999 175.926 135.993L176.014 135.775C175.981 135.769 175.943 135.769 175.904 135.764L175.992 135.545C175.959 135.54 175.921 135.54 175.882 135.534L175.97 135.315C175.937 135.31 175.899 135.31 175.861 135.304L175.948 135.086C175.915 135.08 175.877 135.08 175.839 135.075L175.926 134.856C175.893 134.851 175.855 134.851 175.817 134.845L175.904 134.626C175.871 134.621 175.833 134.621 175.795 134.615L175.882 134.397C175.85 134.391 175.811 134.391 175.773 134.386L175.861 134.167C175.828 134.162 175.789 134.162 175.751 134.156L175.839 133.937C175.806 133.932 175.768 133.932 175.729 133.926L175.817 133.708C175.784 133.702 175.746 133.702 175.707 133.697L175.795 133.478C175.762 133.472 175.724 133.472 175.686 133.467L175.773 133.248C175.74 133.243 175.702 133.243 175.664 133.237L175.751 133.019C175.718 133.013 175.68 133.013 175.642 133.008L175.729 132.789C175.696 132.783 175.658 132.783 175.62 132.778L175.707 132.559C175.675 132.554 175.636 132.554 175.598 132.548L175.686 132.33C175.653 132.324 175.614 132.324 175.576 132.319L175.664 132.1C175.631 132.094 175.593 132.094 175.554 132.089L175.642 131.87C175.609 131.865 175.571 131.865 175.532 131.859L175.62 131.64C175.587 131.635 175.549 131.635 175.511 131.63L175.598 131.411C175.565 131.405 175.527 131.405 175.489 131.4L175.576 131.181C175.543 131.176 175.505 131.176 175.467 131.17L175.554 130.951C175.521 130.946 175.483 130.946 175.445 130.941L175.532 130.722C175.5 130.716 175.461 130.716 175.423 130.711L175.511 130.492L175.899 129.546C169.632 128.83 163.037 128.419 156.267 128.294L155.873 128.556C155.856 128.556 155.84 128.556 155.824 128.556L146.877 134.566L128.973 135.572L120.65 130.29C114.055 131.137 107.503 132.248 101.16 133.631L101.198 133.795C101.039 133.828 100.881 133.861 100.722 133.899L100.771 134.118C100.76 134.118 100.75 134.123 100.739 134.123L100.788 134.342C100.777 134.342 100.766 134.347 100.755 134.347L100.804 134.566C100.793 134.566 100.782 134.572 100.771 134.572L100.821 134.79C100.81 134.79 100.799 134.796 100.788 134.796L100.837 135.015C100.826 135.015 100.815 135.02 100.804 135.02L100.853 135.239C100.842 135.239 100.832 135.244 100.821 135.244L100.87 135.463C100.859 135.463 100.848 135.468 100.837 135.468L100.886 135.687C100.875 135.687 100.864 135.693 100.853 135.693L100.903 135.911C100.892 135.911 100.881 135.917 100.87 135.917L100.919 136.136C100.908 136.136 100.897 136.141 100.886 136.141L100.935 136.36C100.924 136.36 100.914 136.365 100.903 136.365L100.952 136.584C100.941 136.584 100.93 136.59 100.919 136.59L100.968 136.808C100.957 136.808 100.946 136.814 100.935 136.814L100.985 137.033C100.974 137.033 100.963 137.038 100.952 137.038L101.001 137.257C100.99 137.257 100.979 137.262 100.968 137.262L101.017 137.481C101.007 137.481 100.996 137.486 100.985 137.486L101.034 137.705C101.023 137.705 101.012 137.711 101.001 137.711L101.05 137.929C101.039 137.929 101.028 137.935 101.017 137.935L101.067 138.154C101.056 138.154 101.045 138.159 101.034 138.159L101.083 138.378C101.072 138.378 101.061 138.383 101.05 138.383L101.099 138.602C101.089 138.602 101.078 138.607 101.067 138.607L101.116 138.826C101.105 138.826 101.094 138.832 101.083 138.832L101.132 139.05C101.121 139.05 101.11 139.056 101.099 139.056L101.149 139.275C101.138 139.275 101.127 139.28 101.116 139.28L101.165 139.499C101.154 139.499 101.143 139.504 101.132 139.504L101.182 139.723C101.171 139.723 101.16 139.729 101.149 139.729L101.198 139.947C101.187 139.947 101.176 139.953 101.165 139.953L101.214 140.171C101.203 140.171 101.192 140.177 101.182 140.177L101.231 140.396C101.22 140.396 101.209 140.401 101.198 140.401L101.203 140.429L87.6686 144.623L71.498 142.72C70.5137 143.146 69.5622 143.578 68.6325 144.016C66.6638 144.847 64.7607 145.864 63.2131 146.767C62.3327 147.253 61.4851 147.745 60.6648 148.243C59.7898 148.763 58.9476 149.288 58.1492 149.818L58.3898 149.9C58.3187 149.949 58.2422 149.993 58.1656 150.042L58.4062 150.124C58.3351 150.174 58.2586 150.217 58.182 150.266L58.4226 150.349C58.3516 150.398 58.275 150.441 58.1984 150.491L58.439 150.573C58.368 150.622 58.2914 150.666 58.2148 150.715L58.4555 150.797C58.3844 150.846 58.3078 150.89 58.2312 150.939L58.4719 151.021C58.4008 151.07 58.3242 151.114 58.2477 151.163L58.4883 151.245C58.4172 151.295 58.3406 151.338 58.2641 151.388L58.5047 151.47C58.4336 151.519 58.357 151.563 58.2805 151.612L58.5211 151.694C58.45 151.743 58.3734 151.787 58.2969 151.836L58.5375 151.918C58.4664 151.967 58.3898 152.011 58.3133 152.06L58.5539 152.142C58.4828 152.191 58.4062 152.235 58.3297 152.284L58.5703 152.366C58.4992 152.416 58.4226 152.459 58.3461 152.509L58.5867 152.591C58.5156 152.64 58.4391 152.684 58.3625 152.733L58.6031 152.815C58.532 152.864 58.4555 152.908 58.3789 152.957L58.6195 153.039C58.5484 153.088 58.4719 153.132 58.3953 153.181L58.6359 153.263C58.5648 153.312 58.4883 153.356 58.4117 153.405L58.6523 153.487C58.5812 153.537 58.5047 153.58 58.4281 153.63L58.6687 153.712C58.5976 153.761 58.5211 153.805 58.4445 153.854L58.6851 153.936C58.614 153.985 58.5375 154.029 58.4609 154.078L58.7015 154.16C58.6304 154.209 58.5539 154.253 58.4773 154.302L58.7179 154.384C58.6469 154.434 58.5703 154.477 58.4937 154.527L58.7344 154.609C58.6633 154.658 58.5867 154.702 58.5101 154.751L58.7508 154.833C58.6797 154.882 58.6031 154.926 58.5265 154.975L58.7672 155.057C58.6961 155.106 58.6195 155.15 58.543 155.199L58.7836 155.281C58.7125 155.33 58.6359 155.374 58.5594 155.423L58.8 155.505C58.7289 155.555 58.6523 155.598 58.5758 155.648L58.8164 155.73C58.7453 155.779 58.6687 155.823 58.5922 155.872L58.8328 155.954C58.7617 156.003 58.6851 156.047 58.6086 156.096L58.8492 156.178C58.7781 156.227 58.7015 156.271 58.625 156.32L58.8656 156.402C58.7945 156.451 58.7179 156.495 58.6414 156.544L58.882 156.626C58.8109 156.676 58.7344 156.719 58.6578 156.769L58.8984 156.851C58.8273 156.9 58.7508 156.944 58.6742 156.993L58.9148 157.075C58.8437 157.124 58.7672 157.168 58.6906 157.217L58.9312 157.299C58.8601 157.348 58.7836 157.392 58.707 157.441L58.9476 157.523C58.8765 157.573 58.8 157.616 58.7234 157.665L58.964 157.748C58.8929 157.797 58.8164 157.84 58.7398 157.89L58.9804 157.972C58.9093 158.021 58.8328 158.065 58.7562 158.114L58.9968 158.196C58.9258 158.245 58.8492 158.289 58.7726 158.338L59.0133 158.42C58.9422 158.469 58.8656 158.513 58.789 158.562L59.0297 158.644C58.9586 158.694 58.882 158.737 58.8054 158.787L59.0461 158.869C58.975 158.918 58.8984 158.962 58.8218 159.011L59.0625 159.093C58.9914 159.142 58.9148 159.186 58.8383 159.235L59.0789 159.317C59.0078 159.366 58.9312 159.41 58.8547 159.459L59.0953 159.541C59.0242 159.59 58.9476 159.634 58.8711 159.683L59.1117 159.765C59.0406 159.815 58.964 159.858 58.8875 159.908L59.1281 159.99C59.057 160.039 58.9804 160.083 58.9039 160.132L59.1445 160.214C59.0734 160.263 58.9968 160.307 58.9203 160.356L59.1609 160.438C59.0898 160.487 59.0132 160.531 58.9367 160.58L59.1773 160.662C59.139 160.684 59.1007 160.711 59.0625 160.733L46.255 162.341C46.2222 162.412 46.1949 162.489 46.1675 162.56L45.8121 162.604C44.9535 164.682 44.6035 166.76 44.8059 168.81C44.8113 168.887 44.8168 168.964 44.8223 169.04C44.8277 169.117 44.8332 169.193 44.8387 169.27C44.8441 169.346 44.8496 169.423 44.8551 169.5C44.8605 169.576 44.866 169.653 44.8715 169.729C44.877 169.806 44.8824 169.882 44.8879 169.959C44.8934 170.035 44.8988 170.112 44.9043 170.189C44.9098 170.265 44.9152 170.342 44.9207 170.418C44.9262 170.495 44.9316 170.571 44.9371 170.648C44.9426 170.724 44.948 170.801 44.9535 170.878C44.959 170.954 44.9645 171.031 44.9699 171.107C44.9754 171.184 44.9809 171.26 44.9863 171.337C44.9918 171.414 44.9973 171.49 45.0027 171.567C45.0082 171.643 45.0137 171.72 45.0191 171.796C45.0246 171.873 45.0301 171.949 45.0355 172.026C45.041 172.103 45.0465 172.179 45.0519 172.256C45.0574 172.332 45.0629 172.409 45.0684 172.485C45.0738 172.562 45.0793 172.638 45.0848 172.715C45.0902 172.792 45.0957 172.868 45.1012 172.945C45.1066 173.021 45.1121 173.098 45.1176 173.174C45.123 173.251 45.1285 173.328 45.134 173.404C45.1394 173.481 45.1449 173.557 45.1504 173.634C45.1559 173.71 45.1613 173.787 45.1668 173.863C45.1723 173.94 45.1777 174.017 45.1832 174.093C45.1887 174.17 45.1941 174.246 45.1996 174.323C45.2051 174.399 45.2105 174.476 45.216 174.552C45.2215 174.629 45.2269 174.706 45.2324 174.782C45.2379 174.859 45.2434 174.935 45.2488 175.012C45.2543 175.088 45.2598 175.165 45.2652 175.242C45.2707 175.318 45.2762 175.395 45.2816 175.471C45.2871 175.548 45.2926 175.624 45.298 175.701C45.3035 175.777 45.309 175.854 45.3144 175.931C45.3199 176.007 45.3254 176.084 45.3308 176.16C45.3363 176.237 45.3418 176.313 45.3473 176.39C45.3527 176.466 45.3582 176.543 45.3637 176.62C45.3691 176.696 45.3746 176.773 45.3801 176.849C45.3855 176.926 45.391 177.002 45.3965 177.079C45.4019 177.156 45.4074 177.232 45.4129 177.309C45.4183 177.385 45.4238 177.462 45.4293 177.538C45.4348 177.615 45.4402 177.691 45.4457 177.768C45.4512 177.845 45.4566 177.921 45.4621 177.998C45.4676 178.074 45.473 178.151 45.4785 178.227C45.484 178.304 45.4894 178.38 45.4949 178.457C45.5004 178.534 45.5058 178.61 45.5113 178.687C45.5168 178.763 45.5222 178.84 45.5277 178.916C45.5332 178.993 45.5387 179.07 45.5441 179.146C45.5496 179.223 45.5551 179.299 45.5605 179.376C45.566 179.452 45.5715 179.529 45.5769 179.605C45.5824 179.682 45.5879 179.759 45.5933 179.835C45.5988 179.912 45.6043 179.988 45.6097 180.065C45.6152 180.141 45.6207 180.218 45.6262 180.294C45.6316 180.371 45.6371 180.448 45.6426 180.524C45.648 180.601 45.6535 180.677 45.659 180.754C45.6644 180.83 45.6699 180.907 45.6754 180.984C45.6808 181.06 45.6863 181.137 45.6918 181.213C45.6972 181.29 45.7027 181.366 45.7082 181.443C45.7137 181.519 45.7191 181.596 45.7246 181.673C45.7301 181.749 45.7355 181.826 45.741 181.902C45.7465 181.979 45.7519 182.055 45.7574 182.132C45.7629 182.208 45.7683 182.285 45.7738 182.362C45.7793 182.438 45.7847 182.515 45.7902 182.591C45.7957 182.668 45.8011 182.744 45.8066 182.821C45.8121 182.898 45.8176 182.974 45.823 183.051C45.8285 183.127 45.834 183.204 45.8394 183.28C45.8449 183.357 45.8504 183.433 45.8558 183.51C45.8613 183.587 45.8668 183.663 45.8722 183.74C45.8777 183.816 45.8832 183.893 45.8886 183.969C45.8941 184.046 45.8996 184.122 45.9051 184.199C45.9105 184.276 45.916 184.352 45.9215 184.429C45.9269 184.505 45.9324 184.582 45.9379 184.658C45.9433 184.735 45.9488 184.812 45.9543 184.888C45.9597 184.965 45.9652 185.041 45.9707 185.118C45.9761 185.194 45.9816 185.271 45.9871 185.347C45.9925 185.424 45.998 185.501 46.0035 185.577C46.009 185.654 46.0144 185.73 46.0199 185.807C46.0254 185.883 46.0308 185.96 46.0363 186.037C46.0418 186.113 46.0472 186.19 46.0527 186.266C46.0582 186.343 46.0636 186.419 46.0691 186.496C46.0746 186.572 46.08 186.649 46.0855 186.726C46.091 186.802 46.0965 186.879 46.1019 186.955C46.1074 187.032 46.1129 187.108 46.1183 187.185C46.1238 187.261 46.1293 187.338 46.1347 187.415C46.1402 187.491 46.1457 187.568 46.1511 187.644C46.1566 187.721 46.1621 187.797 46.1675 187.874C46.173 187.951 46.1785 188.027 46.1839 188.104C46.1894 188.18 46.1949 188.257 46.2004 188.333C46.2058 188.41 46.2113 188.486 46.2168 188.563C46.2222 188.64 46.2277 188.716 46.2332 188.793C46.2386 188.869 46.2441 188.946 46.2496 189.022C46.255 189.099 46.2605 189.175 46.266 189.252C46.2714 189.329 46.2769 189.405 46.2824 189.482C46.2879 189.558 46.2933 189.635 46.2988 189.711C46.3043 189.788 46.3097 189.865 46.3152 189.941C46.3207 190.018 46.3261 190.094 46.3316 190.171C46.3371 190.247 46.3425 190.324 46.348 190.4C46.3535 190.477 46.3589 190.554 46.3644 190.63C46.3699 190.707 46.3753 190.783 46.3808 190.86C46.3863 190.936 46.3918 191.013 46.3972 191.089C46.4027 191.166 46.4082 191.243 46.4136 191.319C46.4191 191.396 46.4246 191.472 46.43 191.549C46.4355 191.625 46.441 191.702 46.4464 191.779C46.4902 192.325 46.5722 192.872 46.6925 193.419L55.5407 193.578C55.6063 193.621 55.6774 193.665 55.743 193.703L55.5352 193.791C55.6063 193.84 55.6829 193.884 55.7594 193.928L55.5516 194.015C55.6227 194.064 55.6993 194.108 55.7758 194.152L55.568 194.239C55.6391 194.289 55.7157 194.332 55.7923 194.376L55.5844 194.464C55.6555 194.513 55.7321 194.557 55.8087 194.6L55.6009 194.688C55.6719 194.737 55.7485 194.781 55.8251 194.825L55.6173 194.912C55.6883 194.961 55.7649 195.005 55.8415 195.049L55.6337 195.136C55.7048 195.185 55.7813 195.229 55.8579 195.273L55.6501 195.36C55.7212 195.41 55.7977 195.453 55.8743 195.497L55.6665 195.585C55.7376 195.634 55.8141 195.678 55.8907 195.721L55.6829 195.809C55.754 195.858 55.8305 195.902 55.9071 195.946L55.6993 196.033C55.7704 196.082 55.8469 196.126 55.9235 196.17L55.7157 196.257C55.7868 196.307 55.8633 196.35 55.9399 196.394L55.7321 196.482C55.8032 196.531 55.8798 196.574 55.9563 196.618L55.7485 196.706C55.8196 196.755 55.8962 196.799 55.9727 196.842L55.7649 196.93C55.836 196.979 55.9126 197.023 55.9891 197.067L55.7813 197.154C55.8524 197.203 55.929 197.247 56.0055 197.291L55.7977 197.378C55.8688 197.428 55.9454 197.471 56.0219 197.515L55.8141 197.603C55.8852 197.652 55.9618 197.696 56.0383 197.739L55.8305 197.827C55.9016 197.876 55.9782 197.92 56.0547 197.963L55.8469 198.051C55.918 198.1 55.9946 198.144 56.0712 198.188L55.8633 198.275C55.9344 198.324 56.011 198.368 56.0876 198.412L55.8798 198.499C55.9508 198.549 56.0274 198.592 56.104 198.636L55.8962 198.724C55.9672 198.773 56.0438 198.817 56.1204 198.86L55.9126 198.948C55.9837 198.997 56.0602 199.041 56.1368 199.085L55.929 199.172C56.0001 199.221 56.0766 199.265 56.1532 199.309L55.9454 199.396C56.0165 199.445 56.093 199.489 56.1696 199.533L55.9618 199.62C56.0329 199.67 56.1094 199.713 56.186 199.757L55.9782 199.845C56.0493 199.894 56.1258 199.938 56.2024 199.981L55.9946 200.069C56.0657 200.118 56.1422 200.162 56.2188 200.206L56.011 200.293C56.0821 200.342 56.1587 200.386 56.2352 200.43L56.0274 200.517C56.0985 200.567 56.1751 200.61 56.2516 200.654L56.0438 200.742C56.1149 200.791 56.1915 200.834 56.268 200.878L56.0602 200.966C56.1313 201.015 56.2079 201.059 56.2844 201.102L56.0766 201.19C56.1477 201.239 56.2243 201.283 56.3008 201.327L56.093 201.414C56.1641 201.463 56.2407 201.507 56.3172 201.551L56.1094 201.638C56.1805 201.688 56.2571 201.731 56.3336 201.775L56.1258 201.863C56.1969 201.912 56.2735 201.956 56.35 201.999L56.1422 202.087C56.2133 202.136 56.2899 202.18 56.3665 202.224L56.1587 202.311C56.2297 202.36 56.3063 202.404 56.3829 202.448L56.1751 202.535C56.2461 202.584 56.3227 202.628 56.3993 202.672L56.1915 202.759C56.2626 202.809 56.3391 202.852 56.4157 202.896L56.2079 202.984C56.279 203.033 56.3555 203.077 56.4321 203.12L56.2243 203.208C56.2954 203.257 56.3719 203.301 56.4485 203.345L56.2407 203.432C56.3118 203.481 56.3883 203.525 56.4649 203.569L56.2571 203.656C56.3282 203.706 56.4047 203.749 56.4813 203.793L56.2735 203.881C56.3446 203.93 56.4211 203.973 56.4977 204.017L56.2899 204.105C56.361 204.154 56.4375 204.198 56.5141 204.241L56.3063 204.329C56.3774 204.378 56.454 204.422 56.5305 204.466L56.3227 204.553C56.3938 204.602 56.4704 204.646 56.5469 204.69L56.3391 204.777C56.4102 204.827 56.4868 204.87 56.5633 204.914L56.3555 205.002C57.9961 206.046 59.8281 207.063 61.9061 208.031C63.8201 208.912 65.849 209.732 67.9872 210.497L84.7047 206.817L95.4942 209.152L95.4395 209.278C95.4778 209.283 95.5106 209.283 95.5489 209.289L95.4559 209.508C95.4942 209.513 95.527 209.513 95.5653 209.519L95.4723 209.737C95.5106 209.743 95.5434 209.743 95.5817 209.748L95.4887 209.967C95.527 209.973 95.5598 209.973 95.5981 209.978L95.5051 210.197C95.5434 210.202 95.5762 210.202 95.6145 210.208L95.5215 210.426C95.5598 210.432 95.5926 210.432 95.6309 210.437L95.5379 210.656C95.5762 210.662 95.609 210.662 95.6473 210.667L95.5543 210.886C95.5926 210.891 95.6254 210.891 95.6637 210.897L95.5707 211.115C95.609 211.121 95.6418 211.121 95.6801 211.126L95.5872 211.345C95.6254 211.351 95.6582 211.351 95.6965 211.356L95.6036 211.575C95.6418 211.58 95.6747 211.58 95.7129 211.586L95.62 211.804C95.6583 211.81 95.6911 211.81 95.7293 211.815L95.6364 212.034C95.6747 212.04 95.7075 212.04 95.7457 212.045L95.6528 212.264C95.6911 212.269 95.7239 212.269 95.7621 212.275L95.6692 212.494C95.7075 212.499 95.7403 212.499 95.7786 212.504L95.6856 212.723C95.7239 212.729 95.7567 212.729 95.795 212.734L95.702 212.953C95.7403 212.958 95.7731 212.958 95.8114 212.964L95.7184 213.183C95.7567 213.188 95.7895 213.188 95.8278 213.194L95.7348 213.412C95.7731 213.418 95.8059 213.418 95.8442 213.423L95.7512 213.642C95.7895 213.647 95.8223 213.647 95.8606 213.653L95.7676 213.872C95.8059 213.877 95.8387 213.877 95.877 213.883L95.784 214.101C95.8223 214.107 95.8551 214.107 95.8934 214.112L95.8004 214.331C95.8387 214.336 95.8715 214.336 95.9098 214.342L95.8168 214.561C95.8551 214.566 95.8879 214.566 95.9262 214.572L95.8332 214.79C95.8715 214.796 95.9043 214.796 95.9426 214.801L95.8497 215.02C95.8879 215.025 95.9207 215.025 95.959 215.031L95.8661 215.25C95.9043 215.255 95.9371 215.255 95.9754 215.261L95.8825 215.479C95.9207 215.485 95.9536 215.485 95.9918 215.49L95.8989 215.709C95.9371 215.715 95.97 215.715 96.0082 215.72L95.9153 215.939C95.9536 215.944 95.9864 215.944 96.0246 215.95L95.9317 216.168C95.97 216.174 96.0028 216.174 96.041 216.179L95.9481 216.398C95.9864 216.404 96.0192 216.404 96.0574 216.409L95.9645 216.628C102.248 217.339 108.854 217.776 115.635 217.902L125.019 211.635L142.978 210.645L151.235 215.95C158.049 215.075 164.798 213.937 171.322 212.504L171.267 212.286C171.278 212.286 171.289 212.28 171.305 212.28L171.251 212.062C171.261 212.062 171.272 212.056 171.289 212.056L171.234 211.837C171.245 211.837 171.256 211.832 171.272 211.832L171.218 211.613C171.229 211.613 171.24 211.608 171.256 211.608L171.201 211.389C171.212 211.389 171.223 211.383 171.24 211.383L171.185 211.165C171.196 211.165 171.207 211.159 171.223 211.159L171.168 210.94C171.179 210.94 171.19 210.935 171.207 210.935L171.152 210.716C171.163 210.716 171.174 210.711 171.19 210.711L171.136 210.492C171.147 210.492 171.158 210.487 171.174 210.487L171.119 210.268C171.13 210.268 171.141 210.262 171.158 210.262L171.103 210.044C171.114 210.044 171.125 210.038 171.141 210.038L171.086 209.819C171.097 209.819 171.108 209.814 171.125 209.814L171.07 209.595C171.081 209.595 171.092 209.59 171.108 209.59L171.054 209.371C171.065 209.371 171.076 209.365 171.092 209.365L171.037 209.147C171.048 209.147 171.059 209.141 171.076 209.141L171.021 208.923C171.032 208.923 171.043 208.917 171.059 208.917L171.004 208.698C171.015 208.698 171.026 208.693 171.043 208.693L170.988 208.474C170.999 208.474 171.01 208.469 171.026 208.469L170.972 208.25C170.983 208.25 170.993 208.244 171.01 208.244L170.955 208.026C170.966 208.026 170.977 208.02 170.993 208.02L170.939 207.801C170.95 207.801 170.961 207.796 170.977 207.796L170.922 207.577C170.933 207.577 170.944 207.572 170.961 207.572L170.906 207.353C170.917 207.353 170.928 207.348 170.944 207.348L170.89 207.129C170.901 207.129 170.911 207.123 170.928 207.123L170.873 206.905C170.884 206.905 170.895 206.899 170.911 206.899L170.857 206.68C170.868 206.68 170.879 206.675 170.895 206.675L170.84 206.456C170.851 206.456 170.862 206.451 170.879 206.451L170.824 206.232C170.835 206.232 170.846 206.227 170.862 206.227L170.808 206.008C170.818 206.008 170.829 206.002 170.846 206.002L170.808 205.838L184.714 201.502L200.896 203.388C205.867 201.217 210.16 198.921 213.752 196.536L213.512 196.454C213.583 196.405 213.659 196.356 213.73 196.312L213.49 196.23C213.561 196.181 213.638 196.132 213.709 196.088L213.468 196.006C213.539 195.957 213.616 195.907 213.687 195.864L213.446 195.782C213.517 195.732 213.594 195.683 213.665 195.639L213.424 195.557C213.495 195.508 213.572 195.459 213.643 195.415L213.402 195.333C213.473 195.284 213.55 195.235 213.621 195.191L213.38 195.109C213.452 195.06 213.528 195.01 213.599 194.967L213.359 194.885C213.43 194.835 213.506 194.786 213.577 194.742L213.337 194.66C213.408 194.611 213.484 194.562 213.555 194.518L213.315 194.436C213.386 194.387 213.463 194.338 213.534 194.294L213.293 194.212C213.364 194.163 213.441 194.114 213.512 194.07L213.271 193.988C213.342 193.939 213.419 193.889 213.49 193.846L213.249 193.764C213.32 193.714 213.397 193.665 213.468 193.621L213.227 193.539C213.298 193.49 213.375 193.441 213.446 193.397L213.206 193.315C213.277 193.266 213.353 193.217 213.424 193.173L213.184 193.091C213.255 193.042 213.331 192.993 213.402 192.949L213.162 192.867C213.233 192.818 213.309 192.768 213.38 192.725L213.14 192.643C213.211 192.593 213.288 192.544 213.359 192.5L213.118 192.418C213.189 192.369 213.266 192.32 213.337 192.276L213.096 192.194C213.167 192.145 213.244 192.096 213.315 192.052L213.074 191.97C213.145 191.921 213.222 191.871 213.293 191.828L213.052 191.746C213.123 191.696 213.2 191.647 213.271 191.604L213.031 191.521C213.102 191.472 213.178 191.423 213.249 191.379L213.009 191.297C213.08 191.248 213.156 191.199 213.227 191.155L212.987 191.073C213.058 191.024 213.134 190.975 213.206 190.931L212.965 190.849C213.036 190.8 213.113 190.75 213.184 190.707L212.943 190.625C213.014 190.575 213.091 190.526 213.162 190.482L212.921 190.4C212.992 190.351 213.069 190.302 213.14 190.258L212.899 190.176C212.97 190.127 213.047 190.078 213.118 190.034L212.877 189.952C212.948 189.903 213.025 189.854 213.096 189.81L212.856 189.728C212.927 189.679 213.003 189.629 213.074 189.586L212.834 189.504C212.905 189.454 212.981 189.405 213.052 189.361L212.812 189.279C212.883 189.23 212.959 189.181 213.031 189.137L212.79 189.055C212.861 189.006 212.938 188.957 213.009 188.913L212.768 188.831C212.839 188.782 212.916 188.733 212.987 188.689L212.746 188.607C212.817 188.558 212.894 188.508 212.965 188.465L212.724 188.383C212.795 188.333 212.872 188.284 212.943 188.24L212.702 188.158C212.773 188.109 212.85 188.06 212.921 188.016L212.681 187.934C212.752 187.885 212.828 187.836 212.899 187.792L212.659 187.71C212.73 187.661 212.806 187.611 212.877 187.568L212.637 187.486C212.708 187.436 212.784 187.387 212.856 187.343L212.615 187.261C212.686 187.212 212.763 187.163 212.834 187.119L212.593 187.037C212.664 186.988 212.741 186.939 212.812 186.895L212.571 186.813C212.642 186.764 212.719 186.715 212.79 186.671L212.549 186.589C212.62 186.54 212.697 186.49 212.768 186.447L212.527 186.365C212.598 186.315 212.675 186.266 212.746 186.222L212.506 186.14C212.577 186.091 212.653 186.042 212.724 185.998L212.484 185.916C212.555 185.867 212.631 185.818 212.702 185.774L212.462 185.692C212.533 185.643 212.609 185.594 212.681 185.55L212.44 185.468C212.467 185.451 212.5 185.429 212.527 185.413L225.696 183.751C226.5 181.76 226.839 179.775 226.686 177.823C226.68 177.746 226.675 177.67 226.669 177.593C226.664 177.516 226.658 177.44 226.653 177.363C226.647 177.287 226.642 177.21 226.636 177.134C226.631 177.057 226.625 176.981 226.62 176.904C226.614 176.827 226.609 176.751 226.604 176.674C226.598 176.598 226.593 176.521 226.587 176.445C226.582 176.368 226.576 176.291 226.571 176.215C226.565 176.138 226.56 176.062 226.554 175.985C226.549 175.909 226.543 175.832 226.538 175.756C226.532 175.679 226.527 175.602 226.522 175.526C226.516 175.449 226.511 175.373 226.505 175.296C226.5 175.22 226.494 175.143 226.489 175.067C226.483 174.99 226.478 174.913 226.472 174.837C226.467 174.76 226.461 174.684 226.456 174.607C226.45 174.531 226.445 174.454 226.439 174.377C226.434 174.301 226.429 174.224 226.423 174.148C226.418 174.071 226.412 173.995 226.407 173.918C226.401 173.842 226.396 173.765 226.39 173.688C226.385 173.612 226.379 173.535 226.374 173.459C226.368 173.382 226.363 173.306 226.357 173.229C226.352 173.153 226.347 173.076 226.341 172.999C226.336 172.923 226.33 172.846 226.325 172.77C226.319 172.693 226.314 172.617 226.308 172.54C226.303 172.463 226.297 172.387 226.292 172.31C226.286 172.234 226.281 172.157 226.275 172.081C226.27 172.004 226.264 171.928 226.259 171.851C226.254 171.774 226.248 171.698 226.243 171.621C226.237 171.545 226.232 171.468 226.226 171.392C226.221 171.315 226.215 171.239 226.21 171.162C226.204 171.085 226.199 171.009 226.193 170.932C226.188 170.856 226.182 170.779 226.177 170.703C226.172 170.626 226.166 170.549 226.161 170.473C226.155 170.396 226.15 170.32 226.144 170.243C226.139 170.167 226.133 170.09 226.128 170.014C226.122 169.937 226.117 169.86 226.111 169.784C226.106 169.707 226.1 169.631 226.095 169.554C226.089 169.478 226.084 169.401 226.079 169.325C226.073 169.248 226.068 169.171 226.062 169.095C226.057 169.018 226.051 168.942 226.046 168.865C226.04 168.789 226.035 168.712 226.029 168.635C226.024 168.559 226.018 168.482 226.013 168.406C226.007 168.329 226.002 168.253 225.997 168.176C225.991 168.1 225.986 168.023 225.98 167.946C225.975 167.87 225.969 167.793 225.964 167.717C225.958 167.64 225.953 167.564 225.947 167.487C225.942 167.41 225.936 167.334 225.931 167.257C225.925 167.181 225.92 167.104 225.914 167.028C225.909 166.951 225.904 166.875 225.898 166.798C225.893 166.721 225.887 166.645 225.882 166.568C225.876 166.492 225.871 166.415 225.865 166.339C225.86 166.262 225.854 166.186 225.849 166.109C225.843 166.032 225.838 165.956 225.832 165.879C225.827 165.803 225.822 165.726 225.816 165.65C225.811 165.573 225.805 165.496 225.8 165.42C225.794 165.343 225.789 165.267 225.783 165.19C225.778 165.114 225.772 165.037 225.767 164.961C225.761 164.884 225.756 164.807 225.75 164.731C225.745 164.654 225.74 164.578 225.734 164.501C225.729 164.425 225.723 164.348 225.718 164.272C225.712 164.195 225.707 164.118 225.701 164.042C225.696 163.965 225.69 163.889 225.685 163.812C225.679 163.736 225.674 163.659 225.668 163.582C225.663 163.506 225.657 163.429 225.652 163.353C225.647 163.276 225.641 163.2 225.636 163.123C225.63 163.047 225.625 162.97 225.619 162.893C225.614 162.817 225.608 162.74 225.603 162.664C225.597 162.587 225.592 162.511 225.586 162.434C225.581 162.358 225.575 162.281 225.57 162.204C225.565 162.128 225.559 162.051 225.554 161.975C225.548 161.898 225.543 161.822 225.537 161.745C225.532 161.668 225.526 161.592 225.521 161.515C225.515 161.439 225.51 161.362 225.504 161.286C225.499 161.209 225.493 161.133 225.488 161.056C225.482 160.979 225.477 160.903 225.472 160.826C225.466 160.75 225.461 160.673 225.455 160.597C225.45 160.52 225.444 160.444 225.439 160.367C225.433 160.29 225.428 160.214 225.422 160.137C225.417 160.061 225.411 159.984 225.406 159.908C225.4 159.831 225.395 159.754 225.39 159.678C225.384 159.601 225.379 159.525 225.373 159.448C225.368 159.372 225.362 159.295 225.357 159.219C225.351 159.142 225.346 159.065 225.34 158.989C225.335 158.912 225.329 158.836 225.324 158.759C225.318 158.683 225.313 158.606 225.307 158.53C225.302 158.453 225.297 158.376 225.291 158.3C225.286 158.223 225.28 158.147 225.275 158.07C225.269 157.994 225.264 157.917 225.258 157.84C225.707 157.758 225.701 157.715 225.701 157.671ZM124.232 176.177C119.638 175.996 115.471 175.515 111.812 174.799C121.743 171.266 135.234 169.226 148.332 169.735C152.953 169.91 157.142 170.385 160.816 171.107C150.869 174.64 137.378 176.685 124.232 176.177Z" fill="#462F7E"/>
<path d="M224.914 160.279C225.953 157.709 226.221 155.15 225.641 152.662L207.978 152.383L202.985 146.455L215.787 140.921C214.152 139.904 212.352 138.914 210.34 137.984C208.399 137.071 206.282 136.229 204.057 135.447L187.372 139.143L173.197 136.103L175.948 129.42C169.681 128.704 163.086 128.294 156.316 128.168L146.986 134.44L129.028 135.447L120.704 130.164C114.109 131.012 107.558 132.122 101.214 133.505L102.713 139.964L87.7616 144.596L71.591 142.692C70.6067 143.119 69.6551 143.551 68.7255 143.989C66.7568 144.82 64.8537 145.837 63.3061 146.739C61.6546 147.652 60.107 148.582 58.6797 149.528L70.5246 153.712L64.3123 160.252L46.4082 162.494C45.3473 165.054 45.0684 167.613 45.6316 170.112L63.2624 170.424L68.1731 176.357L55.3657 181.88C57.0063 182.925 58.8383 183.942 60.9163 184.91C62.8303 185.79 64.8592 186.611 66.9974 187.376L83.7149 183.696L97.8512 186.758L95.0184 193.452C101.302 194.163 107.908 194.6 114.689 194.726L124.073 188.459L142.032 187.469L150.289 192.774C157.103 191.899 163.852 190.761 170.376 189.329L168.817 182.87L183.724 178.216L199.906 180.103C204.877 177.932 209.17 175.635 212.763 173.251L200.879 169.084L207.015 162.538L224.914 160.279ZM146.97 146.455C168.5 147.27 180.766 154.609 174.461 162.811C168.183 171.003 145.745 177.008 124.226 176.177C102.784 175.329 90.4904 168.023 96.8176 159.82C103.041 151.617 125.528 145.629 146.97 146.455Z" fill="url(#paint12_linear_598_4732)"/>
<path d="M136.623 223.753C143.721 223.753 149.475 218 149.475 210.902C149.475 203.805 143.721 198.051 136.623 198.051C129.526 198.051 123.772 203.805 123.772 210.902C123.772 218 129.526 223.753 136.623 223.753Z" fill="url(#paint13_linear_598_4732)"/>
<path d="M136.941 226.668C128.262 227.346 120.655 220.839 119.977 212.16C119.299 203.481 125.807 195.874 134.485 195.196C143.164 194.518 150.771 201.026 151.449 209.705C152.127 218.378 145.619 225.99 136.941 226.668ZM134.912 200.649C129.241 201.092 124.986 206.062 125.429 211.733C125.872 217.404 130.843 221.659 136.514 221.216C142.185 220.773 146.44 215.802 145.997 210.131C145.554 204.46 140.583 200.206 134.912 200.649Z" fill="#EA6125"/>
<path d="M135.803 216.097C138.219 216.097 140.178 214.139 140.178 211.722C140.178 209.306 138.219 207.348 135.803 207.348C133.387 207.348 131.428 209.306 131.428 211.722C131.428 214.139 133.387 216.097 135.803 216.097Z" fill="#E86031"/>
<path d="M138.696 214.066L133.244 214.491L133.894 222.833L139.346 222.408L138.696 214.066Z" fill="#E86031"/>
<path d="M225.089 82.9646C224.733 79.5741 224.558 75.1992 224.362 70.179C223.503 48.6437 222.201 16.1002 203.488 1.82171C197.73 -2.71175 188.242 1.16548 173.635 14.0221C166.066 20.6829 159.329 27.8303 156.628 30.7724C153.762 30.5208 147.73 30.0068 140.096 29.4107C130.789 28.6834 121.011 29.8154 117.784 30.2474C114.733 30.6193 105.496 31.9263 97.1458 34.9176C90.4905 37.3019 85.2134 39.2432 82.5884 40.2112C79.794 38.2972 73.6801 34.2121 66.6858 30.2146C53.3479 22.6023 44.0404 19.3868 38.2054 20.3821C35.1211 20.9071 33.3985 22.5148 32.4907 23.7836C18.9341 42.1689 25.7042 73.9688 30.1884 95.0173C31.2384 99.9555 32.1571 104.254 32.6602 107.639C30.708 121.278 29.9095 146.171 45.3802 163.708C55.1744 174.815 70.213 181.645 90.0695 184.002C105.764 185.867 120.262 184.44 127.228 183.756C130.783 183.406 140.446 182.285 147.971 181.399C149.491 181.268 151.039 181.098 152.608 180.901C153.423 180.798 154.243 180.683 155.064 180.562C156.6 180.382 157.601 180.262 157.792 180.24L157.781 180.13C169.484 178.151 181.827 174.487 192.277 169.8C209.487 162.09 221.381 151.918 226.669 140.401C230.7 131.717 232.346 120.917 231.438 109.176C230.716 99.9117 228.408 90.4019 225.089 82.9646Z" fill="#FDE0D4"/>
<path d="M145.57 145.897C140.331 146.499 135.065 144.508 131.281 140.686C127.168 145.607 120.748 148.046 114.94 146.34C108.591 144.475 105.436 138.23 104.577 134.834C104.08 132.876 105.267 130.886 107.224 130.388C109.182 129.891 111.167 131.072 111.67 133.024C111.703 133.139 113.092 138.17 117.008 139.318C120.551 140.357 125.632 137.957 127.562 132.718C128.071 131.334 129.35 130.394 130.827 130.328C132.298 130.262 133.665 131.083 134.299 132.412C136.454 136.945 141.436 139.532 145.871 138.422C149.294 137.568 152.094 134.572 152.996 130.793C153.467 128.83 155.441 127.616 157.409 128.086C159.373 128.556 160.587 130.53 160.116 132.499C158.558 139.007 153.778 143.994 147.643 145.525C146.948 145.695 146.259 145.821 145.57 145.897Z" fill="url(#paint14_linear_598_4732)"/>
<path d="M131.313 134.183C130.608 134.265 129.881 134.14 129.224 133.806L118.812 128.469C117.587 127.84 116.822 126.582 116.822 125.204C116.822 123.831 117.598 122.574 118.823 121.95C122.203 120.233 125.987 119.21 129.766 118.986C133.643 118.756 137.619 119.369 141.255 120.747C142.519 121.228 143.415 122.366 143.585 123.711C143.755 125.056 143.169 126.38 142.059 127.162L132.992 133.544C132.489 133.899 131.91 134.118 131.313 134.183ZM130.57 126.27L130.592 126.281L130.613 126.265C130.603 126.27 130.586 126.27 130.57 126.27Z" fill="url(#paint15_linear_598_4732)"/>
<path d="M202.137 124.105C201.94 124.127 201.738 124.132 201.53 124.121L190.221 123.541C188.203 123.438 186.65 121.72 186.754 119.703C186.858 117.685 188.575 116.132 190.593 116.235L201.902 116.815C203.92 116.919 205.473 118.636 205.369 120.654C205.276 122.47 203.882 123.908 202.137 124.105Z" fill="url(#paint16_linear_598_4732)"/>
<path d="M195.482 136.945C195.115 136.989 194.738 136.972 194.361 136.901L184.988 135.058C183.002 134.67 181.712 132.745 182.1 130.76C182.488 128.775 184.413 127.484 186.398 127.873L195.772 129.716C197.757 130.104 199.047 132.029 198.659 134.014C198.342 135.616 197.024 136.77 195.482 136.945Z" fill="url(#paint17_linear_598_4732)"/>
<path d="M186.967 146.253C186.316 146.329 185.638 146.231 185.004 145.93L179.284 143.256C177.452 142.397 176.664 140.221 177.517 138.389C178.376 136.557 180.553 135.769 182.385 136.622L188.105 139.296C189.937 140.155 190.724 142.332 189.871 144.164C189.308 145.361 188.187 146.11 186.967 146.253Z" fill="url(#paint18_linear_598_4732)"/>
<path d="M62.9452 136.382C61.2007 136.584 59.5164 135.496 59.0133 133.757C58.4555 131.815 59.582 129.787 61.5233 129.229L72.4113 126.106C74.3526 125.548 76.3815 126.67 76.9393 128.616C77.4971 130.558 76.3705 132.587 74.4292 133.144L63.5412 136.267C63.3389 136.316 63.142 136.36 62.9452 136.382Z" fill="url(#paint19_linear_598_4732)"/>
<path d="M72.3293 147.385C70.7871 147.56 69.245 146.739 68.5778 145.246C67.7521 143.403 68.5724 141.238 70.4153 140.407L79.1322 136.491C80.9751 135.665 83.1407 136.486 83.9719 138.329C84.7977 140.171 83.9774 142.337 82.1345 143.168L73.4175 147.084C73.0621 147.242 72.6957 147.341 72.3293 147.385Z" fill="url(#paint20_linear_598_4732)"/>
<path d="M82.7305 154.521C81.511 154.663 80.2478 154.182 79.433 153.148C78.1861 151.557 78.4596 149.26 80.0509 148.008L85.0164 144.109C86.6078 142.862 88.9046 143.135 90.1569 144.727C91.4037 146.318 91.1303 148.615 89.5389 149.867L84.5735 153.766C84.0211 154.193 83.3813 154.444 82.7305 154.521Z" fill="url(#paint21_linear_598_4732)"/>
<path d="M51.1876 73.7555C48.6119 72.0821 48.0104 68.8392 47.037 63.5456C46.2386 59.2145 44.4613 49.5789 48.4916 47.2383C51.3845 45.5594 55.8797 48.4469 61.2334 51.8866C67.495 55.9115 72.0886 58.8591 72.1269 62.8402C72.198 69.9931 57.5531 77.8952 51.1876 73.7555Z" fill="url(#paint22_linear_598_4732)"/>
<path d="M195.498 55.2881C197.571 53.0186 197.336 49.732 196.947 44.3618C196.63 39.9706 195.925 30.1927 191.435 28.9459C188.209 28.049 184.588 31.9755 180.274 36.6566C175.226 42.1306 171.529 46.1391 172.492 49.9999C174.215 56.9396 190.38 60.8934 195.498 55.2881Z" fill="url(#paint23_linear_598_4732)"/>
<path d="M114.17 109.881C113.185 118.056 104.534 124.515 95.8224 124.488C87.4445 124.46 78.0276 118.428 77.2566 108.612C76.4855 98.7688 84.8743 91.0636 93.1319 90.0464C101.231 89.0511 107.17 94.7439 108.51 96.1111C109.724 97.3524 115.023 102.777 114.17 109.881Z" fill="#F68D64"/>
<path d="M97.2497 119.303C103.441 119.303 108.46 114.284 108.46 108.093C108.46 101.901 103.441 96.8821 97.2497 96.8821C91.0582 96.8821 86.0391 101.901 86.0391 108.093C86.0391 114.284 91.0582 119.303 97.2497 119.303Z" fill="url(#paint24_linear_598_4732)"/>
<path d="M90.4139 106.726C93.1321 106.726 95.3356 104.522 95.3356 101.804C95.3356 99.0857 93.1321 96.8821 90.4139 96.8821C87.6957 96.8821 85.4922 99.0857 85.4922 101.804C85.4922 104.522 87.6957 106.726 90.4139 106.726Z" fill="white"/>
<path d="M147.539 106.665C149.797 114.589 159.46 119.621 168.166 118.231C176.539 116.897 185.02 109.471 184.255 99.6492C183.489 89.8058 173.903 83.5005 165.476 83.7903C157.218 84.0747 152.165 90.6206 151.039 92.1791C150.032 93.5955 145.575 99.7805 147.539 106.665Z" fill="#F68D64"/>
<path d="M152.789 103.505C153.275 109.679 158.799 114.283 165.12 113.796C171.442 113.31 176.172 107.912 175.686 101.738C175.199 95.5642 169.676 90.9596 163.354 91.4463C157.032 91.9331 152.302 97.3305 152.789 103.505Z" fill="url(#paint25_linear_598_4732)"/>
<path d="M156.388 101.256C159.256 101.205 161.543 98.9612 161.495 96.2436C161.447 93.5259 159.083 91.3638 156.214 91.4143C153.346 91.4648 151.059 93.7088 151.107 96.4265C151.155 99.1441 153.519 101.306 156.388 101.256Z" fill="white"/>
<path d="M224.531 83.2325C224.176 79.842 224.001 75.4672 223.804 70.447C222.945 48.9117 221.644 16.3681 202.93 2.08967C197.172 -2.44379 187.684 1.43344 173.077 14.2901C165.509 20.9508 158.771 28.0983 156.07 31.0404C153.204 30.7888 147.172 30.2748 139.538 29.6787C130.231 28.9514 120.453 30.0834 117.226 30.5154C114.175 30.8872 104.938 32.1942 96.5879 35.1855C89.9327 37.5699 84.6555 39.5112 82.0306 40.4791C79.2361 38.5651 73.1222 34.4801 66.1279 30.4826C52.79 22.8703 43.4825 19.6548 37.6475 20.6446C34.5632 21.1696 32.8406 22.7773 31.9328 24.046C18.3762 42.4369 25.1463 74.2367 29.6306 95.2853C30.6805 100.223 31.5993 104.522 32.1024 107.907C30.1501 121.545 29.3517 146.438 44.8223 163.976C54.6165 175.083 69.6552 181.913 89.5116 184.27C105.206 186.135 119.704 184.708 126.671 184.024C130.225 183.674 139.888 182.553 147.413 181.667C148.933 181.536 150.481 181.366 152.05 181.169C152.865 181.066 153.685 180.951 154.506 180.83C156.042 180.65 157.043 180.53 157.235 180.508L157.224 180.398C168.926 178.419 181.269 174.755 191.719 170.068C208.929 162.358 220.823 152.186 226.111 140.669C230.142 131.985 231.788 121.185 230.88 109.443C230.158 100.18 227.85 90.6698 224.531 83.2325Z" fill="#FDE0D4"/>
<path d="M141.195 137.136C136.798 137.639 132.385 135.972 129.213 132.762C125.763 136.89 120.376 138.936 115.509 137.508C110.183 135.944 107.541 130.705 106.814 127.856C106.399 126.216 107.388 124.542 109.034 124.127C110.675 123.711 112.343 124.701 112.764 126.341C112.791 126.434 113.956 130.656 117.237 131.624C120.207 132.499 124.472 130.481 126.091 126.09C126.517 124.93 127.595 124.143 128.831 124.083C130.067 124.028 131.209 124.717 131.74 125.833C133.55 129.633 137.723 131.805 141.447 130.875C144.318 130.158 146.664 127.648 147.424 124.477C147.818 122.831 149.475 121.813 151.126 122.207C152.772 122.601 153.789 124.258 153.396 125.909C152.089 131.367 148.08 135.55 142.934 136.836C142.354 136.967 141.775 137.071 141.195 137.136Z" fill="url(#paint26_linear_598_4732)"/>
<path d="M129.241 127.315C128.65 127.38 128.038 127.277 127.491 126.998L118.758 122.519C117.729 121.994 117.084 120.933 117.09 119.785C117.09 118.631 117.74 117.575 118.768 117.056C121.601 115.618 124.778 114.759 127.95 114.568C131.204 114.376 134.534 114.885 137.586 116.044C138.647 116.449 139.401 117.406 139.544 118.532C139.686 119.659 139.194 120.774 138.264 121.425L130.663 126.779C130.225 127.074 129.738 127.255 129.241 127.315ZM128.617 120.676L128.639 120.687L128.656 120.676C128.645 120.676 128.628 120.676 128.617 120.676Z" fill="url(#paint27_linear_598_4732)"/>
<path d="M201.574 124.373C201.377 124.395 201.175 124.4 200.967 124.389L189.658 123.809C187.64 123.706 186.087 121.988 186.191 119.971C186.295 117.953 188.012 116.4 190.03 116.503L201.339 117.083C203.357 117.187 204.91 118.904 204.806 120.922C204.718 122.738 203.318 124.17 201.574 124.373Z" fill="url(#paint28_linear_598_4732)"/>
<path d="M194.924 137.213C194.558 137.257 194.18 137.24 193.803 137.169L184.43 135.326C182.445 134.938 181.154 133.013 181.542 131.028C181.931 129.043 183.856 127.752 185.841 128.141L195.214 129.983C197.199 130.372 198.489 132.297 198.101 134.282C197.779 135.884 196.466 137.038 194.924 137.213Z" fill="url(#paint29_linear_598_4732)"/>
<path d="M186.404 146.52C185.753 146.597 185.075 146.499 184.441 146.198L178.721 143.524C176.889 142.665 176.101 140.489 176.954 138.657C177.813 136.825 179.989 136.037 181.821 136.89L187.541 139.564C189.373 140.423 190.161 142.599 189.308 144.431C188.75 145.629 187.629 146.378 186.404 146.52Z" fill="url(#paint30_linear_598_4732)"/>
<path d="M62.3874 136.65C60.6429 136.852 58.9586 135.764 58.4555 134.025C57.8977 132.083 59.0242 130.055 60.9656 129.497L71.8535 126.374C73.7949 125.816 75.8237 126.937 76.3815 128.884C76.9393 130.826 75.8128 132.854 73.8715 133.412L62.9835 136.535C62.7812 136.584 62.5843 136.622 62.3874 136.65Z" fill="url(#paint31_linear_598_4732)"/>
<path d="M71.7715 147.652C70.2293 147.827 68.6872 147.007 68.02 145.514C67.1943 143.671 68.0146 141.506 69.8575 140.675L78.5744 136.759C80.4173 135.933 82.5829 136.754 83.4141 138.597C84.2399 140.439 83.4196 142.605 81.5767 143.436L72.8597 147.352C72.4988 147.51 72.1379 147.609 71.7715 147.652Z" fill="url(#paint32_linear_598_4732)"/>
<path d="M82.1727 154.789C80.9532 154.931 79.6899 154.45 78.8751 153.416C77.6283 151.825 77.9017 149.528 79.4931 148.276L84.4586 144.377C86.0499 143.13 88.3467 143.403 89.599 144.995C90.8459 146.586 90.5724 148.883 88.9811 150.135L84.0156 154.034C83.4633 154.461 82.8234 154.712 82.1727 154.789Z" fill="url(#paint33_linear_598_4732)"/>
<path d="M50.6299 74.0234C48.0542 72.3501 47.4527 69.1072 46.4793 63.8136C45.6808 59.4825 43.9036 49.8468 47.9339 47.5063C50.8268 45.8274 55.322 48.7148 60.6757 52.1546C66.9372 56.1795 71.5308 59.127 71.5691 63.1082C71.6402 70.2611 56.9953 78.1632 50.6299 74.0234Z" fill="url(#paint34_linear_598_4732)"/>
<path d="M194.94 55.556C197.013 53.2866 196.778 49.9999 196.39 44.6298C196.072 40.2385 195.367 30.4607 190.877 29.2138C187.651 28.317 184.031 32.2434 179.716 36.9246C174.668 42.3986 170.972 46.4071 171.934 50.2679C173.657 57.2075 189.822 61.1613 194.94 55.556Z" fill="url(#paint35_linear_598_4732)"/>
<path d="M181.892 102.362C183.456 99.9008 176.856 89.7894 166.941 87.9136C159.077 86.4317 151.05 90.4948 147.172 96.5321C144.34 100.945 143.12 107.365 145.143 108.694C147.473 110.231 151.449 103.28 160.352 100.836C171.666 97.7352 180.317 104.833 181.892 102.362Z" fill="url(#paint36_linear_598_4732)"/>
<path d="M69.3489 106.922C67.7849 104.462 74.3855 94.3502 84.3 92.4745C92.1638 90.9925 100.192 95.0556 104.069 101.093C106.902 105.506 108.121 111.926 106.098 113.255C103.768 114.792 99.7925 107.841 90.8897 105.397C79.5752 102.296 70.9184 109.394 69.3489 106.922Z" fill="url(#paint37_linear_598_4732)"/>
<path opacity="0.31" d="M226.653 140.669C228.228 137.268 229.436 133.538 230.273 129.557C228.096 132.679 225.362 136.267 222.015 140.007C183.981 182.487 124.035 181.372 109.029 181.093C93.4653 180.803 77.6611 180.316 60.5225 170.539C49.5799 164.293 41.809 156.38 36.5264 149.61C38.599 154.669 41.4645 159.558 45.3636 163.976C55.1578 175.083 70.1964 181.913 90.0529 184.27C105.748 186.135 120.245 184.708 127.212 184.024C130.767 183.674 140.429 182.553 147.954 181.667C149.475 181.536 151.022 181.366 152.592 181.169C153.406 181.066 154.227 180.951 155.047 180.83C156.584 180.65 157.584 180.53 157.776 180.508L157.765 180.398C169.468 178.419 181.81 174.755 192.261 170.068C209.47 162.357 221.365 152.186 226.653 140.669Z" fill="#EA6124"/>
<path d="M30.3086 183.226C18.5676 192.025 6.15938 191.051 1.96497 185.304C-1.13025 181.06 -0.495893 173.191 3.35399 170.489C8.29759 167.011 19.3059 171.539 30.3086 183.226Z" fill="url(#paint38_linear_598_4732)"/>
<path d="M21.783 166.175C11.1631 164.654 5.25151 157.737 6.0554 152.596C6.646 148.801 11.0427 145.06 14.4333 145.656C18.7863 146.417 22.1385 154.444 21.783 166.175Z" fill="url(#paint39_linear_598_4732)"/>
<defs>
<linearGradient id="paint0_linear_598_4732" x1="15.2091" y1="232.299" x2="291.917" y2="277.496" gradientUnits="userSpaceOnUse">
<stop offset="0.0159" stop-color="#6661AB"/>
<stop offset="0.9983" stop-color="#462F7E"/>
</linearGradient>
<linearGradient id="paint1_linear_598_4732" x1="15.2091" y1="232.299" x2="291.917" y2="277.496" gradientUnits="userSpaceOnUse">
<stop offset="0.0159" stop-color="#6661AB"/>
<stop offset="0.9983" stop-color="#462F7E"/>
</linearGradient>
<linearGradient id="paint2_linear_598_4732" x1="15.0601" y1="269.625" x2="301.515" y2="269.625" gradientUnits="userSpaceOnUse">
<stop offset="0.0159" stop-color="#6661AB"/>
<stop offset="0.9983" stop-color="#462F7E"/>
</linearGradient>
<linearGradient id="paint3_linear_598_4732" x1="90.3385" y1="261.04" x2="340.439" y2="278.695" gradientUnits="userSpaceOnUse">
<stop stop-color="#F68D64"/>
<stop offset="1" stop-color="#D94626"/>
</linearGradient>
<linearGradient id="paint4_linear_598_4732" x1="52.6959" y1="273.56" x2="407.838" y2="298.629" gradientUnits="userSpaceOnUse">
<stop stop-color="#F68D64"/>
<stop offset="1" stop-color="#D94626"/>
</linearGradient>
<linearGradient id="paint5_linear_598_4732" x1="52.374" y1="278.498" x2="339.457" y2="298.763" gradientUnits="userSpaceOnUse">
<stop stop-color="#F68D64"/>
<stop offset="1" stop-color="#D94626"/>
</linearGradient>
<linearGradient id="paint6_linear_598_4732" x1="83.7656" y1="282.193" x2="274.066" y2="295.626" gradientUnits="userSpaceOnUse">
<stop stop-color="#F68D64"/>
<stop offset="1" stop-color="#D94626"/>
</linearGradient>
<linearGradient id="paint7_linear_598_4732" x1="78.7889" y1="279.326" x2="279.081" y2="293.464" gradientUnits="userSpaceOnUse">
<stop stop-color="#F68D64"/>
<stop offset="1" stop-color="#D94626"/>
</linearGradient>
<linearGradient id="paint8_linear_598_4732" x1="40.6207" y1="266.338" x2="284.96" y2="283.585" gradientUnits="userSpaceOnUse">
<stop stop-color="#F68D64"/>
<stop offset="1" stop-color="#D94626"/>
</linearGradient>
<linearGradient id="paint9_linear_598_4732" x1="-70.2379" y1="243.373" x2="273.604" y2="267.644" gradientUnits="userSpaceOnUse">
<stop stop-color="#F68D64"/>
<stop offset="1" stop-color="#D94626"/>
</linearGradient>
<linearGradient id="paint10_linear_598_4732" x1="130.501" y1="235.419" x2="221.31" y2="188.605" gradientUnits="userSpaceOnUse">
<stop stop-color="#FDE0D4"/>
<stop offset="1" stop-color="#F8CBBC"/>
</linearGradient>
<linearGradient id="paint11_linear_598_4732" x1="88.2537" y1="189.409" x2="128.577" y2="236.941" gradientUnits="userSpaceOnUse">
<stop stop-color="#F8CBBC"/>
<stop offset="1" stop-color="#FDE0D4"/>
</linearGradient>
<linearGradient id="paint12_linear_598_4732" x1="132.671" y1="123.295" x2="142.728" y2="252.337" gradientUnits="userSpaceOnUse">
<stop stop-color="#F68D64"/>
<stop offset="1" stop-color="#D94626"/>
</linearGradient>
<linearGradient id="paint13_linear_598_4732" x1="123.805" y1="211.91" x2="149.429" y2="209.913" gradientUnits="userSpaceOnUse">
<stop stop-color="#F68D64"/>
<stop offset="1" stop-color="#D94626"/>
</linearGradient>
<linearGradient id="paint14_linear_598_4732" x1="105.201" y1="140.554" x2="160.534" y2="134.211" gradientUnits="userSpaceOnUse">
<stop stop-color="#F68D64"/>
<stop offset="1" stop-color="#D94626"/>
</linearGradient>
<linearGradient id="paint15_linear_598_4732" x1="117.002" y1="127.647" x2="143.738" y2="125.564" gradientUnits="userSpaceOnUse">
<stop stop-color="#F68D64"/>
<stop offset="1" stop-color="#D94626"/>
</linearGradient>
<linearGradient id="paint16_linear_598_4732" x1="205.215" y1="119.135" x2="186.844" y2="121.241" gradientUnits="userSpaceOnUse">
<stop stop-color="#F68D64"/>
<stop offset="1" stop-color="#D94626"/>
</linearGradient>
<linearGradient id="paint17_linear_598_4732" x1="198.508" y1="131.461" x2="182.19" y2="133.332" gradientUnits="userSpaceOnUse">
<stop stop-color="#F68D64"/>
<stop offset="1" stop-color="#D94626"/>
</linearGradient>
<linearGradient id="paint18_linear_598_4732" x1="189.971" y1="140.562" x2="177.355" y2="142.008" gradientUnits="userSpaceOnUse">
<stop stop-color="#F68D64"/>
<stop offset="1" stop-color="#D94626"/>
</linearGradient>
<linearGradient id="paint19_linear_598_4732" x1="58.791" y1="132.236" x2="77.1624" y2="130.13" gradientUnits="userSpaceOnUse">
<stop stop-color="#F68D64"/>
<stop offset="1" stop-color="#D94626"/>
</linearGradient>
<linearGradient id="paint20_linear_598_4732" x1="68.1147" y1="142.725" x2="84.4317" y2="140.855" gradientUnits="userSpaceOnUse">
<stop stop-color="#F68D64"/>
<stop offset="1" stop-color="#D94626"/>
</linearGradient>
<linearGradient id="paint21_linear_598_4732" x1="78.4895" y1="149.657" x2="91.1053" y2="148.211" gradientUnits="userSpaceOnUse">
<stop stop-color="#F68D64"/>
<stop offset="1" stop-color="#D94626"/>
</linearGradient>
<linearGradient id="paint22_linear_598_4732" x1="64.7387" y1="52.7605" x2="46.4982" y2="69.1148" gradientUnits="userSpaceOnUse">
<stop stop-color="#F68D64"/>
<stop offset="1" stop-color="#D94626"/>
</linearGradient>
<linearGradient id="paint23_linear_598_4732" x1="177.067" y1="38.0529" x2="198.837" y2="49.2848" gradientUnits="userSpaceOnUse">
<stop stop-color="#F68D64"/>
<stop offset="1" stop-color="#D94626"/>
</linearGradient>
<linearGradient id="paint24_linear_598_4732" x1="86.0709" y1="108.969" x2="108.424" y2="107.227" gradientUnits="userSpaceOnUse">
<stop stop-color="#462F7E"/>
<stop offset="1" stop-color="#D94626"/>
</linearGradient>
<linearGradient id="paint25_linear_598_4732" x1="152.79" y1="103.524" x2="175.688" y2="101.74" gradientUnits="userSpaceOnUse">
<stop stop-color="#462F7E"/>
<stop offset="1" stop-color="#D94626"/>
</linearGradient>
<linearGradient id="paint26_linear_598_4732" x1="107.337" y1="132.658" x2="153.749" y2="127.337" gradientUnits="userSpaceOnUse">
<stop stop-color="#F68D64"/>
<stop offset="1" stop-color="#D94626"/>
</linearGradient>
<linearGradient id="paint27_linear_598_4732" x1="117.235" y1="121.833" x2="139.661" y2="120.085" gradientUnits="userSpaceOnUse">
<stop stop-color="#F68D64"/>
<stop offset="1" stop-color="#D94626"/>
</linearGradient>
<linearGradient id="paint28_linear_598_4732" x1="204.657" y1="119.402" x2="186.285" y2="121.508" gradientUnits="userSpaceOnUse">
<stop stop-color="#F68D64"/>
<stop offset="1" stop-color="#D94626"/>
</linearGradient>
<linearGradient id="paint29_linear_598_4732" x1="197.949" y1="131.729" x2="181.632" y2="133.599" gradientUnits="userSpaceOnUse">
<stop stop-color="#F68D64"/>
<stop offset="1" stop-color="#D94626"/>
</linearGradient>
<linearGradient id="paint30_linear_598_4732" x1="189.412" y1="140.829" x2="176.796" y2="142.275" gradientUnits="userSpaceOnUse">
<stop stop-color="#F68D64"/>
<stop offset="1" stop-color="#D94626"/>
</linearGradient>
<linearGradient id="paint31_linear_598_4732" x1="58.2322" y1="132.504" x2="76.6036" y2="130.397" gradientUnits="userSpaceOnUse">
<stop stop-color="#F68D64"/>
<stop offset="1" stop-color="#D94626"/>
</linearGradient>
<linearGradient id="paint32_linear_598_4732" x1="67.5559" y1="142.993" x2="83.8729" y2="141.122" gradientUnits="userSpaceOnUse">
<stop stop-color="#F68D64"/>
<stop offset="1" stop-color="#D94626"/>
</linearGradient>
<linearGradient id="paint33_linear_598_4732" x1="77.9306" y1="149.925" x2="90.5464" y2="148.478" gradientUnits="userSpaceOnUse">
<stop stop-color="#F68D64"/>
<stop offset="1" stop-color="#D94626"/>
</linearGradient>
<linearGradient id="paint34_linear_598_4732" x1="64.1799" y1="53.0281" x2="45.9394" y2="69.3823" gradientUnits="userSpaceOnUse">
<stop stop-color="#F68D64"/>
<stop offset="1" stop-color="#D94626"/>
</linearGradient>
<linearGradient id="paint35_linear_598_4732" x1="176.508" y1="38.3204" x2="198.278" y2="49.5522" gradientUnits="userSpaceOnUse">
<stop stop-color="#F68D64"/>
<stop offset="1" stop-color="#D94626"/>
</linearGradient>
<linearGradient id="paint36_linear_598_4732" x1="144.137" y1="98.262" x2="182.119" y2="98.262" gradientUnits="userSpaceOnUse">
<stop stop-color="#462F7E"/>
<stop offset="1" stop-color="#D94626"/>
</linearGradient>
<linearGradient id="paint37_linear_598_4732" x1="107.103" y1="102.824" x2="69.1199" y2="102.824" gradientUnits="userSpaceOnUse">
<stop stop-color="#462F7E"/>
<stop offset="1" stop-color="#D94626"/>
</linearGradient>
<linearGradient id="paint38_linear_598_4732" x1="0.00174873" y1="179.536" x2="30.3094" y2="179.536" gradientUnits="userSpaceOnUse">
<stop stop-color="#F68D64"/>
<stop offset="1" stop-color="#D94626"/>
</linearGradient>
<linearGradient id="paint39_linear_598_4732" x1="5.98567" y1="155.883" x2="21.8096" y2="155.883" gradientUnits="userSpaceOnUse">
<stop stop-color="#F68D64"/>
<stop offset="1" stop-color="#D94626"/>
</linearGradient>
</defs>
</svg>
