<svg width="24" height="24" viewBox="0 0 24 24" fill="none" xmlns="http://www.w3.org/2000/svg">
<path fill-rule="evenodd" clip-rule="evenodd" d="M11.5715 2.0193C10.4738 2.11022 9.41439 2.44948 8.52336 2.99536C8.0025 3.31447 7.45228 3.77264 7.09799 4.1823C6.55457 4.81067 6.14878 5.56203 5.95105 6.30613C5.8002 6.87376 5.79806 6.89972 5.78867 8.27169L5.78016 9.51229H5.71927C5.58831 9.51229 5.23168 9.58028 5.01587 9.64636C3.97309 9.96573 3.21416 10.7511 3.03645 11.6948C2.98696 11.9576 2.98828 19.5462 3.03788 19.8087C3.14001 20.3494 3.42916 20.8382 3.88377 21.2388C4.30369 21.6089 4.812 21.8482 5.42183 21.9631C5.60785 21.9982 5.93418 22 12.0131 22H18.4086L18.6333 21.9539C19.8663 21.7011 20.7637 20.8696 20.9667 19.792C20.9955 19.639 20.9999 19.1021 20.9999 15.751C20.9999 11.4688 21.0087 11.737 20.8543 11.3094C20.7136 10.9195 20.4768 10.5791 20.1366 10.2778C19.7321 9.91939 19.2398 9.67456 18.7008 9.56375L18.5299 9.52861L18.5297 8.52492C18.5295 7.4977 18.5117 7.09699 18.451 6.7554C18.2949 5.87671 17.9173 5.06401 17.3224 4.3267C17.0946 4.04439 16.5123 3.4963 16.2143 3.28371C15.0216 2.43285 13.5975 1.98848 12.1013 2.00023C11.9193 2.00166 11.6809 2.01023 11.5715 2.0193ZM12.4983 4.12191C13.392 4.19241 14.1618 4.46211 14.8603 4.94953C15.153 5.15379 15.5516 5.53087 15.7559 5.79684C16.0305 6.15425 16.2642 6.62264 16.3781 7.04381C16.4851 7.43933 16.5001 7.63005 16.5005 8.59843L16.501 9.49187H12.1344H7.76776L7.76798 8.69033C7.76811 8.24949 7.77859 7.77937 7.79124 7.64565C7.87659 6.74476 8.28225 5.94512 8.97859 5.30515C9.60233 4.7319 10.3662 4.35539 11.2344 4.1932C11.6826 4.10945 12.0662 4.08783 12.4983 4.12191ZM12.8401 12.4725C13.6712 12.6409 14.3242 13.1807 14.5699 13.9024C14.856 14.7426 14.4803 15.6751 13.655 16.1728L13.4796 16.2786V17.5005V18.7224H12.3549H11.2302V17.5165V16.3107L11.1626 16.2759C10.8215 16.1002 10.473 15.7987 10.2872 15.5186C9.82922 14.828 9.87312 13.9458 10.3981 13.2903C10.7607 12.8375 11.3881 12.5074 12.0268 12.4336C12.2447 12.4084 12.6101 12.4259 12.8401 12.4725Z" fill="black"/>
</svg>
