<svg width="166" height="217" viewBox="0 0 166 217" fill="none" xmlns="http://www.w3.org/2000/svg">
<mask id="mask0_578_1111" style="mask-type:alpha" maskUnits="userSpaceOnUse" x="5" y="3" width="150" height="201">
<path d="M5 23C5 11.9543 13.9543 3 25 3H135C146.046 3 155 11.9543 155 23V183.162C155 194.208 146.046 203.162 135 203.162H25C13.9543 203.162 5 194.208 5 183.162V23Z" fill="#C4C4C4"/>
</mask>
<g mask="url(#mask0_578_1111)">
<rect x="-16.0569" y="-33" width="213.057" height="256.707" fill="url(#paint0_linear_578_1111)"/>
<circle cx="82.5" cy="79.5" r="60.5" fill="url(#paint1_linear_578_1111)"/>
<path d="M-2.49628 220.831H153.885L162.17 135.097L-6.41113 135.637L-15.105 220.831H-2.49628Z" fill="url(#paint2_linear_578_1111)"/>
<path d="M-24.5026 140.969H180.15L190.988 134.347L-29.6221 134.387L-41 140.969H-24.5026Z" fill="#34427F"/>
<path d="M132.128 69.7262C129.614 68.4791 126.553 70.0797 125.872 70.4332C122.174 72.3677 120.782 76.384 120.275 77.8472C118.854 81.9454 119.581 85.0222 118.111 85.4936C117.368 85.7326 116.38 85.1957 115.886 84.5411C114.632 82.8913 116.619 80.6557 115.46 79.0976C114.71 78.0894 112.94 77.7621 111.971 78.3775C110.976 79.0092 110.976 80.5378 111.005 82.8291C111.041 85.6802 111.535 86.7767 111.663 88.5967C111.699 89.1368 111.728 92.1875 110.259 95.4706C110.147 95.7193 109.283 97.6277 108.792 97.5033C108.256 97.3691 108.855 94.9829 108.033 94.5181C107.025 93.9452 104.275 96.4918 103.169 98.0958C98.7728 104.466 105.997 116.714 107.931 119.847C109.552 119.061 111.837 117.945 114.56 116.577C128.101 109.768 130.367 107.821 132.128 105.431C134.655 102.001 136.782 96.7897 134.998 94.6457C133.169 92.4493 128.059 94.469 127.211 92.5475C126.995 92.0565 127.057 91.3135 129.103 88.4428C132.206 84.0894 133.443 83.8635 134.494 81.893C136.596 77.9552 135.62 71.4578 132.128 69.7262Z" fill="#F68E64"/>
<path d="M119.303 105.801C120.357 105.801 120.357 104.164 119.303 104.164C118.249 104.164 118.249 105.801 119.303 105.801Z" fill="#F1677F"/>
<path d="M114.871 109.176C118.488 107.366 122.101 105.542 125.784 103.873C126.167 103.7 125.833 103.137 125.453 103.307C121.767 104.976 118.157 106.799 114.54 108.61C114.164 108.799 114.494 109.366 114.871 109.176Z" fill="black"/>
<path d="M135.551 119.251C131.417 122.233 129.692 126.194 129.077 127.853C129.077 127.853 135.142 128.897 138.91 127.729C142.677 126.56 146.36 121.745 146.36 121.745C147.014 121.042 149.456 116.194 149.456 116.194C148.14 115.955 141.581 114.904 135.551 119.251Z" fill="#462F7E"/>
<path d="M139.673 105.281C137.224 109.087 137.07 112.901 137.093 114.462C137.093 114.462 142.416 113.307 145.142 111.101C147.869 108.894 149.361 103.739 149.361 103.739C149.676 102.947 150.134 98.1743 150.134 98.1743C148.975 98.4133 143.244 99.7291 139.673 105.281Z" fill="#462F7E"/>
<path d="M131.27 102.917C131.145 99.392 127.938 95.1564 127.938 95.1564C127.496 94.4362 123.977 91.271 123.977 91.271C123.476 92.361 121.106 97.8339 123.388 104.007C124.952 108.24 127.889 110.593 129.142 111.484C129.142 111.487 131.394 106.443 131.27 102.917Z" fill="#462F7E"/>
<path d="M118.036 105.114C117.221 106.22 113.29 111.804 114.413 119.297C115.182 124.433 117.928 127.784 119.126 129.091C119.126 129.091 122.825 123.961 123.506 119.965C124.187 115.971 121.574 110.436 121.574 110.436C121.241 109.516 118.036 105.114 118.036 105.114Z" fill="#462F7E"/>
<path d="M141.325 95.5361C142.762 91.8765 141.384 86.0763 141.384 86.0763C141.257 85.1368 139.086 80.2924 139.086 80.2924C138.095 81.1794 133.26 85.6835 132.838 93.0386C132.55 98.0827 134.487 101.834 135.365 103.32C135.361 103.317 139.888 99.1956 141.325 95.5361Z" fill="#462F7E"/>
<path d="M127.604 79.6082C127.715 79.2023 127.083 79.0289 126.972 79.4347C125.034 86.5411 121.826 93.2742 118.612 99.883C118.222 98.4525 117.823 97.0352 117.535 95.5786C117.234 94.0434 116.959 92.505 116.7 90.96C116.632 90.5443 116 90.721 116.069 91.1335C116.327 92.6752 116.599 94.2169 116.903 95.7521C117.198 97.2447 117.614 98.6948 118.01 100.161C118.059 100.348 118.222 100.41 118.37 100.384C118.35 100.426 118.327 100.469 118.308 100.511C114.91 107.49 111.136 114.259 107.25 120.976C105.031 124.812 102.786 128.629 100.55 132.455C100.337 132.819 100.903 133.149 101.116 132.786C105.097 125.971 109.119 119.176 112.946 112.272C116.684 105.526 120.091 98.5835 123.211 91.5328C124.926 87.654 126.487 83.7031 127.604 79.6082Z" fill="#D94627"/>
<path d="M129.551 120.096C134.34 116.979 138.87 113.536 142.569 109.146C143.613 107.909 144.615 106.6 145.292 105.12C145.466 104.741 144.903 104.407 144.726 104.79C143.551 107.343 141.489 109.506 139.535 111.484C137.561 113.48 135.374 115.258 133.096 116.894C132.068 117.634 131.018 118.341 129.96 119.038C131.286 116.079 132.327 112.999 133.342 109.919C134.464 106.498 135.466 103.042 136.271 99.5327C137.185 95.5524 137.911 91.523 138.252 87.451C138.288 87.0321 137.633 87.0321 137.597 87.451C136.998 94.6195 135.283 101.7 133.099 108.541C132.435 110.629 131.748 112.718 130.985 114.776C129.879 111.83 128.815 108.871 127.882 105.867C127.384 104.263 126.906 102.646 126.514 101.012C126.111 99.3364 125.649 97.6408 125.61 95.9092C125.6 95.487 124.946 95.487 124.956 95.9092C124.985 97.2545 125.267 98.5639 125.571 99.8699C125.872 101.156 126.193 102.433 126.553 103.703C127.276 106.256 128.108 108.777 128.998 111.274C129.509 112.708 130.039 114.138 130.576 115.562C130.592 115.605 130.615 115.641 130.645 115.67C130.275 116.632 129.888 117.588 129.473 118.534C128.055 121.758 126.357 124.878 124.546 127.899C123.208 130.135 121.78 132.318 120.288 134.455C119.872 131.912 119.47 129.365 119.195 126.799C119.047 125.424 118.933 124.046 118.828 122.668C118.72 121.297 118.668 119.948 118.857 118.583C118.913 118.171 118.285 117.994 118.226 118.41C118.036 119.785 118.055 121.127 118.16 122.508C118.268 123.938 118.389 125.372 118.54 126.799C118.841 129.618 119.293 132.419 119.751 135.218C119.145 136.072 118.533 136.92 117.908 137.758C117.656 138.095 118.226 138.423 118.474 138.089C120.432 135.454 122.301 132.744 124.046 129.955C126.74 129.182 129.348 128.197 131.924 127.094C134.491 125.994 137.044 124.786 139.423 123.323C140.746 122.508 141.97 121.569 143.188 120.606C143.518 120.344 143.054 119.886 142.726 120.145C141.656 120.989 140.576 121.821 139.423 122.554C138.291 123.271 137.109 123.912 135.911 124.518C133.446 125.765 130.91 126.861 128.334 127.853C127.096 128.331 125.836 128.744 124.566 129.123C126.347 126.217 127.99 123.228 129.45 120.148C129.489 120.128 129.522 120.115 129.551 120.096Z" fill="#6662AC"/>
<path d="M129.98 139.912C128.955 139.385 127.378 138.681 125.407 138.246C123.25 137.771 122.864 138.115 120.779 137.82C116.294 137.185 115.499 135.238 112.9 135.814C111.807 136.056 110.258 136.773 108.501 138.999L129.983 140.128" fill="#1D282D"/>
<path d="M127.289 136.603C127.967 134.472 128.965 133.811 129.558 133.562C130.821 133.032 131.986 133.647 136.729 135.356C138.081 135.843 139.188 136.226 139.888 136.465L127.289 136.603Z" fill="#1D282D"/>
<path d="M110.517 135.552C110.353 135.045 109.679 133.185 107.699 132.092C105.303 130.773 102.363 131.906 101.012 132.347C97.6662 133.447 92.5108 134.406 84.6255 133.693C84.1737 133.968 83.506 134.334 82.6517 134.642C81.0019 135.238 79.7384 135.244 79.7417 135.362C79.7483 135.67 84.2916 135.657 84.2916 135.657C92.9985 135.637 106.917 135.568 110.517 135.552Z" fill="#1D282D"/>
<path d="M69.444 138.514C69.6829 137.938 70.1543 137.081 71.0675 136.508C73.2148 135.162 76.3342 136.105 77.1722 137.405C77.2508 137.526 77.3424 137.703 77.5552 137.873C78.3048 138.478 79.4569 138.138 80.1607 138C81.0543 137.824 82.3931 137.742 84.2163 138.256C84.2163 138.256 86.1377 138.734 86.5207 138.878C86.9037 139.025 69.1428 138.878 69.1428 138.878L69.444 138.514Z" fill="#1D282D"/>
<path d="M53.9548 93.2938H13.0911V101.022H53.9548V93.2938Z" fill="url(#paint3_linear_578_1111)"/>
<path d="M29.1661 95.6211H16.1221V98.6948H29.1661V95.6211Z" fill="#E3E3E3"/>
<path d="M42.3674 99.0155C43.3924 99.0155 44.2234 98.1846 44.2234 97.1596C44.2234 96.1346 43.3924 95.3036 42.3674 95.3036C41.3424 95.3036 40.5115 96.1346 40.5115 97.1596C40.5115 98.1846 41.3424 99.0155 42.3674 99.0155Z" fill="#3B535B"/>
<path d="M60.3475 101.022H19.5034V107.785H60.3475V101.022Z" fill="url(#paint4_linear_578_1111)"/>
<path d="M57.1887 118.855H12.4331V107.788H57.1887C58.9334 107.788 60.3475 109.202 60.3475 110.947V115.696C60.3475 117.438 58.9334 118.855 57.1887 118.855Z" fill="url(#paint5_linear_578_1111)"/>
<path d="M57.5586 109.762H12.4331V117.074H57.5586V109.762Z" fill="#E3E3E3"/>
<path d="M63.0905 129.814H20.7603C18.1973 129.814 16.1221 127.735 16.1221 125.176V123.493C16.1221 120.93 18.2006 118.855 20.7603 118.855H63.0905V129.814Z" fill="url(#paint6_linear_578_1111)"/>
<path d="M63.0906 120.698H18.2957V128.272H63.0906V120.698Z" fill="#E3E3E3"/>
<path d="M58.0858 129.814H8.54785V138.881H58.0858V129.814Z" fill="url(#paint7_linear_578_1111)"/>
<path d="M27.5199 132.622H11.8408V136.18H27.5199V132.622Z" fill="#E3E3E3"/>
<path d="M44.5966 136.603C45.8422 136.603 46.8519 135.593 46.8519 134.347C46.8519 133.102 45.8422 132.092 44.5966 132.092C43.351 132.092 42.3413 133.102 42.3413 134.347C42.3413 135.593 43.351 136.603 44.5966 136.603Z" fill="#4D5E68"/>
<path d="M133.953 92.8419C133.656 91.4945 132.264 90.4381 131.097 89.9036C127.909 88.4455 124.613 87.8572 121.159 88.5309C119.321 88.8883 117.585 89.6126 116.01 90.6311C114.264 91.7602 113.179 93.1234 112.047 94.8567C111.427 95.8056 112.531 96.6975 113.375 96.3876L115.896 102.558C115.877 102.742 115.852 102.922 115.807 103.102C115.627 103.833 115.396 104.197 115.722 104.943C116.276 106.221 118.126 105.117 117.576 103.846C117.753 104.254 117.772 103.966 117.879 103.678C118.009 103.336 118.015 102.884 118.031 102.524C118.072 101.6 118.154 100.765 118.616 99.9395C119.375 98.5826 120.871 97.8678 122.238 97.2985C125.454 95.9606 128.962 98.1715 132.03 96.2674C133.074 95.6127 134.25 94.1893 133.953 92.8419Z" fill="#FDDFD4"/>
<path opacity="0.31" d="M112.743 91.5135C112.183 92.4877 110.269 96.1978 112.091 100.012C113.818 103.627 117.554 104.526 118.06 104.64C120.112 103.82 122.162 103.001 124.215 102.185C122.858 101.255 119.692 98.8009 117.965 94.3475C116.908 91.6211 116.791 89.1761 116.845 87.6421C115.96 88.0976 114.059 89.2331 112.743 91.5135Z" fill="#EA6225"/>
<path d="M105.041 129.399C104.931 128.308 104.693 127.226 104.339 126.179L102.464 126.815L91.3048 129.209C91.0897 128.956 90.8746 128.697 90.6627 128.434L89.1192 129.677L87.5757 130.92C91.1782 135.393 96.2136 139.83 100.101 139.83C100.977 139.83 101.793 139.606 102.524 139.106C105.706 136.92 105.117 130.161 105.041 129.399Z" fill="#FDDFD4"/>
<path d="M110.039 109.378C109.767 106.572 109.495 103.763 109.223 100.958C109.201 94.9484 109.178 88.9357 109.159 82.9262C93.0033 82.1924 76.844 81.4618 60.6878 80.728C60.2577 86.437 59.8275 92.1461 59.3942 97.8552C58.4327 100.287 57.5091 102.938 56.6804 105.804C56.2724 107.214 55.9118 108.593 55.5924 109.928L55.0926 111.715L55.0831 111.753C54.9787 112.161 52.5749 121.798 58.4896 126.521C63.8033 130.762 80.048 131.777 81.9268 131.882C81.9299 131.882 81.9299 131.882 81.9331 131.882C81.9331 131.882 81.9331 131.882 81.9363 131.882C83.951 131.777 101.401 130.772 107.081 126.565C113.477 121.833 110.864 112.126 110.75 111.715L110.039 109.378Z" fill="#FDDFD4"/>
<path opacity="0.31" d="M86.1494 129.07C86.9243 130.493 87.6992 131.913 88.4773 133.337C90.2296 133.757 94.0314 134.422 98.5607 133.144C102.815 131.945 105.598 129.63 106.898 128.393C105.962 126.1 105.023 123.804 104.086 121.511C98.1052 124.028 92.1273 126.549 86.1494 129.07Z" fill="#EA6225"/>
<path d="M58.5398 129.399C58.6505 128.308 58.8877 127.226 59.242 126.179L61.1176 126.815L72.2763 129.209C72.4914 128.956 72.7065 128.697 72.9184 128.434L74.4619 129.677L76.0054 130.92C72.4029 135.393 67.3675 139.83 63.4803 139.83C62.6042 139.83 61.7881 139.606 61.0575 139.106C57.8724 136.92 58.4607 130.161 58.5398 129.399Z" fill="#FDDFD4"/>
<path opacity="0.31" d="M77.4291 129.07C76.6542 130.493 75.8793 131.913 75.1012 133.337C73.349 133.757 69.5472 134.422 65.0179 133.144C60.7637 131.945 57.9804 129.63 56.6804 128.393C57.6166 126.1 58.556 123.804 59.4923 121.511C65.4733 124.028 71.4512 126.549 77.4291 129.07Z" fill="#EA6225"/>
<path d="M109.688 101.948C108.656 95.4577 107.486 89.2267 106.215 83.271C91.8866 83.1413 77.5586 83.0116 63.2338 82.8819C61.8073 91.1055 60.3302 95.91 59.1726 98.8451C58.7551 99.9047 57.6417 102.764 56.4208 106.794C55.6649 109.289 55.1367 111.358 54.8109 112.708L54.8014 112.746C54.6939 113.154 52.2584 122.792 58.2553 127.514C63.6418 131.755 80.1111 132.771 82.0152 132.875C82.0183 132.875 82.0215 132.875 82.0215 132.875C82.0215 132.875 82.0215 132.875 82.0246 132.875C84.0647 132.771 101.755 131.765 107.518 127.558C114.002 122.826 111.354 113.119 111.237 112.708C110.782 109.194 110.269 105.604 109.688 101.948Z" fill="#F6CABC"/>
<g opacity="0.31">
<path opacity="0.31" d="M84.6627 122.225C84.3369 122.225 84.0143 122.105 83.7612 121.862L79.6558 117.876C79.1434 117.38 79.1307 116.561 79.6305 116.048C80.127 115.536 80.9462 115.523 81.4586 116.023L85.5641 120.008C86.0765 120.505 86.0891 121.324 85.5894 121.836C85.3364 122.093 85.0011 122.225 84.6627 122.225Z" fill="#EA6225"/>
<path opacity="0.31" d="M80.6172 122.286C80.2915 122.286 79.9689 122.165 79.7158 121.922C79.2034 121.425 79.1908 120.606 79.6905 120.094L83.6758 115.988C84.1724 115.476 84.9916 115.463 85.504 115.963C86.0163 116.459 86.029 117.279 85.5293 117.791L81.544 121.896C81.291 122.153 80.9557 122.286 80.6172 122.286Z" fill="#EA6225"/>
</g>
<path d="M39.7268 91.912C40.7484 92.2663 41.8301 92.3896 42.9466 92.2758L61.0986 99.6991L62.1961 95.7012C62.272 94.3854 62.3448 93.0697 62.4207 91.7571C55.7438 85.3363 49.07 78.9125 42.3931 72.4917L41.7257 70.3694C41.3082 70.458 38.8633 71.0305 36.6366 72.7891C35.2576 73.8803 33.9608 75.4269 33.2807 77.5967C32.373 80.4971 32.7873 84.0079 34.3814 86.9874C35.6877 89.4228 37.5855 91.1719 39.7268 91.912Z" fill="#FDDFD4"/>
<path opacity="0.31" d="M39.0468 68.5381C37.769 68.8734 36.4152 69.9108 36.2634 70.031C31.4368 73.8423 31.6645 80.8576 31.7784 82.689C34.2265 77.5492 36.431 76.6004 38.0093 76.7079C39.2808 76.7933 39.4105 77.5144 45.9261 82.3252C50.117 85.4186 51.3031 86.0385 52.2994 86.475C52.796 86.6932 53.6721 86.8925 54.5799 87.6389C56 88.806 56.5535 90.3812 56.7939 91.0707C58.1508 94.9326 56.2119 98.5953 55.8419 99.2658C57.0027 99.3227 58.1603 99.3797 59.3211 99.4366C60.4502 96.4255 61.5794 93.4144 62.7085 90.4033C53.8176 76.4549 44.3415 67.1496 39.0468 68.5381Z" fill="#EA6225"/>
<path d="M125.414 105.161C124.718 104.64 123.895 104.241 122.962 103.975L111 94.0407L108.736 96.1314C108.22 96.9031 107.705 97.678 107.189 98.4498C110.311 104.336 113.429 110.225 116.551 116.111L116.349 117.595C116.716 117.668 118.87 118.054 121.261 117.655C122.744 117.408 124.319 116.861 125.613 115.751C127.343 114.268 128.232 112.019 127.985 109.738C127.786 107.882 126.872 106.253 125.414 105.161Z" fill="#FDDFD4"/>
<path opacity="0.31" d="M117.857 119.512C119.255 119.733 120.603 119.442 120.603 119.442C123.14 118.949 124.547 117.345 125.101 116.608C123.826 116.662 121.628 116.567 119.654 115.346C118.923 114.894 118.43 114.413 116.007 110.636C113.414 106.591 112.642 105.048 112.038 103.299C111.415 101.486 111.427 100.844 111.453 100.559C111.706 97.8172 114.527 96.182 115.055 95.8878C114.147 95.5051 113.236 95.1224 112.329 94.7397C110.38 96.2231 108.435 97.7065 106.487 99.1899C108.774 110.292 113.138 118.762 117.857 119.512Z" fill="#EA6225"/>
<path d="M119.992 115.89C119.562 116.586 118.645 117.804 117.301 117.791C115.289 117.772 113.613 115.008 112.556 113.265C111.269 111.143 109.558 107.531 109.352 102.479L110.893 103.849L119.992 115.89Z" fill="#FDDFD4"/>
<path opacity="0.31" d="M119.992 115.89C119.562 116.586 118.645 117.804 117.301 117.791C115.289 117.772 113.613 115.008 112.556 113.265C111.269 111.143 109.558 107.531 109.352 102.479L110.893 103.849L119.992 115.89Z" fill="#EA6225"/>
<path d="M58.9099 98.5162C57.2841 102.663 56.3574 107.122 55.9779 111.557C55.7533 114.192 59.8651 114.179 60.0897 111.557C60.4376 107.493 61.3864 103.406 62.8762 99.6074C63.8409 97.1435 59.8651 96.0744 58.9099 98.5162Z" fill="#F6CABC"/>
<path d="M59.6438 102.356C59.6438 103.618 59.5615 104.908 59.7102 106.164C59.7988 106.907 60.0455 107.54 60.7287 107.939C61.3233 108.286 62.2184 108.353 62.8035 107.939C63.3539 107.553 63.6607 107.104 63.9865 106.534C64.1667 106.215 64.347 105.984 64.638 105.75C64.3344 105.927 64.0339 106.101 63.7303 106.278C63.7777 106.259 63.8283 106.243 63.8758 106.224C63.0313 105.747 62.1899 105.266 61.3454 104.788C61.415 104.244 61.4119 104.159 61.3359 104.529C61.317 104.643 61.2885 104.753 61.2474 104.861C61.4245 104.557 61.5985 104.257 61.7756 103.953C61.7408 103.994 61.706 104.032 61.6712 104.073C62.7466 104.213 63.8252 104.352 64.9005 104.491C64.9606 104.636 65.0049 104.785 65.0334 104.937C64.9859 105.199 64.9891 105.228 65.0429 105.032C63.8979 105.335 62.7529 105.636 61.608 105.94C61.6491 105.974 61.6933 106.006 61.7345 106.041C62.8352 106.904 64.132 106.8 64.9638 105.623C65.182 105.313 65.258 104.956 65.3908 104.611C65.356 104.703 65.7545 104.165 65.4572 104.44C64.3818 104.301 63.3033 104.162 62.2279 104.023C62.1994 103.96 62.1709 103.896 62.1393 103.833C62.288 104.934 63.7018 105.535 64.6697 105.269C65.8589 104.943 66.2543 103.846 66.1056 102.739C66.0677 102.457 65.9443 102.176 65.7767 101.945C64.9859 100.86 63.5943 100.556 62.5473 101.527C62.2247 101.828 61.997 102.179 61.8167 102.574C61.7092 102.808 61.6111 103.049 61.5131 103.289C61.4593 103.419 61.1398 103.928 61.4118 103.545C62.4872 103.406 63.5658 103.267 64.6412 103.128C64.6001 103.093 64.5558 103.061 64.5147 103.027C63.3064 102.078 61.5763 102.337 61.0797 103.934C60.8267 104.75 60.8488 105.838 61.3518 106.56C62.0508 107.562 63.6512 108.052 64.5811 106.977C65.3244 106.114 65.6691 104.801 65.3117 103.691C64.9923 102.701 63.8631 101.856 62.7814 102.255C61.4814 102.732 60.7508 103.849 60.1245 105.025C60.3713 104.779 60.6148 104.535 60.8615 104.289C60.8172 104.32 60.7729 104.352 60.7255 104.383C61.7566 104.975 62.7877 105.566 63.8188 106.158C63.6702 104.902 63.7524 103.612 63.7524 102.35C63.7556 99.7118 59.6438 99.7055 59.6438 102.356Z" fill="#F6CABC"/>
<path d="M116.178 86.0164C116.345 85.3901 116.39 84.7575 116.298 84.1249L112.869 83.7897C112.857 83.7802 112.841 83.7675 112.828 83.758L112.907 83.7296C112.882 83.7106 112.857 83.6916 112.828 83.6695L112.907 83.641C112.882 83.622 112.857 83.6031 112.828 83.5809L112.907 83.5524C112.882 83.5335 112.857 83.5145 112.828 83.4924L112.907 83.4639C112.882 83.4449 112.857 83.4259 112.828 83.4038L112.907 83.3753C112.882 83.3563 112.857 83.3374 112.828 83.3152L112.907 83.2868C112.882 83.2678 112.857 83.2488 112.828 83.2267L112.907 83.1982C112.882 83.1792 112.857 83.1602 112.828 83.1381L112.907 83.1096C112.882 83.0907 112.857 83.0717 112.828 83.0495L112.907 83.0211C112.882 83.0021 112.857 82.9831 112.828 82.961L112.907 82.9325C112.882 82.9135 112.857 82.8946 112.828 82.8724L112.907 82.844C112.882 82.825 112.857 82.806 112.828 82.7839L112.907 82.7554C112.882 82.7364 112.857 82.7174 112.828 82.6953L112.907 82.6668C112.882 82.6479 112.857 82.6289 112.828 82.6067L112.907 82.5783C112.882 82.5593 112.857 82.5403 112.828 82.5182L112.907 82.4897C112.882 82.4707 112.857 82.4518 112.828 82.4296L112.907 82.4011C112.882 82.3822 112.857 82.3632 112.828 82.3411L112.907 82.3126C112.882 82.2936 112.857 82.2746 112.828 82.2525L112.907 82.224C112.882 82.205 112.857 82.1861 112.828 82.1639L112.907 82.1355C112.882 82.1165 112.857 82.0975 112.828 82.0754L112.907 82.0469C112.882 82.0279 112.857 82.0089 112.828 81.9868L112.907 81.9583C112.882 81.9394 112.857 81.9204 112.828 81.8982L112.907 81.8698C112.882 81.8508 112.857 81.8318 112.828 81.8097L112.907 81.7812C112.882 81.7622 112.857 81.7433 112.828 81.7211L112.907 81.6927C112.882 81.6737 112.857 81.6547 112.828 81.6326L112.907 81.6041C112.882 81.5851 112.857 81.5661 112.828 81.544L112.907 81.5155C112.882 81.4966 112.857 81.4776 112.828 81.4554L112.907 81.427C112.882 81.408 112.857 81.389 112.828 81.3669L112.907 81.3384C112.882 81.3194 112.857 81.3005 112.828 81.2783L112.907 81.2498C112.882 81.2309 112.857 81.2119 112.828 81.1898L112.907 81.1613C112.882 81.1423 112.857 81.1233 112.828 81.1012L112.907 81.0727C112.882 81.0537 112.857 81.0348 112.828 81.0126L112.907 80.9842C112.882 80.9652 112.857 80.9462 112.828 80.9241L112.907 80.8956C112.882 80.8766 112.857 80.8576 112.828 80.8355L112.907 80.807C112.882 80.7881 112.857 80.7691 112.828 80.7469L112.907 80.7185C112.882 80.6995 112.857 80.6805 112.828 80.6584L112.907 80.6299C112.882 80.6109 112.857 80.592 112.828 80.5698L112.907 80.5414C112.882 80.5224 112.857 80.5034 112.828 80.4813L112.907 80.4528C112.882 80.4338 112.857 80.4148 112.828 80.3927L112.907 80.3642C112.882 80.3453 112.857 80.3263 112.828 80.3041L112.907 80.2757C112.882 80.2567 112.857 80.2377 112.828 80.2156L112.907 80.1871C112.882 80.1681 112.857 80.1492 112.828 80.127L112.907 80.0985C112.882 80.0796 112.857 80.0606 112.828 80.0385L112.907 80.01C112.882 79.991 112.857 79.972 112.828 79.9499L112.907 79.9214C112.882 79.9024 112.857 79.8835 112.828 79.8613L112.907 79.8329C112.882 79.8139 112.857 79.7949 112.828 79.7728L112.907 79.7443C112.882 79.7253 112.857 79.7063 112.828 79.6842L112.907 79.6557C112.882 79.6368 112.857 79.6178 112.828 79.5956L112.907 79.5672C112.882 79.5482 112.857 79.5292 112.828 79.5071L112.907 79.4786C112.882 79.4596 112.857 79.4407 112.828 79.4185L112.907 79.3901C112.898 79.3837 112.891 79.3774 112.882 79.3711L113.072 79.3015C112.512 78.8713 111.889 78.4443 111.187 78.0332C110.513 77.6315 109.773 77.2519 108.991 76.8945L102.865 77.7959L98.8164 76.5371L98.848 76.4738C98.8353 76.4707 98.8227 76.4675 98.81 76.4675L98.848 76.3884C98.8353 76.3853 98.8227 76.3821 98.81 76.3821L98.848 76.303C98.8353 76.2999 98.8227 76.2967 98.81 76.2967L98.848 76.2176C98.8353 76.2145 98.8227 76.2113 98.81 76.2113L98.848 76.1322C98.8353 76.1291 98.8227 76.1259 98.81 76.1259L98.848 76.0469C98.8353 76.0437 98.8227 76.0405 98.81 76.0405L98.848 75.9615C98.8353 75.9583 98.8227 75.9551 98.81 75.9551L98.848 75.8761C98.8353 75.8729 98.8227 75.8697 98.81 75.8697L98.848 75.7907C98.8353 75.7875 98.8227 75.7843 98.81 75.7843L98.848 75.7053C98.8353 75.7021 98.8227 75.6989 98.81 75.6989L98.848 75.6199C98.8353 75.6167 98.8227 75.6135 98.81 75.6135L98.848 75.5345C98.8353 75.5313 98.8227 75.5281 98.81 75.5281L98.848 75.4491C98.8353 75.4459 98.8227 75.4427 98.81 75.4427L98.848 75.3637C98.8353 75.3605 98.8227 75.3573 98.81 75.3573L98.848 75.2783C98.8353 75.2751 98.8227 75.2719 98.81 75.2719L98.848 75.1929C98.8353 75.1897 98.8227 75.1865 98.81 75.1865L98.848 75.1075C98.8353 75.1043 98.8227 75.1011 98.81 75.1011L98.848 75.0221C98.8353 75.0189 98.8227 75.0157 98.81 75.0157L98.848 74.9367C98.8353 74.9335 98.8227 74.9303 98.81 74.9303L98.848 74.8513C98.8353 74.8481 98.8227 74.8449 98.81 74.8449L98.848 74.7659C98.8353 74.7627 98.8227 74.7595 98.81 74.7595L98.848 74.6805C98.8353 74.6773 98.8227 74.6741 98.81 74.6741L98.848 74.5951C98.8353 74.5919 98.8227 74.5887 98.81 74.5887L98.848 74.5097C98.8353 74.5065 98.8227 74.5033 98.81 74.5033L98.848 74.4243C98.8353 74.4211 98.8227 74.4179 98.81 74.4179L98.848 74.3389C98.8353 74.3357 98.8227 74.3325 98.81 74.3325L98.848 74.2535C98.8353 74.2503 98.8227 74.2472 98.81 74.2472L98.848 74.1681L99.0156 73.8233C96.7731 73.371 94.4041 73.0199 91.9655 72.7764L91.8168 72.865C91.8105 72.865 91.8042 72.865 91.801 72.8618L88.404 74.8639L81.9137 74.7153L79.0576 72.4791C76.6538 72.6056 74.2563 72.8302 71.9284 73.1654L71.9379 73.2287C71.881 73.2382 71.8209 73.2445 71.7639 73.254L71.7766 73.3394C71.7734 73.3394 71.7671 73.3394 71.7639 73.3426L71.7766 73.428C71.7734 73.428 71.7671 73.428 71.7639 73.4311L71.7766 73.5165C71.7734 73.5165 71.7671 73.5165 71.7639 73.5197L71.7766 73.6051C71.7734 73.6051 71.7671 73.6051 71.7639 73.6082L71.7766 73.6936C71.7734 73.6936 71.7671 73.6936 71.7639 73.6968L71.7766 73.7822C71.7734 73.7822 71.7671 73.7822 71.7639 73.7854L71.7766 73.8708C71.7734 73.8708 71.7671 73.8708 71.7639 73.8739L71.7766 73.9593C71.7734 73.9593 71.7671 73.9593 71.7639 73.9625L71.7766 74.0479C71.7734 74.0479 71.7671 74.0479 71.7639 74.051L71.7766 74.1364C71.7734 74.1364 71.7671 74.1364 71.7639 74.1396L71.7766 74.225C71.7734 74.225 71.7671 74.225 71.7639 74.2282L71.7766 74.3136C71.7734 74.3136 71.7671 74.3136 71.7639 74.3167L71.7766 74.4021C71.7734 74.4021 71.7671 74.4021 71.7639 74.4053L71.7766 74.4907C71.7734 74.4907 71.7671 74.4907 71.7639 74.4939L71.7766 74.5793C71.7734 74.5793 71.7671 74.5793 71.7639 74.5824L71.7766 74.6678C71.7734 74.6678 71.7671 74.6678 71.7639 74.671L71.7766 74.7564C71.7734 74.7564 71.7671 74.7564 71.7639 74.7595L71.7766 74.8449C71.7734 74.8449 71.7671 74.8449 71.7639 74.8481L71.7766 74.9335C71.7734 74.9335 71.7671 74.9335 71.7639 74.9367L71.7766 75.0221C71.7734 75.0221 71.7671 75.0221 71.7639 75.0252L71.7766 75.1106C71.7734 75.1106 71.7671 75.1106 71.7639 75.1138L71.7766 75.1992C71.7734 75.1992 71.7671 75.1992 71.7639 75.2024L71.7766 75.2878C71.7734 75.2878 71.7671 75.2877 71.7639 75.2909L71.7766 75.3763C71.7734 75.3763 71.7671 75.3763 71.7639 75.3795L71.7766 75.4649C71.7734 75.4649 71.7671 75.4649 71.7639 75.468L71.7766 75.5534C71.7734 75.5534 71.7671 75.5534 71.7639 75.5566L71.7766 75.642C71.7734 75.642 71.7671 75.642 71.7639 75.6452L71.7766 75.7306C71.7734 75.7306 71.7671 75.7306 71.7639 75.7337L71.7766 75.8191C71.7734 75.8191 71.7671 75.8191 71.7639 75.8223V75.8318L66.7602 77.0337L60.9784 75.8413C60.6115 75.9741 60.2541 76.1069 59.9062 76.2461C59.1724 76.5023 58.4576 76.8281 57.8724 77.1222C57.5403 77.2804 57.2209 77.4417 56.9109 77.603C56.582 77.7738 56.2625 77.9478 55.9589 78.1217L56.0443 78.1597C56.0158 78.1755 55.9873 78.1913 55.9589 78.2071L56.0443 78.2451C56.0158 78.2609 55.9873 78.2767 55.9589 78.2925L56.0443 78.3305C56.0158 78.3463 55.9873 78.3621 55.9589 78.3779L56.0443 78.4159C56.0158 78.4317 55.9873 78.4475 55.9589 78.4633L56.0443 78.5013C56.0158 78.5171 55.9873 78.5329 55.9589 78.5487L56.0443 78.5867C56.0158 78.6025 55.9873 78.6183 55.9589 78.6341L56.0443 78.6721C56.0158 78.6879 55.9873 78.7037 55.9589 78.7195L56.0443 78.7575C56.0158 78.7733 55.9873 78.7891 55.9589 78.8049L56.0443 78.8429C56.0158 78.8587 55.9873 78.8745 55.9589 78.8903L56.0443 78.9283C56.0158 78.9441 55.9873 78.9599 55.9589 78.9757L56.0443 79.0137C56.0158 79.0295 55.9873 79.0453 55.9589 79.0611L56.0443 79.0991C56.0158 79.1149 55.9873 79.1307 55.9589 79.1465L56.0443 79.1845C56.0158 79.2003 55.9873 79.2161 55.9589 79.2319L56.0443 79.2699C56.0158 79.2857 55.9873 79.3015 55.9589 79.3173L56.0443 79.3553C56.0158 79.3711 55.9873 79.3869 55.9589 79.4027L56.0443 79.4407C56.0158 79.4565 55.9873 79.4723 55.9589 79.4881L56.0443 79.5261C56.0158 79.5419 55.9873 79.5577 55.9589 79.5735L56.0443 79.6115C56.0158 79.6273 55.9873 79.6431 55.9589 79.6589L56.0443 79.6969C56.0158 79.7127 55.9873 79.7285 55.9589 79.7443L56.0443 79.7823C56.0158 79.7981 55.9873 79.8139 55.9589 79.8297L56.0443 79.8677C56.0158 79.8835 55.9873 79.8993 55.9589 79.9151L56.0443 79.9531C56.0158 79.9689 55.9873 79.9847 55.9589 80.0005L56.0443 80.0385C56.0158 80.0543 55.9873 80.0701 55.9589 80.0859L56.0443 80.1239C56.0158 80.1397 55.9873 80.1555 55.9589 80.1713L56.0443 80.2092C56.0158 80.2251 55.9873 80.2409 55.9589 80.2567L56.0443 80.2946C56.0158 80.3105 55.9873 80.3263 55.9589 80.3421L56.0443 80.38C56.0158 80.3959 55.9873 80.4117 55.9589 80.4275L56.0443 80.4654C56.0158 80.4813 55.9873 80.4971 55.9589 80.5129L56.0443 80.5508C56.0158 80.5667 55.9873 80.5825 55.9589 80.5983L56.0443 80.6362C56.0158 80.6521 55.9873 80.6679 55.9589 80.6837L56.0443 80.7216C56.0158 80.7375 55.9873 80.7533 55.9589 80.7691L56.0443 80.807C56.0158 80.8229 55.9873 80.8387 55.9589 80.8545L56.0443 80.8924C56.0158 80.9083 55.9873 80.9241 55.9589 80.9399L56.0443 80.9778C56.0158 80.9937 55.9873 81.0095 55.9589 81.0253L56.0443 81.0632C56.0158 81.079 55.9873 81.0949 55.9589 81.1107L56.0443 81.1486C56.0158 81.1644 55.9873 81.1803 55.9589 81.1961L56.0443 81.234C56.0158 81.2498 55.9873 81.2657 55.9589 81.2815L56.0443 81.3194C56.0158 81.3352 55.9873 81.3511 55.9589 81.3669L56.0443 81.4048C56.0158 81.4206 55.9873 81.4365 55.9589 81.4523L56.0443 81.4902C56.0158 81.506 55.9873 81.5219 55.9589 81.5377L56.0443 81.5756C56.0158 81.5914 55.9873 81.6073 55.9589 81.6231L56.0443 81.661C56.0158 81.6768 55.9873 81.6927 55.9589 81.7085L56.0443 81.7464C56.0158 81.7622 55.9873 81.7781 55.9589 81.7939L56.0443 81.8318C56.0158 81.8476 55.9873 81.8635 55.9589 81.8793L56.0443 81.9172C56.0158 81.933 55.9873 81.9488 55.9589 81.9647L56.0443 82.0026C56.0158 82.0184 55.9873 82.0343 55.9589 82.0501L56.0443 82.088C56.0158 82.1038 55.9873 82.1196 55.9589 82.1355L56.0443 82.1734C56.0158 82.1892 55.9873 82.205 55.9589 82.2209L56.0443 82.2588C56.0284 82.2683 56.0158 82.2746 56 82.2841L51.3315 82.5118C51.3189 82.5372 51.3062 82.5656 51.2936 82.5909L51.1639 82.5972C50.7938 83.3563 50.6104 84.1281 50.6262 84.9062C50.6262 84.9346 50.6262 84.9631 50.6262 84.9916C50.6262 85.02 50.6262 85.0485 50.6262 85.077C50.6262 85.1054 50.6262 85.1339 50.6262 85.1624C50.6262 85.1908 50.6262 85.2193 50.6262 85.2478C50.6262 85.2762 50.6262 85.3047 50.6262 85.3332C50.6262 85.3616 50.6262 85.3901 50.6262 85.4186C50.6262 85.447 50.6262 85.4755 50.6262 85.504C50.6262 85.5324 50.6262 85.5609 50.6262 85.5894C50.6262 85.6178 50.6262 85.6463 50.6262 85.6748C50.6262 85.7032 50.6262 85.7317 50.6262 85.7602C50.6262 85.7886 50.6262 85.8171 50.6262 85.8456C50.6262 85.874 50.6262 85.9025 50.6262 85.931C50.6262 85.9594 50.6262 85.9879 50.6262 86.0164C50.6262 86.0448 50.6262 86.0733 50.6262 86.1018C50.6262 86.1302 50.6262 86.1587 50.6262 86.1872C50.6262 86.2156 50.6262 86.2441 50.6262 86.2726C50.6262 86.301 50.6262 86.3295 50.6262 86.358C50.6262 86.3864 50.6262 86.4149 50.6262 86.4434C50.6262 86.4718 50.6262 86.5003 50.6262 86.5288C50.6262 86.5572 50.6262 86.5857 50.6262 86.6141C50.6262 86.6426 50.6262 86.6711 50.6262 86.6995C50.6262 86.728 50.6262 86.7565 50.6262 86.7849C50.6262 86.8134 50.6262 86.8419 50.6262 86.8703C50.6262 86.8988 50.6262 86.9273 50.6262 86.9557C50.6262 86.9842 50.6262 87.0127 50.6262 87.0411C50.6262 87.0696 50.6262 87.0981 50.6262 87.1265C50.6262 87.155 50.6262 87.1835 50.6262 87.2119C50.6262 87.2404 50.6262 87.2689 50.6262 87.2973C50.6262 87.3258 50.6262 87.3543 50.6262 87.3827C50.6262 87.4112 50.6262 87.4397 50.6262 87.4681C50.6262 87.4966 50.6262 87.5251 50.6262 87.5535C50.6262 87.582 50.6262 87.6105 50.6262 87.6389C50.6262 87.6674 50.6262 87.6959 50.6262 87.7243C50.6262 87.7528 50.6262 87.7813 50.6262 87.8097C50.6262 87.8382 50.6262 87.8667 50.6262 87.8951C50.6262 87.9236 50.6262 87.9521 50.6262 87.9805C50.6262 88.009 50.6262 88.0375 50.6262 88.0659C50.6262 88.0944 50.6262 88.1229 50.6262 88.1513C50.6262 88.1798 50.6262 88.2083 50.6262 88.2367C50.6262 88.2652 50.6262 88.2937 50.6262 88.3221C50.6262 88.3506 50.6262 88.3791 50.6262 88.4075C50.6262 88.436 50.6262 88.4645 50.6262 88.4929C50.6262 88.5214 50.6262 88.5499 50.6262 88.5783C50.6262 88.6068 50.6262 88.6353 50.6262 88.6637C50.6262 88.6922 50.6262 88.7206 50.6262 88.7491C50.6262 88.7776 50.6262 88.806 50.6262 88.8345C50.6262 88.863 50.6262 88.8915 50.6262 88.9199C50.6262 88.9484 50.6262 88.9768 50.6262 89.0053C50.6262 89.0338 50.6262 89.0622 50.6262 89.0907C50.6262 89.1192 50.6262 89.1476 50.6262 89.1761C50.6262 89.2046 50.6262 89.233 50.6262 89.2615C50.6262 89.29 50.6262 89.3184 50.6262 89.3469C50.6262 89.3754 50.6262 89.4038 50.6262 89.4323C50.6262 89.4608 50.6262 89.4892 50.6262 89.5177C50.6262 89.5462 50.6262 89.5746 50.6262 89.6031C50.6262 89.6316 50.6262 89.66 50.6262 89.6885C50.6262 89.717 50.6262 89.7454 50.6262 89.7739C50.6262 89.8024 50.6262 89.8308 50.6262 89.8593C50.6262 89.8878 50.6262 89.9162 50.6262 89.9447C50.6262 89.9732 50.6262 90.0016 50.6262 90.0301C50.6262 90.0586 50.6262 90.087 50.6262 90.1155C50.6262 90.144 50.6262 90.1724 50.6262 90.2009C50.6262 90.2294 50.6262 90.2578 50.6262 90.2863C50.6262 90.3148 50.6262 90.3432 50.6262 90.3717C50.6262 90.4002 50.6262 90.4286 50.6262 90.4571C50.6262 90.4856 50.6262 90.514 50.6262 90.5425C50.6262 90.571 50.6262 90.5994 50.6262 90.6279C50.6262 90.6564 50.6262 90.6848 50.6262 90.7133C50.6262 90.7418 50.6262 90.7702 50.6262 90.7987C50.6262 90.8272 50.6262 90.8556 50.6262 90.8841C50.6262 90.9125 50.6262 90.941 50.6262 90.9695C50.6262 90.9979 50.6262 91.0264 50.6262 91.0549C50.6262 91.0834 50.6262 91.1118 50.6262 91.1403C50.6262 91.1687 50.6262 91.1972 50.6262 91.2257C50.6262 91.2541 50.6262 91.2826 50.6262 91.3111C50.6262 91.3395 50.6262 91.368 50.6262 91.3965C50.6262 91.4249 50.6262 91.4534 50.6262 91.4819C50.6262 91.5103 50.6262 91.5388 50.6262 91.5673C50.6262 91.5957 50.6262 91.6242 50.6262 91.6527C50.6262 91.6811 50.6262 91.7096 50.6262 91.7381C50.6262 91.7665 50.6262 91.795 50.6262 91.8235C50.6262 91.8519 50.6262 91.8804 50.6262 91.9089C50.6262 91.9373 50.6262 91.9658 50.6262 91.9943C50.6262 92.0227 50.6262 92.0512 50.6262 92.0797C50.6262 92.1081 50.6262 92.1366 50.6262 92.1651C50.6262 92.1935 50.6262 92.222 50.6262 92.2505C50.6262 92.2789 50.6262 92.3074 50.6262 92.3359C50.6262 92.3643 50.6262 92.3928 50.6262 92.4213C50.6262 92.4497 50.6262 92.4782 50.6262 92.5067C50.6262 92.5351 50.6262 92.5636 50.6262 92.5921C50.6262 92.6205 50.6262 92.649 50.6262 92.6775C50.6262 92.7059 50.6262 92.7344 50.6262 92.7629C50.6262 92.7913 50.6262 92.8198 50.6262 92.8483C50.6262 92.8767 50.6262 92.9052 50.6262 92.9337C50.6262 92.9621 50.6262 92.9906 50.6262 93.0191C50.6262 93.0475 50.6262 93.076 50.6262 93.1045C50.6262 93.1329 50.6262 93.1614 50.6262 93.1899C50.6262 93.2183 50.6262 93.2468 50.6262 93.2752C50.6262 93.3037 50.6262 93.3322 50.6262 93.3606C50.6262 93.3891 50.6262 93.4176 50.6262 93.446C50.6262 93.6548 50.6388 93.8636 50.6673 94.0723L53.8555 94.3918C53.8777 94.4107 53.903 94.4266 53.9251 94.4455L53.8492 94.474C53.8745 94.493 53.8998 94.5119 53.9251 94.5341L53.8492 94.5626C53.8745 94.5815 53.8998 94.6005 53.9251 94.6227L53.8492 94.6511C53.8745 94.6701 53.8998 94.6891 53.9251 94.7112L53.8492 94.7397C53.8745 94.7587 53.8998 94.7776 53.9251 94.7998L53.8492 94.8282C53.8745 94.8472 53.8998 94.8662 53.9251 94.8883L53.8492 94.9168C53.8745 94.9358 53.8998 94.9548 53.9251 94.9769L53.8492 95.0054C53.8745 95.0243 53.8998 95.0433 53.9251 95.0655L53.8492 95.0939C53.8745 95.1129 53.8998 95.1319 53.9251 95.154L53.8492 95.1825C53.8745 95.2015 53.8998 95.2204 53.9251 95.2426L53.8492 95.2711C53.8745 95.29 53.8998 95.309 53.9251 95.3311L53.8492 95.3596C53.8745 95.3786 53.8998 95.3976 53.9251 95.4197L53.8492 95.4482C53.8745 95.4671 53.8998 95.4861 53.9251 95.5083L53.8492 95.5367C53.8745 95.5557 53.8998 95.5747 53.9251 95.5968L53.8492 95.6253C53.8745 95.6443 53.8998 95.6633 53.9251 95.6854L53.8492 95.7139C53.8745 95.7328 53.8998 95.7518 53.9251 95.774L53.8492 95.8024C53.8745 95.8214 53.8998 95.8404 53.9251 95.8625L53.8492 95.891C53.8745 95.91 53.8998 95.9289 53.9251 95.9511L53.8492 95.9795C53.8745 95.9985 53.8998 96.0175 53.9251 96.0396L53.8492 96.0681C53.8745 96.0871 53.8998 96.1061 53.9251 96.1282L53.8492 96.1567C53.8745 96.1756 53.8998 96.1946 53.9251 96.2168L53.8492 96.2452C53.8745 96.2642 53.8998 96.2832 53.9251 96.3053L53.8492 96.3338C53.8745 96.3528 53.8998 96.3717 53.9251 96.3939L53.8492 96.4224C53.8745 96.4413 53.8998 96.4603 53.9251 96.4824L53.8492 96.5109C53.8745 96.5299 53.8998 96.5489 53.9251 96.571L53.8492 96.5995C53.8745 96.6185 53.8998 96.6374 53.9251 96.6596L53.8492 96.688C53.8745 96.707 53.8998 96.726 53.9251 96.7481L53.8492 96.7766C53.8745 96.7956 53.8998 96.8146 53.9251 96.8367L53.8492 96.8652C53.8745 96.8841 53.8998 96.9031 53.9251 96.9253L53.8492 96.9537C53.8745 96.9727 53.8998 96.9917 53.9251 97.0138L53.8492 97.0423C53.8745 97.0613 53.8998 97.0802 53.9251 97.1024L53.8492 97.1308C53.8745 97.1498 53.8998 97.1688 53.9251 97.1909L53.8492 97.2194C53.8745 97.2384 53.8998 97.2574 53.9251 97.2795L53.8492 97.308C53.8745 97.3269 53.8998 97.3459 53.9251 97.3681L53.8492 97.3965C53.8745 97.4155 53.8998 97.4345 53.9251 97.4566L53.8492 97.4851C53.8745 97.5041 53.8998 97.523 53.9251 97.5452L53.8492 97.5737C53.8745 97.5926 53.8998 97.6116 53.9251 97.6337L53.8492 97.6622C53.8745 97.6812 53.8998 97.7002 53.9251 97.7223L53.8492 97.7508C53.8745 97.7698 53.8998 97.7887 53.9251 97.8109L53.8492 97.8393C53.8745 97.8583 53.8998 97.8773 53.9251 97.8994L53.8492 97.9279C53.8745 97.9469 53.8998 97.9659 53.9251 97.988L53.8492 98.0165C53.8745 98.0354 53.8998 98.0544 53.9251 98.0766L53.8492 98.105C53.8745 98.124 53.8998 98.143 53.9251 98.1651L53.8492 98.1936C53.8745 98.2126 53.8998 98.2315 53.9251 98.2537L53.8492 98.2821C53.8745 98.3011 53.8998 98.3201 53.9251 98.3422L53.8492 98.3707C53.8745 98.3897 53.8998 98.4087 53.9251 98.4308L53.8492 98.4593C53.8745 98.4782 53.8998 98.4972 53.9251 98.5194L53.8492 98.5478C53.8745 98.5668 53.8998 98.5858 53.9251 98.6079L53.8492 98.6364C53.8745 98.6554 53.8998 98.6743 53.9251 98.6965L53.8492 98.725C53.8745 98.7439 53.8998 98.7629 53.9251 98.785L53.8492 98.8135C53.8745 98.8325 53.8998 98.8515 53.9251 98.8736L53.8492 98.9021C54.4122 99.3417 55.0448 99.7814 55.7691 100.208C56.4365 100.597 57.145 100.964 57.8946 101.315L64.0306 100.42L67.8577 101.619L67.8356 101.663C67.8483 101.666 67.8609 101.67 67.8736 101.67L67.8356 101.749C67.8483 101.752 67.8609 101.755 67.8736 101.755L67.8356 101.834C67.8483 101.837 67.8609 101.84 67.8736 101.84L67.8356 101.919C67.8483 101.923 67.8609 101.926 67.8736 101.926L67.8356 102.005C67.8483 102.008 67.8609 102.011 67.8736 102.011L67.8356 102.09C67.8483 102.093 67.8609 102.097 67.8736 102.097L67.8356 102.176C67.8483 102.179 67.8609 102.182 67.8736 102.182L67.8356 102.261C67.8483 102.264 67.8609 102.267 67.8736 102.267L67.8356 102.346C67.8483 102.35 67.8609 102.353 67.8736 102.353L67.8356 102.432C67.8483 102.435 67.8609 102.438 67.8736 102.438L67.8356 102.517C67.8483 102.52 67.8609 102.524 67.8736 102.524L67.8356 102.603C67.8483 102.606 67.8609 102.609 67.8736 102.609L67.8356 102.688C67.8483 102.691 67.8609 102.694 67.8736 102.694L67.8356 102.773C67.8483 102.777 67.8609 102.78 67.8736 102.78L67.8356 102.859C67.8483 102.862 67.8609 102.865 67.8736 102.865L67.8356 102.944C67.8483 102.947 67.8609 102.951 67.8736 102.951L67.8356 103.03C67.8483 103.033 67.8609 103.036 67.8736 103.036L67.8356 103.115C67.8483 103.118 67.8609 103.121 67.8736 103.121L67.8356 103.2C67.8483 103.204 67.8609 103.207 67.8736 103.207L67.8356 103.286C67.8483 103.289 67.8609 103.292 67.8736 103.292L67.8356 103.371C67.8483 103.374 67.8609 103.378 67.8736 103.378L67.8356 103.457C67.8483 103.46 67.8609 103.463 67.8736 103.463L67.8356 103.542C67.8483 103.545 67.8609 103.548 67.8736 103.548L67.8356 103.627C67.8483 103.631 67.8609 103.634 67.8736 103.634L67.8356 103.713C67.8483 103.716 67.8609 103.719 67.8736 103.719L67.8356 103.798C67.8483 103.801 67.8609 103.805 67.8736 103.805L67.8356 103.884C67.8483 103.887 67.8609 103.89 67.8736 103.89L67.8356 103.969C67.8483 103.972 67.8609 103.975 67.8736 103.975L67.8356 104.054C67.8483 104.058 67.8609 104.061 67.8736 104.061L67.8356 104.14C67.8483 104.143 67.8609 104.146 67.8736 104.146L67.8356 104.225C67.8483 104.228 67.8609 104.232 67.8736 104.232L67.8356 104.311C67.8483 104.314 67.8609 104.317 67.8736 104.317L67.8356 104.396C70.0813 104.848 72.4566 105.206 74.8984 105.452L78.463 103.368L84.9723 103.523L87.8031 105.766C90.286 105.636 92.753 105.405 95.1505 105.057L95.1379 104.972C95.1411 104.972 95.1474 104.972 95.1505 104.969L95.1379 104.883C95.1411 104.883 95.1474 104.883 95.1505 104.88L95.1379 104.795C95.1411 104.795 95.1474 104.795 95.1505 104.791L95.1379 104.706C95.1411 104.706 95.1474 104.706 95.1505 104.703L95.1379 104.617C95.1411 104.617 95.1474 104.617 95.1505 104.614L95.1379 104.529C95.1411 104.529 95.1474 104.529 95.1505 104.526L95.1379 104.44C95.1411 104.44 95.1474 104.44 95.1505 104.437L95.1379 104.352C95.1411 104.352 95.1474 104.352 95.1505 104.349L95.1379 104.263C95.1411 104.263 95.1474 104.263 95.1505 104.26L95.1379 104.175C95.1411 104.175 95.1474 104.175 95.1505 104.171L95.1379 104.086C95.1411 104.086 95.1474 104.086 95.1505 104.083L95.1379 103.998C95.1411 103.998 95.1474 103.998 95.1505 103.994L95.1379 103.909C95.1411 103.909 95.1474 103.909 95.1505 103.906L95.1379 103.82C95.1411 103.82 95.1474 103.82 95.1505 103.817L95.1379 103.732C95.1411 103.732 95.1474 103.732 95.1505 103.729L95.1379 103.643C95.1411 103.643 95.1474 103.643 95.1505 103.64L95.1379 103.555C95.1411 103.555 95.1474 103.555 95.1505 103.552L95.1379 103.466C95.1411 103.466 95.1474 103.466 95.1505 103.463L95.1379 103.378C95.1411 103.378 95.1474 103.378 95.1505 103.374L95.1379 103.289C95.1411 103.289 95.1474 103.289 95.1505 103.286L95.1379 103.2C95.1411 103.2 95.1474 103.2 95.1505 103.197L95.1379 103.112C95.1411 103.112 95.1474 103.112 95.1505 103.109L95.1379 103.023C95.1411 103.023 95.1474 103.023 95.1505 103.02L95.1379 102.935C95.1411 102.935 95.1474 102.935 95.1505 102.932L95.1379 102.846C95.1411 102.846 95.1474 102.846 95.1505 102.843L95.1379 102.758C95.1411 102.758 95.1474 102.758 95.1505 102.755L95.1379 102.669C95.1411 102.669 95.1474 102.669 95.1505 102.666L95.1379 102.581C95.1411 102.581 95.1474 102.581 95.1505 102.577L95.1379 102.492C95.1411 102.492 95.1474 102.492 95.1505 102.489L95.141 102.426L100.281 101.198L106.069 102.384C107.926 101.714 109.539 100.974 110.902 100.18L110.82 100.142C110.848 100.126 110.877 100.11 110.902 100.094L110.82 100.057C110.848 100.041 110.877 100.025 110.902 100.009L110.82 99.9711C110.848 99.9553 110.877 99.9395 110.902 99.9237L110.82 99.8857C110.848 99.8699 110.877 99.8541 110.902 99.8383L110.82 99.8003C110.848 99.7845 110.877 99.7687 110.902 99.7529L110.82 99.7149C110.848 99.6991 110.877 99.6833 110.902 99.6675L110.82 99.6295C110.848 99.6137 110.877 99.5979 110.902 99.5821L110.82 99.5441C110.848 99.5283 110.877 99.5125 110.902 99.4967L110.82 99.4587C110.848 99.4429 110.877 99.4271 110.902 99.4113L110.82 99.3734C110.848 99.3575 110.877 99.3417 110.902 99.3259L110.82 99.288C110.848 99.2721 110.877 99.2563 110.902 99.2405L110.82 99.2026C110.848 99.1867 110.877 99.1709 110.902 99.1551L110.82 99.1172C110.848 99.1013 110.877 99.0855 110.902 99.0697L110.82 99.0318C110.848 99.0159 110.877 99.0001 110.902 98.9843L110.82 98.9464C110.848 98.9305 110.877 98.9147 110.902 98.8989L110.82 98.861C110.848 98.8451 110.877 98.8293 110.902 98.8135L110.82 98.7756C110.848 98.7597 110.877 98.7439 110.902 98.7281L110.82 98.6902C110.848 98.6743 110.877 98.6585 110.902 98.6427L110.82 98.6048C110.848 98.5889 110.877 98.5731 110.902 98.5573L110.82 98.5194C110.848 98.5035 110.877 98.4877 110.902 98.4719L110.82 98.434C110.848 98.4182 110.877 98.4023 110.902 98.3865L110.82 98.3486C110.848 98.3328 110.877 98.3169 110.902 98.3011L110.82 98.2632C110.848 98.2474 110.877 98.2315 110.902 98.2157L110.82 98.1778C110.848 98.162 110.877 98.1461 110.902 98.1303L110.82 98.0924C110.848 98.0766 110.877 98.0607 110.902 98.0449L110.82 98.007C110.848 97.9912 110.877 97.9753 110.902 97.9595L110.82 97.9216C110.848 97.9058 110.877 97.8899 110.902 97.8741L110.82 97.8362C110.848 97.8204 110.877 97.8045 110.902 97.7887L110.82 97.7508C110.848 97.735 110.877 97.7191 110.902 97.7033L110.82 97.6654C110.848 97.6496 110.877 97.6337 110.902 97.6179L110.82 97.58C110.848 97.5642 110.877 97.5483 110.902 97.5325L110.82 97.4946C110.848 97.4788 110.877 97.4629 110.902 97.4471L110.82 97.4092C110.848 97.3934 110.877 97.3776 110.902 97.3617L110.82 97.3238C110.848 97.308 110.877 97.2922 110.902 97.2763L110.82 97.2384C110.848 97.2226 110.877 97.2068 110.902 97.1909L110.82 97.153C110.848 97.1372 110.877 97.1214 110.902 97.1055L110.82 97.0676C110.848 97.0518 110.877 97.036 110.902 97.0201L110.82 96.9822C110.848 96.9664 110.877 96.9506 110.902 96.9347L110.82 96.8968C110.848 96.881 110.877 96.8652 110.902 96.8493L110.82 96.8114C110.848 96.7956 110.877 96.7798 110.902 96.7639L110.82 96.726C110.848 96.7102 110.877 96.6944 110.902 96.6785L110.82 96.6406C110.848 96.6248 110.877 96.609 110.902 96.5931L110.82 96.5552C110.848 96.5394 110.877 96.5236 110.902 96.5077L110.82 96.4698C110.848 96.454 110.877 96.4382 110.902 96.4224L110.82 96.3844C110.848 96.3686 110.877 96.3528 110.902 96.337L110.82 96.299C110.848 96.2832 110.877 96.2674 110.902 96.2516L110.82 96.2136C110.848 96.1978 110.877 96.182 110.902 96.1662L110.82 96.1282C110.848 96.1124 110.877 96.0966 110.902 96.0808L110.82 96.0428C110.848 96.027 110.877 96.0112 110.902 95.9954L110.82 95.9574C110.829 95.9511 110.842 95.9448 110.851 95.9384L115.649 95.698C115.997 94.9706 116.174 94.2336 116.171 93.4935C116.171 93.465 116.171 93.4366 116.171 93.4081C116.171 93.3796 116.171 93.3512 116.171 93.3227C116.171 93.2942 116.171 93.2658 116.171 93.2373C116.171 93.2088 116.171 93.1804 116.171 93.1519C116.171 93.1234 116.171 93.095 116.171 93.0665C116.171 93.038 116.171 93.0096 116.171 92.9811C116.171 92.9526 116.171 92.9242 116.171 92.8957C116.171 92.8672 116.171 92.8388 116.171 92.8103C116.171 92.7818 116.171 92.7534 116.171 92.7249C116.171 92.6964 116.171 92.668 116.171 92.6395C116.171 92.611 116.171 92.5826 116.171 92.5541C116.171 92.5256 116.171 92.4972 116.171 92.4687C116.171 92.4402 116.171 92.4118 116.171 92.3833C116.171 92.3548 116.171 92.3264 116.171 92.2979C116.171 92.2694 116.171 92.241 116.171 92.2125C116.171 92.184 116.171 92.1556 116.171 92.1271C116.171 92.0986 116.171 92.0702 116.171 92.0417C116.171 92.0132 116.171 91.9848 116.171 91.9563C116.171 91.9278 116.171 91.8994 116.171 91.8709C116.171 91.8425 116.171 91.814 116.171 91.7855C116.171 91.757 116.171 91.7286 116.171 91.7001C116.171 91.6716 116.171 91.6432 116.171 91.6147C116.171 91.5863 116.171 91.5578 116.171 91.5293C116.171 91.5009 116.171 91.4724 116.171 91.4439C116.171 91.4155 116.171 91.387 116.171 91.3585C116.171 91.3301 116.171 91.3016 116.171 91.2731C116.171 91.2447 116.171 91.2162 116.171 91.1877C116.171 91.1593 116.171 91.1308 116.171 91.1023C116.171 91.0739 116.171 91.0454 116.171 91.0169C116.171 90.9885 116.171 90.96 116.171 90.9315C116.171 90.9031 116.171 90.8746 116.171 90.8461C116.171 90.8177 116.171 90.7892 116.171 90.7607C116.171 90.7323 116.171 90.7038 116.171 90.6753C116.171 90.6469 116.171 90.6184 116.171 90.5899C116.171 90.5615 116.171 90.533 116.171 90.5045C116.171 90.4761 116.171 90.4476 116.171 90.4191C116.171 90.3907 116.171 90.3622 116.171 90.3337C116.171 90.3053 116.171 90.2768 116.171 90.2483C116.171 90.2199 116.171 90.1914 116.171 90.1629C116.171 90.1345 116.171 90.106 116.171 90.0775C116.171 90.0491 116.171 90.0206 116.171 89.9921C116.171 89.9637 116.171 89.9352 116.171 89.9067C116.171 89.8783 116.171 89.8498 116.171 89.8213C116.171 89.7929 116.171 89.7644 116.171 89.7359C116.171 89.7075 116.171 89.679 116.171 89.6505C116.171 89.6221 116.171 89.5936 116.171 89.5651C116.171 89.5367 116.171 89.5082 116.171 89.4797C116.171 89.4513 116.171 89.4228 116.171 89.3944C116.171 89.3659 116.171 89.3374 116.171 89.309C116.171 89.2805 116.171 89.252 116.171 89.2236C116.171 89.1951 116.171 89.1666 116.171 89.1382C116.171 89.1097 116.171 89.0812 116.171 89.0528C116.171 89.0243 116.171 88.9958 116.171 88.9674C116.171 88.9389 116.171 88.9104 116.171 88.882C116.171 88.8535 116.171 88.825 116.171 88.7966C116.171 88.7681 116.171 88.7396 116.171 88.7112C116.171 88.6827 116.171 88.6542 116.171 88.6258C116.171 88.5973 116.171 88.5688 116.171 88.5404C116.171 88.5119 116.171 88.4834 116.171 88.455C116.171 88.4265 116.171 88.398 116.171 88.3696C116.171 88.3411 116.171 88.3126 116.171 88.2842C116.171 88.2557 116.171 88.2272 116.171 88.1988C116.171 88.1703 116.171 88.1418 116.171 88.1134C116.171 88.0849 116.171 88.0564 116.171 88.028C116.171 87.9995 116.171 87.971 116.171 87.9426C116.171 87.9141 116.171 87.8856 116.171 87.8572C116.171 87.8287 116.171 87.8002 116.171 87.7718C116.171 87.7433 116.171 87.7148 116.171 87.6864C116.171 87.6579 116.171 87.6294 116.171 87.601C116.171 87.5725 116.171 87.544 116.171 87.5156C116.171 87.4871 116.171 87.4586 116.171 87.4302C116.171 87.4017 116.171 87.3732 116.171 87.3448C116.171 87.3163 116.171 87.2879 116.171 87.2594C116.171 87.2309 116.171 87.2025 116.171 87.174C116.171 87.1455 116.171 87.1171 116.171 87.0886C116.171 87.0601 116.171 87.0317 116.171 87.0032C116.171 86.9747 116.171 86.9463 116.171 86.9178C116.171 86.8893 116.171 86.8609 116.171 86.8324C116.171 86.8039 116.171 86.7755 116.171 86.747C116.171 86.7185 116.171 86.6901 116.171 86.6616C116.171 86.6331 116.171 86.6047 116.171 86.5762C116.171 86.5477 116.171 86.5193 116.171 86.4908C116.171 86.4623 116.171 86.4339 116.171 86.4054C116.171 86.3769 116.171 86.3485 116.171 86.32C116.171 86.2915 116.171 86.2631 116.171 86.2346C116.171 86.2061 116.171 86.1777 116.171 86.1492C116.171 86.1207 116.171 86.0923 116.171 86.0638C116.178 86.0512 116.178 86.0322 116.178 86.0164ZM79.0292 90.0554C77.3781 89.853 75.8852 89.5493 74.5853 89.1698C78.2701 88.1292 83.1947 87.7591 87.9075 88.3348C89.5712 88.5372 91.0704 88.8377 92.3735 89.2172C88.6887 90.2578 83.7609 90.6342 79.0292 90.0554Z" fill="#462F7E"/>
<path d="M115.82 86.9747C116.269 86.0353 116.437 85.0801 116.298 84.1249L109.931 83.5018L108.296 81.1202L113.072 79.4122C112.512 78.982 111.889 78.555 111.187 78.1439C110.513 77.7422 109.773 77.3626 108.992 77.0052L102.865 77.9066L97.836 76.3442L99.0157 73.9087C96.7732 73.4564 94.4042 73.1053 91.9656 72.8618L88.42 74.9493L81.9107 74.8007L79.0546 72.5645C76.6508 72.691 74.2533 72.9156 71.9254 73.2508L72.2859 75.7306L66.7603 77.0337L60.9785 75.8413C60.6116 75.9741 60.2542 76.1069 59.9063 76.2461C59.1725 76.5023 58.4577 76.8281 57.8725 77.1222C57.2495 77.4196 56.6675 77.7232 56.1235 78.0363L60.2827 79.9594L57.8567 82.243L51.3316 82.5625C50.8762 83.4955 50.7054 84.4507 50.8382 85.4091L57.1925 86.0448L58.7993 88.4233L54.0233 90.1282C54.5863 90.5678 55.2189 91.0074 55.9432 91.4344C56.6105 91.8235 57.319 92.1904 58.0686 92.5415L64.2047 91.6464L69.2211 93.2152L68.0097 95.6538C70.2554 96.1061 72.6307 96.4635 75.0725 96.7102L78.6371 94.6258L85.1464 94.7808L87.9772 97.0233C90.4601 96.8936 92.9271 96.6627 95.3246 96.3148L94.9419 93.8351L100.455 92.5193L106.243 93.7054C108.1 93.0349 109.713 92.2947 111.076 91.5009L106.904 89.581L109.305 87.2942L115.82 86.9747ZM88.0752 79.5229C95.8212 80.4623 100.044 83.5872 97.5387 86.494C95.0431 89.3975 86.7753 91.0011 79.0324 90.0554C71.3181 89.1065 67.0861 85.9911 69.6006 83.0875C72.074 80.1776 80.3577 78.5803 88.0752 79.5229Z" fill="url(#paint8_linear_578_1111)"/>
<path d="M82.4328 108.293C84.978 108.293 87.0412 106.137 87.0412 103.479C87.0412 100.82 84.978 98.6649 82.4328 98.6649C79.8877 98.6649 77.8245 100.82 77.8245 103.479C77.8245 106.137 79.8877 108.293 82.4328 108.293Z" fill="url(#paint9_linear_578_1111)"/>
<path d="M82.1954 109.457C79.0451 109.457 76.48 106.781 76.48 103.491C76.48 100.202 79.0419 97.5262 82.1954 97.5262C85.3488 97.5262 87.9108 100.202 87.9108 103.491C87.9108 106.781 85.3488 109.457 82.1954 109.457ZM82.1954 99.5916C80.1363 99.5916 78.46 101.341 78.46 103.491C78.46 105.642 80.1363 107.391 82.1954 107.391C84.2544 107.391 85.9308 105.642 85.9308 103.491C85.9308 101.341 84.2544 99.5916 82.1954 99.5916Z" fill="#E96226"/>
<path d="M82.1954 105.326C83.0426 105.326 83.7294 104.608 83.7294 103.722C83.7294 102.837 83.0426 102.119 82.1954 102.119C81.3482 102.119 80.6614 102.837 80.6614 103.722C80.6614 104.608 81.3482 105.326 82.1954 105.326Z" fill="#E8622F"/>
<path d="M83.1855 104.753H81.2056V107.916H83.1855V104.753Z" fill="#E8622F"/>
<path d="M123.993 54.4188C124.025 53.0113 124.183 51.2148 124.363 49.1494C125.141 40.2901 126.312 26.9046 119.401 20.0822C117.281 17.9251 113.198 19.0132 106.546 23.5108C103.099 25.8419 99.9708 28.4134 98.7088 29.4761C97.548 29.2231 95.1062 28.698 92.0161 28.0528C88.2459 27.2684 84.1847 27.2178 82.8404 27.2273C81.5721 27.2209 77.726 27.2684 74.1519 28.0591C71.3053 28.6885 69.0406 29.2041 67.9178 29.4634C66.874 28.5335 64.5873 26.5409 61.9336 24.5388C56.8761 20.7243 53.2355 18.9214 50.7938 19.0195C49.5033 19.0733 48.7157 19.6394 48.2761 20.1139C41.7637 26.93 42.8707 40.2964 43.6013 49.1431C43.7721 51.218 43.9208 53.0272 43.9524 54.4378C42.4405 59.916 40.8085 70.0626 46.2202 78.049C49.6456 83.1065 55.4433 86.6901 63.4454 88.6954C69.7713 90.28 75.7776 90.4571 78.6654 90.5393C80.1393 90.5836 84.153 90.6279 87.278 90.6595C87.9074 90.6848 88.5495 90.6975 89.2011 90.6975C89.5395 90.6975 89.8811 90.6943 90.2258 90.688C90.8647 90.6943 91.2823 90.6975 91.3613 90.6975V90.6532C96.2544 90.4539 101.495 89.6031 106.018 88.2336C113.464 85.9784 118.866 82.4391 121.634 78.0047C123.737 74.6615 124.977 70.3283 125.22 65.4764C125.407 61.6493 124.961 57.6355 123.993 54.4188Z" fill="#FDDFD4"/>
<path d="M117.231 41.1378C118.325 40.2079 118.411 38.6707 118.55 36.1562C118.664 34.1003 118.917 29.5267 116.908 28.679C115.466 28.0718 113.552 29.6785 111.275 31.5921C108.609 33.8314 106.657 35.4698 106.876 37.317C107.265 40.6412 114.523 43.434 117.231 41.1378Z" fill="url(#paint10_linear_578_1111)"/>
<path d="M59.0462 35.5457C58.9639 34.3913 58.1194 33.5341 56.7467 32.1298C55.6207 30.9816 53.1189 28.426 51.8157 29.2009C50.8827 29.7576 51.0155 31.7629 51.1768 34.1509C51.3666 36.9437 51.5026 38.9901 52.6444 39.8283C54.6972 41.3339 59.2518 38.3923 59.0462 35.5457Z" fill="url(#paint11_linear_578_1111)"/>
<path d="M84.576 76.9991C82.7784 77.0346 81.0548 75.996 79.8923 74.2593C78.34 76.1236 76.0821 76.8715 74.167 75.9287C72.0704 74.8973 71.2002 72.1858 71.0154 70.7467C70.9079 69.9173 71.3749 69.1411 72.0536 69.017C72.7357 68.893 73.3707 69.4601 73.4782 70.2895C73.4849 70.3391 73.7974 72.4729 75.0876 73.1109C76.2568 73.6851 78.0578 72.9017 78.8776 70.8141C79.0926 70.2647 79.5596 69.9279 80.0636 69.9598C80.5642 69.9917 81.0044 70.3887 81.1757 70.9629C81.7637 72.923 83.3698 74.199 84.912 73.9225C86.1014 73.7099 87.1463 72.5863 87.573 71.0622C87.7947 70.2682 88.5037 69.85 89.1555 70.1264C89.8073 70.4029 90.1568 71.2677 89.9316 72.0617C89.1958 74.6846 87.4151 76.5525 85.2815 76.9318C85.0497 76.9708 84.8112 76.9956 84.576 76.9991Z" fill="url(#paint12_linear_578_1111)"/>
<path d="M79.5653 71.9999C79.3271 72.0032 79.0888 71.9262 78.8803 71.7722L75.568 69.2839C75.1775 68.9926 74.9624 68.4701 75.0054 67.9343C75.0484 67.3985 75.3463 66.9363 75.7764 66.7421C76.9611 66.2029 78.2582 65.9484 79.5289 66.0087C80.8327 66.069 82.1398 66.4608 83.3145 67.1406C83.7215 67.3784 83.9862 67.8573 83.9995 68.3864C84.0127 68.9189 83.7778 69.4112 83.3807 69.6757L80.151 71.8191C79.969 71.9329 79.7672 71.9932 79.5653 71.9999ZM79.5653 68.8787L79.5719 68.8854L79.5786 68.8821C79.5752 68.8821 79.5719 68.8821 79.5653 68.8787Z" fill="url(#paint13_linear_578_1111)"/>
<path d="M103.842 71C103.778 71 103.711 70.9962 103.644 70.9811L100.014 70.2309C99.3665 70.0983 98.9196 69.2686 99.0121 68.382C99.1079 67.4955 99.708 66.8855 100.356 67.0181L103.986 67.7683C104.634 67.9009 105.08 68.7306 104.988 69.6171C104.905 70.4128 104.41 70.9886 103.842 71Z" fill="url(#paint14_linear_578_1111)"/>
<path d="M100.913 74.9996C100.803 75.003 100.689 74.9827 100.575 74.9386L97.7965 73.844C97.2073 73.6136 96.8723 72.8037 97.0457 72.0344C97.2192 71.2651 97.8384 70.8314 98.4247 71.0618L101.203 72.1564C101.793 72.3868 102.128 73.1968 101.954 73.966C101.814 74.5862 101.383 74.9895 100.913 74.9996Z" fill="url(#paint15_linear_578_1111)"/>
<path d="M97.8721 78.9999C97.6684 79.0031 97.4585 78.9416 97.2701 78.8056L95.566 77.5819C95.0196 77.1901 94.8374 76.3387 95.1585 75.6782C95.4795 75.0178 96.1803 74.8041 96.7268 75.1959L98.434 76.4196C98.9804 76.8113 99.1626 77.6628 98.8415 78.3232C98.6285 78.7506 98.255 78.9902 97.8721 78.9999Z" fill="url(#paint16_linear_578_1111)"/>
<path d="M57.2131 69.9998C56.6426 70.0108 56.1298 69.478 56.0208 68.7154C55.899 67.8652 56.3253 67.0515 56.9695 66.8946L60.5914 66.0261C61.2356 65.8692 61.8606 66.4348 61.9792 67.285C62.101 68.1352 61.6747 68.9489 61.0305 69.1058L57.4118 69.9743C57.3445 69.9889 57.2804 69.9962 57.2131 69.9998Z" fill="url(#paint17_linear_578_1111)"/>
<path d="M59.3696 74.9998C58.802 75.0097 58.267 74.6342 58.0717 74.0346C57.8332 73.2967 58.2091 72.4963 58.9105 72.2459L62.2255 71.0732C62.9269 70.8262 63.6897 71.2247 63.9283 71.9626C64.1668 72.7005 63.7909 73.501 63.0895 73.7513L59.7745 74.924C59.6407 74.9735 59.5033 74.9965 59.3696 74.9998Z" fill="url(#paint18_linear_578_1111)"/>
<path d="M63.1836 77.9999C62.7933 78.0062 62.4093 77.783 62.1845 77.3683C61.838 76.7304 61.9941 75.8851 62.5311 75.48L64.2139 74.2137C64.754 73.8086 65.4689 73.9968 65.8155 74.6315C66.162 75.2695 66.0059 76.1148 65.4689 76.5198L63.7861 77.7862C63.5988 77.9265 63.3896 77.9967 63.1836 77.9999Z" fill="url(#paint19_linear_578_1111)"/>
<path d="M73.8901 59.2843C73.1897 62.7848 69.239 65.2827 65.4793 64.9743C61.8636 64.6792 58 61.7588 58 57.4905C58 53.2121 61.877 50.1677 65.4793 50.0067C69.0078 49.8491 71.3836 52.508 71.913 53.1451C72.3955 53.7218 74.4999 56.2432 73.8901 59.2843Z" fill="#F68D64"/>
<path d="M88.1024 59.2834C88.7574 62.7839 92.4637 65.2808 95.9873 64.9746C99.3756 64.6787 102.997 61.7599 103 57.4906C103 53.2145 99.363 50.1665 95.9873 50.0066C92.6778 49.8502 90.4515 52.507 89.954 53.1431C89.5068 53.7214 87.5325 56.2422 88.1024 59.2834Z" fill="#F68D64"/>
<path d="M93 61C95.2091 61 97 58.9853 97 56.5C97 54.0147 95.2091 52 93 52C90.7909 52 89 54.0147 89 56.5C89 58.9853 90.7909 61 93 61Z" fill="url(#paint20_linear_578_1111)"/>
<path d="M97.5 58C98.8807 58 100 56.8807 100 55.5C100 54.1193 98.8807 53 97.5 53C96.1193 53 95 54.1193 95 55.5C95 56.8807 96.1193 58 97.5 58Z" fill="white"/>
<path d="M64 60C66.2091 60 68 58.2091 68 56C68 53.7909 66.2091 52 64 52C61.7909 52 60 53.7909 60 56C60 58.2091 61.7909 60 64 60Z" fill="url(#paint21_linear_578_1111)"/>
<path d="M68 58C69.1046 58 70 56.8807 70 55.5C70 54.1193 69.1046 53 68 53C66.8954 53 66 54.1193 66 55.5C66 56.8807 66.8954 58 68 58Z" fill="white"/>
<path d="M40.9289 74.3326C41.1851 74.2313 41.4445 74.1301 41.7133 74.0289C41.7892 74.0005 41.8778 73.9657 41.8936 73.9625C42.3238 73.8075 43.8641 74.2408 44.7592 74.7121C47.1345 75.9615 49.7123 79.9878 50.0349 80.5002L44.5821 79.1781L40.0654 74.8228L40.9289 74.3326Z" fill="#FDDFD4"/>
<path opacity="0.31" d="M40.9289 74.3326C41.1851 74.2313 41.4445 74.1301 41.7133 74.0289C41.7892 74.0005 41.8778 73.9657 41.8936 73.9625C42.3238 73.8075 43.8641 74.2408 44.7592 74.7121C47.1345 75.9615 49.7123 79.9878 50.0349 80.5002L44.5821 79.1781L40.0654 74.8228L40.9289 74.3326Z" fill="#EA6225"/>
<path d="M41.7451 70.9356C41.9317 70.9166 42.1183 70.8913 42.3049 70.8723C42.3492 70.8692 42.384 70.8565 42.4156 70.8249C42.4441 70.7964 42.463 70.7521 42.463 70.7142C42.4599 70.6351 42.3935 70.5465 42.3049 70.556C42.1183 70.575 41.9317 70.6003 41.7451 70.6193C41.7008 70.6225 41.666 70.6351 41.6344 70.6667C41.6059 70.6952 41.5869 70.7395 41.5869 70.7774C41.5901 70.8565 41.6565 70.9451 41.7451 70.9356Z" fill="#F6B79D"/>
<path d="M41.7417 70.7205C41.7955 70.7047 41.8493 70.6889 41.9031 70.6794C41.8904 70.6825 41.8746 70.6825 41.8619 70.6857C41.9315 70.6762 42.0043 70.6794 42.0738 70.6889C42.0612 70.6857 42.0454 70.6857 42.0327 70.6825C42.096 70.692 42.1529 70.711 42.213 70.7332C42.2921 70.7616 42.3901 70.7015 42.4091 70.6224C42.4281 70.5339 42.3807 70.458 42.2984 70.4263C42.2541 70.4105 42.2067 70.3916 42.1592 70.3821C42.0992 70.3694 42.0391 70.3631 41.979 70.3631C41.8683 70.3599 41.7639 70.3852 41.6595 70.4137C41.5804 70.4358 41.5235 70.5276 41.5488 70.6098C41.5741 70.692 41.6563 70.7458 41.7417 70.7205Z" fill="#F6B79D"/>
<path d="M41.6786 70.7205C41.7324 70.6984 41.783 70.6825 41.84 70.6699C41.8589 70.6667 41.8558 70.6667 41.8368 70.6699C41.8463 70.6699 41.8558 70.6699 41.8621 70.6667C41.8779 70.6667 41.8906 70.6667 41.9064 70.6667C41.938 70.6667 41.9696 70.6699 41.9981 70.6731C42.0139 70.6762 42.0329 70.6762 42.0487 70.6794C42.0835 70.6825 42.0266 70.6762 42.0645 70.6825C42.0961 70.6857 42.1278 70.692 42.1562 70.6952C42.1974 70.7015 42.2353 70.7078 42.2764 70.711C42.2891 70.7142 42.3049 70.7142 42.3176 70.7173C42.2796 70.711 42.3397 70.7237 42.346 70.7237C42.4251 70.7426 42.52 70.6984 42.5421 70.613C42.5611 70.5339 42.5168 70.439 42.4314 70.4169C42.3903 70.4074 42.346 70.4042 42.3049 70.3979C42.2954 70.3979 42.2859 70.3947 42.2764 70.3947C42.2954 70.3979 42.2954 70.3979 42.2764 70.3947C42.2606 70.3916 42.248 70.3916 42.2322 70.3884C42.1531 70.3757 42.0772 70.3631 41.9981 70.3568C41.9222 70.3504 41.8494 70.3504 41.7735 70.3599C41.7103 70.3694 41.6533 70.3916 41.5932 70.4137C41.5173 70.4453 41.4541 70.5212 41.4825 70.6098C41.5078 70.6857 41.5964 70.7521 41.6786 70.7205Z" fill="#F6B79D"/>
<path d="M38.6516 93.2753L21.6699 90.3369C19.9176 90.0333 18.7442 88.3696 19.0478 86.6173L23.245 62.3514C23.5487 60.5992 25.2124 59.4257 26.9646 59.7294L43.9463 62.6677C45.6986 62.9714 46.872 64.6351 46.5684 66.3873L42.3712 90.6532C42.0707 92.4055 40.4038 93.5789 38.6516 93.2753Z" fill="url(#paint22_linear_578_1111)"/>
<path d="M41.7448 72.3209L26.1516 69.623C25.2755 69.4712 24.6903 68.6393 24.839 67.7632L25.4969 63.9519C25.6487 63.0757 26.4805 62.4906 27.3567 62.6393L42.9498 65.3372C43.826 65.489 44.4111 66.3209 44.2625 67.197L43.6046 71.0083C43.4527 71.8845 42.6209 72.4728 41.7448 72.3209Z" fill="#FDDFD4"/>
<path d="M26.7119 76.7047L24.6054 76.341C23.764 76.1955 23.1979 75.3953 23.3434 74.554L23.5837 73.1591C23.7292 72.3178 24.5294 71.7516 25.3708 71.8971L27.4773 72.2609C28.3186 72.4063 28.8848 73.2066 28.7393 74.0479L28.4989 75.4427C28.3534 76.2872 27.5532 76.8502 26.7119 76.7047Z" fill="#EAEDEF"/>
<path d="M33.8312 77.9383L31.7247 77.5745C30.8834 77.4291 30.3172 76.6288 30.4627 75.7875L30.7031 74.3927C30.8486 73.5513 31.6488 72.9852 32.4902 73.1307L34.5967 73.4944C35.438 73.6399 36.0042 74.4401 35.8587 75.2814L35.6183 76.6763C35.4728 77.5176 34.6726 78.0838 33.8312 77.9383Z" fill="#EAEDEF"/>
<path d="M40.6345 79.1149L38.528 78.7511C37.6866 78.6057 37.1205 77.8054 37.266 76.9641L37.5063 75.5693C37.6518 74.7279 38.4521 74.1618 39.2934 74.3073L41.3999 74.671C42.2412 74.8165 42.8074 75.6167 42.6619 76.458L42.4215 77.8529C42.276 78.6942 41.4758 79.2604 40.6345 79.1149Z" fill="#EAEDEF"/>
<path d="M25.6645 82.7459L23.558 82.3822C22.7167 82.2367 22.1505 81.4365 22.296 80.5951L22.5364 79.2003C22.6819 78.3589 23.4821 77.7928 24.3234 77.9383L26.4299 78.302C27.2713 78.4475 27.8374 79.2477 27.6919 80.0891L27.4515 81.4839C27.3092 82.3252 26.5058 82.8914 25.6645 82.7459Z" fill="#EAEDEF"/>
<path d="M24.6208 88.7839L22.5143 88.4202C21.673 88.2747 21.1068 87.4745 21.2523 86.6331L21.4927 85.2383C21.6382 84.397 22.4384 83.8308 23.2797 83.9763L25.3862 84.34C26.2276 84.4855 26.7937 85.2857 26.6482 86.1271L26.4078 87.5219C26.2623 88.3664 25.4621 88.9294 24.6208 88.7839Z" fill="#EAEDEF"/>
<path d="M32.7846 83.9763L30.6781 83.6125C29.8368 83.4671 29.2706 82.6668 29.4161 81.8255L29.6565 80.4307C29.802 79.5893 30.6022 79.0232 31.4435 79.1686L33.55 79.5324C34.3914 79.6779 34.9575 80.4781 34.812 81.3194L34.5717 82.7143C34.4293 83.5588 33.6291 84.1218 32.7846 83.9763Z" fill="#EAEDEF"/>
<path d="M31.7407 90.0143L29.6342 89.6505C28.7928 89.5051 28.2267 88.7048 28.3722 87.8635L28.6125 86.4687C28.758 85.6273 29.5583 85.0612 30.3996 85.2067L32.5061 85.5704C33.3474 85.7159 33.9136 86.5161 33.7681 87.3574L33.5277 88.7523C33.3822 89.5968 32.582 90.1629 31.7407 90.0143Z" fill="#EAEDEF"/>
<path d="M38.5439 91.1941L36.4374 90.8303C35.5961 90.6848 35.0299 89.8846 35.1754 89.0433L36.4627 81.6104C36.6082 80.7691 37.4084 80.2029 38.2497 80.3484L40.3562 80.7122C41.1976 80.8577 41.7637 81.6579 41.6182 82.4992L40.3309 89.9321C40.1854 90.7734 39.3852 91.3396 38.5439 91.1941Z" fill="#CE3232"/>
<path d="M45.2844 87.4144C45.1389 86.8514 44.889 86.4149 44.5316 85.9594C44.2027 85.5419 43.8168 85.1845 43.3961 84.8651C42.501 84.1819 41.432 83.8656 40.3155 84.087C39.2401 84.2989 38.4999 85.5767 38.579 86.6331C38.6644 87.7402 39.4045 88.7175 40.2427 89.3975C40.6887 89.7581 41.1663 90.0681 41.6818 90.3211C41.9728 90.4634 42.2638 90.6026 42.5643 90.7259C42.8964 90.8619 43.1431 90.9916 43.5416 90.9315C44.0129 90.862 44.3039 90.1471 44.0129 89.7707C43.7915 89.4798 43.5258 89.3343 43.2127 89.154C43.0577 89.0654 43.0545 89.0559 42.9154 88.9484C42.7667 88.8314 42.6117 88.7207 42.4568 88.6131C42.0424 88.319 41.6818 88.028 41.4003 87.5915C41.3213 87.4681 41.2201 87.3321 41.1631 87.193C41.1853 87.2436 41.1821 87.2752 41.16 87.155C41.1505 87.1012 41.1315 87.0506 41.1252 86.9937C41.141 87.1171 41.1441 86.7502 41.1315 86.8134C41.1157 86.9146 41.1789 86.6711 41.1726 86.6837C41.1315 86.7913 41.2295 86.5889 41.2359 86.5794C41.1979 86.63 41.2675 86.5604 41.3118 86.5319C41.4288 86.4497 41.3719 86.494 41.3339 86.5129C41.3149 86.5129 41.2928 86.5129 41.2738 86.5129C41.3624 86.5129 41.3814 86.5129 41.3244 86.5129C41.3308 86.5224 41.1884 86.4434 41.1821 86.4402C41.2169 86.4655 41.296 86.5003 41.1884 86.4339C41.2548 86.475 41.2232 86.5129 41.1948 86.4244C41.2011 86.4402 41.239 86.6236 41.2485 86.6268C41.1347 86.6015 41.3402 86.3327 41.3434 86.32C41.3529 86.3137 41.3624 86.3074 41.3719 86.301C41.3339 86.3263 41.296 86.3516 41.2548 86.3738C41.2232 86.3959 41.1094 86.4339 41.2707 86.3738C41.2295 86.3896 41.1884 86.4054 41.1441 86.4181C41.1188 86.4244 40.967 86.5035 41.0524 86.4465C41.0651 86.4434 41.0777 86.4434 41.0904 86.4402C40.9512 86.4339 41.0018 86.4528 41.2454 86.4971C41.3434 86.5541 41.3814 86.6395 41.413 86.7375C41.4098 86.728 41.413 86.5762 41.4003 86.7027C41.4035 86.6837 41.4383 86.5509 41.4351 86.5477C41.4541 86.5636 41.3656 86.6489 41.3561 86.6616C41.4478 86.5414 41.3276 86.6616 41.3055 86.6869C41.2517 86.747 41.3402 86.6806 41.3909 86.6711C41.3592 86.6774 41.2264 86.6837 41.375 86.6837C41.5205 86.6837 41.3845 86.6774 41.3529 86.6711C41.4256 86.6837 41.5016 86.6996 41.568 86.728C41.4668 86.6869 41.5901 86.747 41.6028 86.7533C41.8115 86.8704 41.5711 86.7122 41.6755 86.7976C41.7767 86.883 41.8115 86.921 41.8463 87C41.8178 86.9399 41.9159 87.2309 41.9127 87.2025C41.9191 87.2436 41.9285 87.4492 41.9191 87.5504C41.9096 87.6453 41.9918 87.4428 41.9032 87.601C41.8938 87.6168 41.8431 87.7465 41.8969 87.62C41.8305 87.7749 41.8748 87.6674 41.8843 87.6453C41.8653 87.6642 41.8463 87.6801 41.8242 87.699C41.9222 87.6073 42.0329 87.5852 42.1531 87.6326C42.2069 87.6389 42.2638 87.6453 42.3176 87.6548C42.2385 87.6073 42.2385 87.6105 42.3144 87.6579C42.3302 87.6832 42.3461 87.7085 42.3587 87.7338C42.4156 87.7971 42.4315 87.873 42.4061 87.9584C42.4599 88.047 42.4093 87.7749 42.4188 87.911C42.422 87.9426 42.248 88.0406 42.4093 87.9268C42.5358 87.8414 42.5833 87.8034 42.6687 87.8002C42.6529 87.8002 42.637 87.8034 42.6244 87.8034C42.713 87.8066 42.7351 87.8034 42.6845 87.7939C42.6339 87.7813 42.6529 87.7876 42.7414 87.8097C42.4821 87.291 42.3555 87.1519 42.3619 87.3922C42.2954 87.5219 42.4473 87.2467 42.3492 87.4903C42.384 87.4049 42.3144 87.5504 42.2986 87.5725C42.2259 87.6864 42.3967 87.484 42.2417 87.6484C42.2227 87.6674 42.2037 87.6864 42.1879 87.7085C42.1183 87.7718 42.1088 87.7813 42.1626 87.7402C42.1721 87.737 42.1816 87.737 42.1879 87.7338C42.4315 87.6737 42.6529 87.7813 42.8521 88.0564C42.8679 88.1292 42.8458 88.1608 42.849 88.2272C42.849 88.1925 42.9122 88.1197 42.8679 88.1988C42.9375 88.1355 42.9407 88.126 42.8774 88.1735C42.9027 88.1577 42.928 88.1418 42.9533 88.126C42.9375 88.1197 42.8996 88.1418 42.8806 88.126C42.8521 88.1165 42.8268 88.107 42.8015 88.0912C42.7193 87.9426 42.6402 87.7908 42.558 87.6421C42.5643 87.6073 42.5675 87.5725 42.5738 87.5377C42.5548 87.5978 42.558 87.5978 42.5801 87.5409C42.6086 87.4808 42.6054 87.4808 42.5738 87.5472C42.6434 87.446 42.7351 87.3764 42.8553 87.3353C42.9945 87.3353 43.1368 87.3353 43.276 87.3353C43.6017 87.4871 43.7346 87.6832 43.6808 87.9268C43.6682 87.9932 43.6713 87.9869 43.684 87.9141C43.6871 87.835 43.7725 87.7655 43.6808 87.8983C43.4942 88.164 42.966 88.0248 42.7952 87.7686C42.7699 87.7085 42.7699 87.7117 42.7889 87.7813C42.7762 87.6737 42.7699 87.6484 42.773 87.7085C42.7636 87.7465 42.7604 87.873 42.7762 87.7781C42.7636 87.8603 42.7383 87.9489 42.7098 88.028C42.7477 87.9236 42.6434 88.1577 42.6434 88.1545C42.6307 88.1735 42.5042 88.3538 42.5706 88.2715C42.8901 88.2304 43.2095 88.1893 43.529 88.1482C43.5227 88.145 43.5163 88.1418 43.5068 88.1387C43.6017 88.2336 43.6966 88.3285 43.7915 88.4233C43.8737 88.5625 43.899 88.7048 43.8611 88.8503C43.8674 88.8155 43.8769 88.7839 43.8832 88.7491C43.9022 88.6954 43.9275 88.6321 43.937 88.5752C43.9591 88.5151 43.9497 88.5372 43.9054 88.6479C43.9275 88.6005 43.9528 88.5562 43.9781 88.5119C44.0129 88.4486 44.0414 88.3822 44.0793 88.3221C43.9844 88.417 43.8896 88.5119 43.7947 88.6068C43.8073 88.6005 43.8168 88.5941 43.8295 88.5878C43.4341 88.3601 43.0356 88.1324 42.6402 87.9046C42.6402 87.8951 42.6718 87.7402 42.6876 87.7402C42.6782 87.737 42.5928 87.9521 42.5991 87.9394C42.5358 88.0881 42.4789 88.2367 42.422 88.3885C42.3176 88.67 42.2512 88.961 42.1626 89.2489C42.0393 89.6569 42.3113 90.1092 42.7161 90.223C43.1463 90.3401 43.5574 90.0775 43.6903 89.6695C43.6935 89.6569 43.6998 89.6442 43.7029 89.6316C43.8358 89.2267 43.548 88.7681 43.1494 88.6574C42.7193 88.5404 42.3081 88.8029 42.1753 89.2109C42.1721 89.2236 42.1658 89.2362 42.1626 89.2489C42.6718 89.388 43.1779 89.5304 43.6871 89.6695C43.782 89.3532 43.8611 89.0306 43.9781 88.7207C44.0003 88.6606 44.0224 88.6036 44.0477 88.5435C43.9939 88.6732 44.054 88.534 44.0667 88.5087C44.1552 88.3158 44.2438 88.1229 44.2217 87.9046C44.1616 87.3226 43.5922 86.902 43.0324 87.2214C42.694 87.4112 42.501 87.8762 42.3872 88.2336C42.248 88.6701 42.2354 89.2837 42.7288 89.5145C43.0229 89.6537 43.4531 89.6759 43.6871 89.3912C44.1584 88.8187 44.4905 88.0596 44.3007 87.3037C44.0572 86.3295 42.7857 86.282 42.3144 87.0981C41.9254 87.7718 42.1057 88.8883 43.0609 88.8883C43.9117 88.8883 44.3925 87.756 43.9686 87.0823C43.4594 86.2757 42.3176 86.4845 41.7419 87.0791C41.4763 87.3543 41.2802 87.7275 41.277 88.1134C41.2707 88.5973 41.549 89.1034 42.0329 89.2489C42.8458 89.4956 43.6682 88.6353 43.8674 87.9078C43.9686 87.5409 43.9908 87.0696 43.7852 86.7343C43.5448 86.339 43.0577 86.1998 42.6181 86.2188C41.8368 86.2504 41.0398 86.7944 40.869 87.5788C40.6665 88.5056 41.5269 89.4102 42.4662 89.1065C43.2127 88.8662 43.5385 87.9805 43.491 87.2657C43.4373 86.475 43.0672 85.7475 42.3524 85.3585C41.723 85.0169 40.8911 84.9726 40.3186 85.4565C39.7714 85.9215 39.6513 86.8988 40.0498 87.4903C40.5147 88.1861 41.4288 88.0944 42.0709 87.718C42.3808 87.5346 42.6718 87.2436 42.7636 86.8862C42.8584 86.5098 42.7699 86.1049 42.6054 85.7602C42.21 84.9346 41.1758 84.7069 40.4357 85.2098C39.6797 85.7254 39.4077 86.6236 39.6038 87.4966C39.7714 88.2462 40.3819 88.9958 40.9639 89.4671C41.5901 89.9763 42.1816 90.4128 42.8806 90.7987C42.7857 90.7038 42.6908 90.6089 42.5959 90.514C42.6086 90.533 42.6212 90.5488 42.637 90.5678C42.7952 90.1819 42.9533 89.7929 43.1083 89.407C43.0925 89.4102 43.0767 89.4102 43.0609 89.4133C43.2 89.4133 43.3424 89.4133 43.4815 89.4133C43.4974 89.4197 43.646 89.4861 43.5258 89.4292C43.4499 89.3944 43.3708 89.3627 43.2918 89.3279C43.2 89.29 43.1083 89.2552 43.0166 89.2172C42.8964 89.1666 42.6971 89.0654 42.5485 88.9927C42.2069 88.825 41.8716 88.6416 41.5553 88.4265C41.2802 88.2399 41.0303 88.0185 40.7804 87.7402C40.6634 87.6105 40.5717 87.4966 40.4768 87.3543C40.4262 87.2784 40.3756 87.2025 40.3281 87.1234C40.3028 87.0823 40.2174 86.9115 40.2301 86.9431C40.1984 86.8609 40.1795 86.7723 40.1605 86.6869C40.1352 86.5794 40.1415 86.6489 40.1415 86.5382C40.1415 86.3706 40.1542 86.3042 40.2142 86.1492C40.2269 86.1144 40.2902 85.9879 40.325 85.9215C40.3408 85.893 40.4515 85.7412 40.385 85.8266C40.4357 85.7633 40.4926 85.7064 40.54 85.6431C40.5274 85.659 40.5084 85.659 40.4926 85.6684C40.4578 85.6906 40.5748 85.6431 40.597 85.64C41.2454 85.4755 41.8368 85.6969 42.3998 86.0954C42.6655 86.2852 42.9913 86.5983 43.2443 86.8925C43.3645 87.0317 43.4752 87.1866 43.5796 87.3574C43.6017 87.3922 43.6239 87.4302 43.6428 87.4681C43.6081 87.3954 43.646 87.484 43.6555 87.5124C43.6871 87.62 43.7156 87.7307 43.7441 87.8382C43.8516 88.2525 44.3102 88.5024 44.7182 88.3917C45.1516 88.2715 45.3919 87.8287 45.2844 87.4144Z" fill="#F6B79D"/>
<path d="M44.1706 90.0617C44.2496 89.8182 44.3287 89.5715 44.4268 89.3343C44.4015 89.3975 44.373 89.4608 44.3477 89.524C44.5406 89.0717 44.8221 88.6637 45.0593 88.2336C45.1606 88.0501 45.1953 87.8287 45.1384 87.6231C45.0878 87.4397 44.9455 87.2404 44.7747 87.1518C44.4046 86.9557 43.9049 87.0475 43.693 87.4365C43.5063 87.7749 43.2944 88.0976 43.1173 88.4423C42.918 88.825 42.7789 89.233 42.646 89.6442C42.5195 90.0396 42.7947 90.5235 43.1995 90.6184C43.6297 90.7133 44.0346 90.4824 44.1706 90.0617Z" fill="#F6B79D"/>
<path d="M40.6316 89.6379C40.9448 89.8846 41.2579 90.125 41.6058 90.3242C41.9284 90.5109 42.27 90.669 42.6116 90.8208C43.3296 91.1403 44.0602 91.4281 44.8067 91.6748C45.1989 91.8045 45.6891 91.523 45.7809 91.1213C45.8789 90.6848 45.648 90.2895 45.2274 90.1471C44.9047 90.0396 44.5821 89.9257 44.2658 89.8055C44.1077 89.7454 43.9495 89.6822 43.7914 89.6189C43.7471 89.5999 43.7028 89.581 43.6554 89.562C43.7313 89.5936 43.7281 89.5936 43.6427 89.5557C43.5637 89.5209 43.4877 89.4892 43.4087 89.4544C43.0987 89.3184 42.7919 89.1761 42.4946 89.0116C42.3491 88.9294 42.2068 88.844 42.0676 88.7523C42.0012 88.708 41.9348 88.6574 41.8683 88.6099C41.7956 88.5562 41.7924 88.553 41.862 88.6068C41.8241 88.5783 41.7893 88.5499 41.7513 88.5182C41.5805 88.3822 41.4192 88.2873 41.1915 88.2873C40.9985 88.2873 40.7645 88.3727 40.6316 88.5182C40.3691 88.8029 40.2837 89.3627 40.6316 89.6379Z" fill="#F6B79D"/>
<path d="M43.7599 87.6547C43.6903 87.9647 43.6207 88.2747 43.6333 88.5941C43.646 88.8978 43.6903 89.2014 43.7345 89.5019C43.8199 90.0586 43.9971 90.5741 44.2311 91.0865C44.3102 91.2573 44.5316 91.4028 44.7024 91.4502C44.8922 91.5009 45.1452 91.4787 45.3128 91.3712C45.7019 91.1213 45.781 90.6943 45.5975 90.2895C45.5849 90.2578 45.569 90.2294 45.5564 90.1977C45.5216 90.1187 45.5279 90.1376 45.5785 90.2483C45.5817 90.2009 45.5216 90.106 45.5058 90.0617C45.4647 89.951 45.4299 89.8403 45.3982 89.7296C45.3255 89.4734 45.2781 89.2141 45.2433 88.9515C45.2527 89.0211 45.2622 89.0907 45.2717 89.1603C45.2338 88.8725 45.1958 88.5783 45.2274 88.2873C45.218 88.3569 45.2085 88.4265 45.199 88.4961C45.2211 88.3537 45.2527 88.2146 45.2875 88.0722C45.3793 87.6706 45.1642 87.1961 44.734 87.0981C44.3292 87.0095 43.8579 87.2246 43.7599 87.6547Z" fill="#F6B79D"/>
<path d="M41.1724 88.0881C41.3622 88.9895 42.1466 89.9131 42.8235 90.5045C43.1176 90.7607 43.4213 91.0074 43.7281 91.2478C44.4429 91.8045 44.9806 92.0892 45.8915 92.2093C46.9606 92.3517 47.9917 91.1624 47.9474 90.1535C47.8936 88.9168 47.0397 88.2494 45.8915 88.0976C46.1635 88.0533 46.3881 88.1134 46.5621 88.2778C46.6569 88.3538 46.6601 88.3601 46.5779 88.2937C46.464 88.2114 46.3565 88.1229 46.2489 88.0311C46.0338 87.854 45.8061 87.6801 45.6069 87.4871C45.5278 87.4112 45.4645 87.3321 45.3949 87.2499C45.357 87.2056 45.0533 86.9589 45.2463 87.1139C45.4297 87.2594 45.221 87.0443 45.1735 86.9684C45.0597 86.785 45.0407 86.5351 45.1356 86.9937C44.9142 85.9404 43.6174 85.232 42.6052 85.5577C41.4951 85.9183 40.9352 86.9589 41.1724 88.0881Z" fill="#FDDFD4"/>
<path d="M128.049 56.8753L137.859 48.8164C138.059 48.643 138.35 48.5808 138.608 48.6495C139.027 48.7608 139.273 49.1896 139.162 49.6151C139.106 49.8279 138.998 49.9719 138.847 50.0897L129.037 58.1486C128.838 58.3221 128.546 58.3843 128.288 58.3155C127.872 58.2042 127.623 57.7754 127.735 57.3532C127.79 57.1371 127.915 56.9964 128.049 56.8753ZM128.026 48.967L128.036 48.9343C128.461 47.3238 129.915 46.3157 131.551 46.7477C133.172 47.1765 133.924 48.751 133.502 50.3451L133.492 50.3778C133.07 51.9719 131.613 52.9964 129.977 52.5644C128.357 52.1356 127.607 50.5611 128.026 48.967ZM131.8 49.9654L131.81 49.9326C132.013 49.1667 131.771 48.3909 131.129 48.2207C130.455 48.0439 129.928 48.6004 129.731 49.3467L129.721 49.3794C129.519 50.1454 129.761 50.9212 130.402 51.0914C131.077 51.2714 131.607 50.6986 131.8 49.9654ZM133.391 56.6167L133.401 56.5839C133.826 54.9735 135.279 53.9653 136.916 54.3974C138.536 54.8262 139.289 56.4006 138.867 57.9947L138.857 58.0275C138.435 59.6216 136.978 60.6461 135.342 60.214C133.721 59.7852 132.969 58.2108 133.391 56.6167ZM137.165 57.615L137.175 57.5823C137.378 56.8164 137.135 56.0406 136.494 55.8704C135.82 55.6936 135.293 56.2501 135.096 56.9964L135.086 57.0291C134.883 57.7951 135.126 58.5708 135.767 58.741C136.442 58.9211 136.972 58.3482 137.165 57.615Z" fill="#FBF4B3"/>
</g>
<defs>
<linearGradient id="paint0_linear_578_1111" x1="90.465" y1="223.698" x2="90.465" y2="-33.0081" gradientUnits="userSpaceOnUse">
<stop offset="0.489563" stop-color="#D6C485"/>
<stop offset="1" stop-color="#FFA216"/>
</linearGradient>
<linearGradient id="paint1_linear_578_1111" x1="82.5" y1="19" x2="82.5" y2="140" gradientUnits="userSpaceOnUse">
<stop stop-color="#FF5C5C"/>
<stop offset="1" stop-color="#C4C4C4" stop-opacity="0"/>
</linearGradient>
<linearGradient id="paint2_linear_578_1111" x1="73.5323" y1="135.097" x2="73.5323" y2="220.831" gradientUnits="userSpaceOnUse">
<stop stop-color="#34427F"/>
<stop offset="1" stop-color="#449EE0"/>
</linearGradient>
<linearGradient id="paint3_linear_578_1111" x1="13.0921" y1="97.1581" x2="53.9573" y2="97.1581" gradientUnits="userSpaceOnUse">
<stop stop-color="#F68D64"/>
<stop offset="1" stop-color="#D94626"/>
</linearGradient>
<linearGradient id="paint4_linear_578_1111" x1="19.504" y1="104.404" x2="60.3472" y2="104.404" gradientUnits="userSpaceOnUse">
<stop offset="0.0159" stop-color="#6661AB"/>
<stop offset="0.9983" stop-color="#462F7E"/>
</linearGradient>
<linearGradient id="paint5_linear_578_1111" x1="12.4333" y1="113.32" x2="60.3472" y2="113.32" gradientUnits="userSpaceOnUse">
<stop stop-color="#F68D64"/>
<stop offset="1" stop-color="#D94626"/>
</linearGradient>
<linearGradient id="paint6_linear_578_1111" x1="16.1224" y1="124.333" x2="63.0921" y2="124.333" gradientUnits="userSpaceOnUse">
<stop offset="0.0159" stop-color="#6661AB"/>
<stop offset="0.9983" stop-color="#462F7E"/>
</linearGradient>
<linearGradient id="paint7_linear_578_1111" x1="8.54677" y1="134.346" x2="58.0856" y2="134.346" gradientUnits="userSpaceOnUse">
<stop stop-color="#F68D64"/>
<stop offset="1" stop-color="#D94626"/>
</linearGradient>
<linearGradient id="paint8_linear_578_1111" x1="83.5693" y1="70.3244" x2="83.5693" y2="119.247" gradientUnits="userSpaceOnUse">
<stop stop-color="#F68D64"/>
<stop offset="1" stop-color="#D94627"/>
</linearGradient>
<linearGradient id="paint9_linear_578_1111" x1="77.8248" y1="103.478" x2="87.0438" y2="103.478" gradientUnits="userSpaceOnUse">
<stop stop-color="#F68D64"/>
<stop offset="1" stop-color="#D94627"/>
</linearGradient>
<linearGradient id="paint10_linear_578_1111" x1="109.718" y1="32.024" x2="119.146" y2="38.5238" gradientUnits="userSpaceOnUse">
<stop stop-color="#F68D64"/>
<stop offset="1" stop-color="#D94627"/>
</linearGradient>
<linearGradient id="paint11_linear_578_1111" x1="50.9576" y1="35.3439" x2="58.5074" y2="33.034" gradientUnits="userSpaceOnUse">
<stop stop-color="#F68D64"/>
<stop offset="1" stop-color="#D94627"/>
</linearGradient>
<linearGradient id="paint12_linear_578_1111" x1="71.0479" y1="73.1313" x2="90.0291" y2="72.811" gradientUnits="userSpaceOnUse">
<stop stop-color="#F68D64"/>
<stop offset="1" stop-color="#D94627"/>
</linearGradient>
<linearGradient id="paint13_linear_578_1111" x1="75.019" y1="69.0689" x2="84.0096" y2="68.9107" gradientUnits="userSpaceOnUse">
<stop stop-color="#F68D64"/>
<stop offset="1" stop-color="#D94627"/>
</linearGradient>
<linearGradient id="paint14_linear_578_1111" x1="104.972" y1="69.0428" x2="98.9845" y2="69.1327" gradientUnits="userSpaceOnUse">
<stop stop-color="#F68D64"/>
<stop offset="1" stop-color="#D94627"/>
</linearGradient>
<linearGradient id="paint15_linear_578_1111" x1="101.971" y1="73.0444" x2="96.9881" y2="73.1227" gradientUnits="userSpaceOnUse">
<stop stop-color="#F68D64"/>
<stop offset="1" stop-color="#D94627"/>
</linearGradient>
<linearGradient id="paint16_linear_578_1111" x1="98.9622" y1="77.0522" x2="94.9859" y2="77.1197" gradientUnits="userSpaceOnUse">
<stop stop-color="#F68D64"/>
<stop offset="1" stop-color="#D94627"/>
</linearGradient>
<linearGradient id="paint17_linear_578_1111" x1="55.9978" y1="68.0523" x2="62.01" y2="67.9583" gradientUnits="userSpaceOnUse">
<stop stop-color="#F68D64"/>
<stop offset="1" stop-color="#D94627"/>
</linearGradient>
<linearGradient id="paint18_linear_578_1111" x1="57.9928" y1="73.0426" x2="64.0148" y2="72.9249" gradientUnits="userSpaceOnUse">
<stop stop-color="#F68D64"/>
<stop offset="1" stop-color="#D94627"/>
</linearGradient>
<linearGradient id="paint19_linear_578_1111" x1="61.9921" y1="76.028" x2="66.0134" y2="75.9579" gradientUnits="userSpaceOnUse">
<stop stop-color="#F68D64"/>
<stop offset="1" stop-color="#D94627"/>
</linearGradient>
<linearGradient id="paint20_linear_578_1111" x1="88.9982" y1="56.4996" x2="96.9991" y2="56.4996" gradientUnits="userSpaceOnUse">
<stop stop-color="#47307E"/>
<stop offset="1" stop-color="#D94627"/>
</linearGradient>
<linearGradient id="paint21_linear_578_1111" x1="59.9999" y1="55.9987" x2="68.0008" y2="55.9987" gradientUnits="userSpaceOnUse">
<stop stop-color="#47307E"/>
<stop offset="1" stop-color="#D94627"/>
</linearGradient>
<linearGradient id="paint22_linear_578_1111" x1="19.0004" y1="76.5025" x2="46.6184" y2="76.5025" gradientUnits="userSpaceOnUse">
<stop offset="0.0159" stop-color="#6661AB"/>
<stop offset="0.9983" stop-color="#462F7E"/>
</linearGradient>
</defs>
</svg>
