<svg width="150" height="80" viewBox="0 0 150 80" fill="none" xmlns="http://www.w3.org/2000/svg">
<mask id="mask0_90_833" style="mask-type:alpha" maskUnits="userSpaceOnUse" x="0" y="0" width="150" height="80">
<rect width="150" height="80" rx="20" fill="#C4C4C4"/>
</mask>
<g mask="url(#mask0_90_833)">
<path d="M0.194829 98.7329L0.679861 17.2917C0.792657 -1.64783 16.2363 -16.9086 35.1758 -16.7958L116.617 -16.3108C135.556 -16.198 150.817 -0.754345 150.704 18.1851L150.219 99.6276C150.107 118.566 134.663 133.827 115.724 133.714L34.281 133.229C15.3428 133.116 0.0820329 117.672 0.194829 98.7329Z" fill="url(#paint0_linear_90_833)"/>
</g>
<path d="M51.7045 48H45.517V30.5455H51.7557C53.5114 30.5455 55.0227 30.8949 56.2898 31.5938C57.5568 32.2869 58.5313 33.2841 59.2131 34.5852C59.9006 35.8864 60.2443 37.4432 60.2443 39.2557C60.2443 41.0739 59.9006 42.6364 59.2131 43.9432C58.5313 45.25 57.5511 46.2528 56.2727 46.9517C55 47.6506 53.4773 48 51.7045 48ZM49.2074 44.8381H51.5511C52.642 44.8381 53.5597 44.6449 54.304 44.2585C55.054 43.8665 55.6165 43.2614 55.9915 42.4432C56.3722 41.6193 56.5625 40.5568 56.5625 39.2557C56.5625 37.9659 56.3722 36.9119 55.9915 36.0938C55.6165 35.2756 55.0568 34.6733 54.3125 34.2869C53.5682 33.9006 52.6506 33.7074 51.5597 33.7074H49.2074V44.8381ZM68.8246 48.2557C67.5007 48.2557 66.3558 47.9744 65.3899 47.4119C64.4297 46.8437 63.6882 46.054 63.1655 45.0426C62.6428 44.0256 62.3814 42.8466 62.3814 41.5057C62.3814 40.1534 62.6428 38.9716 63.1655 37.9602C63.6882 36.9432 64.4297 36.1534 65.3899 35.5909C66.3558 35.0227 67.5007 34.7386 68.8246 34.7386C70.1484 34.7386 71.2905 35.0227 72.2507 35.5909C73.2166 36.1534 73.9609 36.9432 74.4837 37.9602C75.0064 38.9716 75.2678 40.1534 75.2678 41.5057C75.2678 42.8466 75.0064 44.0256 74.4837 45.0426C73.9609 46.054 73.2166 46.8437 72.2507 47.4119C71.2905 47.9744 70.1484 48.2557 68.8246 48.2557ZM68.8416 45.4432C69.4439 45.4432 69.9467 45.2727 70.3501 44.9318C70.7536 44.5852 71.0575 44.1136 71.2621 43.517C71.4723 42.9205 71.5774 42.2415 71.5774 41.4801C71.5774 40.7188 71.4723 40.0398 71.2621 39.4432C71.0575 38.8466 70.7536 38.375 70.3501 38.0284C69.9467 37.6818 69.4439 37.5085 68.8416 37.5085C68.2337 37.5085 67.7223 37.6818 67.3075 38.0284C66.8984 38.375 66.5888 38.8466 66.3786 39.4432C66.174 40.0398 66.0717 40.7188 66.0717 41.4801C66.0717 42.2415 66.174 42.9205 66.3786 43.517C66.5888 44.1136 66.8984 44.5852 67.3075 44.9318C67.7223 45.2727 68.2337 45.4432 68.8416 45.4432ZM81.2592 40.4318V48H77.6286V34.9091H81.0888V37.2188H81.2422C81.532 36.4574 82.0178 35.8551 82.6996 35.4119C83.3814 34.9631 84.2081 34.7386 85.1797 34.7386C86.0888 34.7386 86.8814 34.9375 87.5575 35.3352C88.2337 35.733 88.7592 36.3011 89.1342 37.0398C89.5092 37.7727 89.6967 38.6477 89.6967 39.6648V48H86.0661V40.3125C86.0717 39.5114 85.8672 38.8864 85.4524 38.4375C85.0376 37.983 84.4666 37.7557 83.7393 37.7557C83.2507 37.7557 82.8189 37.8608 82.4439 38.071C82.0746 38.2812 81.7848 38.5881 81.5746 38.9915C81.37 39.3892 81.2649 39.8693 81.2592 40.4318ZM98.5241 48.2557C97.1776 48.2557 96.0185 47.983 95.0469 47.4375C94.081 46.8864 93.3366 46.108 92.8139 45.1023C92.2912 44.0909 92.0298 42.8949 92.0298 41.5142C92.0298 40.1676 92.2912 38.9858 92.8139 37.9688C93.3366 36.9517 94.0724 36.1591 95.0213 35.5909C95.9759 35.0227 97.0952 34.7386 98.3793 34.7386C99.2429 34.7386 100.047 34.8778 100.791 35.1562C101.541 35.429 102.195 35.8409 102.751 36.392C103.314 36.9432 103.751 37.6364 104.064 38.4716C104.376 39.3011 104.533 40.2727 104.533 41.3864V42.3835H93.4787V40.1335H101.115C101.115 39.6108 101.001 39.1477 100.774 38.7443C100.547 38.3409 100.232 38.0256 99.8281 37.7983C99.4304 37.5653 98.9673 37.4489 98.4389 37.4489C97.8878 37.4489 97.3991 37.5767 96.973 37.8324C96.5526 38.0824 96.223 38.4205 95.9844 38.8466C95.7457 39.267 95.6236 39.7358 95.6179 40.2528V42.392C95.6179 43.0398 95.7372 43.5994 95.9759 44.071C96.2202 44.5426 96.5639 44.9062 97.0071 45.1619C97.4503 45.4176 97.9759 45.5455 98.5838 45.5455C98.9872 45.5455 99.3565 45.4886 99.6918 45.375C100.027 45.2614 100.314 45.0909 100.553 44.8636C100.791 44.6364 100.973 44.358 101.098 44.0284L104.456 44.25C104.286 45.0568 103.936 45.7614 103.408 46.3636C102.885 46.9602 102.209 47.4261 101.379 47.7614C100.555 48.0909 99.6037 48.2557 98.5241 48.2557Z" fill="white"/>
<defs>
<linearGradient id="paint0_linear_90_833" x1="75.8964" y1="-16.5533" x2="75.0029" y2="133.471" gradientUnits="userSpaceOnUse">
<stop stop-color="#FF8E61"/>
<stop offset="1" stop-color="#DA4200"/>
</linearGradient>
</defs>
</svg>
