<svg width="181" height="80" viewBox="0 0 181 80" fill="none" xmlns="http://www.w3.org/2000/svg">
<mask id="mask0_33_853" style="mask-type:alpha" maskUnits="userSpaceOnUse" x="0" y="0" width="181" height="80">
<rect width="181" height="80" rx="20" fill="#C4C4C4"/>
</mask>
<g mask="url(#mask0_33_853)">
<path d="M-2.74946 121.981L-2.15443 22.0689C-2.01605 -1.16599 16.9302 -19.8879 40.1651 -19.7495L140.077 -19.1545C163.312 -19.0161 182.034 -0.0698631 181.895 23.1651L181.3 123.079C181.162 146.312 162.216 165.034 138.981 164.895L39.0674 164.3C15.8341 164.162 -2.88784 145.216 -2.74946 121.981Z" fill="url(#paint0_linear_33_853)"/>
</g>
<path d="M78.1165 30.5455V48H74.929L67.3352 37.0142H67.2074V48H63.517V30.5455H66.7557L74.2898 41.5227H74.4432V30.5455H78.1165ZM87.0632 48.2557C85.7166 48.2557 84.5575 47.983 83.5859 47.4375C82.62 46.8864 81.8757 46.108 81.353 45.1023C80.8303 44.0909 80.5689 42.8949 80.5689 41.5142C80.5689 40.1676 80.8303 38.9858 81.353 37.9688C81.8757 36.9517 82.6115 36.1591 83.5604 35.5909C84.5149 35.0227 85.6342 34.7386 86.9183 34.7386C87.782 34.7386 88.5859 34.8778 89.3303 35.1562C90.0803 35.429 90.7337 35.8409 91.2905 36.392C91.853 36.9432 92.2905 37.6364 92.603 38.4716C92.9155 39.3011 93.0717 40.2727 93.0717 41.3864V42.3835H82.0178V40.1335H89.6541C89.6541 39.6108 89.5405 39.1477 89.3132 38.7443C89.0859 38.3409 88.7706 38.0256 88.3672 37.7983C87.9695 37.5653 87.5064 37.4489 86.978 37.4489C86.4268 37.4489 85.9382 37.5767 85.5121 37.8324C85.0916 38.0824 84.7621 38.4205 84.5234 38.8466C84.2848 39.267 84.1626 39.7358 84.157 40.2528V42.392C84.157 43.0398 84.2763 43.5994 84.5149 44.071C84.7592 44.5426 85.103 44.9062 85.5462 45.1619C85.9893 45.4176 86.5149 45.5455 87.1229 45.5455C87.5263 45.5455 87.8956 45.4886 88.2308 45.375C88.5661 45.2614 88.853 45.0909 89.0916 44.8636C89.3303 44.6364 89.5121 44.358 89.6371 44.0284L92.995 44.25C92.8246 45.0568 92.4751 45.7614 91.9467 46.3636C91.424 46.9602 90.7479 47.4261 89.9183 47.7614C89.0945 48.0909 88.1428 48.2557 87.0632 48.2557ZM98.2408 34.9091L100.644 39.4858L103.107 34.9091H106.832L103.039 41.4545L106.934 48H103.227L100.644 43.4744L98.1044 48H94.3544L98.2408 41.4545L94.4908 34.9091H98.2408ZM115.951 34.9091V37.6364H108.067V34.9091H115.951ZM109.857 31.7727H113.488V43.9773C113.488 44.3125 113.539 44.5739 113.641 44.7614C113.744 44.9432 113.886 45.071 114.067 45.1449C114.255 45.2187 114.471 45.2557 114.715 45.2557C114.886 45.2557 115.056 45.2415 115.227 45.2131C115.397 45.179 115.528 45.1534 115.619 45.1364L116.19 47.8381C116.008 47.8949 115.752 47.9602 115.423 48.0341C115.093 48.1136 114.692 48.1619 114.221 48.179C113.346 48.2131 112.579 48.0966 111.92 47.8295C111.266 47.5625 110.758 47.1477 110.394 46.5852C110.031 46.0227 109.852 45.3125 109.857 44.4545V31.7727Z" fill="white"/>
<defs>
<linearGradient id="paint0_linear_33_853" x1="90.121" y1="-19.452" x2="89.0249" y2="164.598" gradientUnits="userSpaceOnUse">
<stop stop-color="#FF8E61"/>
<stop offset="1" stop-color="#DA4200"/>
</linearGradient>
</defs>
</svg>
