<svg width="405" height="221" viewBox="0 0 405 221" fill="none" xmlns="http://www.w3.org/2000/svg">
<path d="M85.0071 199.331C67.5727 195.935 44.4397 190.255 33.4202 171.292C27.1151 160.445 23.7285 143.445 31.1752 135.406C39.0804 126.875 52.3688 135.802 63.6989 127.558C75.774 118.769 68.6856 102.806 76.0367 87.1865C90.0894 57.3234 145.822 52.3271 176.966 54.6629C217.012 57.6673 216.649 72.8186 264.439 75.9711C289.33 77.6143 303.12 74.4044 312.663 84.9415C325.12 98.698 311.928 115.559 326.119 135.406C336.384 149.764 349.357 149.43 354.157 164.562C356.727 172.673 355.958 182.097 353.035 188.111C343.567 207.623 305.871 202.927 240.89 203.811C176.111 204.7 141.538 210.341 85.0071 199.331Z" fill="url(#paint0_linear_606_13238)"/>
<path d="M106.688 145.876C98.7302 156.227 95.4726 167.557 95.4726 167.557C92.8693 176.623 92.8932 184.452 93.2276 189.238C159.02 189.735 224.812 190.236 290.605 190.733C288.99 153.017 272.139 134.193 266.679 128.681C218.211 79.6969 122.943 124.735 106.688 145.876Z" fill="#F8CBBC"/>
<path d="M270.596 166.358C271.002 164.911 271.107 163.449 270.882 161.988L262.609 161.209C262.576 161.185 262.543 161.161 262.509 161.137L262.695 161.075C262.633 161.032 262.571 160.984 262.509 160.941L262.695 160.879C262.633 160.836 262.571 160.789 262.509 160.746L262.695 160.684C262.633 160.641 262.571 160.593 262.509 160.55L262.695 160.488C262.633 160.445 262.571 160.397 262.509 160.354L262.695 160.292C262.633 160.249 262.571 160.201 262.509 160.158L262.695 160.096C262.633 160.053 262.571 160.005 262.509 159.962L262.695 159.9C262.633 159.857 262.571 159.809 262.509 159.766L262.695 159.704C262.633 159.661 262.571 159.614 262.509 159.571L262.695 159.509C262.633 159.466 262.571 159.418 262.509 159.375L262.695 159.313C262.633 159.27 262.571 159.222 262.509 159.179L262.695 159.117C262.633 159.074 262.571 159.026 262.509 158.983L262.695 158.921C262.633 158.878 262.571 158.83 262.509 158.787L262.695 158.725C262.633 158.682 262.571 158.634 262.509 158.591L262.695 158.529C262.633 158.486 262.571 158.439 262.509 158.396L262.695 158.333C262.633 158.29 262.571 158.243 262.509 158.2L262.695 158.138C262.633 158.095 262.571 158.047 262.509 158.004L262.695 157.942C262.633 157.899 262.571 157.851 262.509 157.808L262.695 157.746C262.633 157.703 262.571 157.655 262.509 157.612L262.695 157.55C262.633 157.507 262.571 157.459 262.509 157.416L262.695 157.354C262.633 157.311 262.571 157.264 262.509 157.221L262.695 157.158C262.633 157.115 262.571 157.068 262.509 157.025L262.695 156.963C262.633 156.92 262.571 156.872 262.509 156.829L262.695 156.767C262.633 156.724 262.571 156.676 262.509 156.633L262.695 156.571C262.633 156.528 262.571 156.48 262.509 156.437L262.695 156.375C262.633 156.332 262.571 156.284 262.509 156.241L262.695 156.179C262.633 156.136 262.571 156.088 262.509 156.045L262.695 155.983C262.633 155.94 262.571 155.893 262.509 155.85L262.695 155.788C262.633 155.745 262.571 155.697 262.509 155.654L262.695 155.592C262.633 155.549 262.571 155.501 262.509 155.458L262.695 155.396C262.633 155.353 262.571 155.305 262.509 155.262L262.695 155.2C262.633 155.157 262.571 155.109 262.509 155.066L262.695 155.004C262.633 154.961 262.571 154.913 262.509 154.87L262.695 154.808C262.633 154.765 262.571 154.718 262.509 154.675L262.695 154.613C262.633 154.57 262.571 154.522 262.509 154.479L262.695 154.417C262.633 154.374 262.571 154.326 262.509 154.283L262.695 154.221C262.633 154.178 262.571 154.13 262.509 154.087L262.695 154.025C262.633 153.982 262.571 153.934 262.509 153.891L262.695 153.829C262.633 153.786 262.571 153.738 262.509 153.695L262.695 153.633C262.633 153.59 262.571 153.543 262.509 153.5L262.695 153.437C262.633 153.394 262.571 153.347 262.509 153.304L262.695 153.242C262.633 153.199 262.571 153.151 262.509 153.108L262.695 153.046C262.633 153.003 262.571 152.955 262.509 152.912L262.695 152.85C262.633 152.807 262.571 152.759 262.509 152.716L262.695 152.654C262.633 152.611 262.571 152.563 262.509 152.52L262.695 152.458C262.633 152.415 262.571 152.368 262.509 152.325L262.695 152.262C262.633 152.219 262.571 152.172 262.509 152.129L262.695 152.067C262.633 152.024 262.571 151.976 262.509 151.933L262.695 151.871C262.633 151.828 262.571 151.78 262.509 151.737L262.695 151.675C262.633 151.632 262.571 151.584 262.509 151.541L262.695 151.479C262.676 151.465 262.657 151.45 262.638 151.436L263.097 151.278C261.745 150.28 260.245 149.301 258.549 148.35C256.92 147.424 255.134 146.545 253.252 145.719L238.473 147.801L228.71 144.897L228.787 144.749C228.758 144.744 228.724 144.739 228.696 144.73L228.787 144.548C228.758 144.544 228.724 144.539 228.696 144.529L228.787 144.348C228.758 144.343 228.724 144.338 228.696 144.329L228.787 144.147C228.758 144.142 228.724 144.138 228.696 144.128L228.787 143.946C228.758 143.942 228.724 143.937 228.696 143.927L228.787 143.746C228.758 143.741 228.724 143.736 228.696 143.727L228.787 143.545C228.758 143.54 228.724 143.536 228.696 143.526L228.787 143.345C228.758 143.34 228.724 143.335 228.696 143.325L228.787 143.144C228.758 143.139 228.724 143.134 228.696 143.125L228.787 142.943C228.758 142.939 228.724 142.934 228.696 142.924L228.787 142.743C228.758 142.738 228.724 142.733 228.696 142.724L228.787 142.542C228.758 142.537 228.724 142.533 228.696 142.523L228.787 142.342C228.758 142.337 228.724 142.332 228.696 142.322L228.787 142.141C228.758 142.136 228.724 142.131 228.696 142.122L228.787 141.94C228.758 141.936 228.724 141.931 228.696 141.921L228.787 141.74C228.758 141.735 228.724 141.73 228.696 141.721L228.787 141.539C228.758 141.534 228.724 141.53 228.696 141.52L228.787 141.338C228.758 141.334 228.724 141.329 228.696 141.319L228.787 141.138C228.758 141.133 228.724 141.128 228.696 141.119L228.787 140.937C228.758 140.932 228.724 140.928 228.696 140.918L228.787 140.737C228.758 140.732 228.724 140.727 228.696 140.717L228.787 140.536C228.758 140.531 228.724 140.526 228.696 140.517L228.787 140.335C228.758 140.331 228.724 140.326 228.696 140.316L228.787 140.135C228.758 140.13 228.724 140.125 228.696 140.116L228.787 139.934C228.758 139.929 228.724 139.925 228.696 139.915L228.787 139.734C228.758 139.729 228.724 139.724 228.696 139.714L228.787 139.533C228.758 139.528 228.724 139.523 228.696 139.514L228.787 139.332L229.188 138.535C223.776 137.489 218.063 136.681 212.178 136.113L211.815 136.318C211.801 136.318 211.787 136.313 211.772 136.313L203.576 140.942L187.923 140.436L181.035 135.267C175.232 135.559 169.457 136.079 163.84 136.853L163.863 136.997C163.725 137.016 163.582 137.035 163.438 137.054L163.467 137.25C163.457 137.25 163.448 137.254 163.438 137.254L163.467 137.45C163.457 137.45 163.448 137.455 163.438 137.455L163.467 137.651C163.457 137.651 163.448 137.656 163.438 137.656L163.467 137.852C163.457 137.852 163.448 137.856 163.438 137.856L163.467 138.052C163.457 138.052 163.448 138.057 163.438 138.057L163.467 138.253C163.457 138.253 163.448 138.258 163.438 138.258L163.467 138.453C163.457 138.453 163.448 138.458 163.438 138.458L163.467 138.654C163.457 138.654 163.448 138.659 163.438 138.659L163.467 138.855C163.457 138.855 163.448 138.859 163.438 138.859L163.467 139.055C163.457 139.055 163.448 139.06 163.438 139.06L163.467 139.256C163.457 139.256 163.448 139.261 163.438 139.261L163.467 139.456C163.457 139.456 163.448 139.461 163.438 139.461L163.467 139.657C163.457 139.657 163.448 139.662 163.438 139.662L163.467 139.858C163.457 139.858 163.448 139.862 163.438 139.862L163.467 140.058C163.457 140.058 163.448 140.063 163.438 140.063L163.467 140.259C163.457 140.259 163.448 140.264 163.438 140.264L163.467 140.46C163.457 140.46 163.448 140.464 163.438 140.464L163.467 140.66C163.457 140.66 163.448 140.665 163.438 140.665L163.467 140.861C163.457 140.861 163.448 140.866 163.438 140.866L163.467 141.061C163.457 141.061 163.448 141.066 163.438 141.066L163.467 141.262C163.457 141.262 163.448 141.267 163.438 141.267L163.467 141.463C163.457 141.463 163.448 141.467 163.438 141.467L163.467 141.663C163.457 141.663 163.448 141.668 163.438 141.668L163.467 141.864C163.457 141.864 163.448 141.869 163.438 141.869L163.467 142.064C163.457 142.064 163.448 142.069 163.438 142.069L163.467 142.265C163.457 142.265 163.448 142.27 163.438 142.27L163.467 142.466C163.457 142.466 163.448 142.47 163.438 142.47L163.467 142.666C163.457 142.666 163.448 142.671 163.438 142.671L163.467 142.867C163.457 142.867 163.448 142.872 163.438 142.872L163.443 142.896L151.373 145.628L137.42 142.872C136.532 143.177 135.677 143.488 134.836 143.803C133.069 144.395 131.34 145.15 129.931 145.833C129.128 146.196 128.359 146.569 127.609 146.946C126.812 147.338 126.043 147.739 125.312 148.145L125.517 148.236C125.45 148.274 125.379 148.307 125.312 148.346L125.517 148.436C125.45 148.475 125.379 148.508 125.312 148.546L125.517 148.637C125.45 148.675 125.379 148.709 125.312 148.747L125.517 148.838C125.45 148.876 125.379 148.909 125.312 148.948L125.517 149.038C125.45 149.076 125.379 149.11 125.312 149.148L125.517 149.239C125.45 149.277 125.379 149.311 125.312 149.349L125.517 149.44C125.45 149.478 125.379 149.511 125.312 149.549L125.517 149.64C125.45 149.678 125.379 149.712 125.312 149.75L125.517 149.841C125.45 149.879 125.379 149.912 125.312 149.951L125.517 150.041C125.45 150.08 125.379 150.113 125.312 150.151L125.517 150.242C125.45 150.28 125.379 150.314 125.312 150.352L125.517 150.443C125.45 150.481 125.379 150.514 125.312 150.552L125.517 150.643C125.45 150.681 125.379 150.715 125.312 150.753L125.517 150.844C125.45 150.882 125.379 150.915 125.312 150.954L125.517 151.044C125.45 151.083 125.379 151.116 125.312 151.154L125.517 151.245C125.45 151.283 125.379 151.317 125.312 151.355L125.517 151.446C125.45 151.484 125.379 151.517 125.312 151.556L125.517 151.646C125.45 151.684 125.379 151.718 125.312 151.756L125.517 151.847C125.45 151.885 125.379 151.919 125.312 151.957L125.517 152.048C125.45 152.086 125.379 152.119 125.312 152.157L125.517 152.248C125.45 152.286 125.379 152.32 125.312 152.358L125.517 152.449C125.45 152.487 125.379 152.52 125.312 152.559L125.517 152.649C125.45 152.688 125.379 152.721 125.312 152.759L125.517 152.85C125.45 152.888 125.379 152.922 125.312 152.96L125.517 153.051C125.45 153.089 125.379 153.122 125.312 153.16L125.517 153.251C125.45 153.289 125.379 153.323 125.312 153.361L125.517 153.452C125.45 153.49 125.379 153.523 125.312 153.562L125.517 153.652C125.45 153.691 125.379 153.724 125.312 153.762L125.517 153.853C125.45 153.891 125.379 153.925 125.312 153.963L125.517 154.054C125.45 154.092 125.379 154.125 125.312 154.164L125.517 154.254C125.45 154.292 125.379 154.326 125.312 154.364L125.517 154.455C125.45 154.493 125.379 154.527 125.312 154.565L125.517 154.656C125.45 154.694 125.379 154.727 125.312 154.765L125.517 154.856C125.45 154.894 125.379 154.928 125.312 154.966L125.517 155.057C125.45 155.095 125.379 155.128 125.312 155.167L125.517 155.257C125.45 155.296 125.379 155.329 125.312 155.367L125.517 155.458C125.45 155.496 125.379 155.53 125.312 155.568L125.517 155.659C125.45 155.697 125.379 155.73 125.312 155.768L125.517 155.859C125.45 155.897 125.379 155.931 125.312 155.969L125.517 156.06C125.45 156.098 125.379 156.131 125.312 156.17L125.517 156.26C125.45 156.299 125.379 156.332 125.312 156.37L125.517 156.461C125.45 156.499 125.379 156.533 125.312 156.571L125.517 156.662C125.45 156.7 125.379 156.733 125.312 156.772L125.517 156.862C125.45 156.901 125.379 156.934 125.312 156.972L125.517 157.063C125.45 157.101 125.379 157.135 125.312 157.173L125.517 157.264C125.45 157.302 125.379 157.335 125.312 157.373L125.517 157.464C125.45 157.502 125.379 157.536 125.312 157.574L125.517 157.665C125.45 157.703 125.379 157.736 125.312 157.775L125.517 157.865C125.484 157.884 125.446 157.904 125.412 157.923L114.154 158.453C114.12 158.515 114.092 158.577 114.063 158.639L113.752 158.654C112.864 160.407 112.42 162.193 112.458 163.989C112.458 164.056 112.458 164.123 112.458 164.19C112.458 164.256 112.458 164.323 112.458 164.39C112.458 164.457 112.458 164.524 112.458 164.591C112.458 164.658 112.458 164.725 112.458 164.791C112.458 164.858 112.458 164.925 112.458 164.992C112.458 165.059 112.458 165.126 112.458 165.193C112.458 165.259 112.458 165.326 112.458 165.393C112.458 165.46 112.458 165.527 112.458 165.594C112.458 165.661 112.458 165.728 112.458 165.794C112.458 165.861 112.458 165.928 112.458 165.995C112.458 166.062 112.458 166.129 112.458 166.196C112.458 166.263 112.458 166.329 112.458 166.396C112.458 166.463 112.458 166.53 112.458 166.597C112.458 166.664 112.458 166.731 112.458 166.798C112.458 166.864 112.458 166.931 112.458 166.998C112.458 167.065 112.458 167.132 112.458 167.199C112.458 167.266 112.458 167.333 112.458 167.399C112.458 167.466 112.458 167.533 112.458 167.6C112.458 167.667 112.458 167.734 112.458 167.801C112.458 167.868 112.458 167.934 112.458 168.001C112.458 168.068 112.458 168.135 112.458 168.202C112.458 168.269 112.458 168.336 112.458 168.402C112.458 168.469 112.458 168.536 112.458 168.603C112.458 168.67 112.458 168.737 112.458 168.804C112.458 168.871 112.458 168.937 112.458 169.004C112.458 169.071 112.458 169.138 112.458 169.205C112.458 169.272 112.458 169.339 112.458 169.406C112.458 169.472 112.458 169.539 112.458 169.606C112.458 169.673 112.458 169.74 112.458 169.807C112.458 169.874 112.458 169.941 112.458 170.007C112.458 170.074 112.458 170.141 112.458 170.208C112.458 170.275 112.458 170.342 112.458 170.409C112.458 170.476 112.458 170.542 112.458 170.609C112.458 170.676 112.458 170.743 112.458 170.81C112.458 170.877 112.458 170.944 112.458 171.01C112.458 171.077 112.458 171.144 112.458 171.211C112.458 171.278 112.458 171.345 112.458 171.412C112.458 171.479 112.458 171.545 112.458 171.612C112.458 171.679 112.458 171.746 112.458 171.813C112.458 171.88 112.458 171.947 112.458 172.014C112.458 172.08 112.458 172.147 112.458 172.214C112.458 172.281 112.458 172.348 112.458 172.415C112.458 172.482 112.458 172.549 112.458 172.615C112.458 172.682 112.458 172.749 112.458 172.816C112.458 172.883 112.458 172.95 112.458 173.017C112.458 173.084 112.458 173.15 112.458 173.217C112.458 173.284 112.458 173.351 112.458 173.418C112.458 173.485 112.458 173.552 112.458 173.618C112.458 173.685 112.458 173.752 112.458 173.819C112.458 173.886 112.458 173.953 112.458 174.02C112.458 174.087 112.458 174.153 112.458 174.22C112.458 174.287 112.458 174.354 112.458 174.421C112.458 174.488 112.458 174.555 112.458 174.622C112.458 174.688 112.458 174.755 112.458 174.822C112.458 174.889 112.458 174.956 112.458 175.023C112.458 175.09 112.458 175.157 112.458 175.223C112.458 175.29 112.458 175.357 112.458 175.424C112.458 175.491 112.458 175.558 112.458 175.625C112.458 175.692 112.458 175.758 112.458 175.825C112.458 175.892 112.458 175.959 112.458 176.026C112.458 176.093 112.458 176.16 112.458 176.226C112.458 176.293 112.458 176.36 112.458 176.427C112.458 176.494 112.458 176.561 112.458 176.628C112.458 176.695 112.458 176.761 112.458 176.828C112.458 176.895 112.458 176.962 112.458 177.029C112.458 177.096 112.458 177.163 112.458 177.23C112.458 177.296 112.458 177.363 112.458 177.43C112.458 177.497 112.458 177.564 112.458 177.631C112.458 177.698 112.458 177.765 112.458 177.831C112.458 177.898 112.458 177.965 112.458 178.032C112.458 178.099 112.458 178.166 112.458 178.233C112.458 178.3 112.458 178.366 112.458 178.433C112.458 178.5 112.458 178.567 112.458 178.634C112.458 178.701 112.458 178.768 112.458 178.835C112.458 178.901 112.458 178.968 112.458 179.035C112.458 179.102 112.458 179.169 112.458 179.236C112.458 179.303 112.458 179.369 112.458 179.436C112.458 179.503 112.458 179.57 112.458 179.637C112.458 179.704 112.458 179.771 112.458 179.838C112.458 179.904 112.458 179.971 112.458 180.038C112.458 180.105 112.458 180.172 112.458 180.239C112.458 180.306 112.458 180.373 112.458 180.439C112.458 180.506 112.458 180.573 112.458 180.64C112.458 180.707 112.458 180.774 112.458 180.841C112.458 180.908 112.458 180.974 112.458 181.041C112.458 181.108 112.458 181.175 112.458 181.242C112.458 181.309 112.458 181.376 112.458 181.443C112.458 181.509 112.458 181.576 112.458 181.643C112.458 181.71 112.458 181.777 112.458 181.844C112.458 181.911 112.458 181.977 112.458 182.044C112.458 182.111 112.458 182.178 112.458 182.245C112.458 182.312 112.458 182.379 112.458 182.446C112.458 182.512 112.458 182.579 112.458 182.646C112.458 182.713 112.458 182.78 112.458 182.847C112.458 182.914 112.458 182.981 112.458 183.047C112.458 183.114 112.458 183.181 112.458 183.248C112.458 183.315 112.458 183.382 112.458 183.449C112.458 183.516 112.458 183.582 112.458 183.649C112.458 183.716 112.458 183.783 112.458 183.85C112.458 183.917 112.458 183.984 112.458 184.051C112.458 184.533 112.491 185.015 112.558 185.493L120.253 186.229C120.311 186.272 120.368 186.31 120.421 186.353L120.234 186.415C120.296 186.463 120.358 186.506 120.421 186.553L120.234 186.616C120.296 186.663 120.358 186.706 120.421 186.754L120.234 186.816C120.296 186.864 120.358 186.907 120.421 186.955L120.234 187.017C120.296 187.065 120.358 187.108 120.421 187.155L120.234 187.217C120.296 187.265 120.358 187.308 120.421 187.356L120.234 187.418C120.296 187.466 120.358 187.509 120.421 187.557L120.234 187.619C120.296 187.666 120.358 187.709 120.421 187.757L120.234 187.819C120.296 187.867 120.358 187.91 120.421 187.958L120.234 188.02C120.296 188.068 120.358 188.111 120.421 188.158L120.234 188.22C120.296 188.268 120.358 188.311 120.421 188.359L120.234 188.421C120.296 188.469 120.358 188.512 120.421 188.56L120.234 188.622C120.296 188.669 120.358 188.712 120.421 188.76L120.234 188.822C120.296 188.87 120.358 188.913 120.421 188.961L120.234 189.023C120.296 189.071 120.358 189.114 120.421 189.161L120.234 189.224C120.296 189.271 120.358 189.314 120.421 189.362L120.234 189.424C120.296 189.472 120.358 189.515 120.421 189.563L120.234 189.625C120.296 189.673 120.358 189.716 120.421 189.763L120.234 189.825C120.296 189.873 120.358 189.916 120.421 189.964L120.234 190.026C120.296 190.074 120.358 190.117 120.421 190.165L120.234 190.227C120.296 190.274 120.358 190.317 120.421 190.365L120.234 190.427C120.296 190.475 120.358 190.518 120.421 190.566L120.234 190.628C120.296 190.676 120.358 190.719 120.421 190.766L120.234 190.828C120.296 190.876 120.358 190.919 120.421 190.967L120.234 191.029C120.296 191.077 120.358 191.12 120.421 191.168L120.234 191.23C120.296 191.277 120.358 191.32 120.421 191.368L120.234 191.43C120.296 191.478 120.358 191.521 120.421 191.569L120.234 191.631C120.296 191.679 120.358 191.722 120.421 191.769L120.234 191.832C120.296 191.879 120.358 191.922 120.421 191.97L120.234 192.032C120.296 192.08 120.358 192.123 120.421 192.171L120.234 192.233C120.296 192.281 120.358 192.324 120.421 192.371L120.234 192.433C120.296 192.481 120.358 192.524 120.421 192.572L120.234 192.634C120.296 192.682 120.358 192.725 120.421 192.773L120.234 192.835C120.296 192.882 120.358 192.925 120.421 192.973L120.234 193.035C120.296 193.083 120.358 193.126 120.421 193.174L120.234 193.236C120.296 193.284 120.358 193.327 120.421 193.374L120.234 193.436C120.296 193.484 120.358 193.527 120.421 193.575L120.234 193.637C120.296 193.685 120.358 193.728 120.421 193.776L120.234 193.838C120.296 193.885 120.358 193.928 120.421 193.976L120.234 194.038C120.296 194.086 120.358 194.129 120.421 194.177L120.234 194.239C120.296 194.287 120.358 194.33 120.421 194.377L120.234 194.44C120.296 194.487 120.358 194.53 120.421 194.578L120.234 194.64C120.296 194.688 120.358 194.731 120.421 194.779L120.234 194.841C120.296 194.889 120.358 194.932 120.421 194.979L120.234 195.041C120.296 195.089 120.358 195.132 120.421 195.18L120.234 195.242C120.296 195.29 120.358 195.333 120.421 195.381L120.234 195.443C120.296 195.49 120.358 195.533 120.421 195.581L120.234 195.643C120.296 195.691 120.358 195.734 120.421 195.782L120.234 195.844C120.296 195.892 120.358 195.935 120.421 195.982L120.234 196.044C120.296 196.092 120.358 196.135 120.421 196.183L120.234 196.245C120.296 196.293 120.358 196.336 120.421 196.384L120.234 196.446C121.591 197.463 123.119 198.476 124.863 199.46C126.468 200.358 128.182 201.208 129.988 202.02L144.795 199.947L154.028 202.713L153.976 202.818C154.009 202.822 154.038 202.827 154.071 202.837L153.976 203.018C154.009 203.023 154.038 203.028 154.071 203.037L153.976 203.219C154.009 203.224 154.038 203.228 154.071 203.238L153.976 203.419C154.009 203.424 154.038 203.429 154.071 203.439L153.976 203.62C154.009 203.625 154.038 203.63 154.071 203.639L153.976 203.821C154.009 203.825 154.038 203.83 154.071 203.84L153.976 204.021C154.009 204.026 154.038 204.031 154.071 204.04L153.976 204.222C154.009 204.227 154.038 204.231 154.071 204.241L153.976 204.423C154.009 204.427 154.038 204.432 154.071 204.442L153.976 204.623C154.009 204.628 154.038 204.633 154.071 204.642L153.976 204.824C154.009 204.829 154.038 204.833 154.071 204.843L153.976 205.024C154.009 205.029 154.038 205.034 154.071 205.044L153.976 205.225C154.009 205.23 154.038 205.235 154.071 205.244L153.976 205.426C154.009 205.43 154.038 205.435 154.071 205.445L153.976 205.626C154.009 205.631 154.038 205.636 154.071 205.645L153.976 205.827C154.009 205.832 154.038 205.836 154.071 205.846L153.976 206.027C154.009 206.032 154.038 206.037 154.071 206.047L153.976 206.228C154.009 206.233 154.038 206.238 154.071 206.247L153.976 206.429C154.009 206.433 154.038 206.438 154.071 206.448L153.976 206.629C154.009 206.634 154.038 206.639 154.071 206.648L153.976 206.83C154.009 206.835 154.038 206.84 154.071 206.849L153.976 207.031C154.009 207.035 154.038 207.04 154.071 207.05L153.976 207.231C154.009 207.236 154.038 207.241 154.071 207.25L153.976 207.432C154.009 207.437 154.038 207.441 154.071 207.451L153.976 207.632C154.009 207.637 154.038 207.642 154.071 207.652L153.976 207.833C154.009 207.838 154.038 207.843 154.071 207.852L153.976 208.034C154.009 208.038 154.038 208.043 154.071 208.053L153.976 208.234C154.009 208.239 154.038 208.244 154.071 208.253L153.976 208.435C154.009 208.44 154.038 208.444 154.071 208.454L153.976 208.635C154.009 208.64 154.038 208.645 154.071 208.655L153.976 208.836C154.009 208.841 154.038 208.846 154.071 208.855L153.976 209.037C154.009 209.041 154.038 209.046 154.071 209.056L153.976 209.237C159.397 210.283 165.124 211.11 171.019 211.683L179.617 206.863L195.322 207.222L202.152 212.399C208.142 212.103 214.099 211.568 219.878 210.766L219.845 210.57C219.854 210.57 219.864 210.565 219.878 210.565L219.845 210.369C219.854 210.369 219.864 210.365 219.878 210.365L219.845 210.169C219.854 210.169 219.864 210.164 219.878 210.164L219.845 209.968C219.854 209.968 219.864 209.963 219.878 209.963L219.845 209.768C219.854 209.768 219.864 209.763 219.878 209.763L219.845 209.567C219.854 209.567 219.864 209.562 219.878 209.562L219.845 209.366C219.854 209.366 219.864 209.362 219.878 209.362L219.845 209.166C219.854 209.166 219.864 209.161 219.878 209.161L219.845 208.965C219.854 208.965 219.864 208.96 219.878 208.96L219.845 208.764C219.854 208.764 219.864 208.76 219.878 208.76L219.845 208.564C219.854 208.564 219.864 208.559 219.878 208.559L219.845 208.363C219.854 208.363 219.864 208.358 219.878 208.358L219.845 208.163C219.854 208.163 219.864 208.158 219.878 208.158L219.845 207.962C219.854 207.962 219.864 207.957 219.878 207.957L219.845 207.761C219.854 207.761 219.864 207.757 219.878 207.757L219.845 207.561C219.854 207.561 219.864 207.556 219.878 207.556L219.845 207.36C219.854 207.36 219.864 207.355 219.878 207.355L219.845 207.16C219.854 207.16 219.864 207.155 219.878 207.155L219.845 206.959C219.854 206.959 219.864 206.954 219.878 206.954L219.845 206.758C219.854 206.758 219.864 206.754 219.878 206.754L219.845 206.558C219.854 206.558 219.864 206.553 219.878 206.553L219.845 206.357C219.854 206.357 219.864 206.352 219.878 206.352L219.845 206.156C219.854 206.156 219.864 206.152 219.878 206.152L219.845 205.956C219.854 205.956 219.864 205.951 219.878 205.951L219.845 205.755C219.854 205.755 219.864 205.75 219.878 205.75L219.845 205.555C219.854 205.555 219.864 205.55 219.878 205.55L219.845 205.354C219.854 205.354 219.864 205.349 219.878 205.349L219.845 205.153C219.854 205.153 219.864 205.149 219.878 205.149L219.845 204.953C219.854 204.953 219.864 204.948 219.878 204.948L219.854 204.805L232.259 201.972L246.221 204.714C250.697 203.162 254.594 201.452 257.881 199.622L257.68 199.531C257.747 199.493 257.814 199.46 257.881 199.421L257.68 199.331C257.747 199.293 257.814 199.259 257.881 199.221L257.68 199.13C257.747 199.092 257.814 199.058 257.881 199.02L257.68 198.93C257.747 198.891 257.814 198.858 257.881 198.82L257.68 198.729C257.747 198.691 257.814 198.657 257.881 198.619L257.68 198.528C257.747 198.49 257.814 198.457 257.881 198.418L257.68 198.328C257.747 198.289 257.814 198.256 257.881 198.218L257.68 198.127C257.747 198.089 257.814 198.055 257.881 198.017L257.68 197.926C257.747 197.888 257.814 197.855 257.881 197.817L257.68 197.726C257.747 197.688 257.814 197.654 257.881 197.616L257.68 197.525C257.747 197.487 257.814 197.454 257.881 197.415L257.68 197.325C257.747 197.286 257.814 197.253 257.881 197.215L257.68 197.124C257.747 197.086 257.814 197.052 257.881 197.014L257.68 196.923C257.747 196.885 257.814 196.852 257.881 196.813L257.68 196.723C257.747 196.685 257.814 196.651 257.881 196.613L257.68 196.522C257.747 196.484 257.814 196.45 257.881 196.412L257.68 196.322C257.747 196.283 257.814 196.25 257.881 196.212L257.68 196.121C257.747 196.083 257.814 196.049 257.881 196.011L257.68 195.92C257.747 195.882 257.814 195.849 257.881 195.81L257.68 195.72C257.747 195.681 257.814 195.648 257.881 195.61L257.68 195.519C257.747 195.481 257.814 195.447 257.881 195.409L257.68 195.318C257.747 195.28 257.814 195.247 257.881 195.209L257.68 195.118C257.747 195.08 257.814 195.046 257.881 195.008L257.68 194.917C257.747 194.879 257.814 194.846 257.881 194.807L257.68 194.717C257.747 194.678 257.814 194.645 257.881 194.607L257.68 194.516C257.747 194.478 257.814 194.444 257.881 194.406L257.68 194.315C257.747 194.277 257.814 194.244 257.881 194.205L257.68 194.115C257.747 194.077 257.814 194.043 257.881 194.005L257.68 193.914C257.747 193.876 257.814 193.842 257.881 193.804L257.68 193.714C257.747 193.675 257.814 193.642 257.881 193.604L257.68 193.513C257.747 193.475 257.814 193.441 257.881 193.403L257.68 193.312C257.747 193.274 257.814 193.241 257.881 193.202L257.68 193.112C257.747 193.073 257.814 193.04 257.881 193.002L257.68 192.911C257.747 192.873 257.814 192.839 257.881 192.801L257.68 192.71C257.747 192.672 257.814 192.639 257.881 192.601L257.68 192.51C257.747 192.472 257.814 192.438 257.881 192.4L257.68 192.309C257.747 192.271 257.814 192.238 257.881 192.199L257.68 192.109C257.747 192.07 257.814 192.037 257.881 191.999L257.68 191.908C257.747 191.87 257.814 191.836 257.881 191.798L257.68 191.707C257.747 191.669 257.814 191.636 257.881 191.597L257.68 191.507C257.747 191.469 257.814 191.435 257.881 191.397L257.68 191.306C257.747 191.268 257.814 191.234 257.881 191.196L257.68 191.105C257.747 191.067 257.814 191.034 257.881 190.996L257.68 190.905C257.747 190.867 257.814 190.833 257.881 190.795L257.68 190.704C257.747 190.666 257.814 190.633 257.881 190.594L257.68 190.504C257.747 190.465 257.814 190.432 257.881 190.394L257.68 190.303C257.747 190.265 257.814 190.231 257.881 190.193L257.68 190.102C257.747 190.064 257.814 190.031 257.881 189.993L257.68 189.902C257.747 189.864 257.814 189.83 257.881 189.792L257.68 189.701C257.709 189.687 257.733 189.673 257.761 189.658L269.34 189.104C270.175 187.423 270.605 185.718 270.601 184.008C270.601 183.941 270.601 183.874 270.601 183.807C270.601 183.74 270.601 183.673 270.601 183.606C270.601 183.539 270.601 183.473 270.601 183.406C270.601 183.339 270.601 183.272 270.601 183.205C270.601 183.138 270.601 183.071 270.601 183.004C270.601 182.938 270.601 182.871 270.601 182.804C270.601 182.737 270.601 182.67 270.601 182.603C270.601 182.536 270.601 182.469 270.601 182.403C270.601 182.336 270.601 182.269 270.601 182.202C270.601 182.135 270.601 182.068 270.601 182.001C270.601 181.934 270.601 181.868 270.601 181.801C270.601 181.734 270.601 181.667 270.601 181.6C270.601 181.533 270.601 181.466 270.601 181.4C270.601 181.333 270.601 181.266 270.601 181.199C270.601 181.132 270.601 181.065 270.601 180.998C270.601 180.931 270.601 180.865 270.601 180.798C270.601 180.731 270.601 180.664 270.601 180.597C270.601 180.53 270.601 180.463 270.601 180.396C270.601 180.33 270.601 180.263 270.601 180.196C270.601 180.129 270.601 180.062 270.601 179.995C270.601 179.928 270.601 179.861 270.601 179.795C270.601 179.728 270.601 179.661 270.601 179.594C270.601 179.527 270.601 179.46 270.601 179.393C270.601 179.326 270.601 179.26 270.601 179.193C270.601 179.126 270.601 179.059 270.601 178.992C270.601 178.925 270.601 178.858 270.601 178.791C270.601 178.725 270.601 178.658 270.601 178.591C270.601 178.524 270.601 178.457 270.601 178.39C270.601 178.323 270.601 178.257 270.601 178.19C270.601 178.123 270.601 178.056 270.601 177.989C270.601 177.922 270.601 177.855 270.601 177.788C270.601 177.722 270.601 177.655 270.601 177.588C270.601 177.521 270.601 177.454 270.601 177.387C270.601 177.32 270.601 177.253 270.601 177.187C270.601 177.12 270.601 177.053 270.601 176.986C270.601 176.919 270.601 176.852 270.601 176.785C270.601 176.718 270.601 176.652 270.601 176.585C270.601 176.518 270.601 176.451 270.601 176.384C270.601 176.317 270.601 176.25 270.601 176.183C270.601 176.117 270.601 176.05 270.601 175.983C270.601 175.916 270.601 175.849 270.601 175.782C270.601 175.715 270.601 175.649 270.601 175.582C270.601 175.515 270.601 175.448 270.601 175.381C270.601 175.314 270.601 175.247 270.601 175.18C270.601 175.114 270.601 175.047 270.601 174.98C270.601 174.913 270.601 174.846 270.601 174.779C270.601 174.712 270.601 174.645 270.601 174.579C270.601 174.512 270.601 174.445 270.601 174.378C270.601 174.311 270.601 174.244 270.601 174.177C270.601 174.11 270.601 174.044 270.601 173.977C270.601 173.91 270.601 173.843 270.601 173.776C270.601 173.709 270.601 173.642 270.601 173.575C270.601 173.509 270.601 173.442 270.601 173.375C270.601 173.308 270.601 173.241 270.601 173.174C270.601 173.107 270.601 173.041 270.601 172.974C270.601 172.907 270.601 172.84 270.601 172.773C270.601 172.706 270.601 172.639 270.601 172.572C270.601 172.506 270.601 172.439 270.601 172.372C270.601 172.305 270.601 172.238 270.601 172.171C270.601 172.104 270.601 172.037 270.601 171.971C270.601 171.904 270.601 171.837 270.601 171.77C270.601 171.703 270.601 171.636 270.601 171.569C270.601 171.502 270.601 171.436 270.601 171.369C270.601 171.302 270.601 171.235 270.601 171.168C270.601 171.101 270.601 171.034 270.601 170.967C270.601 170.901 270.601 170.834 270.601 170.767C270.601 170.7 270.601 170.633 270.601 170.566C270.601 170.499 270.601 170.433 270.601 170.366C270.601 170.299 270.601 170.232 270.601 170.165C270.601 170.098 270.601 170.031 270.601 169.964C270.601 169.898 270.601 169.831 270.601 169.764C270.601 169.697 270.601 169.63 270.601 169.563C270.601 169.496 270.601 169.429 270.601 169.363C270.601 169.296 270.601 169.229 270.601 169.162C270.601 169.095 270.601 169.028 270.601 168.961C270.601 168.894 270.601 168.828 270.601 168.761C270.601 168.694 270.601 168.627 270.601 168.56C270.601 168.493 270.601 168.426 270.601 168.359C270.601 168.293 270.601 168.226 270.601 168.159C270.601 168.092 270.601 168.025 270.601 167.958C270.601 167.891 270.601 167.825 270.601 167.758C270.601 167.691 270.601 167.624 270.601 167.557C270.601 167.49 270.601 167.423 270.601 167.356C270.601 167.29 270.601 167.223 270.601 167.156C270.601 167.089 270.601 167.022 270.601 166.955C270.601 166.888 270.601 166.821 270.601 166.755C270.601 166.688 270.601 166.621 270.601 166.554C270.601 166.435 270.596 166.396 270.596 166.358ZM180.968 175.692C176.985 175.223 173.383 174.521 170.245 173.647C179.134 171.245 191.018 170.385 202.391 171.713C206.404 172.181 210.019 172.878 213.167 173.752C204.273 176.164 192.389 177.029 180.968 175.692Z" fill="#462F7E"/>
<path d="M269.736 168.574C270.816 166.406 271.222 164.199 270.887 161.988L255.526 160.545L251.58 155.042L263.101 151.092C261.75 150.094 260.25 149.115 258.554 148.164C256.925 147.237 255.139 146.359 253.257 145.532L238.478 147.615L226.346 144.004L229.193 138.372C223.781 137.326 218.068 136.519 212.183 135.95L203.633 140.78L187.923 140.436L181.035 135.267C175.232 135.559 169.452 136.079 163.84 136.853L164.709 142.58L151.373 145.599L137.42 142.843C136.532 143.149 135.677 143.459 134.836 143.774C133.069 144.367 131.34 145.121 129.931 145.805C128.431 146.488 127.022 147.195 125.713 147.916L135.744 152.363L129.888 157.636L114.144 158.376C113.05 160.535 112.63 162.742 112.95 164.959L128.283 166.425L132.157 171.923L120.631 175.863C121.987 176.881 123.516 177.894 125.259 178.877C126.864 179.775 128.579 180.626 130.384 181.438L145.192 179.365L157.296 182.99L154.372 188.626C159.794 189.673 165.521 190.499 171.415 191.072L180.013 186.252L195.718 186.611L202.549 191.789C208.539 191.492 214.495 190.957 220.275 190.155L219.353 184.428L232.651 181.39L246.613 184.132C251.088 182.579 254.986 180.869 258.272 179.04L248.203 174.607L253.992 169.324L269.736 168.574ZM202.792 151.355C221.483 153.528 231.667 160.75 225.624 167.466C219.601 174.173 199.659 177.879 180.973 175.696C162.359 173.504 152.147 166.306 158.213 159.594C164.188 152.864 184.178 149.177 202.792 151.355Z" fill="url(#paint1_linear_606_13238)"/>
<path d="M189.184 217.83C195.325 217.83 200.304 212.852 200.304 206.711C200.304 200.569 195.325 195.591 189.184 195.591C183.043 195.591 178.064 200.569 178.064 206.711C178.064 212.852 183.043 217.83 189.184 217.83Z" fill="url(#paint2_linear_606_13238)"/>
<path d="M188.611 220.524C181.011 220.524 174.826 214.339 174.826 206.739C174.826 199.14 181.011 192.954 188.611 192.954C196.21 192.954 202.396 199.14 202.396 206.739C202.396 214.339 196.215 220.524 188.611 220.524ZM188.611 197.726C183.643 197.726 179.602 201.767 179.602 206.734C179.602 211.702 183.643 215.743 188.611 215.743C193.578 215.743 197.619 211.702 197.619 206.734C197.619 201.767 193.578 197.726 188.611 197.726Z" fill="#EA6125"/>
<path d="M188.611 210.976C190.655 210.976 192.313 209.319 192.313 207.274C192.313 205.23 190.655 203.572 188.611 203.572C186.566 203.572 184.909 205.23 184.909 207.274C184.909 209.319 186.566 210.976 188.611 210.976Z" fill="#E86031"/>
<path d="M190.999 209.658H186.223V216.966H190.999V209.658Z" fill="#E86031"/>
<path d="M295.711 89.3407C295.792 85.7917 296.189 81.254 296.647 76.0428C298.606 53.6884 301.567 19.9181 284.123 2.69859C278.778 -2.74669 268.47 0.00461086 251.685 11.3537C242.987 17.2337 235.092 23.725 231.91 26.4047C228.982 25.7694 222.825 24.4368 215.02 22.8127C205.506 20.8352 195.26 20.7063 191.873 20.7254C188.673 20.7063 178.967 20.8304 169.949 22.8223C162.765 24.4081 157.052 25.7121 154.22 26.3665C151.588 24.0164 145.818 18.9915 139.116 13.9426C126.353 4.31785 117.168 -0.229441 111.011 0.0237173C107.758 0.162238 105.766 1.59043 104.663 2.78457C88.2361 19.9802 91.0256 53.7076 92.8693 76.0332C93.304 81.2731 93.6813 85.83 93.753 89.3933C89.9365 103.217 85.8239 128.814 99.4753 148.971C108.121 161.734 122.747 170.772 142.942 175.835C158.901 179.833 174.057 180.277 181.341 180.492C185.062 180.602 195.183 180.716 203.07 180.798C204.66 180.865 206.279 180.893 207.922 180.893C208.777 180.893 209.637 180.884 210.507 180.869C212.121 180.884 213.167 180.893 213.368 180.893V180.779C225.715 180.277 238.942 178.128 250.353 174.674C269.139 168.985 282.767 160.058 289.75 148.866C295.057 140.431 298.185 129.497 298.797 117.255C299.279 107.582 298.157 97.4561 295.711 89.3407Z" fill="#FDE0D4"/>
<path d="M204.268 145.676C199.014 145.867 193.942 143.483 190.478 139.39C186.012 143.961 179.445 145.886 173.808 143.741C167.647 141.396 164.996 134.947 164.403 131.503C164.059 129.521 165.392 127.634 167.379 127.291C169.361 126.947 171.243 128.275 171.592 130.257C171.616 130.371 172.609 135.478 176.407 136.925C179.846 138.234 185.081 136.237 187.402 131.183C188.014 129.851 189.361 129.015 190.832 129.058C192.298 129.106 193.593 130.028 194.118 131.398C195.909 136.07 200.653 139.027 205.147 138.267C208.615 137.684 211.624 134.928 212.818 131.241C213.439 129.325 215.493 128.275 217.409 128.895C219.324 129.516 220.375 131.57 219.754 133.486C217.7 139.829 212.565 144.415 206.351 145.461C205.658 145.58 204.961 145.652 204.268 145.676Z" fill="url(#paint3_linear_606_13238)"/>
<path d="M191.013 132.936C190.307 132.96 189.595 132.784 188.969 132.397L179.039 126.287C177.873 125.571 177.204 124.257 177.314 122.891C177.424 121.525 178.289 120.336 179.554 119.81C183.046 118.368 186.882 117.642 190.655 117.714C194.529 117.785 198.427 118.702 201.933 120.355C203.151 120.928 203.953 122.132 204.02 123.479C204.082 124.826 203.399 126.101 202.238 126.789L192.738 132.43C192.208 132.745 191.611 132.913 191.013 132.936ZM190.889 125.017L190.913 125.031L190.932 125.017C190.923 125.017 190.908 125.017 190.889 125.017Z" fill="url(#paint4_linear_606_13238)"/>
<path d="M262.151 128.408C261.95 128.418 261.75 128.408 261.544 128.38L250.353 126.928C248.356 126.67 246.947 124.84 247.205 122.844C247.463 120.847 249.292 119.438 251.289 119.696L262.48 121.148C264.477 121.406 265.886 123.235 265.628 125.232C265.399 127.028 263.899 128.346 262.151 128.408Z" fill="url(#paint5_linear_606_13238)"/>
<path d="M254.547 140.651C254.179 140.665 253.806 140.622 253.434 140.517L244.263 137.961C242.323 137.422 241.187 135.411 241.731 133.471C242.271 131.532 244.282 130.395 246.221 130.94L255.392 133.495C257.331 134.035 258.468 136.046 257.924 137.985C257.489 139.552 256.094 140.593 254.547 140.651Z" fill="url(#paint6_linear_606_13238)"/>
<path d="M245.366 149.234C244.716 149.258 244.048 149.105 243.441 148.761L237.967 145.661C236.214 144.668 235.598 142.442 236.591 140.694C237.585 138.945 239.811 138.324 241.559 139.318L247.038 142.418C248.791 143.411 249.407 145.637 248.413 147.39C247.764 148.532 246.589 149.191 245.366 149.234Z" fill="url(#paint7_linear_606_13238)"/>
<path d="M122.924 129.822C121.175 129.884 119.585 128.681 119.222 126.908C118.82 124.936 120.091 123.011 122.064 122.605L133.122 120.345C135.094 119.939 137.019 121.215 137.425 123.187C137.826 125.16 136.556 127.085 134.583 127.491L123.525 129.75C123.325 129.789 123.119 129.813 122.924 129.822Z" fill="url(#paint8_linear_606_13238)"/>
<path d="M131.397 141.477C129.854 141.534 128.383 140.593 127.834 139.065C127.156 137.169 128.14 135.081 130.036 134.403L138.997 131.188C140.893 130.51 142.98 131.494 143.659 133.39C144.337 135.287 143.353 137.374 141.457 138.052L132.496 141.267C132.133 141.396 131.76 141.463 131.397 141.477Z" fill="url(#paint9_linear_606_13238)"/>
<path d="M141.175 149.373C139.952 149.416 138.734 148.847 138.003 147.753C136.885 146.077 137.339 143.813 139.016 142.695L144.251 139.203C145.927 138.086 148.192 138.539 149.309 140.216C150.427 141.893 149.973 144.157 148.297 145.274L143.062 148.766C142.479 149.153 141.829 149.349 141.175 149.373Z" fill="url(#paint10_linear_606_13238)"/>
<path d="M117.359 56.8553C114.918 54.7871 114.732 51.3575 114.421 45.7641C114.168 41.1834 113.604 30.9998 118.08 29.1178C121.29 27.766 125.551 31.3437 130.623 35.6044C136.556 40.5863 140.907 44.2404 140.425 48.353C139.556 55.7471 123.387 61.9662 117.359 56.8553Z" fill="url(#paint11_linear_606_13238)"/>
<path d="M268.814 56.8553C271.255 54.7871 271.441 51.3575 271.752 45.7641C272.005 41.1834 272.569 30.9998 268.093 29.1178C264.883 27.766 260.622 31.3437 255.55 35.6044C249.617 40.5863 245.266 44.2404 245.748 48.353C246.617 55.7471 262.786 61.9662 268.814 56.8553Z" fill="url(#paint12_linear_606_13238)"/>
<path opacity="0.31" d="M246.918 171.354C234.566 175.639 223.069 176.618 210.984 177.645C188.362 179.57 171.191 177.363 165.378 176.523C146.711 173.829 133.313 171.894 119.026 162.69C105.269 153.829 97.1921 142.418 92.8598 135.029C92.8741 135.081 92.8885 135.138 92.898 135.191C94.374 139.925 96.5043 144.572 99.4801 148.967C108.126 161.73 122.752 170.767 142.947 175.83C158.905 179.828 174.061 180.272 181.346 180.487C185.067 180.597 195.188 180.712 203.074 180.793C204.665 180.86 206.284 180.888 207.927 180.888C208.782 180.888 209.642 180.879 210.511 180.865C212.126 180.879 213.172 180.888 213.373 180.888V180.774C225.72 180.272 238.946 178.123 250.358 174.669C269.144 168.98 282.771 160.053 289.755 148.862C292.587 144.362 294.789 139.146 296.327 133.405C277.374 158.921 256.605 167.992 246.918 171.354Z" fill="#EA6124"/>
<path d="M175.093 106.661C173.483 114.709 164.389 120.455 155.734 119.748C147.413 119.07 138.524 112.349 138.524 102.538C138.519 92.6987 147.451 85.6914 155.734 85.3284C163.854 84.9702 169.318 91.0794 170.541 92.5458C171.649 93.8641 176.493 99.6629 175.093 106.661Z" fill="#F68D64"/>
<path d="M156.794 119.634C162.98 119.634 167.995 114.619 167.995 108.433C167.995 102.247 162.98 97.2316 156.794 97.2316C150.608 97.2316 145.593 102.247 145.593 108.433C145.593 114.619 150.608 119.634 156.794 119.634Z" fill="url(#paint13_linear_606_13238)"/>
<path d="M150.179 106.684C152.946 106.684 155.189 104.441 155.189 101.674C155.189 98.9065 152.946 96.6632 150.179 96.6632C147.411 96.6632 145.168 98.9065 145.168 101.674C145.168 104.441 147.411 106.684 150.179 106.684Z" fill="white"/>
<path d="M208.496 106.049C210.125 114.098 219.334 119.844 228.094 119.137C236.515 118.459 245.514 111.738 245.519 101.927C245.524 92.0873 236.482 85.08 228.094 84.717C219.873 84.3588 214.342 90.468 213.105 91.9344C211.983 93.2575 207.077 99.0563 208.496 106.049Z" fill="#F68D64"/>
<path d="M223.513 119.022C229.776 119.022 234.853 114.007 234.853 107.821C234.853 101.635 229.776 96.6202 223.513 96.6202C217.251 96.6202 212.174 101.635 212.174 107.821C212.174 114.007 217.251 119.022 223.513 119.022Z" fill="url(#paint14_linear_606_13238)"/>
<path d="M216.253 106.073C219.054 106.073 221.326 103.83 221.326 101.062C221.326 98.2951 219.054 96.0518 216.253 96.0518C213.451 96.0518 211.18 98.2951 211.18 101.062C211.18 103.83 213.451 106.073 216.253 106.073Z" fill="white"/>
<path d="M72.9081 196.895C69.1585 188.287 75.3584 177.674 80.0681 172.553C93.839 157.584 122.36 159.676 137.344 174.703C138.858 176.217 151.592 189.271 147.365 199.044C139.861 216.412 81.6205 216.913 72.9081 196.895Z" fill="#FDE0D4"/>
<path d="M238.082 196.895C234.332 188.287 240.532 177.674 245.242 172.553C259.013 157.584 287.534 159.676 302.518 174.703C304.032 176.217 316.766 189.271 312.539 199.044C305.03 216.412 246.794 216.913 238.082 196.895Z" fill="#FDE0D4"/>
<path d="M56.7633 106.083C34.7767 122.562 11.534 120.732 3.68129 109.975C-2.11746 102.032 -0.928097 87.2916 6.27974 82.2284C15.5415 75.718 36.1524 84.2011 56.7633 106.083Z" fill="url(#paint15_linear_606_13238)"/>
<path d="M40.7952 74.1465C20.9104 71.2996 9.83828 58.336 11.3429 48.716C12.4511 41.6133 20.6859 34.6061 27.0291 35.7142C35.1827 37.1376 41.4544 52.1791 40.7952 74.1465Z" fill="url(#paint16_linear_606_13238)"/>
<path d="M347.752 106.083C369.738 122.562 392.981 120.732 400.834 109.975C406.632 102.032 405.443 87.2916 398.235 82.2284C388.973 75.718 368.358 84.2011 347.752 106.083Z" fill="url(#paint17_linear_606_13238)"/>
<path d="M363.72 74.1465C383.605 71.2996 394.677 58.336 393.172 48.716C392.064 41.6133 383.829 34.6061 377.486 35.7142C369.332 37.1376 363.061 52.1791 363.72 74.1465Z" fill="url(#paint18_linear_606_13238)"/>
<defs>
<linearGradient id="paint0_linear_606_13238" x1="26.9314" y1="130.103" x2="355.713" y2="130.103" gradientUnits="userSpaceOnUse">
<stop stop-color="#F68D64"/>
<stop offset="1" stop-color="#D94626"/>
</linearGradient>
<linearGradient id="paint1_linear_606_13238" x1="191.924" y1="130.098" x2="191.924" y2="243.149" gradientUnits="userSpaceOnUse">
<stop stop-color="#F68D64"/>
<stop offset="1" stop-color="#D94626"/>
</linearGradient>
<linearGradient id="paint2_linear_606_13238" x1="178.064" y1="206.708" x2="200.306" y2="206.708" gradientUnits="userSpaceOnUse">
<stop stop-color="#F68D64"/>
<stop offset="1" stop-color="#D94626"/>
</linearGradient>
<linearGradient id="paint3_linear_606_13238" x1="164.567" y1="137.24" x2="220.026" y2="135.225" gradientUnits="userSpaceOnUse">
<stop stop-color="#F68D64"/>
<stop offset="1" stop-color="#D94626"/>
</linearGradient>
<linearGradient id="paint4_linear_606_13238" x1="177.386" y1="125.794" x2="204.059" y2="124.825" gradientUnits="userSpaceOnUse">
<stop stop-color="#F68D64"/>
<stop offset="1" stop-color="#D94626"/>
</linearGradient>
<linearGradient id="paint5_linear_606_13238" x1="265.87" y1="123.595" x2="247.457" y2="124.263" gradientUnits="userSpaceOnUse">
<stop stop-color="#F68D64"/>
<stop offset="1" stop-color="#D94626"/>
</linearGradient>
<linearGradient id="paint6_linear_606_13238" x1="258.252" y1="135.32" x2="241.897" y2="135.914" gradientUnits="userSpaceOnUse">
<stop stop-color="#F68D64"/>
<stop offset="1" stop-color="#D94626"/>
</linearGradient>
<linearGradient id="paint7_linear_606_13238" x1="249.066" y1="143.699" x2="236.421" y2="144.158" gradientUnits="userSpaceOnUse">
<stop stop-color="#F68D64"/>
<stop offset="1" stop-color="#D94626"/>
</linearGradient>
<linearGradient id="paint8_linear_606_13238" x1="119.102" y1="125.383" x2="137.515" y2="124.714" gradientUnits="userSpaceOnUse">
<stop stop-color="#F68D64"/>
<stop offset="1" stop-color="#D94626"/>
</linearGradient>
<linearGradient id="paint9_linear_606_13238" x1="127.551" y1="136.525" x2="143.905" y2="135.931" gradientUnits="userSpaceOnUse">
<stop stop-color="#F68D64"/>
<stop offset="1" stop-color="#D94626"/>
</linearGradient>
<linearGradient id="paint10_linear_606_13238" x1="137.32" y1="144.215" x2="149.965" y2="143.756" gradientUnits="userSpaceOnUse">
<stop stop-color="#F68D64"/>
<stop offset="1" stop-color="#D94626"/>
</linearGradient>
<linearGradient id="paint11_linear_606_13238" x1="134.142" y1="36.6038" x2="113.147" y2="51.0782" gradientUnits="userSpaceOnUse">
<stop stop-color="#F68D64"/>
<stop offset="1" stop-color="#D94626"/>
</linearGradient>
<linearGradient id="paint12_linear_606_13238" x1="252.037" y1="36.6827" x2="273.032" y2="51.157" gradientUnits="userSpaceOnUse">
<stop stop-color="#F68D64"/>
<stop offset="1" stop-color="#D94626"/>
</linearGradient>
<linearGradient id="paint13_linear_606_13238" x1="145.59" y1="108.432" x2="167.995" y2="108.432" gradientUnits="userSpaceOnUse">
<stop stop-color="#462F7E"/>
<stop offset="1" stop-color="#D94626"/>
</linearGradient>
<linearGradient id="paint14_linear_606_13238" x1="212.171" y1="107.822" x2="234.853" y2="107.822" gradientUnits="userSpaceOnUse">
<stop stop-color="#462F7E"/>
<stop offset="1" stop-color="#D94626"/>
</linearGradient>
<linearGradient id="paint15_linear_606_13238" x1="-0.00144303" y1="99.1727" x2="56.7615" y2="99.1727" gradientUnits="userSpaceOnUse">
<stop stop-color="#F68D64"/>
<stop offset="1" stop-color="#D94626"/>
</linearGradient>
<linearGradient id="paint16_linear_606_13238" x1="11.2059" y1="54.8729" x2="40.8424" y2="54.8729" gradientUnits="userSpaceOnUse">
<stop stop-color="#F68D64"/>
<stop offset="1" stop-color="#D94626"/>
</linearGradient>
<linearGradient id="paint17_linear_606_13238" x1="404.515" y1="99.1727" x2="347.752" y2="99.1727" gradientUnits="userSpaceOnUse">
<stop stop-color="#F68D64"/>
<stop offset="1" stop-color="#D94626"/>
</linearGradient>
<linearGradient id="paint18_linear_606_13238" x1="393.308" y1="54.8729" x2="363.671" y2="54.8729" gradientUnits="userSpaceOnUse">
<stop stop-color="#F68D64"/>
<stop offset="1" stop-color="#D94626"/>
</linearGradient>
</defs>
</svg>
