<svg width="166" height="217" viewBox="0 0 166 217" fill="none" xmlns="http://www.w3.org/2000/svg">
<mask id="mask0_578_3930" style="mask-type:alpha" maskUnits="userSpaceOnUse" x="5" y="3" width="150" height="201">
<path d="M5 23C5 11.9543 13.9543 3 25 3H135C146.046 3 155 11.9543 155 23V183.162C155 194.208 146.046 203.162 135 203.162H25C13.9543 203.162 5 194.208 5 183.162V23Z" fill="#C4C4C4"/>
</mask>
<g mask="url(#mask0_578_3930)">
<rect x="-17" y="-26.2926" width="205" height="247" fill="url(#paint0_linear_578_3930)"/>
<path d="M4 129.447C6.68441 127.739 10.9674 125.437 16.7635 124.087C25.3044 122.094 32.2768 123.287 39.2442 124.156C43.7082 124.71 53.179 125.128 72.1207 125.967C94.0032 126.934 104.942 127.415 114.463 125.967C120.48 125.049 124.829 123.925 131.957 124.357C141.011 124.912 148.224 127.597 153 129.855L146.324 132H95.7024L34.5691 130.665L4 129.447Z" fill="#4E3B97"/>
<path d="M161 230.151H160.965L159.452 163.905H157.939L157.864 135.129H157.944C157.944 135.129 158.035 135.009 157.859 134.59V134.545H157.838C157.612 134.035 157.011 133.107 155.453 131.459C152.514 128.353 151.611 128.633 151.611 128.633C141.078 123.584 135.365 124.233 132.057 125.946C130.67 126.665 128.562 128.168 124.71 129.526C120.979 130.845 117.948 131.209 116.798 131.319C112.275 131.748 108.816 131.084 107.642 130.87C103.587 130.141 96.8004 130.121 83.2263 130.086C63.7174 130.036 64.2619 131.913 55.3067 130.645C50.7433 130.001 47.8792 129.197 39.1408 128.068C27.3719 126.55 28.2896 127.644 22.753 126.276C15.2702 124.438 10.4446 121.477 6.02747 123.934C4.23238 124.928 1.24225 128.308 -0.53771 130.43C-0.557879 130.455 -0.573006 130.475 -0.593176 130.5L-1.30415 130.48L-2 131.144L-1.9647 132.173C-1.98487 132.198 -2 132.218 -2 132.218H-1.9647L-0.895719 163.9H-2L-1.88907 225.782H-1.97479C-1.97479 225.782 -2.06555 225.962 -1.88907 226.591V226.656H-1.8689C-1.64199 227.425 -1.02682 228.813 0.561529 231.285C3.5567 235.948 4.47946 235.534 4.47946 235.534C13.6616 242.015 19.2486 242.245 22.7783 240.562C23.1564 240.607 23.5296 240.657 23.9128 240.692C31.199 241.356 35.6414 239.633 41.7931 238.235C51.5249 236.023 62.7038 236.757 85.0718 238.235C104.43 239.513 114.111 240.153 118.674 241.001C125.623 242.29 132.581 244.047 141.022 241.306C145.833 243.553 149.443 245.366 152.826 242.599C154.652 241.101 157.702 236.033 159.512 232.847C159.533 232.812 159.548 232.783 159.568 232.748L160.289 232.773L160.995 231.769L160.96 230.226C160.985 230.176 161 230.151 161 230.151Z" fill="url(#paint1_linear_578_3930)"/>
<circle cx="77.8301" cy="81.9532" r="58.2122" fill="url(#paint2_linear_578_3930)"/>
<path d="M53.7796 103.56C54.8235 103.56 54.8235 101.939 53.7796 101.939C52.7356 101.939 52.7356 103.56 53.7796 103.56Z" fill="#3F4B80"/>
<path d="M47.2238 112.894C48.2873 113.296 49.328 113.75 50.3914 114.156C50.5762 114.227 50.8518 114.169 51.0172 114.074C51.1857 113.977 51.3446 113.783 51.39 113.591C51.497 113.128 51.2473 112.758 50.8226 112.593C49.7624 112.184 48.7185 111.73 47.655 111.332C47.2563 111.182 46.7505 111.497 46.6565 111.899C46.5527 112.359 46.7991 112.735 47.2238 112.894Z" fill="#4F8FCC"/>
<path d="M59.6545 123.986C61.655 121.428 63.1366 116.973 61.5544 114.626C59.8361 112.071 55.7218 113.828 54.1915 111.02C53.4166 109.597 54.3407 108.9 53.7895 106.442C53.1281 103.489 50.81 100.133 48.012 99.6307C45.5382 99.1865 44.504 101.3 42.5554 100.441C41.1094 99.8025 41.1743 98.4116 39.3457 95.7336C38.2661 94.1514 36.5672 91.6647 33.9475 90.6726C31.1949 89.6319 27.0158 90.0858 25.7968 92.8221C25.1419 94.2941 25.3883 96.3301 26.3058 97.7372C27.9074 100.205 30.4849 99.1022 32.3167 101.446C33.9184 103.495 33.6071 106.455 33.4612 107.833C32.9716 112.47 30.2612 113.313 30.151 116.564C30.0083 120.731 34.3009 124.093 35.841 125.296C42.7986 130.746 51.1342 128.395 52.9238 127.889C55.1447 127.27 57.6801 126.515 59.6545 123.986Z" fill="#6664A8"/>
<path d="M58.9898 126.278C57.5405 123.201 53.4133 122.653 51.16 122.838C48.1156 123.091 47.3602 124.787 45.3436 124.154C43.5117 123.58 43.2913 121.917 41.038 119.272C40.208 118.299 37.5267 115.151 34.0252 114.032C29.8428 112.697 28.8475 115.65 23.8351 114.645C20.2331 113.922 19.8894 112.226 16.0637 111.941C14.4199 111.818 11.1616 111.578 9.73177 113.822C8.90178 115.125 8.6878 117.271 9.56318 118.789C11.1583 121.557 14.796 119.518 18.8519 122.462C20.1196 123.383 21.3614 125.25 23.8449 128.988C26.5553 133.064 26.351 133.55 27.6382 134.999C30.7701 138.517 35.0919 139.146 37.7148 139.525C41.761 140.112 45.1555 139.042 51.9478 136.906C55.2905 135.855 56.811 135.093 57.9555 133.443C59.1713 131.686 60.1245 128.684 58.9898 126.278Z" fill="#462F7E"/>
<path d="M33.7011 98.4797C35.3611 100.282 37.1119 102.001 38.7135 103.852C40.2827 105.668 41.7287 107.587 43.1066 109.552C45.8527 113.475 48.4075 117.531 50.4047 121.888C51.5881 124.472 52.7196 127.082 53.9549 129.643C54.2272 130.207 55.0669 129.715 54.7946 129.154C52.6223 124.663 50.81 120.008 48.2649 115.702C45.8462 111.607 43.1196 107.616 40.072 103.959C38.2791 101.806 36.2787 99.8511 34.3852 97.7924C33.9638 97.332 33.2764 98.0193 33.7011 98.4797Z" fill="white"/>
<path d="M49.4417 117.615C49.406 115.948 49.3153 114.282 49.419 112.615C49.4709 111.789 49.5811 110.972 49.6881 110.151C49.7886 109.367 49.8372 108.56 50.1063 107.811C50.3203 107.221 49.3801 106.968 49.1694 107.551C48.897 108.31 48.8484 109.13 48.7446 109.921C48.6344 110.764 48.5144 111.61 48.4561 112.46C48.3394 114.175 48.4334 115.897 48.4691 117.615C48.482 118.237 49.4547 118.241 49.4417 117.615Z" fill="white"/>
<path d="M37.2027 111.828C40.1368 111.883 43.0029 112.217 45.7328 113.348C46.3099 113.588 46.5628 112.648 45.9922 112.411C43.1877 111.247 40.2147 110.913 37.2027 110.855C36.577 110.842 36.577 111.815 37.2027 111.828Z" fill="white"/>
<path d="M39.3488 103.109C38.4604 100.821 37.8995 98.3597 37.4845 95.9411C37.3775 95.3251 36.4406 95.5877 36.5476 96.2004C36.9626 98.6191 37.5267 101.08 38.4118 103.369C38.6355 103.946 39.5757 103.696 39.3488 103.109Z" fill="white"/>
<path d="M14.0666 116.376C15.438 116.623 16.7965 116.973 18.1387 117.343C19.455 117.706 20.7389 118.147 21.971 118.73C24.4058 119.884 26.4711 121.509 28.4909 123.272C30.4654 124.997 32.4496 126.761 34.6802 128.149C35.8085 128.849 37.0178 129.42 38.2401 129.935C39.4656 130.454 40.7236 130.895 42.0269 131.177C43.5442 131.504 45.1037 131.692 46.6567 131.692C48.2875 131.696 49.9118 131.511 51.5361 131.397C52.1586 131.355 52.1619 130.379 51.5361 130.425C50.0966 130.525 48.6603 130.681 47.2176 130.713C45.8397 130.746 44.465 130.639 43.1065 130.399C40.4836 129.935 37.8964 128.917 35.601 127.568C31.0652 124.906 27.7647 120.578 23.0506 118.179C20.3402 116.801 17.3087 115.971 14.3227 115.436C13.7132 115.329 13.4506 116.266 14.0666 116.376Z" fill="white"/>
<path d="M43.3464 130.402C42.458 129.449 41.5924 128.479 40.9245 127.354C40.2274 126.184 39.8351 124.906 39.284 123.671C39.177 123.428 38.8301 123.376 38.6193 123.496C38.3697 123.639 38.3373 123.924 38.4442 124.161C39.0116 125.435 39.4136 126.748 40.1464 127.951C40.8467 129.102 41.7448 130.11 42.659 131.092C43.087 131.55 43.7743 130.862 43.3464 130.402Z" fill="white"/>
<path d="M24.6329 127.02C26.1145 126.978 27.58 126.849 29.0617 126.907C30.5401 126.965 32.0347 126.972 33.5034 127.16C34.1226 127.238 34.1162 126.265 33.5034 126.187C32.0347 125.999 30.5401 125.993 29.0617 125.934C27.58 125.876 26.1113 126.006 24.6329 126.048C24.0071 126.067 24.0071 127.04 24.6329 127.02Z" fill="white"/>
<path d="M19.3027 116.542C18.6477 115.485 17.9377 114.421 17.5033 113.257C17.4125 113.011 17.1758 112.842 16.9035 112.917C16.6668 112.982 16.4723 113.267 16.563 113.517C17.0332 114.775 17.7594 115.897 18.4597 117.031C18.5991 117.255 18.8941 117.339 19.1243 117.206C19.3513 117.077 19.4421 116.765 19.3027 116.542Z" fill="white"/>
<path d="M121.654 131.806L119.161 138.053C119.161 138.053 118.7 139.036 119.161 139.503C119.621 139.973 120.02 140.307 120.02 140.307L127.84 140.417L127.756 141.331L111.574 141.185C111.574 141.185 110.475 140.582 110.475 139.678C110.475 138.773 111.042 137 111.072 136.899C111.101 136.799 112.644 131.799 112.644 131.799H121.654V131.806Z" fill="#462F7E"/>
<path d="M113.74 131.916C113.74 131.916 111.947 137.538 111.759 138.008C111.571 138.478 111.506 139.616 111.759 139.817C112.012 140.018 112.45 140.119 112.45 140.119L120.121 140.287V141.257H111.694C111.694 141.257 110.31 141.023 110.342 139.817C110.375 138.611 110.988 136.452 110.988 136.452L112.498 131.53L113.74 131.916Z" fill="#6662AC"/>
<path d="M95.0522 99.2902L100.921 132.318L141 132.853L133.371 105.094L95.0522 99.2902Z" fill="#462F7E"/>
<path d="M97.2407 101.949C98.972 111.328 100.7 120.708 102.431 130.087C114.505 130.295 126.579 130.502 138.653 130.713C136.613 122.666 134.571 114.616 132.532 106.569C120.769 105.026 109.003 103.489 97.2407 101.949Z" fill="white"/>
<path d="M113.75 105.736L131.274 107.846C132.817 114.898 134.357 121.95 135.9 129.001C129.782 128.807 123.664 128.615 117.543 128.421C116.279 120.86 115.014 113.296 113.75 105.736Z" fill="#6664A8"/>
<path d="M100.651 108.842C101.076 111.101 101.501 113.364 101.926 115.624C105.168 115.786 108.41 115.952 111.652 116.114C111.289 113.987 110.926 111.86 110.563 109.733C107.259 109.438 103.955 109.14 100.651 108.842Z" fill="#6664A8"/>
<path d="M102.642 119.09C103.206 122.183 103.774 125.276 104.338 128.369C107.493 128.392 110.647 128.414 113.802 128.437C113.29 125.474 112.774 122.51 112.262 119.547C109.055 119.392 105.849 119.242 102.642 119.09Z" fill="#4F8FCC"/>
<path d="M100.155 103.982L100.121 104.304L110.012 105.36L110.047 105.037L100.155 103.982Z" fill="#6664A8"/>
<path d="M100.359 105.039L100.324 105.361L110.216 106.416L110.25 106.094L100.359 105.039Z" fill="#6664A8"/>
<path d="M100.357 106.094L100.323 106.417L110.214 107.472L110.248 107.149L100.357 106.094Z" fill="#6664A8"/>
<path d="M100.671 107.152L100.637 107.474L110.528 108.529L110.562 108.207L100.671 107.152Z" fill="#6664A8"/>
<path d="M102.215 117.569L102.204 117.893L112.14 118.216L112.15 117.892L102.215 117.569Z" fill="#332B63"/>
<path d="M118.999 126.589C120.043 126.589 120.043 124.968 118.999 124.968C117.958 124.968 117.955 126.589 118.999 126.589Z" fill="#4F8FCC"/>
<path d="M132.836 125.338C133.88 125.338 133.88 123.717 132.836 123.717C131.792 123.717 131.789 125.338 132.836 125.338Z" fill="#4F8FCC"/>
<path d="M48.1677 121.055C48.1677 121.055 49.6721 139.282 49.9282 139.859C50.1843 140.436 50.5734 140.666 51.0435 140.621C51.5169 140.576 59.2883 140.628 59.2883 140.628C59.2883 140.628 60.0599 140.517 60.1475 139.859C60.235 139.201 61.8658 121.055 61.8658 121.055H48.1677Z" fill="#F68D64"/>
<path d="M48.4888 126.56H61.5449L61.0294 134.756L49.3058 135.122L48.4888 126.56Z" fill="url(#paint3_linear_578_3930)"/>
<path d="M61.9727 121.055H48.0607C47.6878 121.055 47.3831 120.75 47.3831 120.377V120.247C47.3831 119.875 47.6878 119.57 48.0607 119.57H61.9727C62.3456 119.57 62.6503 119.875 62.6503 120.247V120.377C62.6503 120.75 62.3488 121.055 61.9727 121.055Z" fill="#462F7E"/>
<path d="M61.0909 120.312H48.8453C48.4725 120.312 48.1677 120.008 48.1677 119.635V119.505C48.1677 119.132 48.4725 118.827 48.8453 118.827H61.0909C61.4638 118.827 61.7685 119.132 61.7685 119.505V119.635C61.7685 120.008 61.4638 120.312 61.0909 120.312Z" fill="#462F7E"/>
<path d="M41.8552 126.823C41.8552 126.823 42.9154 139.674 43.097 140.083C43.2785 140.491 43.5509 140.654 43.8848 140.621C44.2188 140.589 49.698 140.624 49.698 140.624C49.698 140.624 50.2427 140.547 50.3043 140.083C50.3659 139.619 51.5168 126.823 51.5168 126.823H41.8552Z" fill="#F68D64"/>
<path d="M42.0823 130.707H51.29L50.9236 136.487L42.6561 136.744L42.0823 130.707Z" fill="url(#paint4_linear_578_3930)"/>
<path d="M51.5913 126.823H41.7806C41.5179 126.823 41.304 126.609 41.304 126.346V126.255C41.304 125.993 41.5179 125.779 41.7806 125.779H51.5913C51.8539 125.779 52.0679 125.993 52.0679 126.255V126.346C52.0679 126.612 51.8539 126.823 51.5913 126.823Z" fill="#462F7E"/>
<path d="M50.9657 126.301H42.3318C42.0692 126.301 41.8552 126.087 41.8552 125.824V125.733C41.8552 125.471 42.0692 125.257 42.3318 125.257H50.9657C51.2283 125.257 51.4423 125.471 51.4423 125.733V125.824C51.4455 126.087 51.2315 126.301 50.9657 126.301Z" fill="#462F7E"/>
<path d="M118.285 123.214C118.758 122.076 118.334 120.549 117.799 119.528C116.333 116.733 114.359 114.512 111.632 113.121C110.183 112.382 108.617 111.961 107.015 111.841C105.238 111.708 103.802 112.106 102.145 112.748C101.241 113.099 101.549 114.347 102.288 114.58L100.913 120.432C100.806 120.552 100.699 120.672 100.576 120.776C100.083 121.21 99.7398 121.347 99.5874 122.063C99.3248 123.292 101.16 123.496 101.419 122.277C101.335 122.669 101.494 122.468 101.711 122.319C101.97 122.141 102.204 121.817 102.398 121.564C102.891 120.915 103.374 120.354 104.107 120.008C105.316 119.437 106.71 119.732 107.942 120.063C110.838 120.841 112.144 124.359 115.221 124.647C116.278 124.748 117.812 124.355 118.285 123.214Z" fill="#FDDFD4"/>
<path opacity="0.31" d="M104.315 110.703C103.436 111.105 100.242 112.755 99.5713 116.516C98.9358 120.079 101.063 122.767 101.354 123.123C103.183 123.645 105.015 124.17 106.843 124.692C106.377 123.279 105.43 119.774 106.49 115.601C107.138 113.047 108.293 111.208 109.103 110.126C108.26 109.976 106.373 109.766 104.315 110.703Z" fill="#EA6225"/>
<path d="M97.659 131.851C97.5682 130.891 97.3737 129.938 97.0786 129.021L95.5256 129.582L86.3017 131.689C86.1234 131.465 85.9483 131.238 85.77 131.008L84.4958 132.101L83.2217 133.193C86.198 137.126 90.3609 141.033 93.5739 141.033C94.2969 141.033 94.9712 140.835 95.5743 140.394C98.2101 138.472 97.7238 132.522 97.659 131.851Z" fill="#FDDFD4"/>
<path d="M101.79 114.236C101.566 111.766 101.339 109.299 101.115 106.828C101.099 101.54 101.079 96.2523 101.063 90.9643C87.7088 90.3192 74.3544 89.674 61.0032 89.032C60.6466 94.0541 60.29 99.0794 59.9333 104.102C59.139 106.241 58.3771 108.576 57.6898 111.095C57.3526 112.337 57.0543 113.549 56.7917 114.726L56.3799 116.299L56.3702 116.334C56.2827 116.694 54.2952 125.172 59.1844 129.329C63.5775 133.06 77.0033 133.955 78.5562 134.046C78.5595 134.046 78.5595 134.046 78.5627 134.046C80.226 133.955 94.6503 133.067 99.3449 129.368C104.63 125.205 102.47 116.665 102.376 116.302L101.79 114.236Z" fill="#FDDFD4"/>
<path opacity="0.31" d="M82.0447 131.563C82.6866 132.814 83.3253 134.065 83.9673 135.317C85.4165 135.687 88.5549 136.27 92.2996 135.145C95.8173 134.088 98.116 132.052 99.1892 130.966C98.4143 128.946 97.6394 126.93 96.8645 124.91C91.9268 127.127 86.9857 129.345 82.0447 131.563Z" fill="#EA6225"/>
<path d="M60.6724 132.072C60.6854 131.109 60.8021 130.139 61.0161 129.196L62.608 129.608L71.9681 130.849C72.1269 130.609 72.2858 130.369 72.4414 130.12L73.8031 131.092L75.1648 132.065C72.5225 136.26 68.6967 140.54 65.4967 140.838C64.777 140.906 64.0864 140.77 63.4509 140.388C60.6659 138.718 60.6627 132.746 60.6724 132.072Z" fill="#FDDFD4"/>
<path opacity="0.31" d="M76.2026 130.33C75.6676 131.637 75.1294 132.944 74.5945 134.247C73.1809 134.75 70.1008 135.625 66.2783 134.853C62.6893 134.13 60.2285 132.315 59.071 131.332C59.6773 129.251 60.2836 127.166 60.8899 125.085C65.993 126.832 71.0962 128.583 76.2026 130.33Z" fill="#EA6225"/>
<path d="M101.115 106.828C100.275 101.119 99.3191 95.6363 98.2848 90.3937C86.6033 90.2803 74.9251 90.1668 63.2436 90.0533C62.0797 97.2898 60.8769 101.518 59.9334 104.098C59.593 105.032 58.6852 107.545 57.6898 111.092C57.0738 113.287 56.6426 115.105 56.3768 116.295L56.367 116.331C56.2795 116.691 54.2921 125.169 59.1812 129.325C63.5743 133.057 77.0001 133.952 78.5531 134.043C78.5563 134.043 78.5563 134.043 78.5596 134.043C80.2228 133.952 94.6471 133.064 99.3417 129.364C104.626 125.201 102.467 116.662 102.373 116.299C102.007 113.202 101.589 110.044 101.115 106.828Z" fill="#F6CABC"/>
<path d="M113.659 93.143C113.834 92.4816 113.876 91.817 113.782 91.1491L110.235 90.7957C110.222 90.786 110.206 90.773 110.193 90.7633L110.274 90.7341C110.248 90.7147 110.219 90.692 110.193 90.6725L110.274 90.6433C110.248 90.6239 110.219 90.6012 110.193 90.5817L110.274 90.5526C110.248 90.5331 110.219 90.5104 110.193 90.491L110.274 90.4618C110.248 90.4423 110.219 90.4196 110.193 90.4002L110.274 90.371C110.248 90.3515 110.219 90.3289 110.193 90.3094L110.274 90.2802C110.248 90.2608 110.219 90.2381 110.193 90.2186L110.274 90.1894C110.248 90.17 110.219 90.1473 110.193 90.1278L110.274 90.0987C110.248 90.0792 110.219 90.0565 110.193 90.0371L110.274 90.0079C110.248 89.9884 110.219 89.9657 110.193 89.9463L110.274 89.9171C110.248 89.8976 110.219 89.8749 110.193 89.8555L110.274 89.8263C110.248 89.8069 110.219 89.7842 110.193 89.7647L110.274 89.7355C110.248 89.7161 110.219 89.6934 110.193 89.6739L110.274 89.6448C110.248 89.6253 110.219 89.6026 110.193 89.5832L110.274 89.554C110.248 89.5345 110.219 89.5118 110.193 89.4924L110.274 89.4632C110.248 89.4437 110.219 89.421 110.193 89.4016L110.274 89.3724C110.248 89.353 110.219 89.3303 110.193 89.3108L110.274 89.2816C110.248 89.2622 110.219 89.2395 110.193 89.22L110.274 89.1909C110.248 89.1714 110.219 89.1487 110.193 89.1293L110.274 89.1001C110.248 89.0806 110.219 89.0579 110.193 89.0385L110.274 89.0093C110.248 88.9898 110.219 88.9671 110.193 88.9477L110.274 88.9185C110.248 88.8991 110.219 88.8764 110.193 88.8569L110.274 88.8277C110.248 88.8083 110.219 88.7856 110.193 88.7661L110.274 88.737C110.248 88.7175 110.219 88.6948 110.193 88.6754L110.274 88.6462C110.248 88.6267 110.219 88.604 110.193 88.5846L110.274 88.5554C110.248 88.5359 110.219 88.5132 110.193 88.4938L110.274 88.4646C110.248 88.4452 110.219 88.4225 110.193 88.403L110.274 88.3738C110.248 88.3544 110.219 88.3317 110.193 88.3122L110.274 88.2831C110.248 88.2636 110.219 88.2409 110.193 88.2215L110.274 88.1923C110.248 88.1728 110.219 88.1501 110.193 88.1307L110.274 88.1015C110.248 88.082 110.219 88.0593 110.193 88.0399L110.274 88.0107C110.248 87.9913 110.219 87.9686 110.193 87.9491L110.274 87.9199C110.248 87.9005 110.219 87.8778 110.193 87.8583L110.274 87.8292C110.248 87.8097 110.219 87.787 110.193 87.7675L110.274 87.7384C110.248 87.7189 110.219 87.6962 110.193 87.6768L110.274 87.6476C110.248 87.6281 110.219 87.6054 110.193 87.586L110.274 87.5568C110.248 87.5374 110.219 87.5147 110.193 87.4952L110.274 87.466C110.248 87.4466 110.219 87.4239 110.193 87.4044L110.274 87.3753C110.248 87.3558 110.219 87.3331 110.193 87.3136L110.274 87.2845C110.248 87.265 110.219 87.2423 110.193 87.2229L110.274 87.1937C110.248 87.1742 110.219 87.1515 110.193 87.1321L110.274 87.1029C110.248 87.0835 110.219 87.0608 110.193 87.0413L110.274 87.0121C110.248 86.9927 110.219 86.97 110.193 86.9505L110.274 86.9213C110.248 86.9019 110.219 86.8792 110.193 86.8597L110.274 86.8306C110.248 86.8111 110.219 86.7884 110.193 86.769L110.274 86.7398C110.248 86.7203 110.219 86.6976 110.193 86.6782L110.274 86.649C110.248 86.6296 110.219 86.6069 110.193 86.5874L110.274 86.5582C110.248 86.5388 110.219 86.5161 110.193 86.4966L110.274 86.4674C110.248 86.448 110.219 86.4253 110.193 86.4058L110.274 86.3767C110.248 86.3572 110.219 86.3345 110.193 86.3151L110.274 86.2859C110.264 86.2794 110.258 86.2729 110.248 86.2664L110.446 86.1951C109.865 85.7412 109.224 85.2905 108.497 84.8593C107.8 84.4379 107.032 84.0358 106.225 83.6565L99.8894 84.6065L95.7038 83.2804L95.7362 83.2123C95.7232 83.2091 95.7102 83.2058 95.6973 83.2058L95.7362 83.1215C95.7232 83.1183 95.7102 83.1151 95.6973 83.1151L95.7362 83.0308C95.7232 83.0275 95.7102 83.0243 95.6973 83.0243L95.7362 82.94C95.7232 82.9367 95.7102 82.9335 95.6973 82.9335L95.7362 82.8492C95.7232 82.846 95.7102 82.8427 95.6973 82.8427L95.7362 82.7584C95.7232 82.7552 95.7102 82.7519 95.6973 82.7519L95.7362 82.6676C95.7232 82.6644 95.7102 82.6612 95.6973 82.6612L95.7362 82.5769C95.7232 82.5736 95.7102 82.5704 95.6973 82.5704L95.7362 82.4861C95.7232 82.4828 95.7102 82.4796 95.6973 82.4796L95.7362 82.3953C95.7232 82.3921 95.7102 82.3888 95.6973 82.3888L95.7362 82.3045C95.7232 82.3013 95.7102 82.298 95.6973 82.298L95.7362 82.2137C95.7232 82.2105 95.7102 82.2073 95.6973 82.2073L95.7362 82.123C95.7232 82.1197 95.7102 82.1165 95.6973 82.1165L95.7362 82.0322C95.7232 82.0289 95.7102 82.0257 95.6973 82.0257L95.7362 81.9414C95.7232 81.9382 95.7102 81.9349 95.6973 81.9349L95.7362 81.8506C95.7232 81.8474 95.7102 81.8441 95.6973 81.8441L95.7362 81.7598C95.7232 81.7566 95.7102 81.7534 95.6973 81.7534L95.7362 81.6691C95.7232 81.6658 95.7102 81.6626 95.6973 81.6626L95.7362 81.5783C95.7232 81.575 95.7102 81.5718 95.6973 81.5718L95.7362 81.4875C95.7232 81.4843 95.7102 81.481 95.6973 81.481L95.7362 81.3967C95.7232 81.3935 95.7102 81.3902 95.6973 81.3902L95.7362 81.3059C95.7232 81.3027 95.7102 81.2995 95.6973 81.2995L95.7362 81.2152C95.7232 81.2119 95.7102 81.2087 95.6973 81.2087L95.7362 81.1244C95.7232 81.1211 95.7102 81.1179 95.6973 81.1179L95.7362 81.0336C95.7232 81.0304 95.7102 81.0271 95.6973 81.0271L95.7362 80.9428C95.7232 80.9396 95.7102 80.9363 95.6973 80.9363L95.7362 80.852C95.7232 80.8488 95.7102 80.8456 95.6973 80.8456L95.7362 80.7613L95.908 80.3981C93.5899 79.9183 91.1388 79.5519 88.6164 79.2926L88.4608 79.3866C88.4543 79.3866 88.4478 79.3866 88.4446 79.3833L84.9301 81.494L78.2156 81.3384L75.262 78.9813C72.7753 79.1143 70.2983 79.3509 67.8894 79.7043L67.8991 79.7692C67.8375 79.7789 67.7791 79.7854 67.7175 79.7951L67.7305 79.8859C67.7272 79.8859 67.7208 79.8859 67.7175 79.8891L67.7305 79.9799C67.7272 79.9799 67.7208 79.9799 67.7175 79.9831L67.7305 80.0739C67.7272 80.0739 67.7208 80.0739 67.7175 80.0772L67.7305 80.1679C67.7272 80.1679 67.7208 80.1679 67.7175 80.1712L67.7305 80.262C67.7272 80.262 67.7208 80.262 67.7175 80.2652L67.7305 80.356C67.7272 80.356 67.7208 80.356 67.7175 80.3592L67.7305 80.45C67.7272 80.45 67.7208 80.45 67.7175 80.4533L67.7305 80.544C67.7272 80.544 67.7208 80.544 67.7175 80.5473L67.7305 80.6381C67.7272 80.6381 67.7208 80.6381 67.7175 80.6413L67.7305 80.7321C67.7272 80.7321 67.7208 80.7321 67.7175 80.7353L67.7305 80.8261C67.7272 80.8261 67.7208 80.8261 67.7175 80.8293L67.7305 80.9201C67.7272 80.9201 67.7208 80.9201 67.7175 80.9234L67.7305 81.0141C67.7272 81.0141 67.7208 81.0142 67.7175 81.0174L67.7305 81.1082C67.7272 81.1082 67.7208 81.1082 67.7175 81.1114L67.7305 81.2022C67.7272 81.2022 67.7208 81.2022 67.7175 81.2054L67.7305 81.2962C67.7272 81.2962 67.7208 81.2962 67.7175 81.2995L67.7305 81.3902C67.7272 81.3902 67.7208 81.3902 67.7175 81.3935L67.7305 81.4843C67.7272 81.4843 67.7208 81.4843 67.7175 81.4875L67.7305 81.5783C67.7272 81.5783 67.7208 81.5783 67.7175 81.5815L67.7305 81.6723C67.7272 81.6723 67.7208 81.6723 67.7175 81.6755L67.7305 81.7663C67.7272 81.7663 67.7208 81.7663 67.7175 81.7696L67.7305 81.8603C67.7272 81.8603 67.7208 81.8604 67.7175 81.8636L67.7305 81.9544C67.7272 81.9544 67.7208 81.9544 67.7175 81.9576L67.7305 82.0484C67.7272 82.0484 67.7208 82.0484 67.7175 82.0516L67.7305 82.1424C67.7272 82.1424 67.7208 82.1424 67.7175 82.1457L67.7305 82.2364C67.7272 82.2364 67.7208 82.2364 67.7175 82.2397L67.7305 82.3305C67.7272 82.3305 67.7208 82.3305 67.7175 82.3337L67.7305 82.4245C67.7272 82.4245 67.7208 82.4245 67.7175 82.4277L67.7305 82.5185C67.7272 82.5185 67.7208 82.5185 67.7175 82.5218V82.5315L62.543 83.7797L56.5613 82.5218C56.1819 82.6612 55.8123 82.8038 55.4525 82.9465C54.6938 83.2156 53.9546 83.5625 53.3483 83.8705C53.0046 84.0358 52.6739 84.2077 52.353 84.3795C52.0125 84.5578 51.6818 84.7426 51.3674 84.9274L51.4549 84.9696C51.4257 84.9858 51.3965 85.002 51.3674 85.0182L51.4549 85.0604C51.4257 85.0766 51.3965 85.0928 51.3674 85.109L51.4549 85.1511C51.4257 85.1673 51.3965 85.1836 51.3674 85.1998L51.4549 85.2419C51.4257 85.2581 51.3965 85.2743 51.3674 85.2905L51.4549 85.3327C51.4257 85.3489 51.3965 85.3651 51.3674 85.3813L51.4549 85.4235C51.4257 85.4397 51.3965 85.4559 51.3674 85.4721L51.4549 85.5143C51.4257 85.5305 51.3965 85.5467 51.3674 85.5629L51.4549 85.605C51.4257 85.6212 51.3965 85.6375 51.3674 85.6537L51.4549 85.6958C51.4257 85.712 51.3965 85.7282 51.3674 85.7444L51.4549 85.7866C51.4257 85.8028 51.3965 85.819 51.3674 85.8352L51.4549 85.8774C51.4257 85.8936 51.3965 85.9098 51.3674 85.926L51.4549 85.9682C51.4257 85.9844 51.3965 86.0006 51.3674 86.0168L51.4549 86.0589C51.4257 86.0751 51.3965 86.0914 51.3674 86.1076L51.4549 86.1497C51.4257 86.1659 51.3965 86.1821 51.3674 86.1983L51.4549 86.2405C51.4257 86.2567 51.3965 86.2729 51.3674 86.2891L51.4549 86.3313C51.4257 86.3475 51.3965 86.3637 51.3674 86.3799L51.4549 86.4221C51.4257 86.4383 51.3965 86.4545 51.3674 86.4707L51.4549 86.5128C51.4257 86.529 51.3965 86.5453 51.3674 86.5615L51.4549 86.6036C51.4257 86.6198 51.3965 86.636 51.3674 86.6522L51.4549 86.6944C51.4257 86.7106 51.3965 86.7268 51.3674 86.743L51.4549 86.7852C51.4257 86.8014 51.3965 86.8176 51.3674 86.8338L51.4549 86.876C51.4257 86.8922 51.3965 86.9084 51.3674 86.9246L51.4549 86.9667C51.4257 86.9829 51.3965 86.9992 51.3674 87.0154L51.4549 87.0575C51.4257 87.0737 51.3965 87.0899 51.3674 87.1062L51.4549 87.1483C51.4257 87.1645 51.3965 87.1807 51.3674 87.1969L51.4549 87.2391C51.4257 87.2553 51.3965 87.2715 51.3674 87.2877L51.4549 87.3299C51.4257 87.3461 51.3965 87.3623 51.3674 87.3785L51.4549 87.4206C51.4257 87.4369 51.3965 87.4531 51.3674 87.4693L51.4549 87.5114C51.4257 87.5276 51.3965 87.5438 51.3674 87.5601L51.4549 87.6022C51.4257 87.6184 51.3965 87.6346 51.3674 87.6508L51.4549 87.693C51.4257 87.7092 51.3965 87.7254 51.3674 87.7416L51.4549 87.7838C51.4257 87.8 51.3965 87.8162 51.3674 87.8324L51.4549 87.8745C51.4257 87.8908 51.3965 87.907 51.3674 87.9232L51.4549 87.9653C51.4257 87.9815 51.3965 87.9977 51.3674 88.014L51.4549 88.0561C51.4257 88.0723 51.3965 88.0885 51.3674 88.1047L51.4549 88.1469C51.4257 88.1631 51.3965 88.1793 51.3674 88.1955L51.4549 88.2377C51.4257 88.2539 51.3965 88.2701 51.3674 88.2863L51.4549 88.3284C51.4257 88.3447 51.3965 88.3609 51.3674 88.3771L51.4549 88.4192C51.4257 88.4354 51.3965 88.4516 51.3674 88.4679L51.4549 88.51C51.4257 88.5262 51.3965 88.5424 51.3674 88.5586L51.4549 88.6008C51.4257 88.617 51.3965 88.6332 51.3674 88.6494L51.4549 88.6916C51.4257 88.7078 51.3965 88.724 51.3674 88.7402L51.4549 88.7823C51.4257 88.7986 51.3965 88.8148 51.3674 88.831L51.4549 88.8731C51.4257 88.8893 51.3965 88.9055 51.3674 88.9218L51.4549 88.9639C51.4257 88.9801 51.3965 88.9963 51.3674 89.0125L51.4549 89.0547C51.4257 89.0709 51.3965 89.0871 51.3674 89.1033L51.4549 89.1455C51.4257 89.1617 51.3965 89.1779 51.3674 89.1941L51.4549 89.2362C51.4257 89.2525 51.3965 89.2687 51.3674 89.2849L51.4549 89.327C51.4387 89.3367 51.4257 89.3432 51.4095 89.353L46.5819 89.5929C46.569 89.6221 46.556 89.648 46.543 89.6772L46.4101 89.6837C46.0275 90.4845 45.8395 91.2982 45.8557 92.1185C45.8557 92.1477 45.8557 92.1801 45.8557 92.2093C45.8557 92.2385 45.8557 92.2709 45.8557 92.3001C45.8557 92.3293 45.8557 92.3617 45.8557 92.3909C45.8557 92.42 45.8557 92.4525 45.8557 92.4816C45.8557 92.5108 45.8557 92.5432 45.8557 92.5724C45.8557 92.6016 45.8557 92.634 45.8557 92.6632C45.8557 92.6924 45.8557 92.7248 45.8557 92.754C45.8557 92.7832 45.8557 92.8156 45.8557 92.8448C45.8557 92.8739 45.8557 92.9064 45.8557 92.9355C45.8557 92.9647 45.8557 92.9971 45.8557 93.0263C45.8557 93.0555 45.8557 93.0879 45.8557 93.1171C45.8557 93.1463 45.8557 93.1787 45.8557 93.2079C45.8557 93.2371 45.8557 93.2695 45.8557 93.2987C45.8557 93.3278 45.8557 93.3603 45.8557 93.3894C45.8557 93.4186 45.8557 93.451 45.8557 93.4802C45.8557 93.5094 45.8557 93.5418 45.8557 93.571C45.8557 93.6002 45.8557 93.6326 45.8557 93.6618C45.8557 93.691 45.8557 93.7234 45.8557 93.7526C45.8557 93.7817 45.8557 93.8142 45.8557 93.8433C45.8557 93.8725 45.8557 93.9049 45.8557 93.9341C45.8557 93.9633 45.8557 93.9957 45.8557 94.0249C45.8557 94.0541 45.8557 94.0865 45.8557 94.1157C45.8557 94.1449 45.8557 94.1773 45.8557 94.2065C45.8557 94.2356 45.8557 94.2681 45.8557 94.2972C45.8557 94.3264 45.8557 94.3588 45.8557 94.388C45.8557 94.4172 45.8557 94.4496 45.8557 94.4788C45.8557 94.508 45.8557 94.5404 45.8557 94.5696C45.8557 94.5988 45.8557 94.6312 45.8557 94.6604C45.8557 94.6895 45.8557 94.722 45.8557 94.7511C45.8557 94.7803 45.8557 94.8127 45.8557 94.8419C45.8557 94.8711 45.8557 94.9035 45.8557 94.9327C45.8557 94.9619 45.8557 94.9943 45.8557 95.0235C45.8557 95.0527 45.8557 95.0851 45.8557 95.1143C45.8557 95.1434 45.8557 95.1759 45.8557 95.205C45.8557 95.2342 45.8557 95.2666 45.8557 95.2958C45.8557 95.325 45.8557 95.3574 45.8557 95.3866C45.8557 95.4158 45.8557 95.4482 45.8557 95.4774C45.8557 95.5066 45.8557 95.539 45.8557 95.5682C45.8557 95.5973 45.8557 95.6298 45.8557 95.6589C45.8557 95.6881 45.8557 95.7205 45.8557 95.7497C45.8557 95.7789 45.8557 95.8113 45.8557 95.8405C45.8557 95.8697 45.8557 95.9021 45.8557 95.9313C45.8557 95.9605 45.8557 95.9929 45.8557 96.0221C45.8557 96.0512 45.8557 96.0837 45.8557 96.1128C45.8557 96.142 45.8557 96.1744 45.8557 96.2036C45.8557 96.2328 45.8557 96.2652 45.8557 96.2944C45.8557 96.3236 45.8557 96.356 45.8557 96.3852C45.8557 96.4144 45.8557 96.4468 45.8557 96.476C45.8557 96.5051 45.8557 96.5376 45.8557 96.5667C45.8557 96.5959 45.8557 96.6283 45.8557 96.6575C45.8557 96.6867 45.8557 96.7191 45.8557 96.7483C45.8557 96.7775 45.8557 96.8099 45.8557 96.8391C45.8557 96.8683 45.8557 96.9007 45.8557 96.9299C45.8557 96.959 45.8557 96.9915 45.8557 97.0206C45.8557 97.0498 45.8557 97.0822 45.8557 97.1114C45.8557 97.1406 45.8557 97.173 45.8557 97.2022C45.8557 97.2314 45.8557 97.2638 45.8557 97.293C45.8557 97.3222 45.8557 97.3546 45.8557 97.3838C45.8557 97.4129 45.8557 97.4454 45.8557 97.4745C45.8557 97.5037 45.8557 97.5361 45.8557 97.5653C45.8557 97.5945 45.8557 97.6269 45.8557 97.6561C45.8557 97.6853 45.8557 97.7177 45.8557 97.7469C45.8557 97.7761 45.8557 97.8085 45.8557 97.8377C45.8557 97.8668 45.8557 97.8993 45.8557 97.9285C45.8557 97.9576 45.8557 97.9901 45.8557 98.0192C45.8557 98.0484 45.8557 98.0808 45.8557 98.11C45.8557 98.1392 45.8557 98.1716 45.8557 98.2008C45.8557 98.23 45.8557 98.2624 45.8557 98.2916C45.8557 98.3208 45.8557 98.3532 45.8557 98.3824C45.8557 98.4115 45.8557 98.444 45.8557 98.4731C45.8557 98.5023 45.8557 98.5347 45.8557 98.5639C45.8557 98.5931 45.8557 98.6255 45.8557 98.6547C45.8557 98.6839 45.8557 98.7163 45.8557 98.7455C45.8557 98.7746 45.8557 98.8071 45.8557 98.8363C45.8557 98.8654 45.8557 98.8979 45.8557 98.927C45.8557 98.9562 45.8557 98.9886 45.8557 99.0178C45.8557 99.047 45.8557 99.0794 45.8557 99.1086C45.8557 99.1378 45.8557 99.1702 45.8557 99.1994C45.8557 99.2286 45.8557 99.261 45.8557 99.2902C45.8557 99.3193 45.8557 99.3518 45.8557 99.3809C45.8557 99.4101 45.8557 99.4425 45.8557 99.4717C45.8557 99.5009 45.8557 99.5333 45.8557 99.5625C45.8557 99.5917 45.8557 99.6241 45.8557 99.6533C45.8557 99.6825 45.8557 99.7149 45.8557 99.7441C45.8557 99.7732 45.8557 99.8057 45.8557 99.8348C45.8557 99.864 45.8557 99.8964 45.8557 99.9256C45.8557 99.9548 45.8557 99.9872 45.8557 100.016C45.8557 100.046 45.8557 100.078 45.8557 100.107C45.8557 100.136 45.8557 100.169 45.8557 100.198C45.8557 100.227 45.8557 100.26 45.8557 100.289C45.8557 100.318 45.8557 100.35 45.8557 100.38C45.8557 100.409 45.8557 100.441 45.8557 100.47C45.8557 100.499 45.8557 100.532 45.8557 100.561C45.8557 100.59 45.8557 100.623 45.8557 100.652C45.8557 100.681 45.8557 100.713 45.8557 100.743C45.8557 100.772 45.8557 100.804 45.8557 100.833C45.8557 100.863 45.8557 100.895 45.8557 100.924C45.8557 100.953 45.8557 100.986 45.8557 101.015C45.8557 101.044 45.8557 101.077 45.8557 101.106C45.8557 101.135 45.8557 101.167 45.8557 101.197C45.8557 101.417 45.8687 101.634 45.9011 101.855L49.1984 102.192C49.2211 102.211 49.247 102.231 49.2697 102.25L49.1919 102.279C49.2178 102.299 49.2437 102.322 49.2697 102.341L49.1919 102.37C49.2178 102.39 49.2437 102.412 49.2697 102.432L49.1919 102.461C49.2178 102.48 49.2437 102.503 49.2697 102.523L49.1919 102.552C49.2178 102.571 49.2437 102.594 49.2697 102.613L49.1919 102.643C49.2178 102.662 49.2437 102.685 49.2697 102.704L49.1919 102.733C49.2178 102.753 49.2437 102.775 49.2697 102.795L49.1919 102.824C49.2178 102.844 49.2437 102.866 49.2697 102.886L49.1919 102.915C49.2178 102.934 49.2437 102.957 49.2697 102.976L49.1919 103.006C49.2178 103.025 49.2437 103.048 49.2697 103.067L49.1919 103.096C49.2178 103.116 49.2437 103.139 49.2697 103.158L49.1919 103.187C49.2178 103.207 49.2437 103.229 49.2697 103.249L49.1919 103.278C49.2178 103.297 49.2437 103.32 49.2697 103.34L49.1919 103.369C49.2178 103.388 49.2437 103.411 49.2697 103.43L49.1919 103.46C49.2178 103.479 49.2437 103.502 49.2697 103.521L49.2016 103.498C49.2275 103.518 49.2535 103.541 49.2794 103.56L49.2016 103.589C49.2275 103.609 49.2535 103.631 49.2794 103.651L49.2016 103.68C49.2275 103.699 49.2535 103.722 49.2794 103.742L49.2016 103.771C49.2275 103.79 49.2535 103.813 49.2794 103.832L49.2016 103.862C49.2275 103.881 49.2535 103.904 49.2794 103.923L49.2016 103.952C49.2275 103.972 49.2535 103.995 49.2794 104.014L49.2016 104.043C49.2275 104.063 49.2535 104.085 49.2794 104.105L49.2016 104.134C49.2275 104.153 49.2535 104.176 49.2794 104.196L49.2016 104.225C49.2275 104.244 49.2535 104.267 49.2794 104.286L49.2016 104.315C49.2275 104.335 49.2535 104.358 49.2794 104.377L49.2016 104.406C49.2275 104.426 49.2535 104.448 49.2794 104.468L49.2016 104.497C49.2275 104.516 49.2535 104.539 49.2794 104.559L49.2016 104.588C49.2275 104.607 49.2535 104.63 49.2794 104.649L49.2016 104.679C49.2275 104.698 49.2535 104.721 49.2794 104.74L49.2016 104.769C49.2275 104.789 49.2535 104.812 49.2794 104.831L49.2016 104.86C49.2275 104.88 49.2535 104.902 49.2794 104.922L49.2016 104.951C49.2275 104.97 49.2535 104.993 49.2794 105.013L49.2016 105.042C49.2275 105.061 49.2535 105.084 49.2794 105.103L49.2016 105.133C49.2275 105.152 49.2535 105.175 49.2794 105.194L49.2016 105.223C49.2275 105.243 49.2535 105.265 49.2794 105.285L49.2016 105.314C49.2275 105.334 49.2535 105.356 49.2794 105.376L49.2016 105.411C49.2275 105.431 49.2535 105.453 49.2794 105.473L49.2016 105.502C49.2275 105.522 49.2535 105.544 49.2794 105.564L49.2016 105.593C49.2275 105.612 49.2535 105.635 49.2794 105.654L49.2016 105.684C49.2275 105.703 49.2535 105.726 49.2794 105.745L49.2016 105.774C49.2275 105.794 49.2535 105.817 49.2794 105.836L49.2016 105.865C49.2275 105.885 49.2535 105.907 49.2794 105.927L49.2016 105.956C49.2275 105.975 49.2535 105.998 49.2794 106.018L49.2016 106.047C49.2275 106.066 49.2535 106.089 49.2794 106.108L49.2016 106.138C49.2275 106.157 49.2535 106.18 49.2794 106.199L49.2016 106.228C49.2275 106.248 49.2535 106.27 49.2794 106.29L49.2016 106.319C49.2275 106.339 49.2535 106.361 49.2794 106.381L49.2016 106.41C49.2275 106.429 49.2535 106.452 49.2794 106.472L49.2016 106.501C49.2275 106.52 49.2535 106.543 49.2794 106.562L49.2016 106.591C49.2275 106.611 49.2535 106.634 49.2794 106.653L49.2016 106.682C49.2275 106.702 49.2535 106.724 49.2794 106.744L49.2016 106.773C49.7819 107.237 50.4401 107.7 51.1858 108.148C51.8731 108.556 52.6091 108.945 53.384 109.315L59.7321 108.368L63.6908 109.629L63.6681 109.678C63.681 109.681 63.694 109.684 63.707 109.684L63.6681 109.769C63.681 109.772 63.694 109.775 63.707 109.775L63.6681 109.86C63.681 109.863 63.694 109.866 63.707 109.866L63.6681 109.95C63.681 109.954 63.694 109.957 63.707 109.957L63.6681 110.041C63.681 110.044 63.694 110.048 63.707 110.048L63.6681 110.132C63.681 110.135 63.694 110.138 63.707 110.138L63.6681 110.223C63.681 110.226 63.694 110.229 63.707 110.229L63.6681 110.313C63.681 110.317 63.694 110.32 63.707 110.32L63.6681 110.404C63.681 110.407 63.694 110.411 63.707 110.411L63.6681 110.495C63.681 110.498 63.694 110.502 63.707 110.502L63.6681 110.586C63.681 110.589 63.694 110.592 63.707 110.592L63.6681 110.677C63.681 110.68 63.694 110.683 63.707 110.683L63.6681 110.767C63.681 110.771 63.694 110.774 63.707 110.774L63.6681 110.858C63.681 110.861 63.694 110.865 63.707 110.865L63.6681 110.949C63.681 110.952 63.694 110.955 63.707 110.955L63.6681 111.04C63.681 111.043 63.694 111.046 63.707 111.046L63.6681 111.13C63.681 111.134 63.694 111.137 63.707 111.137L63.6681 111.221C63.681 111.225 63.694 111.228 63.707 111.228L63.6681 111.312C63.681 111.315 63.694 111.319 63.707 111.319L63.6681 111.403C63.681 111.406 63.694 111.409 63.707 111.409L63.6681 111.494C63.681 111.497 63.694 111.5 63.707 111.5L63.6681 111.584C63.681 111.588 63.694 111.591 63.707 111.591L63.6681 111.675C63.681 111.678 63.694 111.682 63.707 111.682L63.6681 111.766C63.681 111.769 63.694 111.772 63.707 111.772L63.6681 111.857C63.681 111.86 63.694 111.863 63.707 111.863L63.6681 111.948C63.681 111.951 63.694 111.954 63.707 111.954L63.6681 112.038C63.681 112.042 63.694 112.045 63.707 112.045L63.6681 112.129C63.681 112.132 63.694 112.136 63.707 112.136L63.6681 112.22C63.681 112.223 63.694 112.226 63.707 112.226L63.6681 112.311C63.681 112.314 63.694 112.317 63.707 112.317L63.6681 112.401C63.681 112.405 63.694 112.408 63.707 112.408L63.6681 112.492C63.681 112.495 63.694 112.499 63.707 112.499L63.6681 112.583C65.9927 113.06 68.447 113.439 70.9726 113.698L74.659 111.5L81.3897 111.662L84.3173 114.026C86.8851 113.89 89.4367 113.646 91.9169 113.28L91.904 113.189C91.9072 113.189 91.9137 113.189 91.9169 113.186L91.904 113.095C91.9072 113.095 91.9137 113.095 91.9169 113.092L91.904 113.001C91.9072 113.001 91.9137 113.001 91.9169 112.998L91.904 112.907C91.9072 112.907 91.9137 112.907 91.9169 112.904L91.904 112.813C91.9072 112.813 91.9137 112.813 91.9169 112.81L91.904 112.719C91.9072 112.719 91.9137 112.719 91.9169 112.716L91.904 112.625C91.9072 112.625 91.9137 112.625 91.9169 112.622L91.904 112.531C91.9072 112.531 91.9137 112.531 91.9169 112.528L91.904 112.437C91.9072 112.437 91.9137 112.437 91.9169 112.434L91.904 112.343C91.9072 112.343 91.9137 112.343 91.9169 112.34L91.904 112.249C91.9072 112.249 91.9137 112.249 91.9169 112.246L91.904 112.155C91.9072 112.155 91.9137 112.155 91.9169 112.152L91.904 112.061C91.9072 112.061 91.9137 112.061 91.9169 112.058L91.904 111.967C91.9072 111.967 91.9137 111.967 91.9169 111.964L91.904 111.873C91.9072 111.873 91.9137 111.873 91.9169 111.87L91.904 111.779C91.9072 111.779 91.9137 111.779 91.9169 111.776L91.904 111.685C91.9072 111.685 91.9137 111.685 91.9169 111.682L91.904 111.591C91.9072 111.591 91.9137 111.591 91.9169 111.588L91.904 111.497C91.9072 111.497 91.9137 111.497 91.9169 111.494L91.904 111.403C91.9072 111.403 91.9137 111.403 91.9169 111.4L91.904 111.309C91.9072 111.309 91.9137 111.309 91.9169 111.306L91.904 111.215C91.9072 111.215 91.9137 111.215 91.9169 111.212L91.904 111.121C91.9072 111.121 91.9137 111.121 91.9169 111.118L91.904 111.027C91.9072 111.027 91.9137 111.027 91.9169 111.023L91.904 110.933C91.9072 110.933 91.9137 110.933 91.9169 110.929L91.904 110.839C91.9072 110.839 91.9137 110.839 91.9169 110.835L91.904 110.745C91.9072 110.745 91.9137 110.745 91.9169 110.741L91.904 110.651C91.9072 110.651 91.9137 110.651 91.9169 110.647L91.904 110.557C91.9072 110.557 91.9137 110.557 91.9169 110.553L91.9072 110.489L97.2243 109.195L103.209 110.446C105.129 109.74 106.798 108.958 108.209 108.122L108.121 108.08C108.15 108.063 108.18 108.047 108.209 108.028L108.121 107.986C108.15 107.969 108.18 107.953 108.209 107.934L108.121 107.892C108.15 107.875 108.18 107.859 108.209 107.84L108.121 107.798C108.15 107.781 108.18 107.765 108.209 107.746L108.121 107.704C108.15 107.687 108.18 107.671 108.209 107.652L108.121 107.61C108.15 107.593 108.18 107.577 108.209 107.558L108.121 107.515C108.15 107.499 108.18 107.483 108.209 107.464L108.121 107.421C108.15 107.405 108.18 107.389 108.209 107.37L108.121 107.327C108.15 107.311 108.18 107.295 108.209 107.276L108.121 107.233C108.15 107.217 108.18 107.201 108.209 107.182L108.121 107.139C108.15 107.123 108.18 107.107 108.209 107.088L108.121 107.045C108.15 107.029 108.18 107.013 108.209 106.994L108.121 106.951C108.15 106.935 108.18 106.919 108.209 106.899L108.121 106.857C108.15 106.841 108.18 106.825 108.209 106.805L108.121 106.763C108.15 106.747 108.18 106.731 108.209 106.711L108.121 106.669C108.15 106.653 108.18 106.637 108.209 106.617L108.121 106.575C108.15 106.559 108.18 106.543 108.209 106.523L108.121 106.481C108.15 106.465 108.18 106.449 108.209 106.429L108.121 106.387C108.15 106.371 108.18 106.355 108.209 106.335L108.121 106.293C108.15 106.277 108.18 106.261 108.209 106.241L108.121 106.199C108.15 106.183 108.18 106.167 108.209 106.147L108.121 106.105C108.15 106.089 108.18 106.073 108.209 106.053L108.121 106.011C108.15 105.995 108.18 105.979 108.209 105.959L108.121 105.917C108.15 105.901 108.18 105.885 108.209 105.865L108.121 105.823C108.15 105.807 108.18 105.791 108.209 105.771L108.121 105.729C108.15 105.713 108.18 105.697 108.209 105.677L108.121 105.635C108.15 105.619 108.18 105.603 108.209 105.583L108.121 105.541C108.15 105.525 108.18 105.509 108.209 105.489L108.121 105.447C108.15 105.431 108.18 105.415 108.209 105.395L108.121 105.353C108.15 105.337 108.18 105.321 108.209 105.301L108.121 105.259C108.15 105.243 108.18 105.227 108.209 105.207L108.121 105.165C108.15 105.149 108.18 105.133 108.209 105.113L108.121 105.071C108.15 105.055 108.18 105.038 108.209 105.019L108.121 104.977C108.15 104.961 108.18 104.944 108.209 104.925L108.121 104.883C108.15 104.867 108.18 104.85 108.209 104.831L108.121 104.789C108.15 104.773 108.18 104.756 108.209 104.737L108.121 104.695C108.15 104.679 108.18 104.662 108.209 104.643L108.121 104.601C108.15 104.585 108.18 104.568 108.209 104.549L108.121 104.507C108.15 104.491 108.18 104.474 108.209 104.455L108.121 104.413C108.15 104.397 108.18 104.38 108.209 104.361L108.121 104.319C108.15 104.303 108.18 104.286 108.209 104.267L108.121 104.225C108.15 104.208 108.18 104.192 108.209 104.173L108.121 104.131C108.15 104.114 108.18 104.098 108.209 104.079L108.121 104.037C108.15 104.02 108.18 104.004 108.209 103.985L108.121 103.943C108.15 103.926 108.18 103.91 108.209 103.891L108.121 103.849C108.15 103.832 108.18 103.816 108.209 103.797L108.121 103.755C108.15 103.738 108.18 103.722 108.209 103.703L108.121 103.661C108.15 103.644 108.18 103.628 108.209 103.609L108.121 103.567C108.15 103.55 108.18 103.534 108.209 103.515L108.121 103.473C108.134 103.466 108.144 103.46 108.157 103.453L113.121 103.2C113.48 102.435 113.665 101.657 113.662 100.876C113.662 100.846 113.662 100.814 113.662 100.785C113.662 100.756 113.662 100.723 113.662 100.694C113.662 100.665 113.662 100.632 113.662 100.603C113.662 100.574 113.662 100.542 113.662 100.512C113.662 100.483 113.662 100.451 113.662 100.422C113.662 100.392 113.662 100.36 113.662 100.331C113.662 100.302 113.662 100.269 113.662 100.24C113.662 100.211 113.662 100.179 113.662 100.149C113.662 100.12 113.662 100.088 113.662 100.059C113.662 100.029 113.662 99.9969 113.662 99.9678C113.662 99.9386 113.662 99.9062 113.662 99.877C113.662 99.8478 113.662 99.8154 113.662 99.7862C113.662 99.757 113.662 99.7246 113.662 99.6954C113.662 99.6662 113.662 99.6338 113.662 99.6046C113.662 99.5755 113.662 99.543 113.662 99.5139C113.662 99.4847 113.662 99.4523 113.662 99.4231C113.662 99.3939 113.662 99.3615 113.662 99.3323C113.662 99.3031 113.662 99.2707 113.662 99.2415C113.662 99.2123 113.662 99.1799 113.662 99.1507C113.662 99.1216 113.662 99.0891 113.662 99.06C113.662 99.0308 113.662 98.9984 113.662 98.9692C113.662 98.94 113.662 98.9076 113.662 98.8784C113.662 98.8492 113.662 98.8168 113.662 98.7876C113.662 98.7584 113.662 98.726 113.662 98.6968C113.662 98.6677 113.662 98.6352 113.662 98.6061C113.662 98.5769 113.662 98.5445 113.662 98.5153C113.662 98.4861 113.662 98.4537 113.662 98.4245C113.662 98.3953 113.662 98.3629 113.662 98.3337C113.662 98.3045 113.662 98.2721 113.662 98.2429C113.662 98.2138 113.662 98.1813 113.662 98.1522C113.662 98.123 113.662 98.0906 113.662 98.0614C113.662 98.0322 113.662 97.9998 113.662 97.9706C113.662 97.9414 113.662 97.909 113.662 97.8798C113.662 97.8506 113.662 97.8182 113.662 97.789C113.662 97.7599 113.662 97.7274 113.662 97.6983C113.662 97.6691 113.662 97.6367 113.662 97.6075C113.662 97.5783 113.662 97.5459 113.662 97.5167C113.662 97.4875 113.662 97.4551 113.662 97.4259C113.662 97.3967 113.662 97.3643 113.662 97.3351C113.662 97.306 113.662 97.2735 113.662 97.2444C113.662 97.2152 113.662 97.1828 113.662 97.1536C113.662 97.1244 113.662 97.092 113.662 97.0628C113.662 97.0336 113.662 97.0012 113.662 96.972C113.662 96.9428 113.662 96.9104 113.662 96.8812C113.662 96.8521 113.662 96.8196 113.662 96.7905C113.662 96.7613 113.662 96.7289 113.662 96.6997C113.662 96.6705 113.662 96.6381 113.662 96.6089C113.662 96.5797 113.662 96.5473 113.662 96.5181C113.662 96.4889 113.662 96.4565 113.662 96.4273C113.662 96.3982 113.662 96.3657 113.662 96.3366C113.662 96.3074 113.662 96.275 113.662 96.2458C113.662 96.2166 113.662 96.1842 113.662 96.155C113.662 96.1258 113.662 96.0934 113.662 96.0642C113.662 96.035 113.662 96.0026 113.662 95.9734C113.662 95.9443 113.662 95.9118 113.662 95.8827C113.662 95.8535 113.662 95.8211 113.662 95.7919C113.662 95.7627 113.662 95.7303 113.662 95.7011C113.662 95.6719 113.662 95.6395 113.662 95.6103C113.662 95.5811 113.662 95.5487 113.662 95.5195C113.662 95.4904 113.662 95.4579 113.662 95.4288C113.662 95.3996 113.662 95.3672 113.662 95.338C113.662 95.3088 113.662 95.2764 113.662 95.2472C113.662 95.218 113.662 95.1856 113.662 95.1564C113.662 95.1272 113.662 95.0948 113.662 95.0656C113.662 95.0365 113.662 95.004 113.662 94.9749C113.662 94.9457 113.662 94.9132 113.662 94.8841C113.662 94.8549 113.662 94.8225 113.662 94.7933C113.662 94.7641 113.662 94.7317 113.662 94.7025C113.662 94.6733 113.662 94.6409 113.662 94.6117C113.662 94.5825 113.662 94.5501 113.662 94.5209C113.662 94.4918 113.662 94.4593 113.662 94.4302C113.662 94.401 113.662 94.3686 113.662 94.3394C113.662 94.3102 113.662 94.2778 113.662 94.2486C113.662 94.2194 113.662 94.187 113.662 94.1578C113.662 94.1286 113.662 94.0962 113.662 94.067C113.662 94.0379 113.662 94.0054 113.662 93.9763C113.662 93.9471 113.662 93.9147 113.662 93.8855C113.662 93.8563 113.662 93.8239 113.662 93.7947C113.662 93.7655 113.662 93.7331 113.662 93.7039C113.662 93.6747 113.662 93.6423 113.662 93.6131C113.662 93.584 113.662 93.5515 113.662 93.5224C113.662 93.4932 113.662 93.4608 113.662 93.4316C113.662 93.4024 113.662 93.37 113.662 93.3408C113.662 93.3116 113.662 93.2792 113.662 93.25C113.662 93.2208 113.662 93.1884 113.662 93.1592C113.662 93.1301 113.662 93.0976 113.662 93.0685C113.662 93.0393 113.662 93.0069 113.662 92.9777C113.659 93.1787 113.659 93.1625 113.659 93.143ZM75.2393 97.4032C73.5307 97.1892 71.9874 96.8683 70.6419 96.4695C74.4515 95.3736 79.5481 94.9813 84.4211 95.5876C86.1394 95.8016 87.6924 96.1193 89.0411 96.5181C85.2284 97.6172 80.1317 98.0127 75.2393 97.4032Z" fill="#462F7E"/>
<path d="M113.289 94.1547C113.753 93.1658 113.925 92.1575 113.782 91.1492L107.197 90.491L105.505 87.9784L110.446 86.1757C109.865 85.7218 109.224 85.2712 108.497 84.84C107.8 84.4185 107.032 84.0165 106.225 83.6371L99.8894 84.5871L94.689 82.9401L95.908 80.369C93.5899 79.8892 91.1388 79.5228 88.6164 79.2635L84.9496 81.4649L78.2156 81.3093L75.262 78.9522C72.7753 79.0851 70.2983 79.3218 67.8894 79.6752L68.2622 82.2884L62.5463 83.6663L56.5646 82.4083C56.1852 82.5478 55.8156 82.6904 55.4557 82.8331C54.6971 83.1022 53.9579 83.4491 53.3516 83.7571C52.7096 84.0683 52.1033 84.3893 51.5425 84.72L55.8448 86.7496L53.3354 89.1553L46.5885 89.4924C46.1183 90.4781 45.94 91.4831 46.0762 92.4947L52.648 93.1658L54.308 95.6752L49.367 97.4746C49.9473 97.9382 50.6055 98.4019 51.3512 98.8493C52.0385 99.2578 52.7745 99.6469 53.5493 100.016L59.8975 99.0698L65.0849 100.723L63.8335 103.294C66.1581 103.771 68.6124 104.15 71.138 104.41L74.8243 102.211L81.555 102.374L84.4827 104.737C87.0505 104.601 89.6021 104.358 92.0823 103.991L91.6868 101.378L97.3865 99.9905L103.371 101.242C105.291 100.535 106.961 99.7538 108.371 98.9174L104.056 96.8943L106.539 94.4821L113.289 94.1547ZM84.5929 86.2957C92.6043 87.2878 96.9715 90.5818 94.381 93.6489C91.8002 96.7095 83.2507 98.4019 75.2393 97.4033C67.2604 96.4015 62.8835 93.1172 65.4837 90.0533C68.045 86.9863 76.614 85.3036 84.5929 86.2957Z" fill="url(#paint5_linear_578_3930)"/>
<path d="M120.652 61.2727C121.696 61.2727 121.696 59.6516 120.652 59.6516C119.608 59.6516 119.608 61.2727 120.652 61.2727Z" fill="#010101"/>
<path d="M115.381 73.8944C115.585 73.9041 115.789 73.8652 115.993 73.8328C116.022 73.8296 116.052 73.8231 116.081 73.8198C116.227 73.7939 116.194 73.7971 115.984 73.8296C116.052 73.849 116.207 73.8231 116.279 73.8231C116.418 73.8231 116.557 73.8263 116.697 73.8263C117.394 73.8296 118.059 73.1714 118.029 72.4095C117.997 71.6379 117.446 70.9959 116.697 70.9927C116.46 70.9927 116.22 70.9765 115.984 70.9959C115.808 71.0089 115.63 71.0413 115.458 71.0737C115.312 71.0997 115.345 71.0964 115.556 71.064C115.497 71.0705 115.442 71.0705 115.384 71.064C114.687 71.0316 114.022 71.7384 114.051 72.4808C114.084 73.2719 114.635 73.8587 115.381 73.8944Z" fill="white"/>
<path d="M40.6166 74.3905C40.8208 74.4002 41.0251 74.3613 41.2294 74.3289C41.2585 74.3257 41.2877 74.3192 41.3169 74.3159C41.4628 74.29 41.4304 74.2932 41.2196 74.3257C41.2877 74.3451 41.4433 74.3192 41.5147 74.3192C41.6541 74.3192 41.7935 74.3224 41.9329 74.3224C42.63 74.3256 43.2946 73.6675 43.2654 72.9056C43.233 72.134 42.6818 71.492 41.9329 71.4888C41.6962 71.4888 41.4563 71.4726 41.2196 71.492C41.0445 71.505 40.8662 71.5374 40.6944 71.5698C40.5485 71.5958 40.5809 71.5925 40.7917 71.5601C40.7333 71.5666 40.6782 71.5666 40.6198 71.5601C39.9228 71.5277 39.2581 72.2345 39.2873 72.9769C39.3197 73.768 39.8709 74.3548 40.6166 74.3905Z" fill="white"/>
<path d="M122.374 58.5137C122.409 56.8926 122.578 54.8241 122.776 52.4476C123.616 42.2478 124.883 26.8346 117.407 18.9789C115.115 16.4954 110.696 17.7501 103.501 22.9278C99.7728 25.6123 96.388 28.5724 95.023 29.7947C93.7683 29.5029 91.1292 28.8966 87.7833 28.1574C83.7047 27.2561 79.3116 27.1977 77.8591 27.2042C76.4877 27.1945 72.3247 27.2528 68.4601 28.1606C65.38 28.8836 62.9322 29.4802 61.7164 29.7785C60.5882 28.7053 58.1144 26.4131 55.2418 24.1079C49.7691 19.7148 45.8331 17.6399 43.194 17.7533C41.7999 17.8149 40.944 18.4698 40.4706 19.0113C33.4287 26.8573 34.625 42.251 35.4161 52.4379C35.6009 54.8273 35.763 56.9088 35.7954 58.5363C34.1581 64.8456 32.3944 76.527 38.2497 85.725C41.9555 91.5512 48.2258 95.6752 56.8824 97.9836C63.7233 99.8089 70.2206 100.01 73.3428 100.107C74.9379 100.156 79.2759 100.211 82.6575 100.247C83.3383 100.276 84.0321 100.292 84.7357 100.292C85.1021 100.292 85.4717 100.289 85.8413 100.279C86.5318 100.286 86.9825 100.289 87.0668 100.292V100.24C92.358 100.013 98.0285 99.0308 102.921 97.4551C110.974 94.8582 116.817 90.7828 119.809 85.6764C122.085 81.8247 123.424 76.8383 123.687 71.2488C123.904 66.8363 123.421 62.2162 122.374 58.5137Z" fill="#FDDFD4"/>
<path d="M83.1729 84.2207C80.9228 84.3082 78.7441 83.2189 77.2624 81.3514C75.3463 83.4361 72.5321 84.3147 70.1167 83.3388C67.4744 82.2689 66.3396 79.325 66.0867 77.7558C65.9408 76.8513 66.5114 75.9889 67.3609 75.8332C68.2103 75.6776 69.0176 76.2839 69.1668 77.1852C69.1765 77.2371 69.6012 79.5682 71.2288 80.2296C72.704 80.8262 74.9475 79.9151 75.9429 77.6099C76.2055 77.0004 76.7826 76.6211 77.4148 76.6405C78.0438 76.6632 78.5982 77.0815 78.8251 77.7072C79.5935 79.8373 81.6264 81.186 83.5522 80.8424C85.0371 80.5765 86.3307 79.3186 86.8397 77.6359C87.1056 76.7605 87.9875 76.2807 88.8077 76.566C89.628 76.848 90.0786 77.7883 89.8128 78.6604C88.9309 81.5556 86.7295 83.6468 84.0677 84.1234C83.7694 84.1753 83.4711 84.2077 83.1729 84.2207Z" fill="url(#paint6_linear_578_3930)"/>
<path d="M77.4927 78.4043C77.1912 78.4172 76.8832 78.3329 76.6173 78.1579L72.3604 75.3696C71.8611 75.0422 71.5758 74.4424 71.6212 73.8199C71.6666 73.1974 72.0394 72.6527 72.5808 72.416C74.0755 71.7579 75.7225 71.4272 77.3403 71.4596C79.0003 71.492 80.67 71.9102 82.1744 72.6624C82.6964 72.925 83.04 73.473 83.0692 74.089C83.0951 74.705 82.8033 75.2853 82.3073 75.5998L78.2352 78.1741C78.005 78.32 77.7488 78.3946 77.4927 78.4043ZM77.4408 74.7925L77.4506 74.799L77.4603 74.7925C77.4506 74.7925 77.4473 74.7925 77.4408 74.7925Z" fill="url(#paint7_linear_578_3930)"/>
<path d="M107.988 76.339C107.904 76.3422 107.816 76.339 107.729 76.326L102.93 75.6646C102.074 75.5479 101.471 74.7114 101.582 73.8004C101.692 72.8894 102.476 72.2474 103.332 72.3641L108.131 73.0255C108.987 73.1422 109.59 73.9787 109.479 74.8898C109.379 75.71 108.737 76.3098 107.988 76.339Z" fill="url(#paint8_linear_578_3930)"/>
<path d="M104.727 81.9252C104.571 81.9317 104.409 81.9122 104.25 81.8636L100.321 80.6964C99.4907 80.45 99.0044 79.5325 99.2346 78.6474C99.4648 77.7623 100.327 77.2435 101.16 77.4899L105.09 78.6571C105.92 78.9035 106.406 79.8211 106.176 80.7062C105.988 81.4259 105.388 81.9025 104.727 81.9252Z" fill="url(#paint9_linear_578_3930)"/>
<path d="M100.791 85.845C100.512 85.8547 100.227 85.7866 99.964 85.631L97.6166 84.2142C96.8645 83.7603 96.6019 82.7455 97.0266 81.9479C97.4513 81.1471 98.4045 80.8683 99.1567 81.3189L101.504 82.7358C102.256 83.1897 102.519 84.2045 102.094 85.0053C101.818 85.524 101.316 85.8255 100.791 85.845Z" fill="url(#paint10_linear_578_3930)"/>
<path d="M48.3036 76.9842C47.5547 77.0134 46.8738 76.4623 46.7182 75.655C46.5464 74.7536 47.091 73.875 47.9372 73.6902L52.6773 72.6592C53.5235 72.4744 54.3502 73.0548 54.522 73.9561C54.6939 74.8574 54.1492 75.736 53.303 75.9208L48.563 76.9518C48.4754 76.9713 48.3879 76.981 48.3036 76.9842Z" fill="url(#paint11_linear_578_3930)"/>
<path d="M51.9347 82.3046C51.2733 82.3306 50.6411 81.9026 50.4077 81.2023C50.1159 80.3366 50.5374 79.3834 51.3511 79.0754L55.1931 77.61C56.0069 77.2987 56.9017 77.7494 57.1935 78.615C57.4853 79.4807 57.0638 80.4339 56.25 80.7419L52.4081 82.2074C52.2492 82.2657 52.0903 82.2981 51.9347 82.3046Z" fill="url(#paint12_linear_578_3930)"/>
<path d="M56.1268 85.9066C55.6016 85.9261 55.0796 85.6667 54.7683 85.1674C54.2885 84.4023 54.483 83.3713 55.2028 82.859L57.4464 81.2671C58.1661 80.7581 59.1355 80.9656 59.6154 81.7275C60.0952 82.4927 59.9007 83.5237 59.1809 84.0359L56.9373 85.6278C56.6877 85.8061 56.4056 85.8969 56.1268 85.9066Z" fill="url(#paint13_linear_578_3930)"/>
<path d="M45.9174 43.6873C44.8702 42.7438 44.7891 41.1779 44.6562 38.6263C44.5492 36.5384 44.306 31.8891 46.2254 31.0299C47.6 30.4139 49.4286 32.0447 51.6041 33.99C54.1492 36.2628 56.0134 37.9325 55.8059 39.8097C55.4331 43.1815 48.5014 46.0184 45.9174 43.6873Z" fill="url(#paint14_linear_578_3930)"/>
<path d="M110.842 43.6873C111.889 42.7438 111.97 41.1779 112.103 38.6263C112.21 36.5384 112.453 31.8891 110.537 31.0299C109.162 30.4139 107.334 32.0447 105.158 33.99C102.613 36.2628 100.749 37.9325 100.956 39.8097C101.329 43.1815 108.258 46.0184 110.842 43.6873Z" fill="url(#paint15_linear_578_3930)"/>
<path opacity="0.31" d="M35.4126 79.3606C37.2703 82.7325 40.733 87.9394 46.6304 91.9856C52.7549 96.1841 58.4999 97.0693 66.5016 98.298C68.9915 98.6806 76.3545 99.6889 86.0517 98.8103C91.2327 98.3402 96.1608 97.896 101.455 95.941C105.683 94.3783 114.829 90.1246 123.067 77.9989C123.453 87.3882 121.048 93.3375 118.794 96.9914C105.576 118.406 61.5962 118.999 43.4791 96.651C38.6061 90.6336 36.4566 84.0131 35.4126 79.3606Z" fill="#EA6225"/>
<path d="M70.6682 66.4148C69.9777 70.0881 66.0806 72.7078 62.3716 72.3868C58.8052 72.0788 54.9957 69.0117 54.9924 64.5311C54.9924 60.0407 58.8182 56.8439 62.3716 56.6753C65.8536 56.51 68.1945 59.3015 68.7197 59.9694C69.1898 60.5757 71.268 63.2212 70.6682 66.4148Z" fill="#F68D64"/>
<path d="M64.7318 71.9265C67.3837 71.9265 69.5334 69.6374 69.5334 66.8136C69.5334 63.9898 67.3837 61.7007 64.7318 61.7007C62.0799 61.7007 59.9302 63.9898 59.9302 66.8136C59.9302 69.6374 62.0799 71.9265 64.7318 71.9265Z" fill="url(#paint16_linear_578_3930)"/>
<path d="M67.387 65.7145C68.5724 65.7145 69.5333 64.6912 69.5333 63.4288C69.5333 62.1664 68.5724 61.1431 67.387 61.1431C66.2017 61.1431 65.2407 62.1664 65.2407 63.4288C65.2407 64.6912 66.2017 65.7145 67.387 65.7145Z" fill="white"/>
<path d="M84.9856 66.136C85.6827 69.8093 89.6316 72.429 93.386 72.108C96.9978 71.8 100.856 68.7329 100.856 64.2523C100.856 59.7619 96.9816 56.5651 93.386 56.3966C89.8618 56.2312 87.4918 59.0227 86.9601 59.6906C86.4803 60.2969 84.3793 62.9457 84.9856 66.136Z" fill="#F68D64"/>
<path d="M91.233 71.9264C93.9171 71.9264 96.093 69.6373 96.093 66.8136C96.093 63.9898 93.9171 61.7007 91.233 61.7007C88.5489 61.7007 86.373 63.9898 86.373 66.8136C86.373 69.6373 88.5489 71.9264 91.233 71.9264Z" fill="url(#paint17_linear_578_3930)"/>
<path d="M94.6503 65.7145C95.85 65.7145 96.8225 64.6911 96.8225 63.4288C96.8225 62.1664 95.85 61.1431 94.6503 61.1431C93.4506 61.1431 92.478 62.1664 92.478 63.4288C92.478 64.6911 93.4506 65.7145 94.6503 65.7145Z" fill="white"/>
<path d="M90.9088 126.758H67.0433C64.91 126.758 63.1819 125.03 63.1819 122.896V91.0875C63.1819 88.9542 64.91 87.2261 67.0433 87.2261H90.9088C93.0421 87.2261 94.7702 88.9542 94.7702 91.0875V122.896C94.7702 125.026 93.0421 126.758 90.9088 126.758Z" fill="url(#paint18_linear_578_3930)"/>
<path d="M59.6965 120.316C59.3042 119.554 59.0707 118.691 59.0059 117.741L51.1956 104.51L53.9708 102.656C54.9208 102.283 55.8707 101.907 56.8207 101.534C62.3875 105.525 67.9575 109.513 73.5243 113.504L75.1615 113.549C75.1518 113.916 75.0545 116.072 74.0657 118.325C73.4497 119.725 72.4932 121.162 70.9986 122.238C68.9982 123.674 66.3818 124.17 63.9956 123.558C62.047 123.058 60.52 121.907 59.6965 120.316Z" fill="#FDDFD4"/>
<path opacity="0.31" d="M76.8537 115.326C76.7791 116.461 76.1988 117.826 76.1307 117.978C73.9844 122.87 68.8294 124.346 67.4774 124.689C70.9076 121.447 71.3096 119.401 71.0243 118.121C70.7941 117.09 70.2527 117.154 65.8823 112.914C63.0713 110.187 62.4618 109.354 62.0144 108.634C61.7907 108.274 61.5281 107.6 60.8634 107.026C59.8259 106.131 58.6004 106.047 58.0654 106.011C55.0665 105.807 52.6478 108.277 52.2069 108.744C52.0124 107.801 51.8178 106.857 51.6233 105.911C53.6723 104.264 55.7246 102.617 57.7737 100.97C69.1277 105.006 77.1714 110.622 76.8537 115.326Z" fill="#EA6225"/>
<path d="M100.888 119.68C101.193 118.918 101.332 118.072 101.31 117.164L107.512 103.816L104.714 102.315C103.78 102.049 102.843 101.783 101.909 101.518C96.9943 105.849 92.0792 110.184 87.1674 114.515L85.6208 114.716C85.663 115.063 85.9483 117.106 87.0928 119.161C87.8028 120.435 88.8403 121.713 90.3544 122.595C92.3807 123.772 94.9031 123.992 97.111 123.182C98.9104 122.52 100.253 121.275 100.888 119.68Z" fill="#FDDFD4"/>
<path opacity="0.31" d="M84.1747 116.571C84.3887 117.887 85.102 119.028 85.102 119.028C86.3891 121.188 88.4317 122.04 89.3427 122.352C88.8921 121.214 88.2987 119.21 88.905 117.116C89.1287 116.341 89.4562 115.77 92.4746 112.612C95.7103 109.231 97.0136 108.135 98.5764 107.139C100.194 106.108 100.843 105.956 101.134 105.904C103.958 105.424 106.474 107.545 106.935 107.947C107.032 107.029 107.132 106.112 107.23 105.194C105.138 103.823 103.044 102.448 100.953 101.077C90.5585 106.005 83.4485 112.123 84.1747 116.571Z" fill="#EA6225"/>
<path d="M106.714 108.806L103.644 110.654L94.6956 107.811L94.7701 104.377L97.4481 101.495L100.279 101.213L103.511 101.518L106.714 101.897L107.998 102.834L106.714 108.806Z" fill="#462F7E"/>
<path d="M70.0162 96.4987H67.3803C66.171 96.4987 65.1919 95.5196 65.1919 94.3102V91.2205C65.1919 90.0111 66.171 89.032 67.3803 89.032H70.0162C71.2255 89.032 72.2047 90.0111 72.2047 91.2205V94.3102C72.2047 95.5163 71.2255 96.4987 70.0162 96.4987Z" fill="white"/>
<path d="M67.134 92.5595C66.3364 92.5595 65.688 91.8721 65.688 91.0292C65.688 90.1862 66.3364 89.4989 67.134 89.4989C67.9316 89.4989 68.58 90.1862 68.58 91.0292C68.58 91.8721 67.9316 92.5595 67.134 92.5595ZM67.134 89.8263C66.5147 89.8263 66.0122 90.3678 66.0122 91.0324C66.0122 91.6971 66.5147 92.2385 67.134 92.2385C67.7532 92.2385 68.2558 91.6971 68.2558 91.0324C68.2558 90.3678 67.7532 89.8263 67.134 89.8263Z" fill="url(#paint19_linear_578_3930)"/>
<path d="M67.134 96.1388C66.3235 96.1388 65.6621 95.4417 65.6621 94.5825C65.6621 93.7234 66.3235 93.0263 67.134 93.0263C67.9446 93.0263 68.606 93.7234 68.606 94.5825C68.606 95.4385 67.9446 96.1388 67.134 96.1388ZM67.134 93.3473C66.5018 93.3473 65.9863 93.9017 65.9863 94.5793C65.9863 95.2569 66.5018 95.8113 67.134 95.8113C67.7663 95.8113 68.2818 95.2569 68.2818 94.5793C68.2818 93.9017 67.7663 93.3473 67.134 93.3473Z" fill="url(#paint20_linear_578_3930)"/>
<path d="M70.3276 94.2259C69.5106 94.2259 68.8459 93.5224 68.8459 92.6567C68.8459 91.7911 69.5106 91.0875 70.3276 91.0875C71.1446 91.0875 71.8093 91.7911 71.8093 92.6567C71.8093 93.5224 71.1446 94.2259 70.3276 94.2259ZM70.3276 91.415C69.6889 91.415 69.1702 91.9726 69.1702 92.66C69.1702 93.3473 69.6889 93.905 70.3276 93.905C70.9663 93.905 71.4851 93.3473 71.4851 92.66C71.4851 91.9726 70.9663 91.415 70.3276 91.415Z" fill="url(#paint21_linear_578_3930)"/>
<path d="M70.4249 90.5428C70.6004 90.5428 70.7426 90.3919 70.7426 90.2056C70.7426 90.0194 70.6004 89.8685 70.4249 89.8685C70.2494 89.8685 70.1072 90.0194 70.1072 90.2056C70.1072 90.3919 70.2494 90.5428 70.4249 90.5428Z" fill="#DED1CE"/>
<path d="M70.4249 95.6428C70.6004 95.6428 70.7426 95.4918 70.7426 95.3056C70.7426 95.1193 70.6004 94.9684 70.4249 94.9684C70.2494 94.9684 70.1072 95.1193 70.1072 95.3056C70.1072 95.4918 70.2494 95.6428 70.4249 95.6428Z" fill="#DED1CE"/>
<path d="M63.1396 106.089C64.2679 106.54 65.4481 107.068 66.6671 107.697C68.246 108.511 70.5123 110.083 74.9346 113.306C74.9994 113.355 75.1551 113.471 75.1648 113.637C75.1972 114.207 73.4627 114.742 73.1417 114.843C70.3469 115.708 64.7024 109.545 63.3309 108.012L63.1396 106.089Z" fill="#F7B696"/>
<path d="M94.6955 107.824C93.8428 108.239 92.9512 108.725 92.0337 109.302C90.8406 110.051 89.1287 111.497 85.7926 114.46C85.7439 114.506 85.624 114.613 85.6175 114.765C85.5948 115.29 86.9014 115.783 87.1445 115.874C89.2552 116.668 93.5186 111.001 94.5528 109.59L94.6955 107.824Z" fill="#F7B696"/>
<path d="M53.381 109.321L63.1787 106.089L63.0491 103.489L59.4957 100.901H52.658L49.6687 103.375L51.1958 106.99L53.381 109.321Z" fill="#462F7E"/>
</g>
<defs>
<linearGradient id="paint0_linear_578_3930" x1="85.4938" y1="220.698" x2="85.4938" y2="-26.3003" gradientUnits="userSpaceOnUse">
<stop offset="0.380183" stop-color="#C5C5C5"/>
<stop offset="1" stop-color="#7B8196"/>
</linearGradient>
<linearGradient id="paint1_linear_578_3930" x1="79.5" y1="123" x2="79.5" y2="244" gradientUnits="userSpaceOnUse">
<stop stop-color="white"/>
<stop offset="1" stop-color="#201B51" stop-opacity="0"/>
</linearGradient>
<linearGradient id="paint2_linear_578_3930" x1="77.8301" y1="23.741" x2="77.8301" y2="140.165" gradientUnits="userSpaceOnUse">
<stop stop-color="white"/>
<stop offset="1" stop-color="#C4C4C4" stop-opacity="0"/>
</linearGradient>
<linearGradient id="paint3_linear_578_3930" x1="48.4893" y1="130.84" x2="61.5459" y2="130.84" gradientUnits="userSpaceOnUse">
<stop stop-color="#47307E"/>
<stop offset="1" stop-color="#D94627"/>
</linearGradient>
<linearGradient id="paint4_linear_578_3930" x1="42.0814" y1="133.725" x2="51.2886" y2="133.725" gradientUnits="userSpaceOnUse">
<stop stop-color="#47307E"/>
<stop offset="1" stop-color="#D94627"/>
</linearGradient>
<linearGradient id="paint5_linear_578_3930" x1="79.9344" y1="76.5968" x2="79.9344" y2="128.187" gradientUnits="userSpaceOnUse">
<stop stop-color="#F68D64"/>
<stop offset="1" stop-color="#D94627"/>
</linearGradient>
<linearGradient id="paint6_linear_578_3930" x1="66.1607" y1="80.3467" x2="89.9334" y2="79.4831" gradientUnits="userSpaceOnUse">
<stop stop-color="#F68D64"/>
<stop offset="1" stop-color="#D94627"/>
</linearGradient>
<linearGradient id="paint7_linear_578_3930" x1="71.6527" y1="75.1324" x2="83.0865" y2="74.717" gradientUnits="userSpaceOnUse">
<stop stop-color="#F68D64"/>
<stop offset="1" stop-color="#D94627"/>
</linearGradient>
<linearGradient id="paint8_linear_578_3930" x1="109.557" y1="74.1642" x2="101.665" y2="74.4509" gradientUnits="userSpaceOnUse">
<stop stop-color="#F68D64"/>
<stop offset="1" stop-color="#D94627"/>
</linearGradient>
<linearGradient id="paint9_linear_578_3930" x1="106.291" y1="79.5141" x2="99.2823" y2="79.7686" gradientUnits="userSpaceOnUse">
<stop stop-color="#F68D64"/>
<stop offset="1" stop-color="#D94627"/>
</linearGradient>
<linearGradient id="paint10_linear_578_3930" x1="102.353" y1="83.3359" x2="96.9351" y2="83.5327" gradientUnits="userSpaceOnUse">
<stop stop-color="#F68D64"/>
<stop offset="1" stop-color="#D94627"/>
</linearGradient>
<linearGradient id="paint11_linear_578_3930" x1="46.6632" y1="74.9489" x2="54.5591" y2="74.6621" gradientUnits="userSpaceOnUse">
<stop stop-color="#F68D64"/>
<stop offset="1" stop-color="#D94627"/>
</linearGradient>
<linearGradient id="paint12_linear_578_3930" x1="50.2847" y1="80.0347" x2="57.2989" y2="79.7799" gradientUnits="userSpaceOnUse">
<stop stop-color="#F68D64"/>
<stop offset="1" stop-color="#D94627"/>
</linearGradient>
<linearGradient id="paint13_linear_578_3930" x1="54.4724" y1="83.5458" x2="59.8966" y2="83.3488" gradientUnits="userSpaceOnUse">
<stop stop-color="#F68D64"/>
<stop offset="1" stop-color="#D94627"/>
</linearGradient>
<linearGradient id="paint14_linear_578_3930" x1="53.0825" y1="34.6322" x2="43.9239" y2="40.9464" gradientUnits="userSpaceOnUse">
<stop stop-color="#F68D64"/>
<stop offset="1" stop-color="#D94627"/>
</linearGradient>
<linearGradient id="paint15_linear_578_3930" x1="103.675" y1="34.5806" x2="112.834" y2="40.8947" gradientUnits="userSpaceOnUse">
<stop stop-color="#F68D64"/>
<stop offset="1" stop-color="#D94627"/>
</linearGradient>
<linearGradient id="paint16_linear_578_3930" x1="59.9306" y1="66.8132" x2="69.5348" y2="66.8132" gradientUnits="userSpaceOnUse">
<stop stop-color="#47307E"/>
<stop offset="1" stop-color="#D94627"/>
</linearGradient>
<linearGradient id="paint17_linear_578_3930" x1="86.3704" y1="66.8132" x2="96.0935" y2="66.8132" gradientUnits="userSpaceOnUse">
<stop stop-color="#47307E"/>
<stop offset="1" stop-color="#D94627"/>
</linearGradient>
<linearGradient id="paint18_linear_578_3930" x1="63.1825" y1="106.99" x2="94.7711" y2="106.99" gradientUnits="userSpaceOnUse">
<stop offset="0.0159" stop-color="#6661AB"/>
<stop offset="0.9983" stop-color="#462F7E"/>
</linearGradient>
<linearGradient id="paint19_linear_578_3930" x1="65.6878" y1="91.0322" x2="68.5798" y2="91.0322" gradientUnits="userSpaceOnUse">
<stop stop-color="#F68D64"/>
<stop offset="1" stop-color="#D94627"/>
</linearGradient>
<linearGradient id="paint20_linear_578_3930" x1="65.6613" y1="94.5799" x2="68.6068" y2="94.5799" gradientUnits="userSpaceOnUse">
<stop stop-color="#F68D64"/>
<stop offset="1" stop-color="#D94627"/>
</linearGradient>
<linearGradient id="paint21_linear_578_3930" x1="68.8443" y1="92.6575" x2="71.809" y2="92.6575" gradientUnits="userSpaceOnUse">
<stop stop-color="#F68D64"/>
<stop offset="1" stop-color="#D94627"/>
</linearGradient>
</defs>
</svg>
