<svg width="150" height="80" viewBox="0 0 150 80" fill="none" xmlns="http://www.w3.org/2000/svg">
<mask id="mask0_90_494" style="mask-type:alpha" maskUnits="userSpaceOnUse" x="0" y="0" width="150" height="80">
<rect width="150" height="80" rx="20" fill="#C4C4C4"/>
</mask>
<g mask="url(#mask0_90_494)">
<path d="M0.194799 88.7329L0.67983 7.29166C0.792626 -11.6478 16.2363 -26.9086 35.1758 -26.7958L116.617 -26.3108C135.556 -26.198 150.817 -10.7543 150.704 8.18514L150.219 89.6276C150.107 108.566 134.663 123.827 115.723 123.714L34.281 123.229C15.3428 123.116 0.0820023 107.672 0.194799 88.7329Z" fill="url(#paint0_linear_90_494)"/>
</g>
<path d="M56.9858 35.5653C56.9176 34.8778 56.625 34.3437 56.108 33.9631C55.5909 33.5824 54.8892 33.392 54.0028 33.392C53.4006 33.392 52.892 33.4773 52.4773 33.6477C52.0625 33.8125 51.7443 34.0426 51.5227 34.3381C51.3068 34.6335 51.1989 34.9688 51.1989 35.3438C51.1875 35.6562 51.2528 35.929 51.3949 36.1619C51.5426 36.3949 51.7443 36.5966 52 36.767C52.2557 36.9318 52.5511 37.0767 52.8864 37.2017C53.2216 37.321 53.5795 37.4233 53.9602 37.5085L55.5284 37.8835C56.2898 38.054 56.9886 38.2812 57.625 38.5653C58.2614 38.8494 58.8125 39.1989 59.2784 39.6136C59.7443 40.0284 60.1051 40.517 60.3608 41.0795C60.6222 41.642 60.7557 42.2869 60.7614 43.0142C60.7557 44.0824 60.483 45.0085 59.9432 45.7926C59.4091 46.571 58.6364 47.1761 57.625 47.608C56.6193 48.0341 55.4063 48.2472 53.9858 48.2472C52.5767 48.2472 51.3494 48.0312 50.304 47.5994C49.2642 47.1676 48.4517 46.5284 47.8665 45.6818C47.2869 44.8295 46.983 43.7756 46.9545 42.5199H50.5256C50.5653 43.1051 50.733 43.5937 51.0284 43.9858C51.3295 44.3722 51.7301 44.6648 52.2301 44.8636C52.7358 45.0568 53.3068 45.1534 53.9432 45.1534C54.5682 45.1534 55.1108 45.0625 55.571 44.8807C56.0369 44.6989 56.3977 44.446 56.6534 44.1222C56.9091 43.7983 57.0369 43.4261 57.0369 43.0057C57.0369 42.6136 56.9205 42.2841 56.6875 42.017C56.4602 41.75 56.125 41.5227 55.6818 41.3352C55.2443 41.1477 54.7074 40.9773 54.071 40.8239L52.1705 40.3466C50.6989 39.9886 49.5369 39.429 48.6847 38.6676C47.8324 37.9062 47.4091 36.8807 47.4148 35.5909C47.4091 34.5341 47.6903 33.6108 48.2585 32.821C48.8324 32.0312 49.6193 31.4148 50.6193 30.9716C51.6193 30.5284 52.7557 30.3068 54.0284 30.3068C55.3239 30.3068 56.4545 30.5284 57.4205 30.9716C58.392 31.4148 59.1477 32.0312 59.6875 32.821C60.2273 33.6108 60.5057 34.5256 60.5227 35.5653H56.9858ZM70.1385 34.9091V37.6364H62.255V34.9091H70.1385ZM64.0447 31.7727H67.6754V43.9773C67.6754 44.3125 67.7266 44.5739 67.8288 44.7614C67.9311 44.9432 68.0732 45.071 68.255 45.1449C68.4425 45.2187 68.6584 45.2557 68.9027 45.2557C69.0732 45.2557 69.2436 45.2415 69.4141 45.2131C69.5845 45.179 69.7152 45.1534 69.8061 45.1364L70.3771 47.8381C70.1953 47.8949 69.9396 47.9602 69.6101 48.0341C69.2805 48.1136 68.88 48.1619 68.4084 48.179C67.5334 48.2131 66.7663 48.0966 66.1072 47.8295C65.4538 47.5625 64.9453 47.1477 64.5817 46.5852C64.218 46.0227 64.0391 45.3125 64.0447 44.4545V31.7727ZM76.2365 48.2472C75.4013 48.2472 74.657 48.1023 74.0036 47.8125C73.3501 47.517 72.8331 47.0824 72.4524 46.5085C72.0774 45.929 71.8899 45.2074 71.8899 44.3438C71.8899 43.6165 72.0234 43.0057 72.2905 42.5114C72.5575 42.017 72.9212 41.6193 73.3814 41.3182C73.8416 41.017 74.3643 40.7898 74.9496 40.6364C75.5405 40.483 76.1598 40.375 76.8075 40.3125C77.5689 40.233 78.1825 40.1591 78.6484 40.0909C79.1143 40.017 79.4524 39.9091 79.6626 39.767C79.8729 39.625 79.978 39.4148 79.978 39.1364V39.0852C79.978 38.5455 79.8075 38.1278 79.4666 37.8324C79.1314 37.5369 78.6541 37.3892 78.0348 37.3892C77.3814 37.3892 76.8615 37.5341 76.4751 37.8239C76.0888 38.108 75.8331 38.4659 75.7081 38.8977L72.3501 38.625C72.5206 37.8295 72.8558 37.142 73.3558 36.5625C73.8558 35.9773 74.5007 35.5284 75.2905 35.2159C76.0859 34.8977 77.0064 34.7386 78.0518 34.7386C78.7791 34.7386 79.4751 34.8239 80.1399 34.9943C80.8104 35.1648 81.4041 35.429 81.9212 35.7869C82.4439 36.1449 82.8558 36.6051 83.157 37.1676C83.4581 37.7244 83.6087 38.392 83.6087 39.1705V48H80.1655V46.1847H80.0632C79.853 46.5938 79.5717 46.9545 79.2195 47.267C78.8672 47.5739 78.4439 47.8153 77.9496 47.9915C77.4553 48.1619 76.8842 48.2472 76.2365 48.2472ZM77.2763 45.7415C77.8104 45.7415 78.282 45.6364 78.6911 45.4261C79.1001 45.2102 79.4212 44.9205 79.6541 44.5568C79.8871 44.1932 80.0036 43.7812 80.0036 43.321V41.9318C79.8899 42.0057 79.7337 42.0739 79.5348 42.1364C79.3416 42.1932 79.1229 42.2472 78.8786 42.2983C78.6342 42.3437 78.3899 42.3864 78.1456 42.4261C77.9013 42.4602 77.6797 42.4915 77.4808 42.5199C77.0547 42.5824 76.6825 42.6818 76.3643 42.8182C76.0462 42.9545 75.799 43.1392 75.6229 43.3722C75.4467 43.5994 75.3587 43.8835 75.3587 44.2244C75.3587 44.7188 75.5376 45.0966 75.8956 45.358C76.2592 45.6136 76.7195 45.7415 77.2763 45.7415ZM86.4254 48V34.9091H89.9453V37.1932H90.0817C90.3203 36.3807 90.7209 35.767 91.2834 35.3523C91.8459 34.9318 92.4936 34.7216 93.2266 34.7216C93.4084 34.7216 93.6044 34.733 93.8146 34.7557C94.0249 34.7784 94.2095 34.8097 94.3686 34.8494V38.071C94.1982 38.0199 93.9624 37.9744 93.6612 37.9347C93.3601 37.8949 93.0845 37.875 92.8345 37.875C92.3004 37.875 91.8232 37.9915 91.4027 38.2244C90.9879 38.4517 90.6584 38.7699 90.4141 39.179C90.1754 39.5881 90.0561 40.0597 90.0561 40.5938V48H86.4254ZM103.865 34.9091V37.6364H95.9815V34.9091H103.865ZM97.7713 31.7727H101.402V43.9773C101.402 44.3125 101.453 44.5739 101.555 44.7614C101.658 44.9432 101.8 45.071 101.982 45.1449C102.169 45.2187 102.385 45.2557 102.629 45.2557C102.8 45.2557 102.97 45.2415 103.141 45.2131C103.311 45.179 103.442 45.1534 103.533 45.1364L104.104 47.8381C103.922 47.8949 103.666 47.9602 103.337 48.0341C103.007 48.1136 102.607 48.1619 102.135 48.179C101.26 48.2131 100.493 48.0966 99.8338 47.8295C99.1804 47.5625 98.6719 47.1477 98.3082 46.5852C97.9446 46.0227 97.7656 45.3125 97.7713 44.4545V31.7727Z" fill="white"/>
<defs>
<linearGradient id="paint0_linear_90_494" x1="75.8964" y1="-26.5533" x2="75.0029" y2="123.471" gradientUnits="userSpaceOnUse">
<stop stop-color="#FF8E61"/>
<stop offset="1" stop-color="#DA4200"/>
</linearGradient>
</defs>
</svg>
