<svg width="490" height="490" viewBox="0 0 490 490" fill="none" xmlns="http://www.w3.org/2000/svg">
<path d="M377.57 489.44H111.87C50.09 489.44 0 439.35 0 377.57V111.87C0 50.09 50.09 0 111.87 0H377.57C439.36 0 489.44 50.09 489.44 111.87V377.57C489.44 439.35 439.35 489.44 377.57 489.44Z" fill="white"/>
<path d="M116.22 126.5C94.75 142.59 72.06 140.81 64.39 130.3C58.73 122.54 59.89 108.15 66.93 103.21C75.98 96.85 96.1 105.13 116.22 126.5Z" fill="url(#paint0_linear_335_854)"/>
<path d="M100.63 95.32C81.21 92.54 70.4 79.89 71.87 70.49C72.95 63.55 80.99 56.71 87.19 57.8C95.15 59.18 101.28 73.87 100.63 95.32Z" fill="url(#paint1_linear_335_854)"/>
<path d="M404.58 314.19C405.43 311.16 405.65 308.1 405.18 305.04L387.86 303.41C387.79 303.36 387.72 303.31 387.65 303.26L388.04 303.13C387.91 303.04 387.78 302.94 387.65 302.85L388.04 302.72C387.91 302.63 387.78 302.53 387.65 302.44L388.04 302.31C387.91 302.22 387.78 302.12 387.65 302.03L388.04 301.9C387.91 301.81 387.78 301.71 387.65 301.62L388.04 301.49C387.91 301.4 387.78 301.3 387.65 301.21L388.04 301.08C387.91 300.99 387.78 300.89 387.65 300.8L388.04 300.67C387.91 300.58 387.78 300.48 387.65 300.39L388.04 300.26C387.91 300.17 387.78 300.07 387.65 299.98L388.04 299.85C387.91 299.76 387.78 299.66 387.65 299.57L388.04 299.44C387.91 299.35 387.78 299.25 387.65 299.16L388.04 299.03C387.91 298.94 387.78 298.84 387.65 298.75L388.04 298.62C387.91 298.53 387.78 298.43 387.65 298.34L388.04 298.21C387.91 298.12 387.78 298.02 387.65 297.93L388.04 297.8C387.91 297.71 387.78 297.61 387.65 297.52L388.04 297.39C387.91 297.3 387.78 297.2 387.65 297.11L388.04 296.98C387.91 296.89 387.78 296.79 387.65 296.7L388.04 296.57C387.91 296.48 387.78 296.38 387.65 296.29L388.04 296.16C387.91 296.07 387.78 295.97 387.65 295.88L388.04 295.75C387.91 295.66 387.78 295.56 387.65 295.47L388.04 295.34C387.91 295.25 387.78 295.15 387.65 295.06L388.04 294.93C387.91 294.84 387.78 294.74 387.65 294.65L388.04 294.52C387.91 294.43 387.78 294.33 387.65 294.24L388.04 294.11C387.91 294.02 387.78 293.92 387.65 293.83L388.04 293.7C387.91 293.61 387.78 293.51 387.65 293.42L388.04 293.29C387.91 293.2 387.78 293.1 387.65 293.01L388.04 292.88C387.91 292.79 387.78 292.69 387.65 292.6L388.04 292.47C387.91 292.38 387.78 292.28 387.65 292.19L388.04 292.06C387.91 291.97 387.78 291.87 387.65 291.78L388.04 291.65C387.91 291.56 387.78 291.46 387.65 291.37L388.04 291.24C387.91 291.15 387.78 291.05 387.65 290.96L388.04 290.83C387.91 290.74 387.78 290.64 387.65 290.55L388.04 290.42C387.91 290.33 387.78 290.23 387.65 290.14L388.04 290.01C387.91 289.92 387.78 289.82 387.65 289.73L388.04 289.6C387.91 289.51 387.78 289.41 387.65 289.32L388.04 289.19C387.91 289.1 387.78 289 387.65 288.91L388.04 288.78C387.91 288.69 387.78 288.59 387.65 288.5L388.04 288.37C387.91 288.28 387.78 288.18 387.65 288.09L388.04 287.96C387.91 287.87 387.78 287.77 387.65 287.68L388.04 287.55C387.91 287.46 387.78 287.36 387.65 287.27L388.04 287.14C387.91 287.05 387.78 286.95 387.65 286.86L388.04 286.73C387.91 286.64 387.78 286.54 387.65 286.45L388.04 286.32C387.91 286.23 387.78 286.13 387.65 286.04L388.04 285.91C387.91 285.82 387.78 285.72 387.65 285.63L388.04 285.5C387.91 285.41 387.78 285.31 387.65 285.22L388.04 285.09C387.91 285 387.78 284.9 387.65 284.81L388.04 284.68C387.91 284.59 387.78 284.49 387.65 284.4L388.04 284.27C387.91 284.18 387.78 284.08 387.65 283.99L388.04 283.86C387.91 283.77 387.78 283.67 387.65 283.58L388.04 283.45C387.91 283.36 387.78 283.26 387.65 283.17L388.04 283.04C388 283.01 387.96 282.98 387.92 282.95L388.88 282.62C386.05 280.53 382.91 278.48 379.36 276.49C375.95 274.55 372.21 272.71 368.27 270.98L337.33 275.34L316.89 269.26L317.05 268.95C316.99 268.94 316.92 268.93 316.86 268.91L317.05 268.53C316.99 268.52 316.92 268.51 316.86 268.49L317.05 268.11C316.99 268.1 316.92 268.09 316.86 268.07L317.05 267.69C316.99 267.68 316.92 267.67 316.86 267.65L317.05 267.27C316.99 267.26 316.92 267.25 316.86 267.23L317.05 266.85C316.99 266.84 316.92 266.83 316.86 266.81L317.05 266.43C316.99 266.42 316.92 266.41 316.86 266.39L317.05 266.01C316.99 266 316.92 265.99 316.86 265.97L317.05 265.59C316.99 265.58 316.92 265.57 316.86 265.55L317.05 265.17C316.99 265.16 316.92 265.15 316.86 265.13L317.05 264.75C316.99 264.74 316.92 264.73 316.86 264.71L317.05 264.33C316.99 264.32 316.92 264.31 316.86 264.29L317.05 263.91C316.99 263.9 316.92 263.89 316.86 263.87L317.05 263.49C316.99 263.48 316.92 263.47 316.86 263.45L317.05 263.07C316.99 263.06 316.92 263.05 316.86 263.03L317.05 262.65C316.99 262.64 316.92 262.63 316.86 262.61L317.05 262.23C316.99 262.22 316.92 262.21 316.86 262.19L317.05 261.81C316.99 261.8 316.92 261.79 316.86 261.77L317.05 261.39C316.99 261.38 316.92 261.37 316.86 261.35L317.05 260.97C316.99 260.96 316.92 260.95 316.86 260.93L317.05 260.55C316.99 260.54 316.92 260.53 316.86 260.51L317.05 260.13C316.99 260.12 316.92 260.11 316.86 260.09L317.05 259.71C316.99 259.7 316.92 259.69 316.86 259.67L317.05 259.29C316.99 259.28 316.92 259.27 316.86 259.25L317.05 258.87C316.99 258.86 316.92 258.85 316.86 258.83L317.05 258.45C316.99 258.44 316.92 258.43 316.86 258.41L317.05 258.03C316.99 258.02 316.92 258.01 316.86 257.99L317.05 257.61L317.89 255.94C306.56 253.75 294.6 252.06 282.28 250.87L281.52 251.3C281.49 251.3 281.46 251.29 281.43 251.29L264.27 260.98L231.48 260.27L217.06 249.45C204.91 250.06 192.82 251.15 181.06 252.77L181.11 253.07C180.82 253.11 180.52 253.15 180.22 253.19L180.28 253.6C180.26 253.6 180.24 253.61 180.22 253.61L180.28 254.02C180.26 254.02 180.24 254.03 180.22 254.03L180.28 254.44C180.26 254.44 180.24 254.45 180.22 254.45L180.28 254.86C180.26 254.86 180.24 254.87 180.22 254.87L180.28 255.28C180.26 255.28 180.24 255.29 180.22 255.29L180.28 255.7C180.26 255.7 180.24 255.71 180.22 255.71L180.28 256.12C180.26 256.12 180.24 256.13 180.22 256.13L180.28 256.54C180.26 256.54 180.24 256.55 180.22 256.55L180.28 256.96C180.26 256.96 180.24 256.97 180.22 256.97L180.28 257.38C180.26 257.38 180.24 257.39 180.22 257.39L180.28 257.8C180.26 257.8 180.24 257.81 180.22 257.81L180.28 258.22C180.26 258.22 180.24 258.23 180.22 258.23L180.28 258.64C180.26 258.64 180.24 258.65 180.22 258.65L180.28 259.06C180.26 259.06 180.24 259.07 180.22 259.07L180.28 259.48C180.26 259.48 180.24 259.49 180.22 259.49L180.28 259.9C180.26 259.9 180.24 259.91 180.22 259.91L180.28 260.32C180.26 260.32 180.24 260.33 180.22 260.33L180.28 260.74C180.26 260.74 180.24 260.75 180.22 260.75L180.28 261.16C180.26 261.16 180.24 261.17 180.22 261.17L180.28 261.58C180.26 261.58 180.24 261.59 180.22 261.59L180.28 262C180.26 262 180.24 262.01 180.22 262.01L180.28 262.42C180.26 262.42 180.24 262.43 180.22 262.43L180.28 262.84C180.26 262.84 180.24 262.85 180.22 262.85L180.28 263.26C180.26 263.26 180.24 263.27 180.22 263.27L180.28 263.68C180.26 263.68 180.24 263.69 180.22 263.69L180.28 264.1C180.26 264.1 180.24 264.11 180.22 264.11L180.28 264.52C180.26 264.52 180.24 264.53 180.22 264.53L180.28 264.94C180.26 264.94 180.24 264.95 180.22 264.95L180.28 265.36C180.26 265.36 180.24 265.37 180.22 265.37L180.23 265.42L154.96 271.14L125.75 265.37C123.89 266.01 122.1 266.66 120.34 267.32C116.64 268.56 113.02 270.14 110.07 271.57C108.39 272.33 106.78 273.11 105.21 273.9C103.54 274.72 101.93 275.56 100.4 276.41L100.83 276.6C100.69 276.68 100.54 276.75 100.4 276.83L100.83 277.02C100.69 277.1 100.54 277.17 100.4 277.25L100.83 277.44C100.69 277.52 100.54 277.59 100.4 277.67L100.83 277.86C100.69 277.94 100.54 278.01 100.4 278.09L100.83 278.28C100.69 278.36 100.54 278.43 100.4 278.51L100.83 278.7C100.69 278.78 100.54 278.85 100.4 278.93L100.83 279.12C100.69 279.2 100.54 279.27 100.4 279.35L100.83 279.54C100.69 279.62 100.54 279.69 100.4 279.77L100.83 279.96C100.69 280.04 100.54 280.11 100.4 280.19L100.83 280.38C100.69 280.46 100.54 280.53 100.4 280.61L100.83 280.8C100.69 280.88 100.54 280.95 100.4 281.03L100.83 281.22C100.69 281.3 100.54 281.37 100.4 281.45L100.83 281.64C100.69 281.72 100.54 281.79 100.4 281.87L100.83 282.06C100.69 282.14 100.54 282.21 100.4 282.29L100.83 282.48C100.69 282.56 100.54 282.63 100.4 282.71L100.83 282.9C100.69 282.98 100.54 283.05 100.4 283.13L100.83 283.32C100.69 283.4 100.54 283.47 100.4 283.55L100.83 283.74C100.69 283.82 100.54 283.89 100.4 283.97L100.83 284.16C100.69 284.24 100.54 284.31 100.4 284.39L100.83 284.58C100.69 284.66 100.54 284.73 100.4 284.81L100.83 285C100.69 285.08 100.54 285.15 100.4 285.23L100.83 285.42C100.69 285.5 100.54 285.57 100.4 285.65L100.83 285.84C100.69 285.92 100.54 285.99 100.4 286.07L100.83 286.26C100.69 286.34 100.54 286.41 100.4 286.49L100.83 286.68C100.69 286.76 100.54 286.83 100.4 286.91L100.83 287.1C100.69 287.18 100.54 287.25 100.4 287.33L100.83 287.52C100.69 287.6 100.54 287.67 100.4 287.75L100.83 287.94C100.69 288.02 100.54 288.09 100.4 288.17L100.83 288.36C100.69 288.44 100.54 288.51 100.4 288.59L100.83 288.78C100.69 288.86 100.54 288.93 100.4 289.01L100.83 289.2C100.69 289.28 100.54 289.35 100.4 289.43L100.83 289.62C100.69 289.7 100.54 289.77 100.4 289.85L100.83 290.04C100.69 290.12 100.54 290.19 100.4 290.27L100.83 290.46C100.69 290.54 100.54 290.61 100.4 290.69L100.83 290.88C100.69 290.96 100.54 291.03 100.4 291.11L100.83 291.3C100.69 291.38 100.54 291.45 100.4 291.53L100.83 291.72C100.69 291.8 100.54 291.87 100.4 291.95L100.83 292.14C100.69 292.22 100.54 292.29 100.4 292.37L100.83 292.56C100.69 292.64 100.54 292.71 100.4 292.79L100.83 292.98C100.69 293.06 100.54 293.13 100.4 293.21L100.83 293.4C100.69 293.48 100.54 293.55 100.4 293.63L100.83 293.82C100.69 293.9 100.54 293.97 100.4 294.05L100.83 294.24C100.69 294.32 100.54 294.39 100.4 294.47L100.83 294.66C100.69 294.74 100.54 294.81 100.4 294.89L100.83 295.08C100.69 295.16 100.54 295.23 100.4 295.31L100.83 295.5C100.69 295.58 100.54 295.65 100.4 295.73L100.83 295.92C100.69 296 100.54 296.07 100.4 296.15L100.83 296.34C100.69 296.42 100.54 296.49 100.4 296.57L100.83 296.76C100.76 296.8 100.68 296.84 100.61 296.88L77.04 297.99C76.97 298.12 76.91 298.25 76.85 298.38L76.2 298.41C74.34 302.08 73.41 305.82 73.49 309.58C73.49 309.72 73.49 309.86 73.49 310C73.49 310.14 73.49 310.28 73.49 310.42C73.49 310.56 73.49 310.7 73.49 310.84C73.49 310.98 73.49 311.12 73.49 311.26C73.49 311.4 73.49 311.54 73.49 311.68C73.49 311.82 73.49 311.96 73.49 312.1C73.49 312.24 73.49 312.38 73.49 312.52C73.49 312.66 73.49 312.8 73.49 312.94C73.49 313.08 73.49 313.22 73.49 313.36C73.49 313.5 73.49 313.64 73.49 313.78C73.49 313.92 73.49 314.06 73.49 314.2C73.49 314.34 73.49 314.48 73.49 314.62C73.49 314.76 73.49 314.9 73.49 315.04C73.49 315.18 73.49 315.32 73.49 315.46C73.49 315.6 73.49 315.74 73.49 315.88C73.49 316.02 73.49 316.16 73.49 316.3C73.49 316.44 73.49 316.58 73.49 316.72C73.49 316.86 73.49 317 73.49 317.14C73.49 317.28 73.49 317.42 73.49 317.56C73.49 317.7 73.49 317.84 73.49 317.98C73.49 318.12 73.49 318.26 73.49 318.4C73.49 318.54 73.49 318.68 73.49 318.82C73.49 318.96 73.49 319.1 73.49 319.24C73.49 319.38 73.49 319.52 73.49 319.66C73.49 319.8 73.49 319.94 73.49 320.08C73.49 320.22 73.49 320.36 73.49 320.5C73.49 320.64 73.49 320.78 73.49 320.92C73.49 321.06 73.49 321.2 73.49 321.34C73.49 321.48 73.49 321.62 73.49 321.76C73.49 321.9 73.49 322.04 73.49 322.18C73.49 322.32 73.49 322.46 73.49 322.6C73.49 322.74 73.49 322.88 73.49 323.02C73.49 323.16 73.49 323.3 73.49 323.44C73.49 323.58 73.49 323.72 73.49 323.86C73.49 324 73.49 324.14 73.49 324.28C73.49 324.42 73.49 324.56 73.49 324.7C73.49 324.84 73.49 324.98 73.49 325.12C73.49 325.26 73.49 325.4 73.49 325.54C73.49 325.68 73.49 325.82 73.49 325.96C73.49 326.1 73.49 326.24 73.49 326.38C73.49 326.52 73.49 326.66 73.49 326.8C73.49 326.94 73.49 327.08 73.49 327.22C73.49 327.36 73.49 327.5 73.49 327.64C73.49 327.78 73.49 327.92 73.49 328.06C73.49 328.2 73.49 328.34 73.49 328.48C73.49 328.62 73.49 328.76 73.49 328.9C73.49 329.04 73.49 329.18 73.49 329.32C73.49 329.46 73.49 329.6 73.49 329.74C73.49 329.88 73.49 330.02 73.49 330.16C73.49 330.3 73.49 330.44 73.49 330.58C73.49 330.72 73.49 330.86 73.49 331C73.49 331.14 73.49 331.28 73.49 331.42C73.49 331.56 73.49 331.7 73.49 331.84C73.49 331.98 73.49 332.12 73.49 332.26C73.49 332.4 73.49 332.54 73.49 332.68C73.49 332.82 73.49 332.96 73.49 333.1C73.49 333.24 73.49 333.38 73.49 333.52C73.49 333.66 73.49 333.8 73.49 333.94C73.49 334.08 73.49 334.22 73.49 334.36C73.49 334.5 73.49 334.64 73.49 334.78C73.49 334.92 73.49 335.06 73.49 335.2C73.49 335.34 73.49 335.48 73.49 335.62C73.49 335.76 73.49 335.9 73.49 336.04C73.49 336.18 73.49 336.32 73.49 336.46C73.49 336.6 73.49 336.74 73.49 336.88C73.49 337.02 73.49 337.16 73.49 337.3C73.49 337.44 73.49 337.58 73.49 337.72C73.49 337.86 73.49 338 73.49 338.14C73.49 338.28 73.49 338.42 73.49 338.56C73.49 338.7 73.49 338.84 73.49 338.98C73.49 339.12 73.49 339.26 73.49 339.4C73.49 339.54 73.49 339.68 73.49 339.82C73.49 339.96 73.49 340.1 73.49 340.24C73.49 340.38 73.49 340.52 73.49 340.66C73.49 340.8 73.49 340.94 73.49 341.08C73.49 341.22 73.49 341.36 73.49 341.5C73.49 341.64 73.49 341.78 73.49 341.92C73.49 342.06 73.49 342.2 73.49 342.34C73.49 342.48 73.49 342.62 73.49 342.76C73.49 342.9 73.49 343.04 73.49 343.18C73.49 343.32 73.49 343.46 73.49 343.6C73.49 343.74 73.49 343.88 73.49 344.02C73.49 344.16 73.49 344.3 73.49 344.44C73.49 344.58 73.49 344.72 73.49 344.86C73.49 345 73.49 345.14 73.49 345.28C73.49 345.42 73.49 345.56 73.49 345.7C73.49 345.84 73.49 345.98 73.49 346.12C73.49 346.26 73.49 346.4 73.49 346.54C73.49 346.68 73.49 346.82 73.49 346.96C73.49 347.1 73.49 347.24 73.49 347.38C73.49 347.52 73.49 347.66 73.49 347.8C73.49 347.94 73.49 348.08 73.49 348.22C73.49 348.36 73.49 348.5 73.49 348.64C73.49 348.78 73.49 348.92 73.49 349.06C73.49 349.2 73.49 349.34 73.49 349.48C73.49 349.62 73.49 349.76 73.49 349.9C73.49 350.04 73.49 350.18 73.49 350.32C73.49 350.46 73.49 350.6 73.49 350.74C73.49 350.88 73.49 351.02 73.49 351.16C73.49 351.3 73.49 351.44 73.49 351.58C73.49 352.59 73.56 353.6 73.7 354.6L89.81 356.14C89.93 356.23 90.05 356.31 90.16 356.4L89.77 356.53C89.9 356.63 90.03 356.72 90.16 356.82L89.77 356.95C89.9 357.05 90.03 357.14 90.16 357.24L89.77 357.37C89.9 357.47 90.03 357.56 90.16 357.66L89.77 357.79C89.9 357.89 90.03 357.98 90.16 358.08L89.77 358.21C89.9 358.31 90.03 358.4 90.16 358.5L89.77 358.63C89.9 358.73 90.03 358.82 90.16 358.92L89.77 359.05C89.9 359.15 90.03 359.24 90.16 359.34L89.77 359.47C89.9 359.57 90.03 359.66 90.16 359.76L89.77 359.89C89.9 359.99 90.03 360.08 90.16 360.18L89.77 360.31C89.9 360.41 90.03 360.5 90.16 360.6L89.77 360.73C89.9 360.83 90.03 360.92 90.16 361.02L89.77 361.15C89.9 361.25 90.03 361.34 90.16 361.44L89.77 361.57C89.9 361.67 90.03 361.76 90.16 361.86L89.77 361.99C89.9 362.09 90.03 362.18 90.16 362.28L89.77 362.41C89.9 362.51 90.03 362.6 90.16 362.7L89.77 362.83C89.9 362.93 90.03 363.02 90.16 363.12L89.77 363.25C89.9 363.35 90.03 363.44 90.16 363.54L89.77 363.67C89.9 363.77 90.03 363.86 90.16 363.96L89.77 364.09C89.9 364.19 90.03 364.28 90.16 364.38L89.77 364.51C89.9 364.61 90.03 364.7 90.16 364.8L89.77 364.93C89.9 365.03 90.03 365.12 90.16 365.22L89.77 365.35C89.9 365.45 90.03 365.54 90.16 365.64L89.77 365.77C89.9 365.87 90.03 365.96 90.16 366.06L89.77 366.19C89.9 366.29 90.03 366.38 90.16 366.48L89.77 366.61C89.9 366.71 90.03 366.8 90.16 366.9L89.77 367.03C89.9 367.13 90.03 367.22 90.16 367.32L89.77 367.45C89.9 367.55 90.03 367.64 90.16 367.74L89.77 367.87C89.9 367.97 90.03 368.06 90.16 368.16L89.77 368.29C89.9 368.39 90.03 368.48 90.16 368.58L89.77 368.71C89.9 368.81 90.03 368.9 90.16 369L89.77 369.13C89.9 369.23 90.03 369.32 90.16 369.42L89.77 369.55C89.9 369.65 90.03 369.74 90.16 369.84L89.77 369.97C89.9 370.07 90.03 370.16 90.16 370.26L89.77 370.39C89.9 370.49 90.03 370.58 90.16 370.68L89.77 370.81C89.9 370.91 90.03 371 90.16 371.1L89.77 371.23C89.9 371.33 90.03 371.42 90.16 371.52L89.77 371.65C89.9 371.75 90.03 371.84 90.16 371.94L89.77 372.07C89.9 372.17 90.03 372.26 90.16 372.36L89.77 372.49C89.9 372.59 90.03 372.68 90.16 372.78L89.77 372.91C89.9 373.01 90.03 373.1 90.16 373.2L89.77 373.33C89.9 373.43 90.03 373.52 90.16 373.62L89.77 373.75C89.9 373.85 90.03 373.94 90.16 374.04L89.77 374.17C89.9 374.27 90.03 374.36 90.16 374.46L89.77 374.59C89.9 374.69 90.03 374.78 90.16 374.88L89.77 375.01C89.9 375.11 90.03 375.2 90.16 375.3L89.77 375.43C89.9 375.53 90.03 375.62 90.16 375.72L89.77 375.85C89.9 375.95 90.03 376.04 90.16 376.14L89.77 376.27C89.9 376.37 90.03 376.46 90.16 376.56L89.77 376.69C89.9 376.79 90.03 376.88 90.16 376.98L89.77 377.11C89.9 377.21 90.03 377.3 90.16 377.4L89.77 377.53C92.61 379.66 95.81 381.78 99.46 383.84C102.82 385.72 106.41 387.5 110.19 389.2L141.19 384.86L160.52 390.65L160.41 390.87C160.48 390.88 160.54 390.89 160.61 390.91L160.41 391.29C160.48 391.3 160.54 391.31 160.61 391.33L160.41 391.71C160.48 391.72 160.54 391.73 160.61 391.75L160.41 392.13C160.48 392.14 160.54 392.15 160.61 392.17L160.41 392.55C160.48 392.56 160.54 392.57 160.61 392.59L160.41 392.97C160.48 392.98 160.54 392.99 160.61 393.01L160.41 393.39C160.48 393.4 160.54 393.41 160.61 393.43L160.41 393.81C160.48 393.82 160.54 393.83 160.61 393.85L160.41 394.23C160.48 394.24 160.54 394.25 160.61 394.27L160.41 394.65C160.48 394.66 160.54 394.67 160.61 394.69L160.41 395.07C160.48 395.08 160.54 395.09 160.61 395.11L160.41 395.49C160.48 395.5 160.54 395.51 160.61 395.53L160.41 395.91C160.48 395.92 160.54 395.93 160.61 395.95L160.41 396.33C160.48 396.34 160.54 396.35 160.61 396.37L160.41 396.75C160.48 396.76 160.54 396.77 160.61 396.79L160.41 397.17C160.48 397.18 160.54 397.19 160.61 397.21L160.41 397.59C160.48 397.6 160.54 397.61 160.61 397.63L160.41 398.01C160.48 398.02 160.54 398.03 160.61 398.05L160.41 398.43C160.48 398.44 160.54 398.45 160.61 398.47L160.41 398.85C160.48 398.86 160.54 398.87 160.61 398.89L160.41 399.27C160.48 399.28 160.54 399.29 160.61 399.31L160.41 399.69C160.48 399.7 160.54 399.71 160.61 399.73L160.41 400.11C160.48 400.12 160.54 400.13 160.61 400.15L160.41 400.53C160.48 400.54 160.54 400.55 160.61 400.57L160.41 400.95C160.48 400.96 160.54 400.97 160.61 400.99L160.41 401.37C160.48 401.38 160.54 401.39 160.61 401.41L160.41 401.79C160.48 401.8 160.54 401.81 160.61 401.83L160.41 402.21C160.48 402.22 160.54 402.23 160.61 402.25L160.41 402.63C160.48 402.64 160.54 402.65 160.61 402.67L160.41 403.05C160.48 403.06 160.54 403.07 160.61 403.09L160.41 403.47C160.48 403.48 160.54 403.49 160.61 403.51L160.41 403.89C160.48 403.9 160.54 403.91 160.61 403.93L160.41 404.31C171.76 406.5 183.75 408.23 196.09 409.43L214.09 399.34L246.97 400.09L261.27 410.93C273.81 410.31 286.28 409.19 298.38 407.51L298.31 407.1C298.33 407.1 298.35 407.09 298.38 407.09L298.31 406.68C298.33 406.68 298.35 406.67 298.38 406.67L298.31 406.26C298.33 406.26 298.35 406.25 298.38 406.25L298.31 405.84C298.33 405.84 298.35 405.83 298.38 405.83L298.31 405.42C298.33 405.42 298.35 405.41 298.38 405.41L298.31 405C298.33 405 298.35 404.99 298.38 404.99L298.31 404.58C298.33 404.58 298.35 404.57 298.38 404.57L298.31 404.16C298.33 404.16 298.35 404.15 298.38 404.15L298.31 403.74C298.33 403.74 298.35 403.73 298.38 403.73L298.31 403.32C298.33 403.32 298.35 403.31 298.38 403.31L298.31 402.9C298.33 402.9 298.35 402.89 298.38 402.89L298.31 402.48C298.33 402.48 298.35 402.47 298.38 402.47L298.31 402.06C298.33 402.06 298.35 402.05 298.38 402.05L298.31 401.64C298.33 401.64 298.35 401.63 298.38 401.63L298.31 401.22C298.33 401.22 298.35 401.21 298.38 401.21L298.31 400.8C298.33 400.8 298.35 400.79 298.38 400.79L298.31 400.38C298.33 400.38 298.35 400.37 298.38 400.37L298.31 399.96C298.33 399.96 298.35 399.95 298.38 399.95L298.31 399.54C298.33 399.54 298.35 399.53 298.38 399.53L298.31 399.12C298.33 399.12 298.35 399.11 298.38 399.11L298.31 398.7C298.33 398.7 298.35 398.69 298.38 398.69L298.31 398.28C298.33 398.28 298.35 398.27 298.38 398.27L298.31 397.86C298.33 397.86 298.35 397.85 298.38 397.85L298.31 397.44C298.33 397.44 298.35 397.43 298.38 397.43L298.31 397.02C298.33 397.02 298.35 397.01 298.38 397.01L298.31 396.6C298.33 396.6 298.35 396.59 298.38 396.59L298.31 396.18C298.33 396.18 298.35 396.17 298.38 396.17L298.31 395.76C298.33 395.76 298.35 395.75 298.38 395.75L298.31 395.34C298.33 395.34 298.35 395.33 298.38 395.33L298.33 395.03L324.3 389.1L353.53 394.84C362.9 391.59 371.06 388.01 377.94 384.18L377.52 383.99C377.66 383.91 377.8 383.84 377.94 383.76L377.52 383.57C377.66 383.49 377.8 383.42 377.94 383.34L377.52 383.15C377.66 383.07 377.8 383 377.94 382.92L377.52 382.73C377.66 382.65 377.8 382.58 377.94 382.5L377.52 382.31C377.66 382.23 377.8 382.16 377.94 382.08L377.52 381.89C377.66 381.81 377.8 381.74 377.94 381.66L377.52 381.47C377.66 381.39 377.8 381.32 377.94 381.24L377.52 381.05C377.66 380.97 377.8 380.9 377.94 380.82L377.52 380.63C377.66 380.55 377.8 380.48 377.94 380.4L377.52 380.21C377.66 380.13 377.8 380.06 377.94 379.98L377.52 379.79C377.66 379.71 377.8 379.64 377.94 379.56L377.52 379.37C377.66 379.29 377.8 379.22 377.94 379.14L377.52 378.95C377.66 378.87 377.8 378.8 377.94 378.72L377.52 378.53C377.66 378.45 377.8 378.38 377.94 378.3L377.52 378.11C377.66 378.03 377.8 377.96 377.94 377.88L377.52 377.69C377.66 377.61 377.8 377.54 377.94 377.46L377.52 377.27C377.66 377.19 377.8 377.12 377.94 377.04L377.52 376.85C377.66 376.77 377.8 376.7 377.94 376.62L377.52 376.43C377.66 376.35 377.8 376.28 377.94 376.2L377.52 376.01C377.66 375.93 377.8 375.86 377.94 375.78L377.52 375.59C377.66 375.51 377.8 375.44 377.94 375.36L377.52 375.17C377.66 375.09 377.8 375.02 377.94 374.94L377.52 374.75C377.66 374.67 377.8 374.6 377.94 374.52L377.52 374.33C377.66 374.25 377.8 374.18 377.94 374.1L377.52 373.91C377.66 373.83 377.8 373.76 377.94 373.68L377.52 373.49C377.66 373.41 377.8 373.34 377.94 373.26L377.52 373.07C377.66 372.99 377.8 372.92 377.94 372.84L377.52 372.65C377.66 372.57 377.8 372.5 377.94 372.42L377.52 372.23C377.66 372.15 377.8 372.08 377.94 372L377.52 371.81C377.66 371.73 377.8 371.66 377.94 371.58L377.52 371.39C377.66 371.31 377.8 371.24 377.94 371.16L377.52 370.97C377.66 370.89 377.8 370.82 377.94 370.74L377.52 370.55C377.66 370.47 377.8 370.4 377.94 370.32L377.52 370.13C377.66 370.05 377.8 369.98 377.94 369.9L377.52 369.71C377.66 369.63 377.8 369.56 377.94 369.48L377.52 369.29C377.66 369.21 377.8 369.14 377.94 369.06L377.52 368.87C377.66 368.79 377.8 368.72 377.94 368.64L377.52 368.45C377.66 368.37 377.8 368.3 377.94 368.22L377.52 368.03C377.66 367.95 377.8 367.88 377.94 367.8L377.52 367.61C377.66 367.53 377.8 367.46 377.94 367.38L377.52 367.19C377.66 367.11 377.8 367.04 377.94 366.96L377.52 366.77C377.66 366.69 377.8 366.62 377.94 366.54L377.52 366.35C377.66 366.27 377.8 366.2 377.94 366.12L377.52 365.93C377.66 365.85 377.8 365.78 377.94 365.7L377.52 365.51C377.66 365.43 377.8 365.36 377.94 365.28L377.52 365.09C377.66 365.01 377.8 364.94 377.94 364.86L377.52 364.67C377.66 364.59 377.8 364.52 377.94 364.44L377.52 364.25C377.66 364.17 377.8 364.1 377.94 364.02L377.52 363.83C377.66 363.75 377.8 363.68 377.94 363.6L377.52 363.41C377.58 363.38 377.63 363.35 377.69 363.32L401.93 362.16C403.68 358.64 404.58 355.07 404.57 351.49C404.57 351.35 404.57 351.21 404.57 351.07C404.57 350.93 404.57 350.79 404.57 350.65C404.57 350.51 404.57 350.37 404.57 350.23C404.57 350.09 404.57 349.95 404.57 349.81C404.57 349.67 404.57 349.53 404.57 349.39C404.57 349.25 404.57 349.11 404.57 348.97C404.57 348.83 404.57 348.69 404.57 348.55C404.57 348.41 404.57 348.27 404.57 348.13C404.57 347.99 404.57 347.85 404.57 347.71C404.57 347.57 404.57 347.43 404.57 347.29C404.57 347.15 404.57 347.01 404.57 346.87C404.57 346.73 404.57 346.59 404.57 346.45C404.57 346.31 404.57 346.17 404.57 346.03C404.57 345.89 404.57 345.75 404.57 345.61C404.57 345.47 404.57 345.33 404.57 345.19C404.57 345.05 404.57 344.91 404.57 344.77C404.57 344.63 404.57 344.49 404.57 344.35C404.57 344.21 404.57 344.07 404.57 343.93C404.57 343.79 404.57 343.65 404.57 343.51C404.57 343.37 404.57 343.23 404.57 343.09C404.57 342.95 404.57 342.81 404.57 342.67C404.57 342.53 404.57 342.39 404.57 342.25C404.57 342.11 404.57 341.97 404.57 341.83C404.57 341.69 404.57 341.55 404.57 341.41C404.57 341.27 404.57 341.13 404.57 340.99C404.57 340.85 404.57 340.71 404.57 340.57C404.57 340.43 404.57 340.29 404.57 340.15C404.57 340.01 404.57 339.87 404.57 339.73C404.57 339.59 404.57 339.45 404.57 339.31C404.57 339.17 404.57 339.03 404.57 338.89C404.57 338.75 404.57 338.61 404.57 338.47C404.57 338.33 404.57 338.19 404.57 338.05C404.57 337.91 404.57 337.77 404.57 337.63C404.57 337.49 404.57 337.35 404.57 337.21C404.57 337.07 404.57 336.93 404.57 336.79C404.57 336.65 404.57 336.51 404.57 336.37C404.57 336.23 404.57 336.09 404.57 335.95C404.57 335.81 404.57 335.67 404.57 335.53C404.57 335.39 404.57 335.25 404.57 335.11C404.57 334.97 404.57 334.83 404.57 334.69C404.57 334.55 404.57 334.41 404.57 334.27C404.57 334.13 404.57 333.99 404.57 333.85C404.57 333.71 404.57 333.57 404.57 333.43C404.57 333.29 404.57 333.15 404.57 333.01C404.57 332.87 404.57 332.73 404.57 332.59C404.57 332.45 404.57 332.31 404.57 332.17C404.57 332.03 404.57 331.89 404.57 331.75C404.57 331.61 404.57 331.47 404.57 331.33C404.57 331.19 404.57 331.05 404.57 330.91C404.57 330.77 404.57 330.63 404.57 330.49C404.57 330.35 404.57 330.21 404.57 330.07C404.57 329.93 404.57 329.79 404.57 329.65C404.57 329.51 404.57 329.37 404.57 329.23C404.57 329.09 404.57 328.95 404.57 328.81C404.57 328.67 404.57 328.53 404.57 328.39C404.57 328.25 404.57 328.11 404.57 327.97C404.57 327.83 404.57 327.69 404.57 327.55C404.57 327.41 404.57 327.27 404.57 327.13C404.57 326.99 404.57 326.85 404.57 326.71C404.57 326.57 404.57 326.43 404.57 326.29C404.57 326.15 404.57 326.01 404.57 325.87C404.57 325.73 404.57 325.59 404.57 325.45C404.57 325.31 404.57 325.17 404.57 325.03C404.57 324.89 404.57 324.75 404.57 324.61C404.57 324.47 404.57 324.33 404.57 324.19C404.57 324.05 404.57 323.91 404.57 323.77C404.57 323.63 404.57 323.49 404.57 323.35C404.57 323.21 404.57 323.07 404.57 322.93C404.57 322.79 404.57 322.65 404.57 322.51C404.57 322.37 404.57 322.23 404.57 322.09C404.57 321.95 404.57 321.81 404.57 321.67C404.57 321.53 404.57 321.39 404.57 321.25C404.57 321.11 404.57 320.97 404.57 320.83C404.57 320.69 404.57 320.55 404.57 320.41C404.57 320.27 404.57 320.13 404.57 319.99C404.57 319.85 404.57 319.71 404.57 319.57C404.57 319.43 404.57 319.29 404.57 319.15C404.57 319.01 404.57 318.87 404.57 318.73C404.57 318.59 404.57 318.45 404.57 318.31C404.57 318.17 404.57 318.03 404.57 317.89C404.57 317.75 404.57 317.61 404.57 317.47C404.57 317.33 404.57 317.19 404.57 317.05C404.57 316.91 404.57 316.77 404.57 316.63C404.57 316.49 404.57 316.35 404.57 316.21C404.57 316.07 404.57 315.93 404.57 315.79C404.57 315.65 404.57 315.51 404.57 315.37C404.57 315.23 404.57 315.09 404.57 314.95C404.58 314.35 404.58 314.27 404.58 314.19ZM216.94 333.73C208.6 332.75 201.06 331.28 194.49 329.45C213.1 324.42 237.98 322.62 261.79 325.4C270.19 326.38 277.76 327.84 284.35 329.67C265.73 334.72 240.85 336.53 216.94 333.73Z" fill="#452E7E"/>
<path d="M402.78 318.83C405.04 314.29 405.89 309.67 405.19 305.04L373.03 302.02L364.77 290.5L388.89 282.23C386.06 280.14 382.92 278.09 379.37 276.1C375.96 274.16 372.22 272.32 368.28 270.59L337.34 274.95L311.94 267.39L317.9 255.6C306.57 253.41 294.61 251.72 282.29 250.53L264.39 260.64L231.51 259.92L217.09 249.1C204.94 249.71 192.84 250.8 181.09 252.42L182.91 264.41L154.99 270.73L125.78 264.96C123.92 265.6 122.13 266.25 120.37 266.91C116.67 268.15 113.05 269.73 110.1 271.16C106.96 272.59 104.01 274.07 101.27 275.58L122.27 284.89L110 295.94L77.04 297.49C74.75 302.01 73.87 306.63 74.54 311.27L106.64 314.34L114.75 325.85L90.62 334.1C93.46 336.23 96.66 338.35 100.31 340.41C103.67 342.29 107.26 344.07 111.04 345.77L142.04 341.43L167.38 349.02L161.26 360.82C172.61 363.01 184.6 364.74 196.94 365.94L214.94 355.85L247.82 356.6L262.12 367.44C274.66 366.82 287.13 365.7 299.23 364.02L297.3 352.03L325.14 345.67L354.37 351.41C363.74 348.16 371.9 344.58 378.78 340.75L357.7 331.47L369.82 320.41L402.78 318.83ZM262.63 282.78C301.76 287.33 323.08 302.45 310.43 316.51C297.82 330.55 256.07 338.31 216.95 333.74C177.98 329.15 156.6 314.08 169.3 300.03C181.81 285.94 223.66 278.22 262.63 282.78Z" fill="url(#paint2_linear_335_854)"/>
<path d="M402.58 183.98C398.84 180.11 394.37 177.06 389.4 175.01C384.37 172.93 378.85 171.88 373.09 172.04C373.15 171.45 373.21 170.86 373.27 170.27C374.19 160.82 364.07 151.09 346.43 142.5C341.21 139.96 335.33 137.52 328.88 135.22C306.62 127.26 277.57 120.95 245.52 117.82C172.83 110.73 112.17 122.73 110.04 144.61C94.19 307.15 245.9 359.96 326.4 279.76C326.9 279.87 327.4 279.98 327.91 280.07C343.81 283.27 359.83 281.31 374.48 273.42C374.65 273.33 374.81 273.24 374.98 273.15C377.59 271.71 380.16 270.09 382.68 268.27C386.71 265.35 390.61 261.93 394.34 257.99C395.31 256.97 396.26 255.92 397.2 254.83C420.35 226.2 417.08 198.97 402.58 183.98ZM374.17 248.11C372.78 249.33 371.32 250.48 369.81 251.54C367.56 253.12 365.19 254.51 362.74 255.65C356.76 258.45 350.22 259.82 343.48 259.07C355.5 241.36 364.74 219.46 369.91 193.27L369.9 193.35C373.77 193.58 377.07 194.27 379.85 195.36C380.09 195.45 380.32 195.55 380.56 195.64C400.12 203.96 392.36 232.19 374.17 248.11Z" fill="#FCDED3"/>
<path d="M220.27 125.96C220.27 125.96 220.26 125.96 220.25 125.96C220.27 125.97 220.27 125.97 220.27 125.96Z" fill="#452E7E"/>
<path d="M355.03 164.27C354.27 162.62 353.28 161.2 352.2 159.93C350.01 157.43 347.47 155.49 344.79 153.93C344.66 153.85 344.54 153.78 344.41 153.71C344.21 153.53 344.01 153.35 343.8 153.16C343.39 152.97 342.96 152.78 342.53 152.59C339.94 151.03 338.11 149.92 336.9 150.13C329.54 146.99 320.36 143.43 309.67 140.05C298.33 136.46 265.23 126.74 220.11 125.98C220.18 125.97 220.23 125.97 220.25 125.97C220.08 125.96 218.43 125.79 209.28 125.98C208.11 126 206.94 126.02 205.75 126.05C205 126.07 204.24 126.09 203.47 126.12C195.94 126.33 185.09 126.71 169.45 127.39C169.45 127.39 150.47 128.21 135.38 136.59C133.43 137.68 131.74 139.22 131.74 139.22C129.89 140.93 128.93 142.49 128.7 142.92C128.5 143.29 128.28 143.65 128.11 144.03L127.62 145.22C127.5 145.64 127.38 146.06 127.27 146.48C127.17 146.9 127.12 147.34 127.06 147.77C126.85 149.51 127.09 151.29 127.62 152.86C128.14 154.45 128.92 155.85 129.8 157.11L129.91 157.26C129.93 157.29 129.95 157.31 129.97 157.34L131.1 158.76C131.5 159.28 131.95 159.74 132.39 160.19C133.28 161.09 134.21 161.92 135.16 162.71L135.17 162.72C135.17 162.72 135.17 162.72 135.18 162.73H135.17C142.85 168.75 151.48 172.54 160.17 175.86C168.89 179.13 177.81 181.72 186.8 183.91C204.79 188.25 223.09 191.06 241.48 192.71C243.78 192.9 246.08 193.14 248.38 193.28L255.29 193.73C259.9 193.95 264.52 194.17 269.14 194.24C278.38 194.41 287.63 194.26 296.87 193.65C306.11 193.02 315.35 191.96 324.5 190.04C329.08 189.11 333.62 187.86 338.1 186.25L341.44 184.95L344.73 183.41C346.91 182.32 349.03 180.99 351.01 179.3C351.02 179.29 351.04 179.27 351.05 179.26C352.3 178.15 353.49 176.86 354.44 175.29C355.38 173.71 356.06 171.8 356.11 169.84C356.21 167.86 355.78 165.92 355.03 164.27ZM129.79 157.08L129.68 156.89C129.75 157.01 129.82 157.12 129.91 157.23L129.9 157.22C129.86 157.18 129.82 157.13 129.79 157.08ZM129.92 157.26C129.91 157.25 129.91 157.24 129.9 157.23L129.91 157.24C129.91 157.25 129.91 157.25 129.92 157.26ZM135.19 162.71L136.52 163.27H136.51L135.19 162.71C135.19 162.72 135.19 162.71 135.19 162.71Z" fill="#452E7E"/>
<path d="M131.66 139.18C138.28 145.66 148.93 154.31 163.84 159.24C188.44 167.37 200.82 157.49 242.42 159.24C264.84 160.18 281.94 163.92 290.9 165.93C313.43 170.97 331.59 177.85 344.4 183.48C343.62 183.89 342.47 184.48 341.06 185.15C325.87 192.34 312.16 193.45 303.44 193.93C269 195.8 240.74 193.09 240.74 193.09C191.73 188.39 169.92 180.18 163.42 177.63C149.51 172.15 127.38 163.18 127.06 150.04C126.95 145.58 129.39 141.81 131.66 139.18Z" fill="url(#paint3_linear_335_854)"/>
<path d="M297.16 207.19C300.48 203.68 300.2 198.51 299.75 190.07C299.38 183.16 298.55 167.78 291.53 165.69C286.49 164.19 280.69 170.26 273.77 177.48C265.68 185.93 259.76 192.13 261.16 198.22C263.68 209.17 288.96 215.85 297.16 207.19Z" fill="#FCDED3"/>
<path d="M292.23 199.55C294.16 197.52 293.99 194.52 293.73 189.62C293.51 185.61 293.03 176.7 288.96 175.49C286.04 174.62 282.67 178.14 278.67 182.33C273.98 187.23 270.55 190.82 271.36 194.35C272.82 200.7 287.48 204.57 292.23 199.55Z" fill="url(#paint4_linear_335_854)"/>
<path d="M168.48 191.45C166.29 187.14 168.03 182.26 170.87 174.3C173.19 167.78 178.36 153.27 185.68 153.26C190.94 153.25 194.78 160.72 199.35 169.61C204.7 180.01 208.62 187.64 205.55 193.08C200.02 202.87 173.88 202.09 168.48 191.45Z" fill="#FCDED3"/>
<path d="M175.37 185.54C174.1 183.04 175.11 180.21 176.75 175.6C178.1 171.82 181.09 163.41 185.34 163.4C188.39 163.4 190.61 167.72 193.27 172.88C196.37 178.91 198.65 183.33 196.86 186.49C193.65 192.15 178.5 191.7 175.37 185.54Z" fill="url(#paint5_linear_335_854)"/>
<path d="M218.42 238.35C216.19 245.94 206.96 250.67 198.72 249.25C190.79 247.89 182.84 240.68 183.68 231.26C184.52 221.82 193.69 215.86 201.67 216.22C209.5 216.57 214.21 222.9 215.26 224.41C216.21 225.78 220.36 231.76 218.42 238.35Z" fill="#F58C63"/>
<path d="M202.78 244.88C208.739 244.88 213.57 240.049 213.57 234.09C213.57 228.131 208.739 223.3 202.78 223.3C196.821 223.3 191.99 228.131 191.99 234.09C191.99 240.049 196.821 244.88 202.78 244.88Z" fill="url(#paint6_linear_335_854)"/>
<path d="M197.02 231.87C199.688 231.87 201.85 229.708 201.85 227.04C201.85 224.372 199.688 222.21 197.02 222.21C194.352 222.21 192.19 224.372 192.19 227.04C192.19 229.708 194.352 231.87 197.02 231.87Z" fill="white"/>
<path d="M250.53 240.63C251.4 248.49 259.75 254.8 268.22 254.87C276.36 254.94 285.57 249.26 286.42 239.84C287.27 230.4 279.19 222.9 271.17 221.83C263.31 220.78 257.48 226.17 256.16 227.47C254.97 228.65 249.77 233.79 250.53 240.63Z" fill="#F58C63"/>
<path d="M255.98 238.25C255.45 244.19 259.89 249.44 265.9 249.97C271.91 250.5 277.21 246.13 277.74 240.19C278.27 234.25 273.83 229 267.82 228.47C261.81 227.94 256.52 232.31 255.98 238.25Z" fill="url(#paint7_linear_335_854)"/>
<path d="M265.35 232.57C265.587 229.913 263.599 227.564 260.909 227.324C258.219 227.084 255.846 229.043 255.609 231.7C255.371 234.356 257.359 236.705 260.049 236.945C262.739 237.186 265.112 235.227 265.35 232.57Z" fill="white"/>
<path d="M243.69 279.25C238.98 279.42 234.42 277.28 231.32 273.61C227.31 277.71 221.42 279.44 216.37 277.52C210.84 275.42 208.47 269.63 207.93 266.54C207.62 264.76 208.82 263.07 210.6 262.76C212.38 262.45 214.07 263.64 214.38 265.42C214.4 265.52 215.29 270.11 218.7 271.4C221.78 272.57 226.48 270.78 228.56 266.25C229.11 265.05 230.32 264.31 231.64 264.35C232.96 264.39 234.12 265.22 234.59 266.45C236.2 270.64 240.45 273.29 244.48 272.61C247.59 272.09 250.29 269.61 251.36 266.31C251.92 264.59 253.76 263.65 255.48 264.21C257.2 264.77 258.14 266.61 257.58 268.33C255.74 274.02 251.13 278.13 245.56 279.07C244.93 279.16 244.31 279.23 243.69 279.25Z" fill="url(#paint8_linear_335_854)"/>
<path d="M231.8 267.82C231.17 267.84 230.53 267.68 229.97 267.34L221.06 261.86C220.01 261.22 219.42 260.04 219.51 258.81C219.61 257.58 220.38 256.52 221.52 256.05C224.65 254.76 228.09 254.11 231.48 254.17C234.95 254.24 238.45 255.05 241.59 256.54C242.68 257.06 243.4 258.13 243.46 259.34C243.52 260.55 242.9 261.69 241.86 262.31L233.34 267.37C232.87 267.65 232.34 267.8 231.8 267.82ZM231.69 260.72L231.71 260.73L231.73 260.72C231.72 260.72 231.7 260.72 231.69 260.72Z" fill="url(#paint9_linear_335_854)"/>
<path d="M295.61 263.76C295.43 263.77 295.25 263.76 295.07 263.73L285.03 262.43C283.24 262.2 281.97 260.56 282.21 258.77C282.44 256.98 284.08 255.72 285.87 255.95L295.91 257.25C297.7 257.48 298.97 259.12 298.73 260.91C298.53 262.52 297.18 263.7 295.61 263.76Z" fill="url(#paint10_linear_335_854)"/>
<path d="M288.79 274.74C288.46 274.75 288.13 274.71 287.79 274.62L279.56 272.33C277.82 271.85 276.8 270.04 277.29 268.3C277.77 266.56 279.58 265.54 281.32 266.03L289.55 268.32C291.29 268.8 292.31 270.61 291.82 272.35C291.43 273.76 290.18 274.69 288.79 274.74Z" fill="url(#paint11_linear_335_854)"/>
<path d="M280.55 282.44C279.97 282.46 279.37 282.33 278.82 282.02L273.91 279.24C272.34 278.35 271.79 276.35 272.68 274.78C273.57 273.21 275.57 272.66 277.14 273.55L282.05 276.33C283.62 277.22 284.17 279.22 283.28 280.79C282.7 281.81 281.65 282.4 280.55 282.44Z" fill="url(#paint12_linear_335_854)"/>
<path d="M170.72 265.03C169.15 265.09 167.72 264 167.4 262.42C167.04 260.65 168.18 258.92 169.95 258.56L179.87 256.53C181.64 256.17 183.37 257.31 183.73 259.08C184.09 260.85 182.95 262.58 181.18 262.94L171.26 264.97C171.08 265 170.9 265.02 170.72 265.03Z" fill="url(#paint13_linear_335_854)"/>
<path d="M178.32 275.48C176.93 275.53 175.62 274.69 175.12 273.31C174.51 271.61 175.39 269.74 177.09 269.13L185.13 266.25C186.83 265.64 188.7 266.52 189.31 268.22C189.92 269.92 189.04 271.79 187.34 272.4L179.3 275.28C178.98 275.41 178.65 275.47 178.32 275.48Z" fill="url(#paint14_linear_335_854)"/>
<path d="M187.09 282.57C185.99 282.61 184.9 282.1 184.25 281.12C183.25 279.62 183.65 277.59 185.16 276.58L189.86 273.45C191.36 272.45 193.39 272.85 194.4 274.36C195.4 275.86 195 277.89 193.49 278.9L188.79 282.03C188.26 282.37 187.68 282.55 187.09 282.57Z" fill="url(#paint15_linear_335_854)"/>
<defs>
<linearGradient id="paint0_linear_335_854" x1="60.8017" y1="119.75" x2="116.223" y2="119.75" gradientUnits="userSpaceOnUse">
<stop stop-color="#F58C63"/>
<stop offset="1" stop-color="#D84526"/>
</linearGradient>
<linearGradient id="paint1_linear_335_854" x1="71.7442" y1="76.4974" x2="100.68" y2="76.4974" gradientUnits="userSpaceOnUse">
<stop stop-color="#F58C63"/>
<stop offset="1" stop-color="#D84526"/>
</linearGradient>
<linearGradient id="paint2_linear_335_854" x1="239.875" y1="238.278" x2="239.875" y2="474.956" gradientUnits="userSpaceOnUse">
<stop stop-color="#F58C63"/>
<stop offset="1" stop-color="#D84526"/>
</linearGradient>
<linearGradient id="paint3_linear_335_854" x1="127.058" y1="166.89" x2="344.405" y2="166.89" gradientUnits="userSpaceOnUse">
<stop stop-color="#F58C63"/>
<stop offset="1" stop-color="#D84526"/>
</linearGradient>
<linearGradient id="paint4_linear_335_854" x1="275.629" y1="183.619" x2="295.268" y2="194.212" gradientUnits="userSpaceOnUse">
<stop stop-color="#F58C63"/>
<stop offset="1" stop-color="#D84526"/>
</linearGradient>
<linearGradient id="paint5_linear_335_854" x1="195.476" y1="175.371" x2="173.634" y2="179.946" gradientUnits="userSpaceOnUse">
<stop stop-color="#F58C63"/>
<stop offset="1" stop-color="#D84526"/>
</linearGradient>
<linearGradient id="paint6_linear_335_854" x1="191.989" y1="233.12" x2="213.491" y2="235.042" gradientUnits="userSpaceOnUse">
<stop stop-color="#462F7E"/>
<stop offset="1" stop-color="#D84526"/>
</linearGradient>
<linearGradient id="paint7_linear_335_854" x1="255.94" y1="238.245" x2="277.709" y2="240.19" gradientUnits="userSpaceOnUse">
<stop stop-color="#462F7E"/>
<stop offset="1" stop-color="#D84526"/>
</linearGradient>
<linearGradient id="paint8_linear_335_854" x1="208.075" y1="271.677" x2="257.823" y2="269.87" gradientUnits="userSpaceOnUse">
<stop stop-color="#F58C63"/>
<stop offset="1" stop-color="#D84526"/>
</linearGradient>
<linearGradient id="paint9_linear_335_854" x1="219.574" y1="261.41" x2="243.501" y2="260.541" gradientUnits="userSpaceOnUse">
<stop stop-color="#F58C63"/>
<stop offset="1" stop-color="#D84526"/>
</linearGradient>
<linearGradient id="paint10_linear_335_854" x1="299.226" y1="259.316" x2="282.708" y2="259.916" gradientUnits="userSpaceOnUse">
<stop stop-color="#F58C63"/>
<stop offset="1" stop-color="#D84526"/>
</linearGradient>
<linearGradient id="paint11_linear_335_854" x1="292.391" y1="269.834" x2="277.721" y2="270.367" gradientUnits="userSpaceOnUse">
<stop stop-color="#F58C63"/>
<stop offset="1" stop-color="#D84526"/>
</linearGradient>
<linearGradient id="paint12_linear_335_854" x1="284.151" y1="277.35" x2="272.809" y2="277.762" gradientUnits="userSpaceOnUse">
<stop stop-color="#F58C63"/>
<stop offset="1" stop-color="#D84526"/>
</linearGradient>
<linearGradient id="paint13_linear_335_854" x1="167.286" y1="261.044" x2="183.803" y2="260.444" gradientUnits="userSpaceOnUse">
<stop stop-color="#F58C63"/>
<stop offset="1" stop-color="#D84526"/>
</linearGradient>
<linearGradient id="paint14_linear_335_854" x1="174.865" y1="271.039" x2="189.536" y2="270.506" gradientUnits="userSpaceOnUse">
<stop stop-color="#F58C63"/>
<stop offset="1" stop-color="#D84526"/>
</linearGradient>
<linearGradient id="paint15_linear_335_854" x1="183.629" y1="277.937" x2="194.971" y2="277.525" gradientUnits="userSpaceOnUse">
<stop stop-color="#F58C63"/>
<stop offset="1" stop-color="#D84526"/>
</linearGradient>
</defs>
</svg>
