<svg width="24" height="24" viewBox="0 0 24 24" fill="none" xmlns="http://www.w3.org/2000/svg">
<path fill-rule="evenodd" clip-rule="evenodd" d="M12.3999 3.02145C11.0562 3.18516 10.3232 3.39351 9.28487 3.90683C7.30625 4.88499 5.75903 6.56251 4.92017 8.63916C4.57348 9.49735 4.32541 10.6324 4.26712 11.6271L4.2386 12.1142H3.29468C2.66751 12.1142 2.31637 12.1302 2.24829 12.162C2.03813 12.2601 1.93756 12.5635 2.04108 12.787C2.13445 12.9887 4.96924 15.8743 5.10824 15.9091C5.38964 15.9797 5.40688 15.9654 6.9668 14.363C8.59541 12.69 8.58254 12.7074 8.43363 12.3858C8.31417 12.1278 8.2513 12.1142 7.18327 12.1142H6.23057V11.8747C6.23057 11.3014 6.36928 10.5235 6.59664 9.82164C7.36527 7.44889 9.36723 5.65185 11.8057 5.1459C12.3209 5.03899 13.3686 4.99753 13.9005 5.06299C17.0542 5.45104 19.6102 8.06946 19.9887 11.2999C20.0554 11.8696 20.0141 12.9302 19.9044 13.4614C19.3121 16.3297 17.2132 18.4694 14.4249 19.0474C14.0416 19.1269 13.853 19.1399 13.1078 19.1382C12.3627 19.1366 12.1772 19.1229 11.8133 19.0429C10.8885 18.8395 9.97918 18.447 9.30509 17.9603C8.6147 17.4619 8.41821 17.3923 8.0216 17.5056C7.77341 17.5766 7.44294 17.9047 7.37203 18.1506C7.20099 18.7438 7.40928 19.1053 8.25328 19.6799C11.2016 21.6875 15.1089 21.682 18.0395 19.666C19.3875 18.7387 20.3887 17.563 21.0993 16.0731C21.6806 14.8542 21.9445 13.7663 21.9942 12.3836C22.0832 9.90841 21.1394 7.49751 19.3705 5.68157C17.678 3.9441 15.3978 2.97424 13.0673 3.00052C12.767 3.00392 12.4666 3.01333 12.3999 3.02145ZM12.6021 8.1071C12.4173 8.19357 12.2318 8.41183 12.1796 8.60426C12.1461 8.7275 12.1362 9.35412 12.1449 10.7876C12.1583 12.999 12.1486 12.9117 12.4146 13.2066C12.5016 13.3031 13.8074 14.1211 15.5674 15.1815C15.8134 15.3298 15.8979 15.3595 16.074 15.3595C16.4244 15.3595 16.6935 15.1519 16.7955 14.8032C16.8533 14.6055 16.7974 14.327 16.6644 14.1503C16.6195 14.0906 15.9238 13.6397 15.1183 13.1483L13.6539 12.2548L13.6337 10.433C13.6136 8.62552 13.6128 8.61002 13.5203 8.44478C13.4691 8.35317 13.3632 8.23337 13.2851 8.17852C13.1135 8.05801 12.7813 8.02328 12.6021 8.1071Z" fill="black"/>
</svg>
