<svg width="150" height="80" viewBox="0 0 150 80" fill="none" xmlns="http://www.w3.org/2000/svg">
<mask id="mask0_90_693" style="mask-type:alpha" maskUnits="userSpaceOnUse" x="0" y="0" width="150" height="80">
<rect width="150" height="80" rx="20" fill="#C4C4C4"/>
</mask>
<g mask="url(#mask0_90_693)">
<path d="M0.194799 94.7329L0.67983 13.2917C0.792626 -5.64783 16.2363 -20.9086 35.1758 -20.7958L116.617 -20.3108C135.556 -20.198 150.817 -4.75434 150.704 14.1851L150.219 95.6276C150.107 114.566 134.663 129.827 115.723 129.714L34.281 129.229C15.3428 129.116 0.0820023 113.672 0.194799 94.7329Z" fill="url(#paint0_linear_90_693)"/>
</g>
<path d="M34.5256 48H30.571L36.5966 30.5455H41.3523L47.3693 48H43.4148L39.0426 34.5341H38.9062L34.5256 48ZM34.2784 41.1392H43.6193V44.0199H34.2784V41.1392ZM53.0327 40.4318V48H49.402V34.9091H52.8622V37.2188H53.0156C53.3054 36.4574 53.7912 35.8551 54.473 35.4119C55.1548 34.9631 55.9815 34.7386 56.9531 34.7386C57.8622 34.7386 58.6548 34.9375 59.331 35.3352C60.0071 35.733 60.5327 36.3011 60.9077 37.0398C61.2827 37.7727 61.4702 38.6477 61.4702 39.6648V48H57.8395V40.3125C57.8452 39.5114 57.6406 38.8864 57.2259 38.4375C56.8111 37.983 56.2401 37.7557 55.5128 37.7557C55.0241 37.7557 54.5923 37.8608 54.2173 38.071C53.848 38.2812 53.5582 38.5881 53.348 38.9915C53.1435 39.3892 53.0384 39.8693 53.0327 40.4318ZM75.2237 38.642L71.8999 38.8466C71.843 38.5625 71.7209 38.3068 71.5334 38.0795C71.3459 37.8466 71.0987 37.6619 70.7919 37.5256C70.4908 37.3835 70.13 37.3125 69.7095 37.3125C69.147 37.3125 68.6726 37.4318 68.2862 37.6705C67.8999 37.9034 67.7067 38.2159 67.7067 38.608C67.7067 38.9205 67.8317 39.1847 68.0817 39.4006C68.3317 39.6165 68.7607 39.7898 69.3686 39.9205L71.7379 40.3977C73.0107 40.6591 73.9595 41.0795 74.5845 41.6591C75.2095 42.2386 75.522 43 75.522 43.9432C75.522 44.8011 75.2692 45.554 74.7635 46.2017C74.2635 46.8494 73.576 47.3551 72.701 47.7188C71.8317 48.0767 70.8288 48.2557 69.6925 48.2557C67.9595 48.2557 66.5788 47.8949 65.5504 47.1733C64.5277 46.446 63.9283 45.4574 63.7521 44.2074L67.3232 44.0199C67.4311 44.5483 67.6925 44.9517 68.1072 45.2301C68.522 45.5028 69.0533 45.6392 69.701 45.6392C70.3374 45.6392 70.8487 45.517 71.2351 45.2727C71.6271 45.0227 71.826 44.7017 71.8317 44.3097C71.826 43.9801 71.6868 43.7102 71.4141 43.5C71.1413 43.2841 70.7209 43.1193 70.1527 43.0057L67.8857 42.554C66.6072 42.2983 65.6555 41.8551 65.0305 41.2244C64.4112 40.5937 64.1016 39.7898 64.1016 38.8125C64.1016 37.9716 64.3288 37.2472 64.7834 36.6392C65.2436 36.0312 65.8885 35.5625 66.718 35.233C67.5533 34.9034 68.5305 34.7386 69.6499 34.7386C71.3033 34.7386 72.6044 35.0881 73.5533 35.7869C74.5078 36.4858 75.0646 37.4375 75.2237 38.642ZM80.3906 48L76.8281 34.9091H80.5014L82.5298 43.7045H82.6491L84.7628 34.9091H88.3679L90.5156 43.6534H90.6264L92.6207 34.9091H96.2855L92.7315 48H88.8878L86.6378 39.767H86.4759L84.2259 48H80.3906ZM103.86 48.2557C102.513 48.2557 101.354 47.983 100.383 47.4375C99.4169 46.8864 98.6726 46.108 98.1499 45.1023C97.6271 44.0909 97.3658 42.8949 97.3658 41.5142C97.3658 40.1676 97.6271 38.9858 98.1499 37.9688C98.6726 36.9517 99.4084 36.1591 100.357 35.5909C101.312 35.0227 102.431 34.7386 103.715 34.7386C104.579 34.7386 105.383 34.8778 106.127 35.1562C106.877 35.429 107.531 35.8409 108.087 36.392C108.65 36.9432 109.087 37.6364 109.4 38.4716C109.712 39.3011 109.869 40.2727 109.869 41.3864V42.3835H98.8146V40.1335H106.451C106.451 39.6108 106.337 39.1477 106.11 38.7443C105.883 38.3409 105.567 38.0256 105.164 37.7983C104.766 37.5653 104.303 37.4489 103.775 37.4489C103.224 37.4489 102.735 37.5767 102.309 37.8324C101.888 38.0824 101.559 38.4205 101.32 38.8466C101.082 39.267 100.96 39.7358 100.954 40.2528V42.392C100.954 43.0398 101.073 43.5994 101.312 44.071C101.556 44.5426 101.9 44.9062 102.343 45.1619C102.786 45.4176 103.312 45.5455 103.92 45.5455C104.323 45.5455 104.692 45.4886 105.028 45.375C105.363 45.2614 105.65 45.0909 105.888 44.8636C106.127 44.6364 106.309 44.358 106.434 44.0284L109.792 44.25C109.621 45.0568 109.272 45.7614 108.744 46.3636C108.221 46.9602 107.545 47.4261 106.715 47.7614C105.891 48.0909 104.94 48.2557 103.86 48.2557ZM112.238 48V34.9091H115.758V37.1932H115.894C116.133 36.3807 116.533 35.767 117.096 35.3523C117.658 34.9318 118.306 34.7216 119.039 34.7216C119.221 34.7216 119.417 34.733 119.627 34.7557C119.837 34.7784 120.022 34.8097 120.181 34.8494V38.071C120.011 38.0199 119.775 37.9744 119.474 37.9347C119.173 37.8949 118.897 37.875 118.647 37.875C118.113 37.875 117.636 37.9915 117.215 38.2244C116.8 38.4517 116.471 38.7699 116.227 39.179C115.988 39.5881 115.869 40.0597 115.869 40.5938V48H112.238Z" fill="white"/>
<defs>
<linearGradient id="paint0_linear_90_693" x1="75.8964" y1="-20.5533" x2="75.0029" y2="129.471" gradientUnits="userSpaceOnUse">
<stop stop-color="#FF8E61"/>
<stop offset="1" stop-color="#DA4200"/>
</linearGradient>
</defs>
</svg>
