<svg width="209" height="51" viewBox="0 0 209 51" fill="none" xmlns="http://www.w3.org/2000/svg">
<path d="M134.555 50.0776H125.216V21.0021H115.061V13.4983H144.71V21.0021H134.555V50.0776Z" fill="#EB6123"/>
<path d="M160.887 41.3564H169.052C168.61 44.2116 167.198 46.4886 164.816 48.1874C162.434 49.8863 159.433 50.7357 155.81 50.7357C151.387 50.7357 147.925 49.4637 145.425 46.9196C142.925 44.3756 141.675 40.875 141.675 36.4134C141.675 31.9519 142.921 28.4029 145.413 25.7664C147.904 23.1299 151.269 21.8116 155.505 21.8116C159.69 21.8116 163.019 23.071 165.493 25.5877C167.968 28.1065 169.205 31.4768 169.205 35.7028V38.2384H150.452V38.7956C150.452 40.4524 150.957 41.7958 151.969 42.8261C152.982 43.8563 154.303 44.3735 155.938 44.3735C157.146 44.3735 158.192 44.1023 159.076 43.5619C159.959 43.0216 160.563 42.2878 160.887 41.3564ZM155.656 28.2011C154.278 28.2011 153.116 28.6615 152.174 29.5824C151.229 30.5033 150.698 31.6828 150.579 33.1188H160.683C160.597 31.6492 160.096 30.4613 159.179 29.5572C158.259 28.6531 157.085 28.2011 155.656 28.2011Z" fill="#EB6123"/>
<path d="M180.993 50.4834C178.374 50.4834 176.162 49.697 174.359 48.1265C172.555 46.5538 171.655 44.5438 171.655 42.0923C171.655 39.523 172.616 37.5215 174.538 36.0855C176.459 34.6495 179.232 33.8211 182.856 33.6003L189.362 33.2198V31.6492C189.362 30.5685 189.004 29.7275 188.291 29.1262C187.576 28.527 186.616 28.2263 185.408 28.2263C184.217 28.2263 183.243 28.5017 182.487 29.0505C181.73 29.5992 181.284 30.3141 181.147 31.1929H173.008C173.145 28.3377 174.361 26.0607 176.657 24.3619C178.952 22.6631 182.022 21.8137 185.867 21.8137C189.575 21.8137 192.561 22.6715 194.823 24.3871C197.085 26.1028 198.217 28.3546 198.217 31.1425V50.0776H189.415V46.148H189.236C188.504 47.4999 187.382 48.5596 185.867 49.3291C184.352 50.0986 182.727 50.4834 180.993 50.4834ZM184.209 44.2978C185.621 44.2978 186.833 43.9089 187.845 43.1309C188.857 42.353 189.362 41.3648 189.362 40.1643V38.2658L184.31 38.5958C183.136 38.6799 182.227 38.9806 181.581 39.4957C180.935 40.0108 180.611 40.6752 180.611 41.4847C180.611 42.3467 180.939 43.03 181.593 43.5388C182.248 44.0434 183.119 44.2978 184.209 44.2978Z" fill="#EB6123"/>
<path d="M26.2548 50.0777L23.9338 42.0419H11.8891L9.5407 50.0777H0L12.3751 13.4984H23.8307L36.2058 50.0777H26.2548ZM17.8104 21.2566L13.7029 35.3517H22.0968L18.0145 21.2566H17.8104Z" fill="#452E7E"/>
<path d="M56.9749 50.4834C54.9506 50.4834 53.202 50.0314 51.7311 49.1273C50.2602 48.2232 49.166 46.9596 48.4527 45.3386H48.2738V50.0798H39.2676V13.4984H48.3264V27.3643H48.5053C49.2186 25.6908 50.3044 24.3893 51.7584 23.46C53.2125 22.5307 54.9254 22.066 56.8991 22.066C60.4027 22.066 63.1256 23.3086 65.0637 25.7917C67.0017 28.2768 67.9717 31.7733 67.9717 36.2874C67.9717 40.7825 67.0101 44.2727 65.0889 46.7557C63.1656 49.2409 60.4617 50.4834 56.9749 50.4834ZM53.505 29.0884C51.9394 29.0884 50.6811 29.7444 49.7278 31.0521C48.7746 32.362 48.2906 34.1071 48.2738 36.2874C48.2906 38.4845 48.7704 40.2295 49.7152 41.5226C50.66 42.8156 51.9226 43.4611 53.505 43.4611C55.1042 43.4611 56.3752 42.8156 57.32 41.5226C58.2648 40.2295 58.7362 38.4845 58.7362 36.2874C58.7362 34.0902 58.2648 32.341 57.32 31.0395C56.3752 29.7402 55.1042 29.0884 53.505 29.0884Z" fill="#452E7E"/>
<path d="M79.3768 18.9732C78.493 19.8184 77.3946 20.241 76.0857 20.241C74.7748 20.241 73.6743 19.8184 72.7821 18.9732C71.8899 18.128 71.4417 17.081 71.4417 15.83C71.4417 14.5958 71.8878 13.5572 72.7821 12.712C73.6743 11.8668 74.7769 11.4442 76.0857 11.4442C77.3946 11.4442 78.493 11.8626 79.3768 12.6994C80.2606 13.5362 80.7046 14.579 80.7046 15.83C80.7046 17.081 80.2627 18.1301 79.3768 18.9732ZM71.57 50.0776V22.4718H80.6015V50.0776H71.57Z" fill="#452E7E"/>
<path d="M85.1698 50.0777V13.4984H94.2286V50.0777H85.1698Z" fill="#452E7E"/>
<path d="M106.602 18.9732C105.718 19.8184 104.619 20.241 103.311 20.241C102 20.241 100.899 19.8184 100.007 18.9732C99.1147 18.128 98.6665 17.081 98.6665 15.83C98.6665 14.5958 99.1126 13.5572 100.007 12.712C100.899 11.8668 102.002 11.4442 103.311 11.4442C104.619 11.4442 105.718 11.8626 106.602 12.6994C107.485 13.5362 107.929 14.579 107.929 15.83C107.929 17.081 107.485 18.1301 106.602 18.9732ZM98.7949 50.0776V22.4718H107.826V50.0776H98.7949Z" fill="#452E7E"/>
<path d="M189.318 16.0613C184.625 9.83998 185.145 3.26336 188.209 1.04102C190.471 -0.598931 194.669 -0.262531 196.113 1.77689C197.966 4.39871 195.551 10.231 189.318 16.0613Z" fill="#EB6123"/>
<path d="M193.983 18.3446C195.092 10.6474 200.142 6.36246 203.89 6.94485C206.657 7.37376 209.386 10.5612 208.955 13.0169C208.399 16.1727 202.541 18.6011 193.983 18.3446Z" fill="#EB6123"/>
</svg>
