<svg width="24" height="24" viewBox="0 0 24 24" fill="none" xmlns="http://www.w3.org/2000/svg">
<path fill-rule="evenodd" clip-rule="evenodd" d="M11.6568 2.0229C11.5318 2.04578 11.321 2.12142 11.1882 2.19097C11.0443 2.26637 8.75415 4.23308 5.5115 7.06605C-0.214272 12.0685 -0.056263 11.9195 0.0211952 12.2426C0.0363776 12.3061 0.292416 12.6601 0.590112 13.0293C1.04169 13.5891 1.15781 13.7056 1.29056 13.7317C1.37814 13.7489 1.49314 13.7485 1.54613 13.7309C1.59913 13.7133 3.96791 11.6684 6.8101 9.1866C9.65235 6.70483 11.9883 4.67431 12.0012 4.67431C12.0141 4.67431 14.3501 6.70483 17.1923 9.1866C20.0345 11.6684 22.4033 13.7133 22.4563 13.7309C22.5093 13.7485 22.6243 13.7489 22.7119 13.7317C22.8446 13.7056 22.9607 13.5891 23.4123 13.0293C23.71 12.6601 23.966 12.3061 23.9812 12.2426C24.0539 11.9395 23.998 11.8784 22.2624 10.3648L20.5999 8.91476L20.5764 5.6168L20.553 2.31884L20.4232 2.18277L20.2933 2.04671L18.7831 2.0311C17.7997 2.02094 17.2134 2.03395 17.1023 2.06826C16.785 2.16643 16.7836 2.17453 16.7698 3.96281L16.7574 5.56531L14.847 3.89508C12.7981 2.10384 12.7371 2.06085 12.1652 2.00754C12.0106 1.99311 11.7818 2.00003 11.6568 2.0229ZM7.70099 9.73783L3.42598 13.4291L3.42626 17.2605C3.4264 19.892 3.44262 21.1534 3.478 21.2883C3.54889 21.5586 3.86501 21.87 4.14288 21.9433C4.29372 21.9831 5.2108 22 7.2189 22H10.08V19.0058V16.0116H12.0012H13.9224V19.0058V22H16.7835C18.6904 22 19.7122 21.9822 19.8471 21.9466C20.108 21.8778 20.3779 21.6432 20.4877 21.3899C20.5696 21.201 20.5744 20.9783 20.5754 17.3095L20.5764 13.429L16.3183 9.75246C13.9764 7.73038 12.0413 6.06937 12.0181 6.06127C11.9949 6.05317 10.0522 7.7076 7.70099 9.73783Z" fill="black"/>
</svg>
