<svg width="178" height="178" viewBox="0 0 178 178" fill="none" xmlns="http://www.w3.org/2000/svg">
<path d="M27.9277 34.6759C17.109 42.7836 5.67552 41.8867 1.81061 36.5907C-1.04146 32.6804 -0.456937 25.4293 3.09052 22.94C7.65081 19.7352 17.7893 23.9075 27.9277 34.6759Z" fill="url(#paint0_linear_338_928)"/>
<path d="M20.072 18.9643C10.2863 17.5634 4.83911 11.1891 5.57984 6.45246C6.12406 2.95539 10.1754 -0.491278 13.2996 0.0579728C17.3106 0.753354 20.3995 8.15564 20.072 18.9643Z" fill="url(#paint1_linear_338_928)"/>
<path d="M173.232 129.253C173.66 127.726 173.771 126.184 173.535 124.642L164.807 123.821C164.772 123.796 164.736 123.77 164.701 123.745L164.898 123.68C164.832 123.634 164.767 123.584 164.701 123.539L164.898 123.473C164.832 123.428 164.767 123.377 164.701 123.332L164.898 123.266C164.832 123.221 164.767 123.171 164.701 123.125L164.898 123.06C164.832 123.014 164.767 122.964 164.701 122.919L164.898 122.853C164.832 122.808 164.767 122.757 164.701 122.712L164.898 122.647C164.832 122.601 164.767 122.551 164.701 122.506L164.898 122.44C164.832 122.395 164.767 122.344 164.701 122.299L164.898 122.233C164.832 122.188 164.767 122.138 164.701 122.092L164.898 122.027C164.832 121.982 164.767 121.931 164.701 121.886L164.898 121.82C164.832 121.775 164.767 121.725 164.701 121.679L164.898 121.614C164.832 121.568 164.767 121.518 164.701 121.473L164.898 121.407C164.832 121.362 164.767 121.311 164.701 121.266L164.898 121.2C164.832 121.155 164.767 121.105 164.701 121.059L164.898 120.994C164.832 120.948 164.767 120.898 164.701 120.853L164.898 120.787C164.832 120.742 164.767 120.692 164.701 120.646L164.898 120.581C164.832 120.535 164.767 120.485 164.701 120.44L164.898 120.374C164.832 120.329 164.767 120.278 164.701 120.233L164.898 120.167C164.832 120.122 164.767 120.072 164.701 120.026L164.898 119.961C164.832 119.916 164.767 119.865 164.701 119.82L164.898 119.754C164.832 119.709 164.767 119.659 164.701 119.613L164.898 119.548C164.832 119.502 164.767 119.452 164.701 119.407L164.898 119.341C164.832 119.296 164.767 119.245 164.701 119.2L164.898 119.134C164.832 119.089 164.767 119.039 164.701 118.993L164.898 118.928C164.832 118.883 164.767 118.832 164.701 118.787L164.898 118.721C164.832 118.676 164.767 118.626 164.701 118.58L164.898 118.515C164.832 118.469 164.767 118.419 164.701 118.374L164.898 118.308C164.832 118.263 164.767 118.212 164.701 118.167L164.898 118.101C164.832 118.056 164.767 118.006 164.701 117.96L164.898 117.895C164.832 117.85 164.767 117.799 164.701 117.754L164.898 117.688C164.832 117.643 164.767 117.593 164.701 117.547L164.898 117.482C164.832 117.436 164.767 117.386 164.701 117.341L164.898 117.275C164.832 117.23 164.767 117.179 164.701 117.134L164.898 117.068C164.832 117.023 164.767 116.973 164.701 116.927L164.898 116.862C164.832 116.817 164.767 116.766 164.701 116.721L164.898 116.655C164.832 116.61 164.767 116.56 164.701 116.514L164.898 116.449C164.832 116.403 164.767 116.353 164.701 116.308L164.898 116.242C164.832 116.197 164.767 116.146 164.701 116.101L164.898 116.035C164.832 115.99 164.767 115.94 164.701 115.894L164.898 115.829C164.832 115.784 164.767 115.733 164.701 115.688L164.898 115.622C164.832 115.577 164.767 115.527 164.701 115.481L164.898 115.416C164.832 115.37 164.767 115.32 164.701 115.275L164.898 115.209C164.832 115.164 164.767 115.113 164.701 115.068L164.898 115.002C164.832 114.957 164.767 114.907 164.701 114.861L164.898 114.796C164.832 114.751 164.767 114.7 164.701 114.655L164.898 114.589C164.832 114.544 164.767 114.494 164.701 114.448L164.898 114.383C164.832 114.337 164.767 114.287 164.701 114.242L164.898 114.176C164.832 114.131 164.767 114.08 164.701 114.035L164.898 113.969C164.832 113.924 164.767 113.874 164.701 113.828L164.898 113.763C164.832 113.718 164.767 113.667 164.701 113.622L164.898 113.556C164.878 113.541 164.857 113.526 164.837 113.511L165.321 113.345C163.895 112.292 162.313 111.259 160.524 110.256C158.806 109.278 156.921 108.351 154.936 107.479L139.345 109.676L129.045 106.613L129.126 106.456C129.096 106.451 129.06 106.446 129.03 106.436L129.126 106.245C129.096 106.24 129.06 106.235 129.03 106.225L129.126 106.033C129.096 106.028 129.06 106.023 129.03 106.013L129.126 105.821C129.096 105.816 129.06 105.811 129.03 105.801L129.126 105.61C129.096 105.605 129.06 105.6 129.03 105.59L129.126 105.398C129.096 105.393 129.06 105.388 129.03 105.378L129.126 105.187C129.096 105.181 129.06 105.176 129.03 105.166L129.126 104.975C129.096 104.97 129.06 104.965 129.03 104.955L129.126 104.763C129.096 104.758 129.06 104.753 129.03 104.743L129.126 104.552C129.096 104.547 129.06 104.542 129.03 104.531L129.126 104.34C129.096 104.335 129.06 104.33 129.03 104.32L129.126 104.128C129.096 104.123 129.06 104.118 129.03 104.108L129.126 103.917C129.096 103.912 129.06 103.907 129.03 103.897L129.126 103.705C129.096 103.7 129.06 103.695 129.03 103.685L129.126 103.493C129.096 103.488 129.06 103.483 129.03 103.473L129.126 103.282C129.096 103.277 129.06 103.272 129.03 103.262L129.126 103.07C129.096 103.065 129.06 103.06 129.03 103.05L129.126 102.859C129.096 102.853 129.06 102.848 129.03 102.838L129.126 102.647C129.096 102.642 129.06 102.637 129.03 102.627L129.126 102.435C129.096 102.43 129.06 102.425 129.03 102.415L129.126 102.224C129.096 102.219 129.06 102.214 129.03 102.203L129.126 102.012C129.096 102.007 129.06 102.002 129.03 101.992L129.126 101.8C129.096 101.795 129.06 101.79 129.03 101.78L129.126 101.589C129.096 101.584 129.06 101.579 129.03 101.569L129.126 101.377C129.096 101.372 129.06 101.367 129.03 101.357L129.126 101.165C129.096 101.16 129.06 101.155 129.03 101.145L129.126 100.954C129.096 100.949 129.06 100.944 129.03 100.934L129.126 100.742L129.549 99.9006C123.84 98.7971 117.813 97.9455 111.605 97.3458L111.222 97.5625C111.207 97.5625 111.192 97.5575 111.177 97.5575L102.53 102.44L86.0072 102.082L78.7409 96.6303C72.6186 96.9377 66.5264 97.4869 60.6006 98.3033L60.6257 98.4544C60.4796 98.4746 60.3284 98.4947 60.1773 98.5149L60.2075 98.7215C60.1974 98.7215 60.1874 98.7265 60.1773 98.7265L60.2075 98.9331C60.1974 98.9331 60.1874 98.9382 60.1773 98.9382L60.2075 99.1448C60.1974 99.1448 60.1874 99.1498 60.1773 99.1498L60.2075 99.3564C60.1974 99.3564 60.1874 99.3614 60.1773 99.3614L60.2075 99.568C60.1974 99.568 60.1874 99.5731 60.1773 99.5731L60.2075 99.7797C60.1974 99.7797 60.1874 99.7847 60.1773 99.7847L60.2075 99.9913C60.1974 99.9913 60.1874 99.9964 60.1773 99.9964L60.2075 100.203C60.1974 100.203 60.1874 100.208 60.1773 100.208L60.2075 100.415C60.1974 100.415 60.1874 100.42 60.1773 100.42L60.2075 100.626C60.1974 100.626 60.1874 100.631 60.1773 100.631L60.2075 100.838C60.1974 100.838 60.1874 100.843 60.1773 100.843L60.2075 101.05C60.1974 101.05 60.1874 101.055 60.1773 101.055L60.2075 101.261C60.1974 101.261 60.1874 101.266 60.1773 101.266L60.2075 101.473C60.1974 101.473 60.1874 101.478 60.1773 101.478L60.2075 101.684C60.1974 101.684 60.1874 101.689 60.1773 101.689L60.2075 101.896C60.1974 101.896 60.1874 101.901 60.1773 101.901L60.2075 102.108C60.1974 102.108 60.1874 102.113 60.1773 102.113L60.2075 102.319C60.1974 102.319 60.1874 102.324 60.1773 102.324L60.2075 102.531C60.1974 102.531 60.1874 102.536 60.1773 102.536L60.2075 102.743C60.1974 102.743 60.1874 102.748 60.1773 102.748L60.2075 102.954C60.1974 102.954 60.1874 102.959 60.1773 102.959L60.2075 103.166C60.1974 103.166 60.1874 103.171 60.1773 103.171L60.2075 103.378C60.1974 103.378 60.1874 103.383 60.1773 103.383L60.2075 103.589C60.1974 103.589 60.1874 103.594 60.1773 103.594L60.2075 103.801C60.1974 103.801 60.1874 103.806 60.1773 103.806L60.2075 104.012C60.1974 104.012 60.1874 104.017 60.1773 104.017L60.2075 104.224C60.1974 104.224 60.1874 104.229 60.1773 104.229L60.2075 104.436C60.1974 104.436 60.1874 104.441 60.1773 104.441L60.2075 104.647C60.1974 104.647 60.1874 104.652 60.1773 104.652L60.1823 104.678L47.4488 107.56L32.7299 104.652C31.7926 104.975 30.8906 105.302 30.0038 105.635C28.1393 106.26 26.3152 107.056 24.8287 107.777C23.9822 108.16 23.1709 108.553 22.3798 108.951C21.5383 109.364 20.727 109.787 19.956 110.215L20.1727 110.311C20.1021 110.352 20.0266 110.387 19.956 110.427L20.1727 110.523C20.1021 110.563 20.0266 110.598 19.956 110.639L20.1727 110.734C20.1021 110.775 20.0266 110.81 19.956 110.85L20.1727 110.946C20.1021 110.986 20.0266 111.022 19.956 111.062L20.1727 111.158C20.1021 111.198 20.0266 111.233 19.956 111.274L20.1727 111.369C20.1021 111.41 20.0266 111.445 19.956 111.485L20.1727 111.581C20.1021 111.621 20.0266 111.657 19.956 111.697L20.1727 111.793C20.1021 111.833 20.0266 111.868 19.956 111.909L20.1727 112.004C20.1021 112.045 20.0266 112.08 19.956 112.12L20.1727 112.216C20.1021 112.256 20.0266 112.292 19.956 112.332L20.1727 112.428C20.1021 112.468 20.0266 112.503 19.956 112.543L20.1727 112.639C20.1021 112.68 20.0266 112.715 19.956 112.755L20.1727 112.851C20.1021 112.891 20.0266 112.926 19.956 112.967L20.1727 113.062C20.1021 113.103 20.0266 113.138 19.956 113.178L20.1727 113.274C20.1021 113.314 20.0266 113.35 19.956 113.39L20.1727 113.486C20.1021 113.526 20.0266 113.561 19.956 113.602L20.1727 113.697C20.1021 113.738 20.0266 113.773 19.956 113.813L20.1727 113.909C20.1021 113.949 20.0266 113.985 19.956 114.025L20.1727 114.121C20.1021 114.161 20.0266 114.196 19.956 114.237L20.1727 114.332C20.1021 114.373 20.0266 114.408 19.956 114.448L20.1727 114.544C20.1021 114.584 20.0266 114.62 19.956 114.66L20.1727 114.756C20.1021 114.796 20.0266 114.831 19.956 114.871L20.1727 114.967C20.1021 115.008 20.0266 115.043 19.956 115.083L20.1727 115.179C20.1021 115.219 20.0266 115.254 19.956 115.295L20.1727 115.39C20.1021 115.431 20.0266 115.466 19.956 115.506L20.1727 115.602C20.1021 115.642 20.0266 115.678 19.956 115.718L20.1727 115.814C20.1021 115.854 20.0266 115.889 19.956 115.93L20.1727 116.025C20.1021 116.066 20.0266 116.101 19.956 116.141L20.1727 116.237C20.1021 116.277 20.0266 116.313 19.956 116.353L20.1727 116.449C20.1021 116.489 20.0266 116.524 19.956 116.565L20.1727 116.66C20.1021 116.701 20.0266 116.736 19.956 116.776L20.1727 116.872C20.1021 116.912 20.0266 116.948 19.956 116.988L20.1727 117.084C20.1021 117.124 20.0266 117.159 19.956 117.199L20.1727 117.295C20.1021 117.336 20.0266 117.371 19.956 117.411L20.1727 117.507C20.1021 117.547 20.0266 117.582 19.956 117.623L20.1727 117.719C20.1021 117.759 20.0266 117.794 19.956 117.834L20.1727 117.93C20.1021 117.97 20.0266 118.006 19.956 118.046L20.1727 118.142C20.1021 118.182 20.0266 118.217 19.956 118.258L20.1727 118.353C20.1021 118.394 20.0266 118.429 19.956 118.469L20.1727 118.565C20.1021 118.605 20.0266 118.641 19.956 118.681L20.1727 118.777C20.1021 118.817 20.0266 118.852 19.956 118.893L20.1727 118.988C20.1021 119.029 20.0266 119.064 19.956 119.104L20.1727 119.2C20.1021 119.24 20.0266 119.276 19.956 119.316L20.1727 119.412C20.1021 119.452 20.0266 119.487 19.956 119.528L20.1727 119.623C20.1021 119.664 20.0266 119.699 19.956 119.739L20.1727 119.835C20.1021 119.875 20.0266 119.91 19.956 119.951L20.1727 120.047C20.1021 120.087 20.0266 120.122 19.956 120.162L20.1727 120.258C20.1021 120.298 20.0266 120.334 19.956 120.374L20.1727 120.47C20.1374 120.49 20.0971 120.51 20.0618 120.53L8.18492 121.09C8.14965 121.155 8.11941 121.221 8.08918 121.286L7.76164 121.301C6.82439 123.151 6.35576 125.035 6.39607 126.93C6.39607 127 6.39607 127.071 6.39607 127.141C6.39607 127.212 6.39607 127.283 6.39607 127.353C6.39607 127.424 6.39607 127.494 6.39607 127.565C6.39607 127.635 6.39607 127.706 6.39607 127.776C6.39607 127.847 6.39607 127.917 6.39607 127.988C6.39607 128.059 6.39607 128.129 6.39607 128.2C6.39607 128.27 6.39607 128.341 6.39607 128.411C6.39607 128.482 6.39607 128.552 6.39607 128.623C6.39607 128.693 6.39607 128.764 6.39607 128.835C6.39607 128.905 6.39607 128.976 6.39607 129.046C6.39607 129.117 6.39607 129.187 6.39607 129.258C6.39607 129.328 6.39607 129.399 6.39607 129.469C6.39607 129.54 6.39607 129.611 6.39607 129.681C6.39607 129.752 6.39607 129.822 6.39607 129.893C6.39607 129.963 6.39607 130.034 6.39607 130.104C6.39607 130.175 6.39607 130.245 6.39607 130.316C6.39607 130.387 6.39607 130.457 6.39607 130.528C6.39607 130.598 6.39607 130.669 6.39607 130.739C6.39607 130.81 6.39607 130.88 6.39607 130.951C6.39607 131.021 6.39607 131.092 6.39607 131.163C6.39607 131.233 6.39607 131.304 6.39607 131.374C6.39607 131.445 6.39607 131.515 6.39607 131.586C6.39607 131.656 6.39607 131.727 6.39607 131.797C6.39607 131.868 6.39607 131.939 6.39607 132.009C6.39607 132.08 6.39607 132.15 6.39607 132.221C6.39607 132.291 6.39607 132.362 6.39607 132.432C6.39607 132.503 6.39607 132.573 6.39607 132.644C6.39607 132.715 6.39607 132.785 6.39607 132.856C6.39607 132.926 6.39607 132.997 6.39607 133.067C6.39607 133.138 6.39607 133.208 6.39607 133.279C6.39607 133.349 6.39607 133.42 6.39607 133.491C6.39607 133.561 6.39607 133.632 6.39607 133.702C6.39607 133.773 6.39607 133.843 6.39607 133.914C6.39607 133.984 6.39607 134.055 6.39607 134.125C6.39607 134.196 6.39607 134.267 6.39607 134.337C6.39607 134.408 6.39607 134.478 6.39607 134.549C6.39607 134.619 6.39607 134.69 6.39607 134.76C6.39607 134.831 6.39607 134.901 6.39607 134.972C6.39607 135.043 6.39607 135.113 6.39607 135.184C6.39607 135.254 6.39607 135.325 6.39607 135.395C6.39607 135.466 6.39607 135.536 6.39607 135.607C6.39607 135.677 6.39607 135.748 6.39607 135.819C6.39607 135.889 6.39607 135.96 6.39607 136.03C6.39607 136.101 6.39607 136.171 6.39607 136.242C6.39607 136.312 6.39607 136.383 6.39607 136.453C6.39607 136.524 6.39607 136.595 6.39607 136.665C6.39607 136.736 6.39607 136.806 6.39607 136.877C6.39607 136.947 6.39607 137.018 6.39607 137.088C6.39607 137.159 6.39607 137.23 6.39607 137.3C6.39607 137.371 6.39607 137.441 6.39607 137.512C6.39607 137.582 6.39607 137.653 6.39607 137.723C6.39607 137.794 6.39607 137.864 6.39607 137.935C6.39607 138.006 6.39607 138.076 6.39607 138.147C6.39607 138.217 6.39607 138.288 6.39607 138.358C6.39607 138.429 6.39607 138.499 6.39607 138.57C6.39607 138.64 6.39607 138.711 6.39607 138.782C6.39607 138.852 6.39607 138.923 6.39607 138.993C6.39607 139.064 6.39607 139.134 6.39607 139.205C6.39607 139.275 6.39607 139.346 6.39607 139.416C6.39607 139.487 6.39607 139.558 6.39607 139.628C6.39607 139.699 6.39607 139.769 6.39607 139.84C6.39607 139.91 6.39607 139.981 6.39607 140.051C6.39607 140.122 6.39607 140.192 6.39607 140.263C6.39607 140.334 6.39607 140.404 6.39607 140.475C6.39607 140.545 6.39607 140.616 6.39607 140.686C6.39607 140.757 6.39607 140.827 6.39607 140.898C6.39607 140.968 6.39607 141.039 6.39607 141.11C6.39607 141.18 6.39607 141.251 6.39607 141.321C6.39607 141.392 6.39607 141.462 6.39607 141.533C6.39607 141.603 6.39607 141.674 6.39607 141.744C6.39607 141.815 6.39607 141.886 6.39607 141.956C6.39607 142.027 6.39607 142.097 6.39607 142.168C6.39607 142.238 6.39607 142.309 6.39607 142.379C6.39607 142.45 6.39607 142.52 6.39607 142.591C6.39607 142.662 6.39607 142.732 6.39607 142.803C6.39607 142.873 6.39607 142.944 6.39607 143.014C6.39607 143.085 6.39607 143.155 6.39607 143.226C6.39607 143.296 6.39607 143.367 6.39607 143.438C6.39607 143.508 6.39607 143.579 6.39607 143.649C6.39607 143.72 6.39607 143.79 6.39607 143.861C6.39607 143.931 6.39607 144.002 6.39607 144.072C6.39607 144.143 6.39607 144.214 6.39607 144.284C6.39607 144.355 6.39607 144.425 6.39607 144.496C6.39607 144.566 6.39607 144.637 6.39607 144.707C6.39607 144.778 6.39607 144.848 6.39607 144.919C6.39607 144.99 6.39607 145.06 6.39607 145.131C6.39607 145.201 6.39607 145.272 6.39607 145.342C6.39607 145.413 6.39607 145.483 6.39607 145.554C6.39607 145.624 6.39607 145.695 6.39607 145.766C6.39607 145.836 6.39607 145.907 6.39607 145.977C6.39607 146.048 6.39607 146.118 6.39607 146.189C6.39607 146.259 6.39607 146.33 6.39607 146.4C6.39607 146.471 6.39607 146.542 6.39607 146.612C6.39607 146.683 6.39607 146.753 6.39607 146.824C6.39607 146.894 6.39607 146.965 6.39607 147.035C6.39607 147.106 6.39607 147.176 6.39607 147.247C6.39607 147.318 6.39607 147.388 6.39607 147.459C6.39607 147.529 6.39607 147.6 6.39607 147.67C6.39607 147.741 6.39607 147.811 6.39607 147.882C6.39607 147.952 6.39607 148.023 6.39607 148.094C6.39607 148.603 6.43135 149.111 6.50189 149.615L14.6197 150.391C14.6802 150.437 14.7407 150.477 14.7961 150.522L14.5996 150.588C14.6651 150.638 14.7306 150.684 14.7961 150.734L14.5996 150.8C14.6651 150.85 14.7306 150.895 14.7961 150.946L14.5996 151.011C14.6651 151.062 14.7306 151.107 14.7961 151.157L14.5996 151.223C14.6651 151.273 14.7306 151.319 14.7961 151.369L14.5996 151.434C14.6651 151.485 14.7306 151.53 14.7961 151.581L14.5996 151.646C14.6651 151.696 14.7306 151.742 14.7961 151.792L14.5996 151.858C14.6651 151.908 14.7306 151.953 14.7961 152.004L14.5996 152.069C14.6651 152.12 14.7306 152.165 14.7961 152.215L14.5996 152.281C14.6651 152.331 14.7306 152.377 14.7961 152.427L14.5996 152.493C14.6651 152.543 14.7306 152.588 14.7961 152.639L14.5996 152.704C14.6651 152.755 14.7306 152.8 14.7961 152.85L14.5996 152.916C14.6651 152.966 14.7306 153.012 14.7961 153.062L14.5996 153.128C14.6651 153.178 14.7306 153.223 14.7961 153.274L14.5996 153.339C14.6651 153.39 14.7306 153.435 14.7961 153.485L14.5996 153.551C14.6651 153.601 14.7306 153.647 14.7961 153.697L14.5996 153.762C14.6651 153.813 14.7306 153.858 14.7961 153.909L14.5996 153.974C14.6651 154.024 14.7306 154.07 14.7961 154.12L14.5996 154.186C14.6651 154.236 14.7306 154.281 14.7961 154.332L14.5996 154.397C14.6651 154.448 14.7306 154.493 14.7961 154.543L14.5996 154.609C14.6651 154.659 14.7306 154.705 14.7961 154.755L14.5996 154.821C14.6651 154.871 14.7306 154.916 14.7961 154.967L14.5996 155.032C14.6651 155.083 14.7306 155.128 14.7961 155.178L14.5996 155.244C14.6651 155.294 14.7306 155.34 14.7961 155.39L14.5996 155.456C14.6651 155.506 14.7306 155.551 14.7961 155.602L14.5996 155.667C14.6651 155.718 14.7306 155.763 14.7961 155.813L14.5996 155.879C14.6651 155.929 14.7306 155.975 14.7961 156.025L14.5996 156.09C14.6651 156.141 14.7306 156.186 14.7961 156.237L14.5996 156.302C14.6651 156.352 14.7306 156.398 14.7961 156.448L14.5996 156.514C14.6651 156.564 14.7306 156.609 14.7961 156.66L14.5996 156.725C14.6651 156.776 14.7306 156.821 14.7961 156.872L14.5996 156.937C14.6651 156.987 14.7306 157.033 14.7961 157.083L14.5996 157.149C14.6651 157.199 14.7306 157.244 14.7961 157.295L14.5996 157.36C14.6651 157.411 14.7306 157.456 14.7961 157.506L14.5996 157.572C14.6651 157.622 14.7306 157.668 14.7961 157.718L14.5996 157.784C14.6651 157.834 14.7306 157.879 14.7961 157.93L14.5996 157.995C14.6651 158.046 14.7306 158.091 14.7961 158.141L14.5996 158.207C14.6651 158.257 14.7306 158.303 14.7961 158.353L14.5996 158.418C14.6651 158.469 14.7306 158.514 14.7961 158.565L14.5996 158.63C14.6651 158.681 14.7306 158.726 14.7961 158.776L14.5996 158.842C14.6651 158.892 14.7306 158.938 14.7961 158.988L14.5996 159.053C14.6651 159.104 14.7306 159.149 14.7961 159.2L14.5996 159.265C14.6651 159.315 14.7306 159.361 14.7961 159.411L14.5996 159.477C14.6651 159.527 14.7306 159.572 14.7961 159.623L14.5996 159.688C14.6651 159.739 14.7306 159.784 14.7961 159.834L14.5996 159.9C14.6651 159.95 14.7306 159.996 14.7961 160.046L14.5996 160.112C14.6651 160.162 14.7306 160.207 14.7961 160.258L14.5996 160.323C14.6651 160.374 14.7306 160.419 14.7961 160.469L14.5996 160.535C14.6651 160.585 14.7306 160.631 14.7961 160.681L14.5996 160.746C14.6651 160.797 14.7306 160.842 14.7961 160.893L14.5996 160.958C14.6651 161.009 14.7306 161.054 14.7961 161.104L14.5996 161.17C16.0306 162.243 17.6431 163.311 19.4823 164.349C21.1754 165.297 22.9844 166.194 24.8892 167.05L40.5101 164.863L50.2505 167.781L50.195 167.892C50.2303 167.897 50.2605 167.902 50.2958 167.912L50.195 168.103C50.2303 168.108 50.2605 168.113 50.2958 168.124L50.195 168.315C50.2303 168.32 50.2605 168.325 50.2958 168.335L50.195 168.527C50.2303 168.532 50.2605 168.537 50.2958 168.547L50.195 168.738C50.2303 168.743 50.2605 168.748 50.2958 168.758L50.195 168.95C50.2303 168.955 50.2605 168.96 50.2958 168.97L50.195 169.162C50.2303 169.167 50.2605 169.172 50.2958 169.182L50.195 169.373C50.2303 169.378 50.2605 169.383 50.2958 169.393L50.195 169.585C50.2303 169.59 50.2605 169.595 50.2958 169.605L50.195 169.797C50.2303 169.802 50.2605 169.807 50.2958 169.817L50.195 170.008C50.2303 170.013 50.2605 170.018 50.2958 170.028L50.195 170.22C50.2303 170.225 50.2605 170.23 50.2958 170.24L50.195 170.431C50.2303 170.436 50.2605 170.442 50.2958 170.452L50.195 170.643C50.2303 170.648 50.2605 170.653 50.2958 170.663L50.195 170.855C50.2303 170.86 50.2605 170.865 50.2958 170.875L50.195 171.066C50.2303 171.071 50.2605 171.076 50.2958 171.087L50.195 171.278C50.2303 171.283 50.2605 171.288 50.2958 171.298L50.195 171.49C50.2303 171.495 50.2605 171.5 50.2958 171.51L50.195 171.701C50.2303 171.706 50.2605 171.711 50.2958 171.721L50.195 171.913C50.2303 171.918 50.2605 171.923 50.2958 171.933L50.195 172.125C50.2303 172.13 50.2605 172.135 50.2958 172.145L50.195 172.336C50.2303 172.341 50.2605 172.346 50.2958 172.356L50.195 172.548C50.2303 172.553 50.2605 172.558 50.2958 172.568L50.195 172.759C50.2303 172.764 50.2605 172.77 50.2958 172.78L50.195 172.971C50.2303 172.976 50.2605 172.981 50.2958 172.991L50.195 173.183C50.2303 173.188 50.2605 173.193 50.2958 173.203L50.195 173.394C50.2303 173.399 50.2605 173.404 50.2958 173.415L50.195 173.606C50.2303 173.611 50.2605 173.616 50.2958 173.626L50.195 173.818C50.2303 173.823 50.2605 173.828 50.2958 173.838L50.195 174.029C50.2303 174.034 50.2605 174.039 50.2958 174.049L50.195 174.241C50.2303 174.246 50.2605 174.251 50.2958 174.261L50.195 174.453C50.2303 174.458 50.2605 174.463 50.2958 174.473L50.195 174.664C55.9143 175.768 61.956 176.639 68.1742 177.244L77.2444 172.16L93.8126 172.538L101.018 178C107.337 177.688 113.621 177.123 119.718 176.277L119.683 176.07C119.693 176.07 119.703 176.065 119.718 176.065L119.683 175.858C119.693 175.858 119.703 175.853 119.718 175.853L119.683 175.647C119.693 175.647 119.703 175.642 119.718 175.642L119.683 175.435C119.693 175.435 119.703 175.43 119.718 175.43L119.683 175.224C119.693 175.224 119.703 175.218 119.718 175.218L119.683 175.012C119.693 175.012 119.703 175.007 119.718 175.007L119.683 174.8C119.693 174.8 119.703 174.795 119.718 174.795L119.683 174.589C119.693 174.589 119.703 174.584 119.718 174.584L119.683 174.377C119.693 174.377 119.703 174.372 119.718 174.372L119.683 174.165C119.693 174.165 119.703 174.16 119.718 174.16L119.683 173.954C119.693 173.954 119.703 173.949 119.718 173.949L119.683 173.742C119.693 173.742 119.703 173.737 119.718 173.737L119.683 173.53C119.693 173.53 119.703 173.525 119.718 173.525L119.683 173.319C119.693 173.319 119.703 173.314 119.718 173.314L119.683 173.107C119.693 173.107 119.703 173.102 119.718 173.102L119.683 172.896C119.693 172.896 119.703 172.89 119.718 172.89L119.683 172.684C119.693 172.684 119.703 172.679 119.718 172.679L119.683 172.472C119.693 172.472 119.703 172.467 119.718 172.467L119.683 172.261C119.693 172.261 119.703 172.256 119.718 172.256L119.683 172.049C119.693 172.049 119.703 172.044 119.718 172.044L119.683 171.837C119.693 171.837 119.703 171.832 119.718 171.832L119.683 171.626C119.693 171.626 119.703 171.621 119.718 171.621L119.683 171.414C119.693 171.414 119.703 171.409 119.718 171.409L119.683 171.202C119.693 171.202 119.703 171.197 119.718 171.197L119.683 170.991C119.693 170.991 119.703 170.986 119.718 170.986L119.683 170.779C119.693 170.779 119.703 170.774 119.718 170.774L119.683 170.567C119.693 170.567 119.703 170.562 119.718 170.562L119.683 170.356C119.693 170.356 119.703 170.351 119.718 170.351L119.683 170.144C119.693 170.144 119.703 170.139 119.718 170.139L119.693 169.988L132.779 167L147.508 169.892C152.23 168.255 156.341 166.451 159.808 164.521L159.597 164.425C159.667 164.385 159.738 164.349 159.808 164.309L159.597 164.213C159.667 164.173 159.738 164.138 159.808 164.097L159.597 164.002C159.667 163.961 159.738 163.926 159.808 163.886L159.597 163.79C159.667 163.75 159.738 163.714 159.808 163.674L159.597 163.578C159.667 163.538 159.738 163.503 159.808 163.463L159.597 163.367C159.667 163.326 159.738 163.291 159.808 163.251L159.597 163.155C159.667 163.115 159.738 163.08 159.808 163.039L159.597 162.943C159.667 162.903 159.738 162.868 159.808 162.828L159.597 162.732C159.667 162.692 159.738 162.656 159.808 162.616L159.597 162.52C159.667 162.48 159.738 162.445 159.808 162.404L159.597 162.309C159.667 162.268 159.738 162.233 159.808 162.193L159.597 162.097C159.667 162.057 159.738 162.021 159.808 161.981L159.597 161.885C159.667 161.845 159.738 161.81 159.808 161.769L159.597 161.674C159.667 161.633 159.738 161.598 159.808 161.558L159.597 161.462C159.667 161.422 159.738 161.386 159.808 161.346L159.597 161.25C159.667 161.21 159.738 161.175 159.808 161.134L159.597 161.039C159.667 160.998 159.738 160.963 159.808 160.923L159.597 160.827C159.667 160.787 159.738 160.752 159.808 160.711L159.597 160.615C159.667 160.575 159.738 160.54 159.808 160.5L159.597 160.404C159.667 160.364 159.738 160.328 159.808 160.288L159.597 160.192C159.667 160.152 159.738 160.117 159.808 160.076L159.597 159.981C159.667 159.94 159.738 159.905 159.808 159.865L159.597 159.769C159.667 159.729 159.738 159.693 159.808 159.653L159.597 159.557C159.667 159.517 159.738 159.482 159.808 159.441L159.597 159.346C159.667 159.305 159.738 159.27 159.808 159.23L159.597 159.134C159.667 159.094 159.738 159.058 159.808 159.018L159.597 158.922C159.667 158.882 159.738 158.847 159.808 158.806L159.597 158.711C159.667 158.67 159.738 158.635 159.808 158.595L159.597 158.499C159.667 158.459 159.738 158.424 159.808 158.383L159.597 158.287C159.667 158.247 159.738 158.212 159.808 158.172L159.597 158.076C159.667 158.036 159.738 158 159.808 157.96L159.597 157.864C159.667 157.824 159.738 157.789 159.808 157.748L159.597 157.653C159.667 157.612 159.738 157.577 159.808 157.537L159.597 157.441C159.667 157.401 159.738 157.365 159.808 157.325L159.597 157.229C159.667 157.189 159.738 157.154 159.808 157.113L159.597 157.018C159.667 156.977 159.738 156.942 159.808 156.902L159.597 156.806C159.667 156.766 159.738 156.73 159.808 156.69L159.597 156.594C159.667 156.554 159.738 156.519 159.808 156.478L159.597 156.383C159.667 156.342 159.738 156.307 159.808 156.267L159.597 156.171C159.667 156.131 159.738 156.096 159.808 156.055L159.597 155.959C159.667 155.919 159.738 155.884 159.808 155.844L159.597 155.748C159.667 155.707 159.738 155.672 159.808 155.632L159.597 155.536C159.667 155.496 159.738 155.461 159.808 155.42L159.597 155.325C159.667 155.284 159.738 155.249 159.808 155.209L159.597 155.113C159.667 155.073 159.738 155.037 159.808 154.997L159.597 154.901C159.667 154.861 159.738 154.826 159.808 154.785L159.597 154.69C159.667 154.649 159.738 154.614 159.808 154.574L159.597 154.478C159.667 154.438 159.738 154.402 159.808 154.362L159.597 154.266C159.667 154.226 159.738 154.191 159.808 154.15L159.597 154.055C159.627 154.04 159.652 154.024 159.682 154.009L171.897 153.425C172.779 151.651 173.232 149.852 173.227 148.048C173.227 147.978 173.227 147.907 173.227 147.837C173.227 147.766 173.227 147.695 173.227 147.625C173.227 147.554 173.227 147.484 173.227 147.413C173.227 147.343 173.227 147.272 173.227 147.202C173.227 147.131 173.227 147.061 173.227 146.99C173.227 146.919 173.227 146.849 173.227 146.778C173.227 146.708 173.227 146.637 173.227 146.567C173.227 146.496 173.227 146.426 173.227 146.355C173.227 146.285 173.227 146.214 173.227 146.143C173.227 146.073 173.227 146.002 173.227 145.932C173.227 145.861 173.227 145.791 173.227 145.72C173.227 145.65 173.227 145.579 173.227 145.509C173.227 145.438 173.227 145.367 173.227 145.297C173.227 145.226 173.227 145.156 173.227 145.085C173.227 145.015 173.227 144.944 173.227 144.874C173.227 144.803 173.227 144.733 173.227 144.662C173.227 144.591 173.227 144.521 173.227 144.45C173.227 144.38 173.227 144.309 173.227 144.239C173.227 144.168 173.227 144.098 173.227 144.027C173.227 143.957 173.227 143.886 173.227 143.815C173.227 143.745 173.227 143.674 173.227 143.604C173.227 143.533 173.227 143.463 173.227 143.392C173.227 143.322 173.227 143.251 173.227 143.181C173.227 143.11 173.227 143.039 173.227 142.969C173.227 142.898 173.227 142.828 173.227 142.757C173.227 142.687 173.227 142.616 173.227 142.546C173.227 142.475 173.227 142.405 173.227 142.334C173.227 142.263 173.227 142.193 173.227 142.122C173.227 142.052 173.227 141.981 173.227 141.911C173.227 141.84 173.227 141.77 173.227 141.699C173.227 141.629 173.227 141.558 173.227 141.487C173.227 141.417 173.227 141.346 173.227 141.276C173.227 141.205 173.227 141.135 173.227 141.064C173.227 140.994 173.227 140.923 173.227 140.853C173.227 140.782 173.227 140.711 173.227 140.641C173.227 140.57 173.227 140.5 173.227 140.429C173.227 140.359 173.227 140.288 173.227 140.218C173.227 140.147 173.227 140.077 173.227 140.006C173.227 139.935 173.227 139.865 173.227 139.794C173.227 139.724 173.227 139.653 173.227 139.583C173.227 139.512 173.227 139.442 173.227 139.371C173.227 139.301 173.227 139.23 173.227 139.159C173.227 139.089 173.227 139.018 173.227 138.948C173.227 138.877 173.227 138.807 173.227 138.736C173.227 138.666 173.227 138.595 173.227 138.525C173.227 138.454 173.227 138.383 173.227 138.313C173.227 138.242 173.227 138.172 173.227 138.101C173.227 138.031 173.227 137.96 173.227 137.89C173.227 137.819 173.227 137.749 173.227 137.678C173.227 137.607 173.227 137.537 173.227 137.466C173.227 137.396 173.227 137.325 173.227 137.255C173.227 137.184 173.227 137.114 173.227 137.043C173.227 136.973 173.227 136.902 173.227 136.831C173.227 136.761 173.227 136.69 173.227 136.62C173.227 136.549 173.227 136.479 173.227 136.408C173.227 136.338 173.227 136.267 173.227 136.197C173.227 136.126 173.227 136.055 173.227 135.985C173.227 135.914 173.227 135.844 173.227 135.773C173.227 135.703 173.227 135.632 173.227 135.562C173.227 135.491 173.227 135.421 173.227 135.35C173.227 135.279 173.227 135.209 173.227 135.138C173.227 135.068 173.227 134.997 173.227 134.927C173.227 134.856 173.227 134.786 173.227 134.715C173.227 134.644 173.227 134.574 173.227 134.503C173.227 134.433 173.227 134.362 173.227 134.292C173.227 134.221 173.227 134.151 173.227 134.08C173.227 134.01 173.227 133.939 173.227 133.868C173.227 133.798 173.227 133.727 173.227 133.657C173.227 133.586 173.227 133.516 173.227 133.445C173.227 133.375 173.227 133.304 173.227 133.234C173.227 133.163 173.227 133.092 173.227 133.022C173.227 132.951 173.227 132.881 173.227 132.81C173.227 132.74 173.227 132.669 173.227 132.599C173.227 132.528 173.227 132.458 173.227 132.387C173.227 132.316 173.227 132.246 173.227 132.175C173.227 132.105 173.227 132.034 173.227 131.964C173.227 131.893 173.227 131.823 173.227 131.752C173.227 131.682 173.227 131.611 173.227 131.54C173.227 131.47 173.227 131.399 173.227 131.329C173.227 131.258 173.227 131.188 173.227 131.117C173.227 131.047 173.227 130.976 173.227 130.906C173.227 130.835 173.227 130.764 173.227 130.694C173.227 130.623 173.227 130.553 173.227 130.482C173.227 130.412 173.227 130.341 173.227 130.271C173.227 130.2 173.227 130.13 173.227 130.059C173.227 129.988 173.227 129.918 173.227 129.847C173.227 129.777 173.227 129.706 173.227 129.636C173.232 129.333 173.232 129.293 173.232 129.253ZM78.6805 139.099C74.4779 138.605 70.6786 137.864 67.3679 136.942C76.7455 134.408 89.2825 133.501 101.28 134.901C105.513 135.395 109.328 136.131 112.648 137.053C103.266 139.598 90.7287 140.51 78.6805 139.099Z" fill="#452E7E"/>
<path d="M172.325 131.591C173.464 129.303 173.892 126.975 173.54 124.642L157.334 123.12L153.172 117.315L165.326 113.148C163.9 112.095 162.318 111.062 160.529 110.059C158.811 109.082 156.926 108.155 154.941 107.283L139.35 109.48L126.551 105.67L129.554 99.7293C123.845 98.6258 117.818 97.7742 111.61 97.1746L102.59 102.269L86.0222 101.906L78.756 96.454C72.6336 96.7614 66.5364 97.3106 60.6156 98.1269L61.5327 104.169L47.4638 107.353L32.7449 104.446C31.8077 104.768 30.9057 105.096 30.0188 105.428C28.1544 106.053 26.3303 106.849 24.8438 107.57C23.2615 108.291 21.775 109.036 20.3944 109.797L30.9762 114.489L24.7934 120.057L8.18486 120.838C7.03094 123.115 6.5875 125.443 6.92512 127.781L23.1003 129.328L27.1869 135.128L15.0278 139.285C16.4589 140.359 18.0714 141.427 19.9106 142.465C21.6037 143.412 23.4127 144.309 25.3174 145.166L40.9383 142.979L53.7072 146.804L50.6233 152.75C56.3425 153.853 62.3843 154.725 68.6024 155.33L77.6726 150.245L94.2408 150.623L101.447 156.085C107.766 155.773 114.049 155.209 120.146 154.362L119.174 148.32L133.202 145.116L147.931 148.008C152.653 146.37 156.765 144.566 160.232 142.636L149.609 137.96L155.717 132.387L172.325 131.591ZM101.704 113.425C121.421 115.718 132.164 123.337 125.79 130.422C119.436 137.497 98.398 141.407 78.6855 139.104C59.0485 136.791 48.2751 129.197 54.6746 122.118C60.9784 115.018 82.0666 111.128 101.704 113.425Z" fill="url(#paint2_linear_338_928)"/>
<path d="M172.224 63.64C170.34 61.6899 168.087 60.153 165.583 59.1201C163.048 58.0719 160.267 57.5428 157.364 57.6235C157.395 57.3262 157.425 57.0289 157.455 56.7316C157.919 51.9697 152.819 47.0668 143.93 42.7383C141.3 41.4584 138.337 40.2289 135.087 39.0699C123.87 35.0588 109.232 31.8792 93.0819 30.302C56.4534 26.7294 25.8869 32.7762 24.8136 43.8015C16.8268 125.705 93.2733 152.316 133.837 111.904C134.089 111.959 134.341 112.014 134.598 112.06C142.61 113.672 150.683 112.685 158.065 108.709C158.15 108.663 158.231 108.618 158.317 108.573C159.632 107.847 160.927 107.031 162.197 106.114C164.227 104.642 166.193 102.919 168.072 100.934C168.561 100.42 169.04 99.8906 169.513 99.3413C181.179 84.9147 179.531 71.1935 172.224 63.64ZM157.909 95.9551C157.208 96.5699 156.472 97.1493 155.712 97.6835C154.578 98.4796 153.384 99.1801 152.149 99.7545C149.136 101.165 145.84 101.856 142.444 101.478C148.501 92.5538 153.157 81.5184 155.762 68.3213L155.757 68.3616C157.707 68.4775 159.37 68.8252 160.771 69.3744C160.892 69.4198 161.008 69.4702 161.128 69.5155C170.985 73.7079 167.074 87.933 157.909 95.9551Z" fill="#FCDED3"/>
<path d="M80.3577 34.4038C80.3577 34.4038 80.353 34.4038 80.3483 34.4038C80.3577 34.4085 80.3577 34.4085 80.3577 34.4038Z" fill="#452E7E"/>
<path d="M148.264 53.7082C147.881 52.8767 147.382 52.1612 146.838 51.5212C145.734 50.2615 144.454 49.2839 143.104 48.4978C143.038 48.4575 142.978 48.4223 142.913 48.387C142.812 48.2963 142.711 48.2056 142.605 48.1098C142.399 48.0141 142.182 47.9184 141.965 47.8226C140.66 47.0365 139.738 46.4772 139.128 46.583C135.42 45.0008 130.794 43.2069 125.407 41.5037C119.693 39.6947 103.014 34.7968 80.2778 34.4138C80.3131 34.4088 80.3383 34.4088 80.3483 34.4088C80.2627 34.4038 79.4312 34.3181 74.8206 34.4138C74.231 34.4239 73.6414 34.434 73.0418 34.4491C72.6639 34.4592 72.2809 34.4693 71.8929 34.4844C68.0985 34.5902 62.6312 34.7817 54.7502 35.1243C54.7502 35.1243 45.1862 35.5375 37.5824 39.7602C36.5998 40.3095 35.7482 41.0855 35.7482 41.0855C34.816 41.9471 34.3322 42.7332 34.2163 42.9499C34.1156 43.1363 34.0047 43.3177 33.919 43.5092L33.6721 44.1089C33.6117 44.3205 33.5512 44.5321 33.4958 44.7438C33.4454 44.9554 33.4202 45.1771 33.3899 45.3938C33.2841 46.2706 33.4051 47.1675 33.6721 47.9587C33.9342 48.7599 34.3272 49.4653 34.7706 50.1002L34.8261 50.1758C34.8361 50.1909 34.8462 50.201 34.8563 50.2161L35.4257 50.9317C35.6273 51.1937 35.854 51.4255 36.0757 51.6523C36.5242 52.1058 36.9928 52.524 37.4715 52.9221L37.4766 52.9271C37.4766 52.9271 37.4766 52.9271 37.4816 52.9322H37.4766C41.3465 55.9656 45.6952 57.8754 50.0741 59.5484C54.4681 61.1961 58.9628 62.5012 63.4929 63.6047C72.5581 65.7917 81.7794 67.2076 91.0461 68.0391C92.2051 68.1348 93.3641 68.2557 94.523 68.3263L98.005 68.553C100.328 68.6639 102.656 68.7748 104.984 68.81C109.64 68.8957 114.301 68.8201 118.957 68.5127C123.613 68.1953 128.269 67.6611 132.88 66.6936C135.188 66.225 137.475 65.5951 139.733 64.7839L141.416 64.1288L143.074 63.3528C144.172 62.8035 145.241 62.1334 146.238 61.2818C146.243 61.2767 146.253 61.2667 146.258 61.2616C146.888 60.7023 147.488 60.0523 147.967 59.2611C148.44 58.465 148.783 57.5025 148.808 56.5149C148.859 55.5172 148.642 54.5396 148.264 53.7082ZM34.7656 50.0851L34.7102 49.9894C34.7454 50.0498 34.7807 50.1053 34.8261 50.1607L34.821 50.1557C34.8009 50.1355 34.7807 50.1103 34.7656 50.0851ZM34.8311 50.1758C34.8261 50.1708 34.826 50.1657 34.821 50.1607L34.8261 50.1657C34.8261 50.1708 34.8261 50.1708 34.8311 50.1758ZM37.4866 52.9221L38.1568 53.2043H38.1518L37.4866 52.9221C37.4866 52.9271 37.4866 52.9221 37.4866 52.9221Z" fill="#452E7E"/>
<path d="M35.7079 41.0653C39.0437 44.3306 44.4103 48.6893 51.9234 51.1735C64.3193 55.2702 70.5576 50.2917 91.5198 51.1735C102.817 51.6472 111.434 53.5318 115.949 54.5446C127.302 57.0843 136.453 60.5511 142.908 63.3881C142.514 63.5947 141.935 63.892 141.225 64.2296C133.57 67.8526 126.662 68.4119 122.268 68.6538C104.913 69.5961 90.6733 68.2305 90.6733 68.2305C65.9772 65.8622 54.9871 61.7252 51.7118 60.4403C44.7025 57.6789 33.5512 53.1589 33.39 46.5377C33.3346 44.2903 34.5641 42.3906 35.7079 41.0653Z" fill="url(#paint3_linear_338_928)"/>
<path d="M119.103 75.3355C120.776 73.5669 120.635 70.9617 120.408 66.7088C120.222 63.2268 119.804 55.4769 116.266 54.4237C113.727 53.6679 110.804 56.7265 107.317 60.3647C103.241 64.6226 100.258 67.7468 100.963 70.8156C102.233 76.3333 114.971 79.6993 119.103 75.3355Z" fill="#FCDED3"/>
<path d="M116.62 71.4865C117.592 70.4635 117.507 68.9517 117.376 66.4825C117.265 64.4617 117.023 59.9717 114.972 59.3619C113.5 58.9235 111.802 60.6974 109.786 62.8088C107.423 65.2781 105.695 67.0872 106.103 68.8661C106.838 72.066 114.226 74.0163 116.62 71.4865Z" fill="url(#paint4_linear_338_928)"/>
<path d="M54.2615 67.4041C53.1579 65.2323 54.0347 62.7733 55.4658 58.7623C56.6348 55.4768 59.24 48.1653 62.9285 48.1602C65.5791 48.1552 67.514 51.9193 69.8169 56.399C72.5127 61.6395 74.488 65.4843 72.941 68.2255C70.1545 73.1587 56.9825 72.7656 54.2615 67.4041Z" fill="#FCDED3"/>
<path d="M57.7335 64.4268C57.0935 63.167 57.6024 61.7409 58.4289 59.4177C59.1092 57.5129 60.616 53.2748 62.7577 53.2698C64.2947 53.2698 65.4134 55.4468 66.7538 58.047C68.316 61.0858 69.465 63.3131 68.5629 64.9056C66.9453 67.7578 59.3108 67.531 57.7335 64.4268Z" fill="url(#paint5_linear_338_928)"/>
<path d="M79.4262 91.037C78.3025 94.8616 73.6515 97.2451 69.4994 96.5295C65.5035 95.8442 61.4975 92.2111 61.9207 87.4644C62.344 82.7076 66.9648 79.7043 70.9859 79.8857C74.9314 80.0621 77.3048 83.2518 77.8339 84.0127C78.3126 84.703 80.4038 87.7163 79.4262 91.037Z" fill="#F58C63"/>
<path d="M71.5457 94.3282C74.5487 94.3282 76.9831 91.8938 76.9831 88.8908C76.9831 85.8877 74.5487 83.4533 71.5457 83.4533C68.5427 83.4533 66.1083 85.8877 66.1083 88.8908C66.1083 91.8938 68.5427 94.3282 71.5457 94.3282Z" fill="url(#paint6_linear_338_928)"/>
<path d="M68.643 87.7721C69.9872 87.7721 71.077 86.6823 71.077 85.3381C71.077 83.9938 69.9872 82.9041 68.643 82.9041C67.2987 82.9041 66.209 83.9938 66.209 85.3381C66.209 86.6823 67.2987 87.7721 68.643 87.7721Z" fill="white"/>
<path d="M95.6064 92.1859C96.0448 96.1466 100.252 99.3262 104.52 99.3615C108.622 99.3967 113.263 96.5346 113.691 91.7878C114.12 87.031 110.048 83.2518 106.007 82.7126C102.046 82.1835 99.1085 84.8995 98.4434 85.5546C97.8437 86.1492 95.2234 88.7393 95.6064 92.1859Z" fill="#F58C63"/>
<path d="M98.3528 90.987C98.0857 93.9803 100.323 96.626 103.352 96.893C106.38 97.1601 109.051 94.958 109.318 91.9646C109.585 88.9713 107.348 86.3256 104.319 86.0585C101.291 85.7914 98.6249 87.9936 98.3528 90.987Z" fill="url(#paint7_linear_338_928)"/>
<path d="M103.074 88.1243C103.194 86.7854 102.192 85.6019 100.837 85.4807C99.4811 85.3596 98.2852 86.3468 98.1656 87.6857C98.046 89.0245 99.0478 90.2081 100.403 90.3292C101.759 90.4504 102.955 89.4632 103.074 88.1243Z" fill="white"/>
<path d="M92.1598 111.647C89.7864 111.732 87.4886 110.654 85.9265 108.805C83.9059 110.871 80.9379 111.742 78.3932 110.775C75.6067 109.717 74.4124 106.799 74.1403 105.242C73.9841 104.345 74.5888 103.493 75.4857 103.337C76.3827 103.181 77.2343 103.781 77.3905 104.678C77.4005 104.728 77.849 107.041 79.5673 107.691C81.1193 108.28 83.4876 107.379 84.5358 105.096C84.8129 104.491 85.4226 104.118 86.0878 104.138C86.7529 104.159 87.3374 104.577 87.5743 105.197C88.3855 107.308 90.5271 108.643 92.5578 108.301C94.125 108.039 95.4855 106.789 96.0247 105.126C96.3069 104.259 97.234 103.786 98.1007 104.068C98.9674 104.35 99.4411 105.277 99.1589 106.144C98.2317 109.011 95.9088 111.082 93.1021 111.556C92.7846 111.601 92.4722 111.636 92.1598 111.647Z" fill="url(#paint8_linear_338_928)"/>
<path d="M86.1689 105.887C85.8514 105.897 85.5289 105.817 85.2467 105.645L80.7567 102.884C80.2276 102.561 79.9303 101.967 79.9756 101.347C80.026 100.727 80.414 100.193 80.9885 99.9561C82.5658 99.306 84.2993 98.9785 86.0077 99.0087C87.7563 99.044 89.5201 99.4522 91.1024 100.203C91.6517 100.465 92.0145 101.004 92.0448 101.614C92.075 102.224 91.7626 102.798 91.2385 103.111L86.945 105.661C86.7081 105.802 86.441 105.877 86.1689 105.887ZM86.1135 102.309L86.1236 102.315L86.1336 102.309C86.1286 102.309 86.1185 102.309 86.1135 102.309Z" fill="url(#paint9_linear_338_928)"/>
<path d="M118.323 103.841C118.232 103.846 118.141 103.841 118.051 103.826L112.991 103.171C112.089 103.055 111.449 102.229 111.57 101.327C111.686 100.425 112.512 99.7897 113.414 99.9056L118.474 100.561C119.376 100.677 120.016 101.503 119.895 102.405C119.794 103.216 119.114 103.811 118.323 103.841Z" fill="url(#paint10_linear_338_928)"/>
<path d="M114.886 109.374C114.72 109.379 114.553 109.359 114.382 109.314L110.235 108.16C109.358 107.918 108.844 107.006 109.091 106.129C109.333 105.252 110.245 104.738 111.122 104.985L115.269 106.139C116.146 106.381 116.66 107.293 116.413 108.17C116.216 108.88 115.587 109.349 114.886 109.374Z" fill="url(#paint11_linear_338_928)"/>
<path d="M110.734 113.254C110.441 113.264 110.139 113.199 109.862 113.043L107.388 111.642C106.596 111.193 106.319 110.185 106.768 109.394C107.216 108.603 108.224 108.326 109.015 108.774L111.49 110.175C112.281 110.624 112.558 111.632 112.11 112.423C111.817 112.937 111.288 113.234 110.734 113.254Z" fill="url(#paint12_linear_338_928)"/>
<path d="M55.3905 104.481C54.5993 104.512 53.8787 103.962 53.7174 103.166C53.536 102.274 54.1105 101.402 55.0024 101.221L60.0014 100.198C60.8934 100.017 61.7652 100.591 61.9466 101.483C62.128 102.375 61.5535 103.247 60.6616 103.428L55.6626 104.451C55.5719 104.466 55.4812 104.476 55.3905 104.481Z" fill="url(#paint13_linear_338_928)"/>
<path d="M59.22 109.747C58.5195 109.772 57.8594 109.349 57.6074 108.654C57.3 107.797 57.7435 106.855 58.6001 106.547L62.6517 105.096C63.5084 104.788 64.4508 105.232 64.7582 106.089C65.0656 106.945 64.6221 107.888 63.7654 108.195L59.7138 109.646C59.5526 109.712 59.3863 109.742 59.22 109.747Z" fill="url(#paint14_linear_338_928)"/>
<path d="M63.6392 113.32C63.0849 113.34 62.5356 113.083 62.208 112.589C61.7041 111.833 61.9057 110.81 62.6666 110.301L65.0351 108.724C65.791 108.22 66.814 108.422 67.3229 109.182C67.8269 109.938 67.6253 110.961 66.8644 111.47L64.4959 113.048C64.2288 113.219 63.9365 113.31 63.6392 113.32Z" fill="url(#paint15_linear_338_928)"/>
<defs>
<linearGradient id="paint0_linear_338_928" x1="0.00246799" y1="31.2747" x2="27.9293" y2="31.2747" gradientUnits="userSpaceOnUse">
<stop stop-color="#F58C63"/>
<stop offset="1" stop-color="#D84526"/>
</linearGradient>
<linearGradient id="paint1_linear_338_928" x1="5.51645" y1="9.47958" x2="20.0973" y2="9.47958" gradientUnits="userSpaceOnUse">
<stop stop-color="#F58C63"/>
<stop offset="1" stop-color="#D84526"/>
</linearGradient>
<linearGradient id="paint2_linear_338_928" x1="90.2375" y1="91.0006" x2="90.2375" y2="210.263" gradientUnits="userSpaceOnUse">
<stop stop-color="#F58C63"/>
<stop offset="1" stop-color="#D84526"/>
</linearGradient>
<linearGradient id="paint3_linear_338_928" x1="33.3892" y1="55.0284" x2="142.91" y2="55.0284" gradientUnits="userSpaceOnUse">
<stop stop-color="#F58C63"/>
<stop offset="1" stop-color="#D84526"/>
</linearGradient>
<linearGradient id="paint4_linear_338_928" x1="108.254" y1="63.4584" x2="118.151" y2="68.7964" gradientUnits="userSpaceOnUse">
<stop stop-color="#F58C63"/>
<stop offset="1" stop-color="#D84526"/>
</linearGradient>
<linearGradient id="paint5_linear_338_928" x1="67.8654" y1="59.3025" x2="56.8589" y2="61.6077" gradientUnits="userSpaceOnUse">
<stop stop-color="#F58C63"/>
<stop offset="1" stop-color="#D84526"/>
</linearGradient>
<linearGradient id="paint6_linear_338_928" x1="66.1076" y1="88.4021" x2="76.9433" y2="89.3703" gradientUnits="userSpaceOnUse">
<stop stop-color="#462F7E"/>
<stop offset="1" stop-color="#D84526"/>
</linearGradient>
<linearGradient id="paint7_linear_338_928" x1="98.3328" y1="90.9846" x2="109.303" y2="91.9648" gradientUnits="userSpaceOnUse">
<stop stop-color="#462F7E"/>
<stop offset="1" stop-color="#D84526"/>
</linearGradient>
<linearGradient id="paint8_linear_338_928" x1="74.2133" y1="107.831" x2="99.2816" y2="106.92" gradientUnits="userSpaceOnUse">
<stop stop-color="#F58C63"/>
<stop offset="1" stop-color="#D84526"/>
</linearGradient>
<linearGradient id="paint9_linear_338_928" x1="80.0081" y1="102.657" x2="92.0653" y2="102.219" gradientUnits="userSpaceOnUse">
<stop stop-color="#F58C63"/>
<stop offset="1" stop-color="#D84526"/>
</linearGradient>
<linearGradient id="paint10_linear_338_928" x1="120.145" y1="101.602" x2="111.821" y2="101.904" gradientUnits="userSpaceOnUse">
<stop stop-color="#F58C63"/>
<stop offset="1" stop-color="#D84526"/>
</linearGradient>
<linearGradient id="paint11_linear_338_928" x1="116.701" y1="106.902" x2="109.308" y2="107.171" gradientUnits="userSpaceOnUse">
<stop stop-color="#F58C63"/>
<stop offset="1" stop-color="#D84526"/>
</linearGradient>
<linearGradient id="paint12_linear_338_928" x1="112.549" y1="110.689" x2="106.833" y2="110.897" gradientUnits="userSpaceOnUse">
<stop stop-color="#F58C63"/>
<stop offset="1" stop-color="#D84526"/>
</linearGradient>
<linearGradient id="paint13_linear_338_928" x1="53.6599" y1="102.473" x2="61.9835" y2="102.17" gradientUnits="userSpaceOnUse">
<stop stop-color="#F58C63"/>
<stop offset="1" stop-color="#D84526"/>
</linearGradient>
<linearGradient id="paint14_linear_338_928" x1="57.4791" y1="107.509" x2="64.8719" y2="107.24" gradientUnits="userSpaceOnUse">
<stop stop-color="#F58C63"/>
<stop offset="1" stop-color="#D84526"/>
</linearGradient>
<linearGradient id="paint15_linear_338_928" x1="61.8949" y1="110.985" x2="67.6108" y2="110.777" gradientUnits="userSpaceOnUse">
<stop stop-color="#F58C63"/>
<stop offset="1" stop-color="#D84526"/>
</linearGradient>
</defs>
</svg>
