<svg width="166" height="217" viewBox="0 0 166 217" fill="none" xmlns="http://www.w3.org/2000/svg">
<mask id="mask0_578_1588" style="mask-type:alpha" maskUnits="userSpaceOnUse" x="5" y="3" width="150" height="201">
<path d="M5 23C5 11.9543 13.9543 3 25 3H135C146.046 3 155 11.9543 155 23V183.162C155 194.208 146.046 203.162 135 203.162H25C13.9543 203.162 5 194.208 5 183.162V23Z" fill="#C4C4C4"/>
</mask>
<g mask="url(#mask0_578_1588)">
<rect x="-17" y="-26.2926" width="205" height="247" fill="url(#paint0_linear_578_1588)"/>
<circle cx="77.8301" cy="81.9532" r="58.2122" fill="url(#paint1_linear_578_1588)"/>
<path d="M-3.52883 140.892C10.0431 136.727 21.3231 134.169 28.973 132.626C63.5616 125.65 107.861 117.325 151.361 138.592C156.56 141.133 160.621 143.55 163 145.022L168.5 221.5L80.5 225L-9 228.5L-3.52883 140.892Z" fill="url(#paint2_linear_578_1588)"/>
<path d="M122.935 170.426C127.388 170.426 130.998 168.716 130.998 166.606C130.998 164.496 127.388 162.785 122.935 162.785C118.483 162.785 114.873 164.496 114.873 166.606C114.873 168.716 118.483 170.426 122.935 170.426Z" fill="#417092"/>
<path d="M109.206 176.328C112.574 176.328 115.303 175.035 115.303 173.439C115.303 171.844 112.574 170.551 109.206 170.551C105.839 170.551 103.11 171.844 103.11 173.439C103.11 175.035 105.839 176.328 109.206 176.328Z" fill="#417092"/>
<path d="M82.0456 174.793C88.1257 174.793 93.0546 172.838 93.0546 170.426C93.0546 168.015 88.1257 166.06 82.0456 166.06C75.9655 166.06 71.0366 168.015 71.0366 170.426C71.0366 172.838 75.9655 174.793 82.0456 174.793Z" fill="#417092"/>
<path d="M100.984 167.152C104.026 167.152 106.491 166.174 106.491 164.968C106.491 163.763 104.026 162.785 100.984 162.785C97.943 162.785 95.4775 163.763 95.4775 164.968C95.4775 166.174 97.943 167.152 100.984 167.152Z" fill="#417092"/>
<path d="M43.7192 112.043C45.8179 113.936 47.8896 115.623 50.3521 117.025C52.0499 117.992 53.5793 115.374 51.8815 114.407C49.6413 113.134 47.7717 111.621 45.8616 109.9C44.4165 108.593 42.2673 110.732 43.7192 112.043Z" fill="#77B2CC"/>
<path d="M46.2658 112.016C48.2937 113.393 50.288 114.488 52.6898 115.068C54.5864 115.526 55.3949 112.602 53.4949 112.144C51.3154 111.618 49.6277 110.645 47.7918 109.395C46.1782 108.297 44.6589 110.924 46.2658 112.016Z" fill="#77B2CC"/>
<path d="M25.8484 120.195C25.7103 119.662 24.8378 116.499 21.7824 114.993C19.1616 113.703 16.2039 114.252 14.3141 115.394C12.815 116.301 13.0306 116.947 9.2476 120.794C7.55653 122.516 6.63351 123.277 5.71387 123.061C4.67295 122.816 4.18449 121.444 4.04638 121.06C3.25137 118.827 4.29229 116.607 5.04687 115.061C6.18548 112.72 7.57337 109.873 10.7803 108.327C16.1871 105.72 21.7959 109.213 22.1799 109.459C21.9306 109.041 21.5399 108.441 20.9807 107.791C19.8387 106.467 18.1645 105.13 14.779 103.857C10.1167 102.105 9.3655 103.169 6.57962 101.522C5.30626 100.771 3.31874 99.5986 2.57764 97.2541C1.82306 94.8623 2.67196 92.2044 4.24513 90.5201C6.38423 88.2328 9.38908 88.2462 10.8443 88.253C15.4864 88.2732 18.8416 90.958 20.3777 92.1876C29.4765 99.4639 31.053 114.104 31.3124 116.856C31.3461 115.869 31.3663 114.522 31.3124 112.922C31.2517 111.177 31.1136 107.539 30.2445 103.853C29.7392 101.711 28.8566 99.6829 27.1116 95.7179C24.8445 90.5672 24.1439 89.5566 21.9778 84.5845C19.9768 79.993 19.0841 77.4395 19.2458 74.1854C19.4109 70.7999 20.563 69.7455 21.0447 69.3851C22.5404 68.27 24.5009 68.644 25.2454 68.7854C27.1352 69.1459 29.3484 70.2912 31.7806 73.5858C34.3139 77.0185 36.1161 81.4752 36.8471 87.9869C37.3659 92.5952 37.0088 95.2497 35.914 107.121C35.3952 112.73 35.0044 117.22 34.7821 119.854L25.8484 120.195Z" fill="#F68E64"/>
<path d="M23.9146 73.7913C24.0426 73.7306 29.8434 82.4218 32.5148 94.5254C33.8892 100.747 33.8858 105.369 33.714 108.259C33.485 112.144 32.8112 115.374 32.1813 117.725C32.2823 116.718 32.4137 115.297 32.5148 113.592C32.69 110.678 32.9864 105.74 32.4474 100.39C31.8242 94.1987 30.2982 89.6375 28.8463 85.3896C26.3434 78.0459 23.827 73.8351 23.9146 73.7913Z" fill="white"/>
<path d="M12.8487 97.3922C17.8781 99.8109 20.7078 102.711 22.3147 104.793C24.2719 107.326 26.3773 111.19 28.8532 115.728C29.2171 116.391 29.5135 116.947 29.7156 117.328C27.6944 110.877 24.7772 106.37 22.7155 103.661C18.2588 97.8065 14.8935 96.5534 14.048 96.2603C11.3934 95.344 8.98147 95.4148 7.44873 95.5933L12.8487 97.3922Z" fill="white"/>
<path d="M40.7612 121.256C40.96 120.835 42.1794 118.328 44.8373 117.557C47.1145 116.893 49.348 117.827 50.6415 119.08C51.6656 120.073 51.3894 120.582 53.7138 124.399C54.7547 126.107 55.3476 126.892 56.1089 126.855C56.9679 126.814 57.5844 125.746 57.7562 125.446C58.76 123.705 58.3154 121.684 57.9852 120.272C57.4833 118.136 56.8769 115.532 54.6166 113.73C50.8066 110.692 45.8041 112.716 45.4605 112.864C45.7266 112.555 46.1343 112.117 46.6867 111.662C47.8085 110.735 49.3513 109.883 52.2282 109.361C56.1931 108.637 56.6007 109.647 59.0699 108.714C60.1984 108.29 61.9603 107.626 62.9372 105.784C63.9343 103.904 63.7187 101.549 62.7654 99.8883C61.4718 97.6347 59.107 97.1698 57.9583 96.9441C54.3033 96.2232 51.2142 97.9311 49.796 98.716C41.4114 103.351 37.6957 115.337 37.0254 117.597C37.1669 116.769 37.3757 115.637 37.689 114.31C38.0326 112.861 38.7569 109.843 40.0605 106.899C40.8185 105.187 41.856 103.634 43.9008 100.599C46.5553 96.6544 47.2762 95.9201 49.8196 92.1101C52.1675 88.5898 53.3028 86.599 53.7272 83.8501C54.1685 80.9935 53.4443 79.929 53.1242 79.5517C52.1372 78.3794 50.5304 78.3828 49.924 78.3828C48.3778 78.3828 46.4442 78.9891 43.9749 81.3573C41.4046 83.8232 39.2319 87.2626 37.5543 92.5884C36.3685 96.358 36.1967 98.6352 35.0513 108.731C34.509 113.501 34.0576 117.318 33.7881 119.555L40.7612 121.256Z" fill="#F68E64"/>
<path d="M54.8391 104.264C50.4767 105.487 47.7581 107.461 46.1445 108.943C44.1772 110.749 41.8663 113.646 39.1546 117.042C38.7571 117.54 38.4303 117.955 38.2046 118.241C40.886 113.171 43.9414 109.866 46.0199 107.929C50.5137 103.742 53.3737 103.23 54.0879 103.122C56.328 102.779 58.2145 103.22 59.3901 103.614L54.8391 104.264Z" fill="white"/>
<path d="M39.9022 141.731H27.684C25.0464 141.731 22.9106 139.591 22.9106 136.957V119.198H44.6756V136.957C44.6756 139.591 42.5399 141.731 39.9022 141.731Z" fill="url(#paint3_linear_578_1588)"/>
<path d="M137.311 84.7866C136.61 86.0094 135.923 87.2356 135.31 88.5056C134.683 89.8059 134.144 91.1534 133.592 92.4874C132.473 95.1891 131.389 97.9042 130.277 100.609C129.155 103.345 128.037 106.077 126.949 108.825C125.861 111.574 124.759 114.316 123.681 117.069C122.603 119.814 121.552 122.57 120.528 125.339C120.403 125.676 120.279 126.016 120.154 126.353C120.08 126.558 120.403 126.646 120.477 126.444C121.488 123.688 122.529 120.943 123.593 118.207C124.661 115.468 125.756 112.74 126.837 110.004C127.922 107.266 129.014 104.534 130.139 101.815C131.257 99.1136 132.342 96.3984 133.454 93.6934C134.013 92.3324 134.565 90.9681 135.161 89.624C135.731 88.3372 136.394 87.0942 137.085 85.8646C137.253 85.5614 137.425 85.2616 137.597 84.9618C137.712 84.7664 137.418 84.598 137.311 84.7866Z" fill="black"/>
<path d="M142.057 96.5163C139.291 100.39 136.442 104.2 133.538 107.973C130.641 111.733 127.69 115.452 124.712 119.147C123.041 121.222 121.36 123.29 119.672 125.352C119.538 125.517 119.773 125.76 119.911 125.591C122.923 121.906 125.918 118.207 128.875 114.478C131.833 110.749 134.75 106.986 137.604 103.173C139.207 101.027 140.79 98.8676 142.347 96.6881C142.475 96.5096 142.182 96.3411 142.057 96.5163Z" fill="black"/>
<path d="M126.221 79.1576C125.092 85.4199 123.812 91.652 122.741 97.9278C121.673 104.173 120.71 110.432 119.77 116.698C119.241 120.222 118.716 123.749 118.183 127.272C118.15 127.484 118.476 127.575 118.507 127.363C119.46 121.071 120.383 114.771 121.363 108.482C122.34 102.223 123.374 95.974 124.553 89.752C125.217 86.252 125.914 82.7587 126.548 79.2519C126.585 79.0363 126.261 78.9453 126.221 79.1576Z" fill="black"/>
<path d="M113.437 107.06C114.36 109.722 115.334 112.363 116.223 115.034C117.122 117.732 117.968 120.447 118.797 123.166C119.261 124.692 119.716 126.221 120.158 127.757C120.218 127.966 120.542 127.875 120.481 127.666C119.699 124.945 118.871 122.236 118.022 119.538C117.17 116.833 116.29 114.138 115.344 111.463C114.815 109.967 114.279 108.472 113.76 106.973C113.69 106.767 113.366 106.855 113.437 107.06Z" fill="black"/>
<path d="M126.662 110.793C127.14 110.159 127.625 109.519 128.158 108.93C128.639 108.394 129.195 107.929 129.765 107.491C129.933 107.36 129.768 107.067 129.596 107.202C129.003 107.657 128.42 108.135 127.918 108.691C127.369 109.304 126.864 109.964 126.372 110.621C126.241 110.796 126.534 110.965 126.662 110.793Z" fill="black"/>
<path d="M131.422 92.5817C131.5 93.2622 131.577 93.9393 131.621 94.6231C131.665 95.307 131.618 95.9841 131.621 96.6679C131.621 96.8835 131.958 96.8835 131.958 96.6679C131.955 95.9841 132.002 95.307 131.958 94.6231C131.914 93.9393 131.84 93.2622 131.759 92.5817C131.736 92.3695 131.399 92.3661 131.422 92.5817Z" fill="black"/>
<path d="M130.489 112.302C132.81 111.005 135.094 109.597 137.634 108.761C137.84 108.694 137.752 108.367 137.543 108.438C134.976 109.284 132.666 110.705 130.318 112.016C130.132 112.117 130.301 112.406 130.489 112.302Z" fill="black"/>
<path d="M138.608 98.2512C138.668 98.7935 138.736 99.3393 138.729 99.8884C138.726 100.148 138.706 100.4 138.665 100.656C138.625 100.909 138.584 101.162 138.608 101.418C138.628 101.633 138.965 101.633 138.945 101.418C138.921 101.155 138.968 100.896 139.009 100.636C139.046 100.39 139.066 100.141 139.066 99.8917C139.073 99.3426 139.005 98.7969 138.945 98.2546C138.921 98.0356 138.584 98.0356 138.608 98.2512Z" fill="black"/>
<path d="M125.675 84.6249C126.039 84.1331 126.39 83.6278 126.794 83.1697C126.996 82.9406 127.215 82.7317 127.427 82.5128C127.646 82.2837 127.862 82.0513 128.087 81.8289C128.242 81.6773 128.003 81.4382 127.848 81.5898C127.622 81.8121 127.407 82.0479 127.188 82.2736C126.966 82.506 126.733 82.7284 126.521 82.9709C126.113 83.4425 125.753 83.9546 125.386 84.4565C125.254 84.6317 125.547 84.8001 125.675 84.6249Z" fill="black"/>
<path d="M124.197 93.0297C124.833 92.319 125.433 91.5745 126.124 90.9176C126.824 90.254 127.596 89.6611 128.381 89.1019C128.556 88.9772 128.387 88.6842 128.212 88.8122C127.424 89.3747 126.652 89.9676 125.945 90.6279C125.228 91.2949 124.614 92.0629 123.961 92.7939C123.816 92.9523 124.052 93.1914 124.197 93.0297Z" fill="black"/>
<path d="M118.264 110.395C118.655 110.941 119.036 111.5 119.309 112.117C119.605 112.787 119.814 113.498 120.094 114.178C120.174 114.377 120.501 114.289 120.417 114.087C120.134 113.403 119.922 112.689 119.625 112.009C119.349 111.369 118.958 110.789 118.554 110.223C118.429 110.052 118.14 110.22 118.264 110.395Z" fill="black"/>
<path d="M111.537 109.994C111.877 110.193 112.217 110.395 112.558 110.597C112.891 110.796 113.194 111.045 113.497 111.288C114.09 111.766 114.67 112.258 115.263 112.736C115.431 112.871 115.67 112.635 115.502 112.497C114.892 112.002 114.296 111.497 113.683 111.005C113.396 110.776 113.11 110.533 112.793 110.345C112.433 110.129 112.072 109.914 111.709 109.705C111.52 109.594 111.348 109.887 111.537 109.994Z" fill="black"/>
<path d="M148.448 90.5403C148.448 90.5403 142.711 92.6356 140.935 93.818C139.16 95.0004 138.749 95.5023 138.749 95.5023C138.749 95.5023 141.572 91.1298 142.529 85.2582C143.486 79.3833 143.6 73.7374 143.6 73.7374C140.686 76.4559 137.668 79.7067 134.791 83.5705C133.083 85.868 131.571 88.1822 130.23 90.4931C129.283 91.5307 129.074 91.9417 129.074 91.9417C129.074 91.9417 130.907 87.0706 130.594 81.1282C130.284 75.1859 129.196 69.6444 129.196 69.6444C126.925 72.9188 124.665 76.7355 122.674 81.1249C121.033 84.7361 119.77 88.3069 118.807 91.78C118.13 88.3338 117.203 84.8001 115.953 81.2327C114.448 76.9376 112.693 73.2152 110.907 70.0318C110.907 70.0318 109.772 75.5632 109.273 81.4685C108.775 87.3738 110.126 92.1539 110.126 92.1539C110.126 92.1539 109.9 91.5913 108.711 90.1125C107.522 88.6336 103.297 85.5446 103.297 85.5446L103.112 85.5041C103.21 92.7232 104.402 105.74 112.117 116.435C113.498 118.349 114.943 119.989 116.388 121.401L116.459 121.411C116.486 121.677 116.513 121.943 116.543 122.199L119.373 121.798L119.494 121.815C119.494 121.805 119.497 121.791 119.497 121.781L120.164 121.687C120.137 121.933 120.11 122.175 120.087 122.411L123.819 122.684C125.874 121.623 127.993 120.336 130.102 118.77C141.902 110.011 146.682 97.5673 148.677 90.5403H148.448Z" fill="url(#paint4_linear_578_1588)"/>
<path d="M128.542 141.185H116.324C113.687 141.185 111.551 139.046 111.551 136.411V118.652H133.316V136.411C133.316 139.046 131.18 141.185 128.542 141.185Z" fill="url(#paint5_linear_578_1588)"/>
<path d="M118.642 127.127C119.13 126.087 118.716 124.635 118.184 123.651C116.732 120.956 114.758 118.773 112.019 117.325C110.564 116.553 108.991 116.078 107.374 115.883C105.585 115.664 104.13 115.964 102.452 116.479C101.536 116.759 101.835 117.944 102.58 118.204L101.142 123.611C101.034 123.718 100.923 123.823 100.798 123.917C100.296 124.298 99.949 124.406 99.7873 125.073C99.5111 126.208 101.36 126.497 101.633 125.369C101.546 125.733 101.707 125.554 101.93 125.426C102.196 125.275 102.432 124.982 102.63 124.756C103.132 124.176 103.624 123.675 104.369 123.388C105.592 122.917 106.996 123.267 108.236 123.641C111.15 124.523 112.437 127.885 115.536 128.317C116.607 128.458 118.153 128.168 118.642 127.127Z" fill="#FDDFD4"/>
<path opacity="0.31" d="M104.662 114.673C103.772 115.004 100.535 116.381 99.8242 119.868C99.1538 123.173 101.273 125.8 101.562 126.151C103.402 126.737 105.244 127.323 107.084 127.909C106.626 126.561 105.703 123.23 106.807 119.376C107.485 117.018 108.664 115.357 109.492 114.387C108.65 114.198 106.75 113.902 104.662 114.673Z" fill="#EA6225"/>
<path d="M98.1532 131.961C98.0555 131.005 97.8467 130.051 97.5367 129.132L95.8861 129.691L86.0765 131.796C85.8879 131.574 85.6993 131.348 85.514 131.116L84.1564 132.207L82.7988 133.299C85.9654 137.23 90.3918 141.131 93.8076 141.131C94.5757 141.131 95.2966 140.932 95.9366 140.494C98.736 138.574 98.2206 132.632 98.1532 131.961Z" fill="#FDDFD4"/>
<path d="M102.546 114.364C102.307 111.898 102.068 109.428 101.829 106.963C101.808 101.68 101.792 96.395 101.771 91.113C87.5691 90.4696 73.3702 89.8261 59.1678 89.1827C58.7906 94.202 58.4099 99.218 58.0326 104.237C57.1871 106.376 56.3752 108.708 55.6476 111.224C55.2871 112.464 54.9705 113.676 54.6909 114.849L54.253 116.418L54.2429 116.452C54.1519 116.809 52.0364 125.281 57.2376 129.432C61.9099 133.161 76.1864 134.053 77.837 134.144C77.8404 134.144 77.8404 134.144 77.8437 134.144C77.8437 134.144 77.8437 134.144 77.8471 134.144C79.6157 134.053 94.9532 133.167 99.9489 129.472C105.571 125.312 103.274 116.782 103.173 116.422L102.546 114.364Z" fill="#FDDFD4"/>
<path d="M38.9255 108.933C39.7778 109.186 40.7041 109.243 41.6912 109.105L56.6548 114.515L58.0831 111.163C58.3021 110.072 58.5244 108.98 58.7434 107.892C53.6769 102.849 48.607 97.8065 43.5406 92.7636L43.2104 91.0355C42.8365 91.1265 40.6368 91.6958 38.4876 93.242C37.1536 94.1987 35.8398 95.5327 34.9942 97.3551C33.8624 99.7907 33.8051 102.678 34.8494 105.079C35.6983 107.033 37.1468 108.404 38.9255 108.933Z" fill="#FDDFD4"/>
<path opacity="0.31" d="M41.0915 89.624C39.9394 89.9508 38.6324 90.8671 38.4875 90.9715C33.8287 94.3166 33.1987 100.114 33.0808 101.623C35.8229 97.2743 37.8576 96.4018 39.2219 96.4254C40.3201 96.4456 40.3504 97.0351 45.4674 100.751C48.7586 103.142 49.722 103.607 50.5406 103.927C50.9482 104.089 51.6893 104.217 52.3934 104.8C53.4949 105.706 53.7914 106.99 53.9228 107.549C54.6504 110.688 52.5281 113.794 52.1239 114.367C53.1278 114.367 54.135 114.367 55.1389 114.37C56.4796 111.834 57.8203 109.297 59.1577 106.76C53.0435 95.5765 45.875 88.2631 41.0915 89.624Z" fill="#EA6225"/>
<path d="M117.964 108.014C117.169 108.307 116.31 108.418 115.408 108.347L101.343 114.448L100.201 111.318C100.056 110.284 99.9083 109.253 99.7634 108.219C104.692 103.072 109.624 97.9244 114.552 92.7771L114.946 91.0995C115.286 91.1635 117.284 91.5778 119.184 92.9287C120.363 93.7675 121.501 94.9634 122.189 96.6612C123.105 98.9317 123.004 101.697 121.923 104.062C121.04 105.996 119.632 107.4 117.964 108.014Z" fill="#FDDFD4"/>
<path opacity="0.31" d="M116.977 89.6173C118.261 89.9171 119.305 90.7525 119.305 90.7525C121.292 92.2651 121.882 94.5389 122.077 95.5495C121.003 95.0004 119.083 94.2526 116.92 94.8084C116.118 95.0139 115.512 95.3407 111.988 98.4803C108.215 101.842 106.962 103.21 105.773 104.864C104.543 106.579 104.308 107.276 104.223 107.596C103.391 110.651 105.184 113.505 105.524 114.03C104.597 114.091 103.671 114.155 102.748 114.215C101.646 111.864 100.545 109.509 99.4399 107.158C105.659 96.0548 112.642 88.6 116.977 89.6173Z" fill="#EA6225"/>
<path opacity="0.31" d="M81.5493 131.672C82.2298 132.922 82.9136 134.171 83.5941 135.421C85.1336 135.792 88.4753 136.374 92.4571 135.249C96.1963 134.195 98.6419 132.16 99.7839 131.075C98.9586 129.058 98.1366 127.043 97.3113 125.025C92.0562 127.242 86.8011 129.459 81.5493 131.672Z" fill="#EA6225"/>
<path d="M57.2814 131.961C57.379 131.005 57.5879 130.051 57.8978 129.132L59.5485 129.691L69.358 131.796C69.5467 131.574 69.7353 131.348 69.9206 131.116L71.2782 132.207L72.6357 133.299C69.4692 137.23 65.0428 141.131 61.6269 141.131C60.8589 141.131 60.138 140.932 59.4979 140.494C56.6952 138.574 57.2106 132.632 57.2814 131.961Z" fill="#FDDFD4"/>
<path opacity="0.31" d="M73.8857 131.672C73.2053 132.922 72.5214 134.171 71.8409 135.421C70.3015 135.792 66.9597 136.374 62.978 135.249C59.2388 134.195 56.7931 132.16 55.6511 131.075C56.4764 129.058 57.2984 127.043 58.1237 125.025C63.3755 127.242 68.6306 129.459 73.8857 131.672Z" fill="#EA6225"/>
<path d="M101.828 106.963C100.936 101.259 99.9183 95.782 98.8168 90.547C86.3965 90.4325 73.9729 90.3213 61.5526 90.2068C60.3163 97.436 59.0362 101.657 58.0289 104.237C57.6651 105.167 56.7017 107.68 55.6439 111.224C54.987 113.417 54.5289 115.236 54.2493 116.422L54.2392 116.455C54.1482 116.813 52.0327 125.285 57.2339 129.435C61.9063 133.164 76.1827 134.057 77.8333 134.148C77.8367 134.148 77.8367 134.148 77.8401 134.148C77.8401 134.148 77.8401 134.148 77.8435 134.148C79.612 134.057 94.9495 133.171 99.9453 129.475C105.568 125.315 103.27 116.786 103.169 116.425C102.775 113.333 102.33 110.176 101.828 106.963Z" fill="#F6CABC"/>
<path d="M115.169 93.2925C115.354 92.6322 115.401 91.9652 115.3 91.3016L111.527 90.9479C111.514 90.9378 111.497 90.9277 111.483 90.9142L111.567 90.8839C111.54 90.8637 111.51 90.8435 111.483 90.8233L111.567 90.7929C111.54 90.7727 111.51 90.7525 111.483 90.7323L111.567 90.702C111.54 90.6818 111.51 90.6616 111.483 90.6414L111.567 90.611C111.54 90.5908 111.51 90.5706 111.483 90.5504L111.567 90.5201C111.54 90.4999 111.51 90.4797 111.483 90.4594L111.567 90.4291C111.54 90.4089 111.51 90.3887 111.483 90.3685L111.567 90.3382C111.54 90.318 111.51 90.2978 111.483 90.2775L111.567 90.2472C111.54 90.227 111.51 90.2068 111.483 90.1866L111.567 90.1563C111.54 90.1361 111.51 90.1158 111.483 90.0956L111.567 90.0653C111.54 90.0451 111.51 90.0249 111.483 90.0047L111.567 89.9744C111.54 89.9541 111.51 89.9339 111.483 89.9137L111.567 89.8834C111.54 89.8632 111.51 89.843 111.483 89.8228L111.567 89.7925C111.54 89.7722 111.51 89.752 111.483 89.7318L111.567 89.7015C111.54 89.6813 111.51 89.6611 111.483 89.6409L111.567 89.6105C111.54 89.5903 111.51 89.5701 111.483 89.5499L111.567 89.5196C111.54 89.4994 111.51 89.4792 111.483 89.459L111.567 89.4286C111.54 89.4084 111.51 89.3882 111.483 89.368L111.567 89.3377C111.54 89.3175 111.51 89.2973 111.483 89.277L111.567 89.2467C111.54 89.2265 111.51 89.2063 111.483 89.1861L111.567 89.1558C111.54 89.1356 111.51 89.1153 111.483 89.0951L111.567 89.0648C111.54 89.0446 111.51 89.0244 111.483 89.0042L111.567 88.9739C111.54 88.9537 111.51 88.9334 111.483 88.9132L111.567 88.8829C111.54 88.8627 111.51 88.8425 111.483 88.8223L111.567 88.792C111.54 88.7717 111.51 88.7515 111.483 88.7313L111.567 88.701C111.54 88.6808 111.51 88.6606 111.483 88.6404L111.567 88.61C111.54 88.5898 111.51 88.5696 111.483 88.5494L111.567 88.5191C111.54 88.4989 111.51 88.4787 111.483 88.4585L111.567 88.4281C111.54 88.4079 111.51 88.3877 111.483 88.3675L111.567 88.3372C111.54 88.317 111.51 88.2968 111.483 88.2766L111.567 88.2462C111.54 88.226 111.51 88.2058 111.483 88.1856L111.567 88.1553C111.54 88.1351 111.51 88.1149 111.483 88.0946L111.567 88.0643C111.54 88.0441 111.51 88.0239 111.483 88.0037L111.567 87.9734C111.54 87.9532 111.51 87.9329 111.483 87.9127L111.567 87.8824C111.54 87.8622 111.51 87.842 111.483 87.8218L111.567 87.7915C111.54 87.7713 111.51 87.751 111.483 87.7308L111.567 87.7005C111.54 87.6803 111.51 87.6601 111.483 87.6399L111.567 87.6096C111.54 87.5893 111.51 87.5691 111.483 87.5489L111.567 87.5186C111.54 87.4984 111.51 87.4782 111.483 87.458L111.567 87.4276C111.54 87.4074 111.51 87.3872 111.483 87.367L111.567 87.3367C111.54 87.3165 111.51 87.2963 111.483 87.2761L111.567 87.2457C111.54 87.2255 111.51 87.2053 111.483 87.1851L111.567 87.1548C111.54 87.1346 111.51 87.1144 111.483 87.0941L111.567 87.0638C111.54 87.0436 111.51 87.0234 111.483 87.0032L111.567 86.9729C111.54 86.9527 111.51 86.9325 111.483 86.9122L111.567 86.8819C111.54 86.8617 111.51 86.8415 111.483 86.8213L111.567 86.791C111.54 86.7708 111.51 86.7505 111.483 86.7303L111.567 86.7C111.54 86.6798 111.51 86.6596 111.483 86.6394L111.567 86.6091C111.54 86.5888 111.51 86.5686 111.483 86.5484L111.567 86.5181C111.54 86.4979 111.51 86.4777 111.483 86.4575L111.567 86.4272C111.557 86.4204 111.551 86.4137 111.54 86.4069L111.749 86.3362C111.133 85.8814 110.449 85.4334 109.678 85.0022C108.937 84.5811 108.121 84.1802 107.262 83.803L100.525 84.7529L96.0749 83.429L96.1086 83.3617C96.0951 83.3583 96.0817 83.3549 96.0682 83.3549L96.1086 83.2707C96.0951 83.2673 96.0817 83.264 96.0682 83.264L96.1086 83.1798C96.0951 83.1764 96.0817 83.173 96.0682 83.173L96.1086 83.0888C96.0951 83.0854 96.0817 83.0821 96.0682 83.0821L96.1086 82.9978C96.0951 82.9945 96.0817 82.9911 96.0682 82.9911L96.1086 82.9069C96.0951 82.9035 96.0817 82.9002 96.0682 82.9002L96.1086 82.8159C96.0951 82.8126 96.0817 82.8092 96.0682 82.8092L96.1086 82.725C96.0951 82.7216 96.0817 82.7183 96.0682 82.7183L96.1086 82.634C96.0951 82.6307 96.0817 82.6273 96.0682 82.6273L96.1086 82.5431C96.0951 82.5397 96.0817 82.5363 96.0682 82.5363L96.1086 82.4521C96.0951 82.4488 96.0817 82.4454 96.0682 82.4454L96.1086 82.3612C96.0951 82.3578 96.0817 82.3544 96.0682 82.3544L96.1086 82.2702C96.0951 82.2668 96.0817 82.2635 96.0682 82.2635L96.1086 82.1793C96.0951 82.1759 96.0817 82.1725 96.0682 82.1725L96.1086 82.0883C96.0951 82.0849 96.0817 82.0816 96.0682 82.0816L96.1086 81.9974C96.0951 81.994 96.0817 81.9906 96.0682 81.9906L96.1086 81.9064C96.0951 81.903 96.0817 81.8997 96.0682 81.8997L96.1086 81.8154C96.0951 81.8121 96.0817 81.8087 96.0682 81.8087L96.1086 81.7245C96.0951 81.7211 96.0817 81.7178 96.0682 81.7178L96.1086 81.6335C96.0951 81.6302 96.0817 81.6268 96.0682 81.6268L96.1086 81.5426C96.0951 81.5392 96.0817 81.5358 96.0682 81.5358L96.1086 81.4516C96.0951 81.4483 96.0817 81.4449 96.0682 81.4449L96.1086 81.3607C96.0951 81.3573 96.0817 81.3539 96.0682 81.3539L96.1086 81.2697C96.0951 81.2664 96.0817 81.263 96.0682 81.263L96.1086 81.1788C96.0951 81.1754 96.0817 81.172 96.0682 81.172L96.1086 81.0878C96.0951 81.0844 96.0817 81.0811 96.0682 81.0811L96.1086 80.9969C96.0951 80.9935 96.0817 80.9901 96.0682 80.9901L96.1086 80.9059L96.2939 80.5421C93.828 80.0637 91.2241 79.6966 88.5392 79.4372L88.3742 79.5315C88.3674 79.5315 88.3607 79.5315 88.3539 79.5281L84.6181 81.6369L77.4799 81.4819L74.3403 79.1273C71.6959 79.2586 69.0616 79.4978 66.5014 79.8515L66.5115 79.9155C66.4475 79.9256 66.3835 79.9324 66.3195 79.9425L66.333 80.0301C66.3296 80.0301 66.3229 80.0301 66.3195 80.0334L66.333 80.121C66.3296 80.121 66.3229 80.121 66.3195 80.1244L66.333 80.212C66.3296 80.212 66.3229 80.212 66.3195 80.2153L66.333 80.3029C66.3296 80.3029 66.3229 80.3029 66.3195 80.3063L66.333 80.3939C66.3296 80.3939 66.3229 80.3939 66.3195 80.3972L66.333 80.4848C66.3296 80.4848 66.3229 80.4848 66.3195 80.4882L66.333 80.5758C66.3296 80.5758 66.3229 80.5758 66.3195 80.5791L66.333 80.6667C66.3296 80.6667 66.3229 80.6667 66.3195 80.6701L66.333 80.7577C66.3296 80.7577 66.3229 80.7577 66.3195 80.7611L66.333 80.8486C66.3296 80.8486 66.3229 80.8486 66.3195 80.852L66.333 80.9396C66.3296 80.9396 66.3229 80.9396 66.3195 80.943L66.333 81.0305C66.3296 81.0305 66.3229 81.0305 66.3195 81.0339L66.333 81.1215C66.3296 81.1215 66.3229 81.1215 66.3195 81.1249L66.333 81.2125C66.3296 81.2125 66.3229 81.2125 66.3195 81.2158L66.333 81.3034C66.3296 81.3034 66.3229 81.3034 66.3195 81.3068L66.333 81.3944C66.3296 81.3944 66.3229 81.3944 66.3195 81.3977L66.333 81.4853C66.3296 81.4853 66.3229 81.4853 66.3195 81.4887L66.333 81.5763C66.3296 81.5763 66.3229 81.5763 66.3195 81.5796L66.333 81.6672C66.3296 81.6672 66.3229 81.6672 66.3195 81.6706L66.333 81.7582C66.3296 81.7582 66.3229 81.7582 66.3195 81.7615L66.333 81.8491C66.3296 81.8491 66.3229 81.8491 66.3195 81.8525L66.333 81.9401C66.3296 81.9401 66.3229 81.9401 66.3195 81.9435L66.333 82.031C66.3296 82.031 66.3229 82.031 66.3195 82.0344L66.333 82.122C66.3296 82.122 66.3229 82.122 66.3195 82.1254L66.333 82.213C66.3296 82.213 66.3229 82.2129 66.3195 82.2163L66.333 82.3039C66.3296 82.3039 66.3229 82.3039 66.3195 82.3073L66.333 82.3949C66.3296 82.3949 66.3229 82.3949 66.3195 82.3982L66.333 82.4858C66.3296 82.4858 66.3229 82.4858 66.3195 82.4892L66.333 82.5768C66.3296 82.5768 66.3229 82.5768 66.3195 82.5801V82.5902L60.8185 83.8366L54.4584 82.5801C54.0542 82.7183 53.6634 82.8597 53.2794 83.0046C52.4743 83.2741 51.686 83.6177 51.0426 83.9276C50.6788 84.0927 50.3251 84.2645 49.9848 84.4363C49.621 84.6148 49.2707 84.7967 48.9372 84.982L49.0281 85.0224C48.9978 85.0393 48.9675 85.0561 48.9372 85.0729L49.0281 85.1134C48.9978 85.1302 48.9675 85.1471 48.9372 85.1639L49.0281 85.2043C48.9978 85.2212 48.9675 85.238 48.9372 85.2549L49.0281 85.2953C48.9978 85.3121 48.9675 85.329 48.9372 85.3458L49.0281 85.3862C48.9978 85.4031 48.9675 85.4199 48.9372 85.4368L49.0281 85.4772C48.9978 85.494 48.9675 85.5109 48.9372 85.5277L49.0281 85.5681C48.9978 85.585 48.9675 85.6018 48.9372 85.6187L49.0281 85.6591C48.9978 85.6759 48.9675 85.6928 48.9372 85.7096L49.0281 85.7501C48.9978 85.7669 48.9675 85.7837 48.9372 85.8006L49.0281 85.841C48.9978 85.8578 48.9675 85.8747 48.9372 85.8915L49.0281 85.932C48.9978 85.9488 48.9675 85.9656 48.9372 85.9825L49.0281 86.0229C48.9978 86.0398 48.9675 86.0566 48.9372 86.0734L49.0281 86.1139C48.9978 86.1307 48.9675 86.1476 48.9372 86.1644L49.0281 86.2048C48.9978 86.2217 48.9675 86.2385 48.9372 86.2554L49.0281 86.2958C48.9978 86.3126 48.9675 86.3295 48.9372 86.3463L49.0281 86.3867C48.9978 86.4036 48.9675 86.4204 48.9372 86.4373L49.0281 86.4777C48.9978 86.4945 48.9675 86.5114 48.9372 86.5282L49.0281 86.5686C48.9978 86.5855 48.9675 86.6023 48.9372 86.6192L49.0281 86.6596C48.9978 86.6764 48.9675 86.6933 48.9372 86.7101L49.0281 86.7505C48.9978 86.7674 48.9675 86.7842 48.9372 86.8011L49.0281 86.8415C48.9978 86.8583 48.9675 86.8752 48.9372 86.892L49.0281 86.9325C48.9978 86.9493 48.9675 86.9661 48.9372 86.983L49.0281 87.0234C48.9978 87.0403 48.9675 87.0571 48.9372 87.0739L49.0281 87.1144C48.9978 87.1312 48.9675 87.148 48.9372 87.1649L49.0281 87.2053C48.9978 87.2222 48.9675 87.239 48.9372 87.2558L49.0281 87.2963C48.9978 87.3131 48.9675 87.33 48.9372 87.3468L49.0281 87.3872C48.9978 87.4041 48.9675 87.4209 48.9372 87.4378L49.0281 87.4782C48.9978 87.495 48.9675 87.5119 48.9372 87.5287L49.0281 87.5691C48.9978 87.586 48.9675 87.6028 48.9372 87.6197L49.0281 87.6601C48.9978 87.6769 48.9675 87.6938 48.9372 87.7106L49.0281 87.751C48.9978 87.7679 48.9675 87.7847 48.9372 87.8016L49.0281 87.842C48.9978 87.8588 48.9675 87.8757 48.9372 87.8925L49.0281 87.9329C48.9978 87.9498 48.9675 87.9666 48.9372 87.9835L49.0281 88.0239C48.9978 88.0407 48.9675 88.0576 48.9372 88.0744L49.0281 88.1149C48.9978 88.1317 48.9675 88.1485 48.9372 88.1654L49.0281 88.2058C48.9978 88.2227 48.9675 88.2395 48.9372 88.2563L49.0281 88.2968C48.9978 88.3136 48.9675 88.3305 48.9372 88.3473L49.0281 88.3877C48.9978 88.4046 48.9675 88.4214 48.9372 88.4382L49.0281 88.4787C48.9978 88.4955 48.9675 88.5124 48.9372 88.5292L49.0281 88.5696C48.9978 88.5865 48.9675 88.6033 48.9372 88.6202L49.0281 88.6606C48.9978 88.6774 48.9675 88.6943 48.9372 88.7111L49.0281 88.7515C48.9978 88.7684 48.9675 88.7852 48.9372 88.8021L49.0281 88.8425C48.9978 88.8593 48.9675 88.8762 48.9372 88.893L49.0281 88.9334C48.9978 88.9503 48.9675 88.9671 48.9372 88.984L49.0281 89.0244C48.9978 89.0412 48.9675 89.0581 48.9372 89.0749L49.0281 89.1153C48.9978 89.1322 48.9675 89.149 48.9372 89.1659L49.0281 89.2063C48.9978 89.2231 48.9675 89.24 48.9372 89.2568L49.0281 89.2973C48.9978 89.3141 48.9675 89.3309 48.9372 89.3478L49.0281 89.3882C49.0113 89.3983 48.9978 89.4051 48.981 89.4152L43.8471 89.6577C43.8336 89.6847 43.8202 89.715 43.8067 89.7419L43.6652 89.7487C43.261 90.547 43.0588 91.3623 43.0757 92.1808C43.0757 92.2112 43.0757 92.2415 43.0757 92.2718C43.0757 92.3021 43.0757 92.3324 43.0757 92.3627C43.0757 92.3931 43.0757 92.4234 43.0757 92.4537C43.0757 92.484 43.0757 92.5143 43.0757 92.5447C43.0757 92.575 43.0757 92.6053 43.0757 92.6356C43.0757 92.6659 43.0757 92.6962 43.0757 92.7266C43.0757 92.7569 43.0757 92.7872 43.0757 92.8175C43.0757 92.8478 43.0757 92.8782 43.0757 92.9085C43.0757 92.9388 43.0757 92.9691 43.0757 92.9994C43.0757 93.0297 43.0757 93.0601 43.0757 93.0904C43.0757 93.1207 43.0757 93.151 43.0757 93.1813C43.0757 93.2117 43.0757 93.242 43.0757 93.2723C43.0757 93.3026 43.0757 93.3329 43.0757 93.3632C43.0757 93.3936 43.0757 93.4239 43.0757 93.4542C43.0757 93.4845 43.0757 93.5148 43.0757 93.5452C43.0757 93.5755 43.0757 93.6058 43.0757 93.6361C43.0757 93.6664 43.0757 93.6967 43.0757 93.7271C43.0757 93.7574 43.0757 93.7877 43.0757 93.818C43.0757 93.8483 43.0757 93.8786 43.0757 93.909C43.0757 93.9393 43.0757 93.9696 43.0757 93.9999C43.0757 94.0302 43.0757 94.0606 43.0757 94.0909C43.0757 94.1212 43.0757 94.1515 43.0757 94.1818C43.0757 94.2121 43.0757 94.2425 43.0757 94.2728C43.0757 94.3031 43.0757 94.3334 43.0757 94.3637C43.0757 94.3941 43.0757 94.4244 43.0757 94.4547C43.0757 94.485 43.0757 94.5153 43.0757 94.5456C43.0757 94.576 43.0757 94.6063 43.0757 94.6366C43.0757 94.6669 43.0757 94.6972 43.0757 94.7276C43.0757 94.7579 43.0757 94.7882 43.0757 94.8185C43.0757 94.8488 43.0757 94.8791 43.0757 94.9095C43.0757 94.9398 43.0757 94.9701 43.0757 95.0004C43.0757 95.0307 43.0757 95.061 43.0757 95.0914C43.0757 95.1217 43.0757 95.152 43.0757 95.1823C43.0757 95.2126 43.0757 95.243 43.0757 95.2733C43.0757 95.3036 43.0757 95.3339 43.0757 95.3642C43.0757 95.3945 43.0757 95.4249 43.0757 95.4552C43.0757 95.4855 43.0757 95.5158 43.0757 95.5461C43.0757 95.5765 43.0757 95.6068 43.0757 95.6371C43.0757 95.6674 43.0757 95.6977 43.0757 95.728C43.0757 95.7584 43.0757 95.7887 43.0757 95.819C43.0757 95.8493 43.0757 95.8796 43.0757 95.91C43.0757 95.9403 43.0757 95.9706 43.0757 96.0009C43.0757 96.0312 43.0757 96.0615 43.0757 96.0919C43.0757 96.1222 43.0757 96.1525 43.0757 96.1828C43.0757 96.2131 43.0757 96.2435 43.0757 96.2738C43.0757 96.3041 43.0757 96.3344 43.0757 96.3647C43.0757 96.395 43.0757 96.4254 43.0757 96.4557C43.0757 96.486 43.0757 96.5163 43.0757 96.5466C43.0757 96.5769 43.0757 96.6073 43.0757 96.6376C43.0757 96.6679 43.0757 96.6982 43.0757 96.7285C43.0757 96.7589 43.0757 96.7892 43.0757 96.8195C43.0757 96.8498 43.0757 96.8801 43.0757 96.9104C43.0757 96.9408 43.0757 96.9711 43.0757 97.0014C43.0757 97.0317 43.0757 97.062 43.0757 97.0924C43.0757 97.1227 43.0757 97.153 43.0757 97.1833C43.0757 97.2136 43.0757 97.2439 43.0757 97.2743C43.0757 97.3046 43.0757 97.3349 43.0757 97.3652C43.0757 97.3955 43.0757 97.4259 43.0757 97.4562C43.0757 97.4865 43.0757 97.5168 43.0757 97.5471C43.0757 97.5774 43.0757 97.6078 43.0757 97.6381C43.0757 97.6684 43.0757 97.6987 43.0757 97.729C43.0757 97.7594 43.0757 97.7897 43.0757 97.82C43.0757 97.8503 43.0757 97.8806 43.0757 97.9109C43.0757 97.9413 43.0757 97.9716 43.0757 98.0019C43.0757 98.0322 43.0757 98.0625 43.0757 98.0929C43.0757 98.1232 43.0757 98.1535 43.0757 98.1838C43.0757 98.2141 43.0757 98.2444 43.0757 98.2748C43.0757 98.3051 43.0757 98.3354 43.0757 98.3657C43.0757 98.396 43.0757 98.4263 43.0757 98.4567C43.0757 98.487 43.0757 98.5173 43.0757 98.5476C43.0757 98.5779 43.0757 98.6083 43.0757 98.6386C43.0757 98.6689 43.0757 98.6992 43.0757 98.7295C43.0757 98.7598 43.0757 98.7902 43.0757 98.8205C43.0757 98.8508 43.0757 98.8811 43.0757 98.9114C43.0757 98.9418 43.0757 98.9721 43.0757 99.0024C43.0757 99.0327 43.0757 99.063 43.0757 99.0933C43.0757 99.1237 43.0757 99.154 43.0757 99.1843C43.0757 99.2146 43.0757 99.2449 43.0757 99.2753C43.0757 99.3056 43.0757 99.3359 43.0757 99.3662C43.0757 99.3965 43.0757 99.4268 43.0757 99.4572C43.0757 99.4875 43.0757 99.5178 43.0757 99.5481C43.0757 99.5784 43.0757 99.6088 43.0757 99.6391C43.0757 99.6694 43.0757 99.6997 43.0757 99.73C43.0757 99.7603 43.0757 99.7907 43.0757 99.821C43.0757 99.8513 43.0757 99.8816 43.0757 99.9119C43.0757 99.9422 43.0757 99.9726 43.0757 100.003C43.0757 100.033 43.0757 100.064 43.0757 100.094C43.0757 100.124 43.0757 100.154 43.0757 100.185C43.0757 100.215 43.0757 100.245 43.0757 100.276C43.0757 100.306 43.0757 100.336 43.0757 100.367C43.0757 100.397 43.0757 100.427 43.0757 100.458C43.0757 100.488 43.0757 100.518 43.0757 100.549C43.0757 100.579 43.0757 100.609 43.0757 100.64C43.0757 100.67 43.0757 100.7 43.0757 100.731C43.0757 100.761 43.0757 100.791 43.0757 100.821C43.0757 100.852 43.0757 100.882 43.0757 100.912C43.0757 100.943 43.0757 100.973 43.0757 101.003C43.0757 101.034 43.0757 101.064 43.0757 101.094C43.0757 101.125 43.0757 101.155 43.0757 101.185C43.0757 101.216 43.0757 101.246 43.0757 101.276C43.0757 101.495 43.0892 101.714 43.1228 101.933L46.6296 102.27C46.6566 102.29 46.6802 102.307 46.7071 102.327L46.6229 102.358C46.6498 102.378 46.6802 102.398 46.7071 102.418L46.6229 102.449C46.6498 102.469 46.6802 102.489 46.7071 102.509L46.6229 102.539C46.6498 102.56 46.6802 102.58 46.7071 102.6L46.6229 102.63C46.6498 102.651 46.6802 102.671 46.7071 102.691L46.6229 102.721C46.6498 102.742 46.6802 102.762 46.7071 102.782L46.6229 102.812C46.6498 102.833 46.6802 102.853 46.7071 102.873L46.6229 102.903C46.6498 102.924 46.6802 102.944 46.7071 102.964L46.6229 102.994C46.6498 103.014 46.6802 103.035 46.7071 103.055L46.6229 103.085C46.6498 103.105 46.6802 103.126 46.7071 103.146L46.6229 103.176C46.6498 103.196 46.6802 103.217 46.7071 103.237L46.6229 103.267C46.6498 103.287 46.6802 103.308 46.7071 103.328L46.6229 103.358C46.6498 103.378 46.6802 103.399 46.7071 103.419L46.6229 103.449C46.6498 103.469 46.6802 103.489 46.7071 103.51L46.6229 103.54C46.6498 103.56 46.6802 103.58 46.7071 103.601L46.6229 103.631C46.6498 103.651 46.6802 103.671 46.7071 103.692L46.6229 103.722C46.6498 103.742 46.6802 103.762 46.7071 103.783L46.6229 103.813C46.6498 103.833 46.6802 103.853 46.7071 103.873L46.6229 103.904C46.6498 103.924 46.6802 103.944 46.7071 103.964L46.6229 103.995C46.6498 104.015 46.6802 104.035 46.7071 104.055L46.6229 104.086C46.6498 104.106 46.6802 104.126 46.7071 104.146L46.6229 104.177C46.6498 104.197 46.6802 104.217 46.7071 104.237L46.6229 104.268C46.6498 104.288 46.6802 104.308 46.7071 104.328L46.6229 104.359C46.6498 104.379 46.6802 104.399 46.7071 104.419L46.6229 104.45C46.6498 104.47 46.6802 104.49 46.7071 104.51L46.6229 104.54C46.6498 104.561 46.6802 104.581 46.7071 104.601L46.6229 104.631C46.6498 104.652 46.6802 104.672 46.7071 104.692L46.6229 104.722C46.6498 104.743 46.6802 104.763 46.7071 104.783L46.6229 104.813C46.6498 104.834 46.6802 104.854 46.7071 104.874L46.6229 104.904C46.6498 104.925 46.6802 104.945 46.7071 104.965L46.6229 104.995C46.6498 105.015 46.6802 105.036 46.7071 105.056L46.6229 105.086C46.6498 105.106 46.6802 105.127 46.7071 105.147L46.6229 105.177C46.6498 105.197 46.6802 105.218 46.7071 105.238L46.6229 105.268C46.6498 105.288 46.6802 105.309 46.7071 105.329L46.6229 105.359C46.6498 105.379 46.6802 105.399 46.7071 105.42L46.6229 105.45C46.6498 105.47 46.6802 105.49 46.7071 105.511L46.6229 105.541C46.6498 105.561 46.6802 105.581 46.7071 105.602L46.6229 105.632C46.6498 105.652 46.6802 105.672 46.7071 105.693L46.6229 105.723C46.6498 105.743 46.6802 105.763 46.7071 105.784L46.6229 105.814C46.6498 105.834 46.6802 105.854 46.7071 105.874L46.6229 105.905C46.6498 105.925 46.6802 105.945 46.7071 105.965L46.6229 105.996C46.6498 106.016 46.6802 106.036 46.7071 106.056L46.6229 106.087C46.6498 106.107 46.6802 106.127 46.7071 106.147L46.6229 106.178C46.6498 106.198 46.6802 106.218 46.7071 106.238L46.6229 106.269C46.6498 106.289 46.6802 106.309 46.7071 106.329L46.6229 106.36C46.6498 106.38 46.6802 106.4 46.7071 106.42L46.6229 106.451C46.6498 106.471 46.6802 106.491 46.7071 106.511L46.6229 106.541C46.6498 106.562 46.6802 106.582 46.7071 106.602L46.6229 106.632C46.6498 106.653 46.6802 106.673 46.7071 106.693L46.6229 106.723C46.6498 106.744 46.6802 106.764 46.7071 106.784L46.6229 106.814C46.6498 106.835 46.6802 106.855 46.7071 106.875L46.6229 106.905C47.2427 107.37 47.94 107.832 48.7317 108.28C49.4627 108.687 50.2442 109.075 51.0695 109.445L57.8203 108.502L62.0312 109.762L62.0076 109.809C62.0211 109.812 62.0379 109.816 62.0514 109.816L62.0076 109.9C62.0211 109.903 62.0379 109.907 62.0514 109.907L62.0076 109.991C62.0211 109.994 62.0379 109.998 62.0514 109.998L62.0076 110.082C62.0211 110.085 62.0379 110.089 62.0514 110.089L62.0076 110.173C62.0211 110.176 62.0379 110.18 62.0514 110.18L62.0076 110.264C62.0211 110.267 62.0379 110.271 62.0514 110.271L62.0076 110.355C62.0211 110.358 62.0379 110.362 62.0514 110.362L62.0076 110.446C62.0211 110.449 62.0379 110.452 62.0514 110.452L62.0076 110.537C62.0211 110.54 62.0379 110.543 62.0514 110.543L62.0076 110.628C62.0211 110.631 62.0379 110.634 62.0514 110.634L62.0076 110.719C62.0211 110.722 62.0379 110.725 62.0514 110.725L62.0076 110.81C62.0211 110.813 62.0379 110.816 62.0514 110.816L62.0076 110.901C62.0211 110.904 62.0379 110.907 62.0514 110.907L62.0076 110.991C62.0211 110.995 62.0379 110.998 62.0514 110.998L62.0076 111.082C62.0211 111.086 62.0379 111.089 62.0514 111.089L62.0076 111.173C62.0211 111.177 62.0379 111.18 62.0514 111.18L62.0076 111.264C62.0211 111.268 62.0379 111.271 62.0514 111.271L62.0076 111.355C62.0211 111.359 62.0379 111.362 62.0514 111.362L62.0076 111.446C62.0211 111.45 62.0379 111.453 62.0514 111.453L62.0076 111.537C62.0211 111.541 62.0379 111.544 62.0514 111.544L62.0076 111.628C62.0211 111.632 62.0379 111.635 62.0514 111.635L62.0076 111.719C62.0211 111.722 62.0379 111.726 62.0514 111.726L62.0076 111.81C62.0211 111.813 62.0379 111.817 62.0514 111.817L62.0076 111.901C62.0211 111.904 62.0379 111.908 62.0514 111.908L62.0076 111.992C62.0211 111.995 62.0379 111.999 62.0514 111.999L62.0076 112.083C62.0211 112.086 62.0379 112.09 62.0514 112.09L62.0076 112.174C62.0211 112.177 62.0379 112.181 62.0514 112.181L62.0076 112.265C62.0211 112.268 62.0379 112.272 62.0514 112.272L62.0076 112.356C62.0211 112.359 62.0379 112.363 62.0514 112.363L62.0076 112.447C62.0211 112.45 62.0379 112.453 62.0514 112.453L62.0076 112.538C62.0211 112.541 62.0379 112.544 62.0514 112.544L62.0076 112.629C62.0211 112.632 62.0379 112.635 62.0514 112.635L62.0076 112.72C64.4802 113.198 67.0875 113.575 69.7757 113.835L73.6969 111.638L80.8553 111.803L83.9713 114.165C86.7033 114.03 89.4184 113.787 92.0527 113.42L92.0393 113.333C92.0426 113.333 92.0494 113.333 92.0527 113.329L92.0393 113.242C92.0426 113.242 92.0494 113.242 92.0527 113.238L92.0393 113.151C92.0426 113.151 92.0494 113.151 92.0527 113.147L92.0393 113.06C92.0426 113.06 92.0494 113.06 92.0527 113.056L92.0393 112.969C92.0426 112.969 92.0494 112.969 92.0527 112.966L92.0393 112.878C92.0426 112.878 92.0494 112.878 92.0527 112.875L92.0393 112.787C92.0426 112.787 92.0494 112.787 92.0527 112.784L92.0393 112.696C92.0426 112.696 92.0494 112.696 92.0527 112.693L92.0393 112.605C92.0426 112.605 92.0494 112.605 92.0527 112.602L92.0393 112.514C92.0426 112.514 92.0494 112.514 92.0527 112.511L92.0393 112.423C92.0426 112.423 92.0494 112.423 92.0527 112.42L92.0393 112.332C92.0426 112.332 92.0494 112.332 92.0527 112.329L92.0393 112.241C92.0426 112.241 92.0494 112.241 92.0527 112.238L92.0393 112.15C92.0426 112.15 92.0494 112.15 92.0527 112.147L92.0393 112.059C92.0426 112.059 92.0494 112.059 92.0527 112.056L92.0393 111.968C92.0426 111.968 92.0494 111.968 92.0527 111.965L92.0393 111.877C92.0426 111.877 92.0494 111.877 92.0527 111.874L92.0393 111.786C92.0426 111.786 92.0494 111.786 92.0527 111.783L92.0393 111.696C92.0426 111.696 92.0494 111.696 92.0527 111.692L92.0393 111.605C92.0426 111.605 92.0494 111.605 92.0527 111.601L92.0393 111.514C92.0426 111.514 92.0494 111.514 92.0527 111.51L92.0393 111.423C92.0426 111.423 92.0494 111.423 92.0527 111.419L92.0393 111.332C92.0426 111.332 92.0494 111.332 92.0527 111.328L92.0393 111.241C92.0426 111.241 92.0494 111.241 92.0527 111.237L92.0393 111.15C92.0426 111.15 92.0494 111.15 92.0527 111.146L92.0393 111.059C92.0426 111.059 92.0494 111.059 92.0527 111.055L92.0393 110.968C92.0426 110.968 92.0494 110.968 92.0527 110.965L92.0393 110.877C92.0426 110.877 92.0494 110.877 92.0527 110.874L92.0393 110.786C92.0426 110.786 92.0494 110.786 92.0527 110.783L92.0426 110.715L97.6953 109.425L104.062 110.675C106.103 109.967 107.879 109.189 109.378 108.354L109.287 108.313C109.317 108.297 109.347 108.28 109.378 108.263L109.287 108.222C109.317 108.206 109.347 108.189 109.378 108.172L109.287 108.131C109.317 108.115 109.347 108.098 109.378 108.081L109.287 108.041C109.317 108.024 109.347 108.007 109.378 107.99L109.287 107.95C109.317 107.933 109.347 107.916 109.378 107.899L109.287 107.859C109.317 107.842 109.347 107.825 109.378 107.808L109.287 107.768C109.317 107.751 109.347 107.734 109.378 107.717L109.287 107.677C109.317 107.66 109.347 107.643 109.378 107.626L109.287 107.586C109.317 107.569 109.347 107.552 109.378 107.535L109.287 107.495C109.317 107.478 109.347 107.461 109.378 107.444L109.287 107.404C109.317 107.387 109.347 107.37 109.378 107.353L109.287 107.313C109.317 107.296 109.347 107.279 109.378 107.262L109.287 107.222C109.317 107.205 109.347 107.188 109.378 107.171L109.287 107.131C109.317 107.114 109.347 107.097 109.378 107.08L109.287 107.04C109.317 107.023 109.347 107.006 109.378 106.99L109.287 106.949C109.317 106.932 109.347 106.915 109.378 106.899L109.287 106.858C109.317 106.841 109.347 106.824 109.378 106.808L109.287 106.767C109.317 106.75 109.347 106.733 109.378 106.717L109.287 106.676C109.317 106.659 109.347 106.643 109.378 106.626L109.287 106.585C109.317 106.568 109.347 106.552 109.378 106.535L109.287 106.494C109.317 106.477 109.347 106.461 109.378 106.444L109.287 106.403C109.317 106.387 109.347 106.37 109.378 106.353L109.287 106.312C109.317 106.296 109.347 106.279 109.378 106.262L109.287 106.221C109.317 106.205 109.347 106.188 109.378 106.171L109.287 106.13C109.317 106.114 109.347 106.097 109.378 106.08L109.287 106.04C109.317 106.023 109.347 106.006 109.378 105.989L109.287 105.949C109.317 105.932 109.347 105.915 109.378 105.898L109.287 105.858C109.317 105.841 109.347 105.824 109.378 105.807L109.287 105.767C109.317 105.75 109.347 105.733 109.378 105.716L109.287 105.676C109.317 105.659 109.347 105.642 109.378 105.625L109.287 105.585C109.317 105.568 109.347 105.551 109.378 105.534L109.287 105.494C109.317 105.477 109.347 105.46 109.378 105.443L109.287 105.403C109.317 105.386 109.347 105.369 109.378 105.352L109.287 105.312C109.317 105.295 109.347 105.278 109.378 105.261L109.287 105.221C109.317 105.204 109.347 105.187 109.378 105.17L109.287 105.13C109.317 105.113 109.347 105.096 109.378 105.079L109.287 105.039C109.317 105.022 109.347 105.005 109.378 104.989L109.287 104.948C109.317 104.931 109.347 104.914 109.378 104.898L109.287 104.857C109.317 104.84 109.347 104.823 109.378 104.807L109.287 104.766C109.317 104.749 109.347 104.732 109.378 104.716L109.287 104.675C109.317 104.658 109.347 104.642 109.378 104.625L109.287 104.584C109.317 104.567 109.347 104.551 109.378 104.534L109.287 104.493C109.317 104.476 109.347 104.46 109.378 104.443L109.287 104.402C109.317 104.386 109.347 104.369 109.378 104.352L109.287 104.311C109.317 104.295 109.347 104.278 109.378 104.261L109.287 104.22C109.317 104.204 109.347 104.187 109.378 104.17L109.287 104.13C109.317 104.113 109.347 104.096 109.378 104.079L109.287 104.039C109.317 104.022 109.347 104.005 109.378 103.988L109.287 103.948C109.317 103.931 109.347 103.914 109.378 103.897L109.287 103.857C109.3 103.85 109.31 103.843 109.324 103.836L114.603 103.584C114.983 102.819 115.179 102.041 115.179 101.259C115.179 101.229 115.179 101.199 115.179 101.168C115.179 101.138 115.179 101.108 115.179 101.077C115.179 101.047 115.179 101.017 115.179 100.987C115.179 100.956 115.179 100.926 115.179 100.896C115.179 100.865 115.179 100.835 115.179 100.805C115.179 100.774 115.179 100.744 115.179 100.714C115.179 100.683 115.179 100.653 115.179 100.623C115.179 100.592 115.179 100.562 115.179 100.532C115.179 100.501 115.179 100.471 115.179 100.441C115.179 100.41 115.179 100.38 115.179 100.35C115.179 100.32 115.179 100.289 115.179 100.259C115.179 100.229 115.179 100.198 115.179 100.168C115.179 100.138 115.179 100.107 115.179 100.077C115.179 100.047 115.179 100.016 115.179 99.986C115.179 99.9557 115.179 99.9254 115.179 99.8951C115.179 99.8648 115.179 99.8344 115.179 99.8041C115.179 99.7738 115.179 99.7435 115.179 99.7132C115.179 99.6829 115.179 99.6525 115.179 99.6222C115.179 99.5919 115.179 99.5616 115.179 99.5313C115.179 99.501 115.179 99.4706 115.179 99.4403C115.179 99.41 115.179 99.3797 115.179 99.3494C115.179 99.319 115.179 99.2887 115.179 99.2584C115.179 99.2281 115.179 99.1978 115.179 99.1675C115.179 99.1371 115.179 99.1068 115.179 99.0765C115.179 99.0462 115.179 99.0159 115.179 98.9855C115.179 98.9552 115.179 98.9249 115.179 98.8946C115.179 98.8643 115.179 98.834 115.179 98.8036C115.179 98.7733 115.179 98.743 115.179 98.7127C115.179 98.6824 115.179 98.652 115.179 98.6217C115.179 98.5914 115.179 98.5611 115.179 98.5308C115.179 98.5005 115.179 98.4701 115.179 98.4398C115.179 98.4095 115.179 98.3792 115.179 98.3489C115.179 98.3186 115.179 98.2882 115.179 98.2579C115.179 98.2276 115.179 98.1973 115.179 98.167C115.179 98.1366 115.179 98.1063 115.179 98.076C115.179 98.0457 115.179 98.0154 115.179 97.9851C115.179 97.9547 115.179 97.9244 115.179 97.8941C115.179 97.8638 115.179 97.8335 115.179 97.8031C115.179 97.7728 115.179 97.7425 115.179 97.7122C115.179 97.6819 115.179 97.6516 115.179 97.6212C115.179 97.5909 115.179 97.5606 115.179 97.5303C115.179 97.5 115.179 97.4696 115.179 97.4393C115.179 97.409 115.179 97.3787 115.179 97.3484C115.179 97.3181 115.179 97.2877 115.179 97.2574C115.179 97.2271 115.179 97.1968 115.179 97.1665C115.179 97.1362 115.179 97.1058 115.179 97.0755C115.179 97.0452 115.179 97.0149 115.179 96.9846C115.179 96.9542 115.179 96.9239 115.179 96.8936C115.179 96.8633 115.179 96.833 115.179 96.8027C115.179 96.7723 115.179 96.742 115.179 96.7117C115.179 96.6814 115.179 96.6511 115.179 96.6207C115.179 96.5904 115.179 96.5601 115.179 96.5298C115.179 96.4995 115.179 96.4692 115.179 96.4388C115.179 96.4085 115.179 96.3782 115.179 96.3479C115.179 96.3176 115.179 96.2872 115.179 96.2569C115.179 96.2266 115.179 96.1963 115.179 96.166C115.179 96.1357 115.179 96.1053 115.179 96.075C115.179 96.0447 115.179 96.0144 115.179 95.9841C115.179 95.9537 115.179 95.9234 115.179 95.8931C115.179 95.8628 115.179 95.8325 115.179 95.8022C115.179 95.7718 115.179 95.7415 115.179 95.7112C115.179 95.6809 115.179 95.6506 115.179 95.6202C115.179 95.5899 115.179 95.5596 115.179 95.5293C115.179 95.499 115.179 95.4687 115.179 95.4383C115.179 95.408 115.179 95.3777 115.179 95.3474C115.179 95.3171 115.179 95.2867 115.179 95.2564C115.179 95.2261 115.179 95.1958 115.179 95.1655C115.179 95.1352 115.179 95.1048 115.179 95.0745C115.179 95.0442 115.179 95.0139 115.179 94.9836C115.179 94.9532 115.179 94.9229 115.179 94.8926C115.179 94.8623 115.179 94.832 115.179 94.8017C115.179 94.7713 115.179 94.741 115.179 94.7107C115.179 94.6804 115.179 94.6501 115.179 94.6198C115.179 94.5894 115.179 94.5591 115.179 94.5288C115.179 94.4985 115.179 94.4682 115.179 94.4378C115.179 94.4075 115.179 94.3772 115.179 94.3469C115.179 94.3166 115.179 94.2863 115.179 94.2559C115.179 94.2256 115.179 94.1953 115.179 94.165C115.179 94.1347 115.179 94.1043 115.179 94.074C115.179 94.0437 115.179 94.0134 115.179 93.9831C115.179 93.9528 115.179 93.9224 115.179 93.8921C115.179 93.8618 115.179 93.8315 115.179 93.8012C115.179 93.7708 115.179 93.7405 115.179 93.7102C115.179 93.6799 115.179 93.6496 115.179 93.6193C115.179 93.5889 115.179 93.5586 115.179 93.5283C115.179 93.498 115.179 93.4677 115.179 93.4374C115.179 93.407 115.179 93.3767 115.179 93.3464C115.169 93.3296 115.169 93.3127 115.169 93.2925ZM74.31 97.5505C72.4943 97.3349 70.8537 97.0182 69.422 96.6174C73.4745 95.5226 78.8914 95.1318 84.0757 95.7382C85.9049 95.9504 87.5522 96.2704 88.9906 96.6679C84.9347 97.7627 79.5146 98.1569 74.31 97.5505Z" fill="#462F7E"/>
<path d="M114.778 94.3031C115.27 93.3161 115.455 92.3089 115.303 91.3016L108.3 90.6447L106.501 88.1351L111.753 86.3362C111.136 85.8814 110.452 85.4334 109.681 85.0022C108.94 84.5811 108.125 84.1803 107.266 83.803L100.528 84.7529L94.997 83.1057L96.2939 80.5387C93.8281 80.0604 91.2241 79.6932 88.5393 79.4338L84.6417 81.6335L77.4799 81.4786L74.3403 79.1239C71.6959 79.2553 69.0616 79.4944 66.5014 79.8482L66.8956 82.4589L60.8151 83.8333L54.4551 82.5768C54.0508 82.7149 53.6601 82.8564 53.276 83.0012C52.4709 83.2707 51.6827 83.6143 51.0392 83.9242C50.3554 84.2375 49.712 84.5575 49.1157 84.8877L53.6904 86.9156L51.0224 89.3208L43.8471 89.6577C43.3486 90.6414 43.1566 91.6486 43.3014 92.6592L50.2914 93.3296L52.0566 95.8358L46.8015 97.6313C47.4213 98.0962 48.1186 98.5577 48.9102 99.0058C49.6412 99.4134 50.4228 99.8008 51.2481 100.171L57.9989 99.2281L63.5168 100.882L62.1862 103.452C64.6588 103.931 67.2695 104.308 69.9543 104.567L73.8754 102.371L81.0339 102.536L84.1499 104.898C86.8819 104.763 89.597 104.52 92.2313 104.153L91.8102 101.542L97.8738 100.158L104.241 101.408C106.282 100.7 108.057 99.922 109.556 99.0866L104.968 97.0654L107.609 94.6568L114.778 94.3031ZM84.2577 86.4541C92.777 87.4445 97.4224 90.7357 94.6669 93.7978C91.9214 96.8566 82.8294 98.5443 74.31 97.5505C65.8243 96.55 61.1688 93.2689 63.9345 90.2102C66.6564 87.1413 75.772 85.4604 84.2577 86.4541Z" fill="url(#paint6_linear_578_1588)"/>
<path d="M78.0525 116.759C80.8525 116.759 83.1224 114.489 83.1224 111.689C83.1224 108.889 80.8525 106.619 78.0525 106.619C75.2525 106.619 72.9827 108.889 72.9827 111.689C72.9827 114.489 75.2525 116.759 78.0525 116.759Z" fill="url(#paint7_linear_578_1588)"/>
<path d="M77.7933 117.985C74.3269 117.985 71.5073 115.165 71.5073 111.699C71.5073 108.233 74.3269 105.413 77.7933 105.413C81.2596 105.413 84.0792 108.233 84.0792 111.699C84.0792 115.165 81.2596 117.985 77.7933 117.985ZM77.7933 107.593C75.5295 107.593 73.6869 109.435 73.6869 111.699C73.6869 113.963 75.5295 115.805 77.7933 115.805C80.057 115.805 81.8997 113.963 81.8997 111.699C81.8997 109.435 80.057 107.593 77.7933 107.593Z" fill="#E96226"/>
<path d="M77.7932 113.633C78.7253 113.633 79.4809 112.877 79.4809 111.945C79.4809 111.013 78.7253 110.257 77.7932 110.257C76.8611 110.257 76.1055 111.013 76.1055 111.945C76.1055 112.877 76.8611 113.633 77.7932 113.633Z" fill="#E8622F"/>
<path d="M78.881 113.033H76.7048V116.365H78.881V113.033Z" fill="#E8622F"/>
<path d="M116.998 74.0641C117.217 74.0743 117.432 74.0372 117.648 74.0035C117.678 74.0001 117.709 73.9934 117.739 73.99C117.894 73.9631 117.86 73.9665 117.638 74.0001C117.712 74.0204 117.877 73.9934 117.951 73.9934C118.099 73.9934 118.248 73.9968 118.396 73.9968C119.137 74.0001 119.844 73.3432 119.811 72.5819C119.777 71.8139 119.187 71.1705 118.396 71.1671C118.143 71.1671 117.89 71.1502 117.638 71.1705C117.453 71.1839 117.264 71.2176 117.079 71.2479C116.924 71.2749 116.957 71.2715 117.18 71.2378C117.119 71.2446 117.058 71.2446 116.998 71.2378C116.257 71.2075 115.549 71.9116 115.583 72.6527C115.617 73.4409 116.203 74.0271 116.998 74.0641Z" fill="white"/>
<path d="M37.4905 74.5593C37.7094 74.5695 37.925 74.5324 38.1406 74.4987C38.1709 74.4953 38.2012 74.4886 38.2316 74.4852C38.3865 74.4583 38.3528 74.4617 38.1305 74.4953C38.2046 74.5156 38.3697 74.4886 38.4438 74.4886C38.592 74.4886 38.7402 74.492 38.8885 74.492C39.6296 74.4953 40.337 73.8384 40.3033 73.0771C40.2696 72.3091 39.6801 71.6657 38.8885 71.6623C38.6358 71.6623 38.3832 71.6454 38.1305 71.6657C37.9452 71.6791 37.7566 71.7128 37.5713 71.7431C37.4163 71.7701 37.45 71.7667 37.6724 71.733C37.6117 71.7398 37.5511 71.7398 37.4905 71.733C36.7494 71.7027 36.0419 72.4068 36.0756 73.1479C36.1093 73.9361 36.6955 74.5257 37.4905 74.5593Z" fill="white"/>
<path d="M121.667 58.6963C121.7 57.0793 121.872 55.011 122.068 52.6361C122.906 42.4458 124.176 27.0476 116.701 19.1986C114.411 16.7159 109.994 17.9691 102.802 23.1434C99.0764 25.8248 95.6909 28.7825 94.3266 30.0053C93.0735 29.7156 90.4324 29.1093 87.0873 28.3682C83.0112 27.4654 78.6185 27.4081 77.1666 27.4182C75.7956 27.4081 71.6353 27.4687 67.7714 28.3749C64.6924 29.0992 62.2468 29.692 61.0307 29.9919C59.9022 28.9206 57.4296 26.6299 54.5595 24.3258C49.0921 19.9364 45.1542 17.8613 42.5165 17.9758C41.1219 18.0398 40.2696 18.69 39.7946 19.2323C32.7541 27.0712 33.95 42.4492 34.7416 52.6259C34.9269 55.0143 35.0886 57.0928 35.1223 58.7165C33.4851 65.0193 31.7233 76.6883 37.5746 85.8781C41.2802 91.6958 47.5459 95.8156 56.2 98.1232C63.0384 99.9456 69.5332 100.148 72.656 100.245C74.2493 100.296 78.5882 100.35 81.967 100.384C82.6474 100.414 83.3414 100.427 84.0454 100.427C84.4126 100.427 84.7798 100.424 85.1504 100.414C85.8409 100.421 86.2923 100.424 86.3765 100.424V100.373C91.6687 100.144 97.3348 99.1641 102.226 97.5909C110.277 94.997 116.119 90.9277 119.11 85.8242C121.384 81.9771 122.724 76.9949 122.987 71.413C123.196 67.0135 122.714 62.3951 121.667 58.6963Z" fill="#FDDFD4"/>
<path d="M82.7484 84.379C80.3533 84.4666 78.039 83.3785 76.4625 81.5123C74.4278 83.5941 71.4331 84.4733 68.8628 83.4964C66.0533 82.4286 64.8473 79.4877 64.5745 77.9179C64.4195 77.0117 65.0259 76.1527 65.9287 75.9978C66.8348 75.8428 67.6905 76.4458 67.8488 77.3486C67.8589 77.4025 68.3103 79.7302 70.0418 80.3871C71.6082 80.9834 73.9966 80.0739 75.0544 77.7697C75.334 77.1633 75.9471 76.7827 76.6175 76.8029C77.2844 76.8231 77.8773 77.2442 78.1165 77.8674C78.9317 79.9964 81.0978 81.3438 83.1459 81.0002C84.7258 80.7341 86.1003 79.4776 86.6426 77.7966C86.9256 76.9241 87.8621 76.4458 88.7345 76.7288C89.607 77.0117 90.0854 77.9482 89.8024 78.8207C88.8659 81.711 86.5247 83.803 83.6917 84.2779C83.3817 84.3352 83.0651 84.3655 82.7484 84.379Z" fill="url(#paint8_linear_578_1588)"/>
<path d="M76.7051 78.5714C76.3817 78.5815 76.0583 78.5007 75.772 78.3255L71.2445 75.5396C70.7122 75.2129 70.409 74.6132 70.4596 73.99C70.5101 73.3668 70.9042 72.8245 71.4803 72.5853C73.0703 71.9284 74.822 71.5983 76.5434 71.6286C78.3086 71.6623 80.0872 72.0766 81.684 72.8312C82.2398 73.094 82.607 73.6431 82.6339 74.2562C82.6642 74.8693 82.351 75.452 81.8221 75.7653L77.49 78.3356C77.2508 78.4838 76.9779 78.5613 76.7051 78.5714ZM76.6478 74.9602L76.6579 74.9669L76.668 74.9602C76.6646 74.9602 76.6545 74.9602 76.6478 74.9602Z" fill="url(#paint9_linear_578_1588)"/>
<path d="M109.135 76.5064C109.044 76.5098 108.953 76.5064 108.859 76.4929L103.755 75.8327C102.846 75.7148 102.202 74.8827 102.32 73.9698C102.438 73.0603 103.274 72.4169 104.183 72.5348L109.287 73.195C110.196 73.3129 110.84 74.145 110.722 75.0579C110.617 75.8765 109.934 76.4761 109.135 76.5064Z" fill="url(#paint10_linear_578_1588)"/>
<path d="M105.669 82.0883C105.5 82.095 105.332 82.0748 105.16 82.0277L100.979 80.8621C100.094 80.6162 99.5781 79.6999 99.824 78.814C100.07 77.928 100.986 77.4126 101.872 77.6585L106.053 78.8241C106.939 79.07 107.454 79.9863 107.208 80.8722C107.009 81.5864 106.373 82.0614 105.669 82.0883Z" fill="url(#paint11_linear_578_1588)"/>
<path d="M101.485 85.9993C101.189 86.0094 100.885 85.942 100.606 85.7837L98.1097 84.3689C97.3113 83.9175 97.0317 82.9035 97.4831 82.1018C97.9345 81.3034 98.9485 81.0238 99.7502 81.4752L102.246 82.89C103.045 83.3414 103.324 84.3554 102.873 85.1571C102.577 85.6793 102.041 85.9791 101.485 85.9993Z" fill="url(#paint12_linear_578_1588)"/>
<path d="M45.6625 77.1498C44.8641 77.1802 44.1399 76.6277 43.9748 75.8226C43.7929 74.9232 44.3723 74.0439 45.2717 73.862L50.3113 72.8312C51.2107 72.6459 52.0899 73.2287 52.2718 74.1282C52.4537 75.0276 51.8743 75.9068 50.9749 76.0887L45.9354 77.1195C45.8444 77.1364 45.7535 77.1465 45.6625 77.1498Z" fill="url(#paint13_linear_578_1588)"/>
<path d="M49.5263 82.4656C48.8223 82.4926 48.1519 82.0647 47.9026 81.3641C47.5927 80.4983 48.0407 79.5483 48.9065 79.2384L52.9927 77.7731C53.8584 77.4631 54.8084 77.9112 55.1183 78.7769C55.4282 79.6427 54.9802 80.5926 54.1144 80.9025L50.0282 82.3679C49.8598 82.4252 49.6914 82.4589 49.5263 82.4656Z" fill="url(#paint14_linear_578_1588)"/>
<path d="M53.9863 86.0633C53.4271 86.0836 52.8746 85.8242 52.5411 85.3256C52.0325 84.5609 52.238 83.5301 53.0026 83.0214L55.391 81.4314C56.1557 80.9228 57.1865 81.1282 57.6952 81.8929C58.2039 82.6576 57.9984 83.6884 57.2337 84.1971L54.8453 85.7871C54.5792 85.9623 54.2827 86.0532 53.9863 86.0633Z" fill="url(#paint15_linear_578_1588)"/>
<path d="M43.1294 43.8843C42.0177 42.941 41.9302 41.378 41.7887 38.8279C41.6741 36.7393 41.4181 32.0973 43.4562 31.2383C44.9182 30.6218 46.8619 32.2522 49.1762 34.196C51.8812 36.4664 53.8654 38.1339 53.643 40.0103C53.2455 43.379 45.8749 46.2154 43.1294 43.8843Z" fill="url(#paint16_linear_578_1588)"/>
<path d="M112.174 43.8843C113.286 42.941 113.373 41.378 113.515 38.8279C113.629 36.7393 113.885 32.0973 111.847 31.2383C110.385 30.6218 108.441 32.2522 106.127 34.196C103.422 36.4664 101.438 38.1339 101.66 40.0103C102.054 43.379 109.425 46.2154 112.174 43.8843Z" fill="url(#paint17_linear_578_1588)"/>
<path opacity="0.31" d="M34.7344 79.5248C36.5905 82.8934 40.0535 88.0946 45.9487 92.137C52.0695 96.331 57.8131 97.2136 65.8137 98.4432C68.3032 98.8272 75.6637 99.8311 85.3587 98.9552C90.5397 98.487 95.4647 98.0423 100.76 96.0885C104.988 94.5288 114.131 90.2775 122.367 78.1672C122.751 87.5456 120.349 93.4913 118.095 97.1395C104.884 118.534 60.9157 119.127 42.8023 96.7993C37.9245 90.7862 35.7787 84.1701 34.7344 79.5248Z" fill="#EA6225"/>
<g opacity="0.31">
<path opacity="0.31" d="M80.242 125.655C79.9556 125.655 79.6727 125.548 79.4503 125.335L75.8425 121.832C75.3911 121.394 75.381 120.676 75.8189 120.225C76.2568 119.774 76.9743 119.764 77.4257 120.201L81.0336 123.705C81.485 124.143 81.4951 124.86 81.0572 125.312C80.8348 125.541 80.5384 125.655 80.242 125.655Z" fill="#EA6225"/>
<path opacity="0.31" d="M76.6844 125.709C76.3981 125.709 76.1151 125.601 75.8928 125.389C75.4414 124.951 75.4313 124.234 75.8692 123.782L79.3726 120.174C79.8105 119.723 80.5281 119.713 80.9795 120.151C81.4309 120.589 81.441 121.306 81.003 121.758L77.4996 125.366C77.2773 125.591 76.9808 125.709 76.6844 125.709Z" fill="#EA6225"/>
</g>
<path d="M69.4489 66.5924C68.7145 70.2609 64.5677 72.8818 60.623 72.5584C56.8299 72.2484 52.7773 69.1863 52.7773 64.7127C52.7773 60.229 56.8467 57.0322 60.623 56.8671C64.3251 56.702 66.8146 59.4879 67.3738 60.1549C67.8791 60.7579 70.0856 63.4023 69.4489 66.5924Z" fill="#F68D64"/>
<path d="M62.5769 67.7849C65.3973 67.7849 67.6838 65.4985 67.6838 62.678C67.6838 59.8576 65.3973 57.5711 62.5769 57.5711C59.7564 57.5711 57.47 59.8576 57.47 62.678C57.47 65.4985 59.7564 67.7849 62.5769 67.7849Z" fill="url(#paint18_linear_578_1588)"/>
<path d="M58.8848 64.4432C60.1462 64.4432 61.1687 63.4207 61.1687 62.1593C61.1687 60.8979 60.1462 59.8753 58.8848 59.8753C57.6234 59.8753 56.6008 60.8979 56.6008 62.1593C56.6008 63.4207 57.6234 64.4432 58.8848 64.4432Z" fill="white"/>
<path d="M84.6757 66.3128C85.4202 69.9813 89.6175 72.6021 93.6094 72.2788C97.4497 71.9688 101.553 68.9067 101.553 64.4331C101.553 59.9494 97.4329 56.7526 93.6094 56.5875C89.8601 56.4224 87.3403 59.2083 86.7744 59.8753C86.2657 60.4817 84.0289 63.1227 84.6757 66.3128Z" fill="#F68D64"/>
<path d="M94.5962 66.9899C97.452 66.9899 99.7671 64.7035 99.7671 61.883C99.7671 59.0626 97.452 56.7761 94.5962 56.7761C91.7404 56.7761 89.4253 59.0626 89.4253 61.883C89.4253 64.7035 91.7404 66.9899 94.5962 66.9899Z" fill="url(#paint19_linear_578_1588)"/>
<path d="M89.004 64.167C90.2803 64.167 91.3149 63.1444 91.3149 61.883C91.3149 60.6216 90.2803 59.5991 89.004 59.5991C87.7277 59.5991 86.6931 60.6216 86.6931 61.883C86.6931 63.1444 87.7277 64.167 89.004 64.167Z" fill="white"/>
<path d="M35.0719 89.2636C34.4824 89.3646 33.684 89.5028 33.2427 90.1462C32.4174 91.3522 33.5459 93.2959 33.7885 93.7102C34.0479 94.1583 35.7019 96.8667 38.2823 96.6342C39.3299 96.5399 40.7852 95.9335 41.2905 94.5995C41.7688 93.3296 41.1153 92.1034 40.93 91.753C39.7847 89.6139 37.0224 88.9267 35.0719 89.2636Z" fill="#F7B696"/>
<path d="M123.748 90.1057C123.866 89.5701 124.025 88.8425 123.627 88.2462C122.886 87.1278 120.841 87.4209 120.407 87.4816C119.939 87.5489 117.062 88.0205 116.371 90.2944C116.091 91.2174 116.102 92.6659 117.065 93.5519C117.981 94.3974 119.248 94.2627 119.612 94.2256C121.825 93.9966 123.361 91.881 123.748 90.1057Z" fill="#F7B696"/>
<path d="M119.443 94.4581C120.447 93.6024 121.778 92.7838 122.148 91.4296C122.502 90.1361 121.522 88.984 120.205 89.0345C118.965 89.0817 118.14 89.9845 117.55 90.9951C116.779 92.3223 116.189 93.8214 115.815 95.3036C115.337 97.1968 118.261 98.0019 118.739 96.1087C118.978 95.1621 119.305 94.2593 119.73 93.3767C119.915 92.9893 120.127 92.6221 120.333 92.2448C120.393 92.1371 120.467 92.0461 120.558 91.9652C120.188 92.228 119.797 92.0798 119.389 91.5206C119.322 91.2646 119.251 91.0119 119.184 90.7559C119.164 90.547 119.207 90.7357 119.063 90.8031C118.877 90.894 118.689 91.1601 118.527 91.2949C118.116 91.6351 117.702 91.9652 117.297 92.3122C115.812 93.5788 117.964 95.7146 119.443 94.4581Z" fill="#FDDFD4"/>
<path d="M41.0277 95.6169C40.3978 95.0611 39.4579 93.9224 38.6764 93.599C38.4339 93.1409 38.1543 93.2015 37.841 93.7776C37.1976 94.1515 37.0359 94.3031 37.3492 94.2324C37.3492 94.2324 37.8511 94.4143 37.9083 94.4547C38.4743 94.8859 38.7034 95.9504 38.8987 96.6005C39.2154 97.6482 39.4007 98.6689 39.404 99.7637C39.4108 101.714 42.4426 101.718 42.4358 99.7637C42.4257 96.8464 41.5095 91.9012 38.0296 91.2881C36.635 91.0422 35.0652 91.7059 35.1898 93.343C35.3381 95.2901 37.5614 96.5972 38.8785 97.756C40.3439 99.0462 42.4965 96.9105 41.0277 95.6169Z" fill="#FDDFD4"/>
<path d="M152.311 54.6876C150.785 54.6876 148.02 53.5826 143.947 51.3458L143.893 51.3155L143.202 49.5537L143.206 49.5133C143.772 42.5671 145.978 37.7701 148.828 37.2918C149.977 37.0997 150.974 37.6387 151.348 37.8779C152.463 38.5921 153.248 39.9766 153.504 41.6778C153.807 43.7158 153.302 45.7404 152.15 47.0946C151.55 47.802 150.738 48.3511 149.785 48.7082C150 48.7755 150.213 48.8497 150.421 48.9339C150.822 49.0922 151.819 49.5133 152.402 50.0118C153.261 50.7428 153.716 51.9893 153.783 52.8988C153.827 53.495 153.713 53.9869 153.457 54.2799C153.228 54.5528 152.844 54.6876 152.311 54.6876ZM144.162 51.0797C150.671 54.6471 152.672 54.6707 153.204 54.0644C153.399 53.842 153.487 53.4378 153.45 52.9291C153.376 51.9354 152.857 50.8439 152.187 50.2746C151.641 49.8097 150.684 49.4055 150.3 49.2539C149.93 49.109 149.549 48.9878 149.168 48.8901L148.555 48.7351L149.165 48.5633C150.287 48.2467 151.233 47.6639 151.9 46.8824C152.975 45.6191 153.463 43.6484 153.177 41.7317C152.938 40.1282 152.207 38.8279 151.173 38.1642C150.829 37.9453 149.923 37.4535 148.889 37.6253C146.241 38.0699 144.095 42.84 143.549 49.5032L144.162 51.0797Z" fill="#47307E"/>
<path d="M152.298 50.1466C151.672 49.6144 150.547 49.1697 150.361 49.099C149.893 48.9137 149.492 48.7991 149.209 48.7284C149.89 48.5364 151.096 48.0884 152.025 46.9935C154.222 44.4131 153.727 39.606 151.261 38.0261C150.974 37.8442 149.994 37.2749 148.859 37.4636C146.11 37.9251 144.038 42.5806 143.425 48.9676C138.8 44.6287 134.32 42.5368 132.137 44.0055C131.237 44.6119 130.941 45.6798 130.867 46.0031C130.223 48.7991 133.05 52.6933 136.25 53.1649C137.607 53.3637 138.726 52.9022 139.315 52.599C139.167 52.8382 138.968 53.1885 138.77 53.6332C138.692 53.8084 138.217 54.8762 138.14 55.6881C137.992 57.2141 139.123 59.2319 140.083 59.3599C140.963 59.4778 142.314 58.0866 144.368 51.3896C150.675 54.8122 152.716 54.8796 153.329 54.1789C154.003 53.4075 153.481 51.1505 152.298 50.1466Z" fill="url(#paint20_linear_578_1588)"/>
<path d="M21.853 50.0051C19.5724 49.1023 15.8938 51.6692 12.5285 56.2035C11.016 50.8304 8.59057 47.2159 6.27967 47.3304C5.32633 47.3776 4.61555 48.0479 4.41342 48.2602C2.65498 50.0759 3.01543 54.2934 5.21517 56.1058C6.14829 56.8738 7.19931 57.0355 7.78546 57.0726C7.5665 57.1871 7.25658 57.3589 6.90624 57.6048C6.76812 57.7025 5.92259 58.2921 5.49814 58.8647C4.69302 59.9494 4.62565 61.9841 5.29265 62.5164C5.90238 63.0048 7.55302 62.5703 12.1479 58.4605C15.3448 63.9076 16.8505 64.8845 17.6321 64.6353C18.4844 64.3624 19.1177 62.4254 18.6831 61.1285C18.454 60.4413 17.8072 59.5957 17.7028 59.4576C17.4333 59.1073 17.184 58.8378 17.0021 58.6559C17.6018 58.8209 18.7134 59.0298 19.9127 58.6289C22.7423 57.6823 24.5547 53.8353 23.4161 51.5244C23.2746 51.2549 22.7962 50.379 21.853 50.0051Z" fill="url(#paint21_linear_578_1588)"/>
<path d="M145.553 55.1929C145.836 56.0755 146.15 56.9479 146.52 57.7968C146.608 57.999 146.921 58.0596 147.096 57.9484C147.309 57.8137 147.342 57.588 147.248 57.3724C147.1 57.0288 146.931 56.601 146.79 56.2102C146.642 55.7992 146.5 55.3849 146.369 54.9672C146.301 54.7583 146.072 54.6 145.85 54.6741C145.638 54.7415 145.483 54.9672 145.553 55.1929Z" fill="url(#paint22_linear_578_1588)"/>
<path d="M147.531 59.6058C147.753 60.1313 147.976 60.6602 148.191 61.1891C148.235 61.2935 148.282 61.3811 148.383 61.4417C148.474 61.4956 148.606 61.5159 148.707 61.4855C148.808 61.4518 148.906 61.3878 148.959 61.2935C149.01 61.1992 149.044 61.0712 149.003 60.9701C148.788 60.4413 148.565 59.9157 148.343 59.3869C148.299 59.2824 148.252 59.1948 148.151 59.1342C148.06 59.0803 147.929 59.0601 147.828 59.0904C147.727 59.1241 147.629 59.1881 147.575 59.2824C147.524 59.3768 147.487 59.5048 147.531 59.6058Z" fill="url(#paint23_linear_578_1588)"/>
<path d="M149.047 63.0991C149.138 63.4899 149.266 63.8807 149.317 64.2782C149.31 64.2175 149.323 64.3556 149.323 64.3523C149.327 64.3994 149.33 64.4466 149.333 64.4938C149.337 64.6016 149.337 64.7127 149.333 64.8205C149.327 65.0226 149.31 65.2248 149.3 65.4269C149.286 65.6458 149.502 65.8581 149.721 65.848C149.96 65.8379 150.128 65.6627 150.142 65.4269C150.169 64.9822 150.199 64.5477 150.139 64.103C150.081 63.6853 149.96 63.2844 149.862 62.8768C149.812 62.6612 149.556 62.513 149.344 62.5837C149.118 62.6545 148.993 62.8701 149.047 63.0991Z" fill="url(#paint24_linear_578_1588)"/>
<path d="M146.706 66.9327C146.345 67.0304 145.982 67.1112 145.614 67.1685C145.571 67.1752 145.53 67.182 145.486 67.1887C145.47 67.1921 145.358 67.1921 145.429 67.1921C145.331 67.1921 145.237 67.1887 145.139 67.1786C145.048 67.1719 145.187 67.1921 145.089 67.1719C145.048 67.1651 145.008 67.155 144.968 67.1483C144.873 67.1281 144.782 67.0977 144.688 67.0641C144.479 66.9899 144.216 67.1483 144.169 67.3571C144.115 67.5929 144.24 67.7951 144.462 67.8759C144.668 67.95 144.877 67.9904 145.096 68.0174C145.318 68.0443 145.53 68.0275 145.749 67.9938C146.147 67.9332 146.537 67.849 146.928 67.7445C147.14 67.6873 147.292 67.4413 147.221 67.2258C147.154 67.0102 146.932 66.872 146.706 66.9327Z" fill="url(#paint25_linear_578_1588)"/>
<path d="M143.334 65.4471C143.3 65.2786 143.263 65.1136 143.229 64.9451C143.212 64.8576 143.196 64.7733 143.182 64.6858C143.179 64.6655 143.162 64.5544 143.175 64.6487C143.169 64.6049 143.165 64.5611 143.162 64.5173C143.155 64.4365 143.148 64.359 143.148 64.2782C143.148 64.231 143.148 64.1805 143.152 64.1333C143.152 64.1131 143.165 64.0053 143.152 64.0996C143.175 63.9042 143.229 63.7122 143.216 63.5135C143.202 63.2945 143.034 63.0823 142.795 63.0924C142.579 63.1025 142.357 63.2777 142.374 63.5135C142.377 63.564 142.374 63.6112 142.374 63.6617C142.374 63.7627 142.387 63.6044 142.37 63.6954C142.35 63.8065 142.333 63.9143 142.32 64.0255C142.3 64.2007 142.303 64.3792 142.323 64.5578C142.364 64.935 142.448 65.2989 142.522 65.6694C142.566 65.885 142.835 66.0299 143.041 65.9625C143.27 65.8917 143.381 65.6795 143.334 65.4471Z" fill="url(#paint26_linear_578_1588)"/>
<path d="M144.412 62.0986C144.647 61.8628 144.893 61.6405 145.149 61.4283C145.18 61.4013 145.213 61.3777 145.244 61.3542C145.261 61.3407 145.274 61.3306 145.291 61.3171C145.345 61.2767 145.284 61.3306 145.277 61.3272C145.284 61.3306 145.368 61.2699 145.378 61.2632C145.412 61.243 145.449 61.2228 145.483 61.2059C145.557 61.1655 145.634 61.1285 145.709 61.0914C145.725 61.0847 145.746 61.0746 145.763 61.0678C145.773 61.0645 145.837 61.0375 145.779 61.0577C145.725 61.0813 145.786 61.0543 145.8 61.051C145.823 61.0409 145.847 61.0341 145.87 61.024C145.975 60.9836 146.062 60.9297 146.123 60.832C146.177 60.7411 146.197 60.6097 146.167 60.5086C146.103 60.3099 145.87 60.1313 145.648 60.2155C145.459 60.2863 145.274 60.3671 145.099 60.4615C144.917 60.5558 144.762 60.6737 144.6 60.8017C144.324 61.024 144.061 61.2598 143.815 61.5091C143.66 61.6641 143.647 61.9504 143.815 62.1054C143.984 62.2536 144.247 62.2671 144.412 62.0986Z" fill="url(#paint27_linear_578_1588)"/>
<path d="M150.068 60.4952C150.334 60.5457 150.6 60.6029 150.863 60.6737C150.987 60.7074 151.109 60.7478 151.233 60.7882C151.294 60.8084 151.354 60.832 151.412 60.8556C151.445 60.8691 151.482 60.8825 151.516 60.896C151.56 60.9129 151.55 60.9095 151.496 60.8859C151.513 60.8927 151.533 60.9028 151.55 60.9095C151.658 60.9567 151.755 60.9836 151.873 60.9533C151.971 60.9263 152.075 60.8522 152.126 60.7613C152.224 60.5794 152.19 60.2796 151.974 60.1852C151.691 60.064 151.408 59.9528 151.112 59.8686C150.842 59.7911 150.566 59.7338 150.29 59.6799C150.074 59.6395 149.825 59.7406 149.771 59.973C149.724 60.1852 149.835 60.4514 150.068 60.4952Z" fill="url(#paint28_linear_578_1588)"/>
<path d="M152.591 62.3951C152.638 62.8566 152.702 63.3147 152.722 63.7796C152.732 63.9986 152.908 64.2108 153.143 64.2007C153.362 64.1906 153.575 64.0154 153.565 63.7796C153.544 63.3147 153.48 62.8566 153.433 62.3951C153.42 62.2806 153.393 62.1829 153.309 62.0986C153.234 62.0245 153.117 61.9706 153.012 61.974C152.803 61.9841 152.567 62.1593 152.591 62.3951Z" fill="url(#paint29_linear_578_1588)"/>
<path d="M152.386 66.2691C152.291 66.4846 152.197 66.7002 152.082 66.9057C152.028 67.0068 151.968 67.1078 151.904 67.2022C151.87 67.2493 151.836 67.2999 151.803 67.3437C151.84 67.2965 151.813 67.3268 151.789 67.3571C151.769 67.3807 151.749 67.4043 151.732 67.4245C151.655 67.5121 151.57 67.5963 151.483 67.6772C151.439 67.7176 151.399 67.7546 151.355 67.7917C151.338 67.8052 151.321 67.822 151.301 67.8355C151.217 67.9062 151.345 67.8052 151.291 67.8422C151.099 67.9803 150.9 68.1083 150.691 68.2229C150.499 68.3307 150.418 68.6103 150.539 68.7989C150.664 68.9943 150.91 69.065 151.116 68.9505C151.56 68.7012 151.988 68.4014 152.325 68.0208C152.672 67.6266 152.901 67.1685 153.11 66.6901C153.197 66.488 153.177 66.2286 152.958 66.1141C152.78 66.0231 152.48 66.0535 152.386 66.2691Z" fill="url(#paint30_linear_578_1588)"/>
<path d="M148.552 69.1088C148.02 69.311 147.501 69.5535 146.952 69.7152C146.413 69.8769 145.864 69.9409 145.301 69.951C144.759 69.9611 144.759 70.8033 145.301 70.7932C145.911 70.7831 146.527 70.7123 147.117 70.5439C147.686 70.3822 148.225 70.1295 148.778 69.9207C148.99 69.8398 149.135 69.6377 149.071 69.4019C149.013 69.1998 148.764 69.0246 148.552 69.1088Z" fill="url(#paint31_linear_578_1588)"/>
<path d="M142.09 70.426C141.578 70.554 141.063 70.6786 140.544 70.7898C140.029 70.901 139.51 70.9313 138.995 71.0189C138.769 71.0559 138.644 71.3322 138.702 71.5376C138.766 71.7768 138.995 71.8678 139.22 71.8307C139.736 71.7431 140.258 71.7128 140.77 71.6016C141.289 71.4905 141.804 71.3658 142.316 71.2378C142.535 71.1839 142.67 70.9346 142.609 70.7191C142.549 70.4967 142.313 70.3687 142.09 70.426Z" fill="url(#paint32_linear_578_1588)"/>
<path d="M134.902 73.1074C135.246 72.9053 135.583 72.6931 135.936 72.5078C136.017 72.464 136.101 72.4236 136.182 72.3865C136.196 72.3798 136.341 72.3192 136.26 72.3529C136.307 72.3326 136.354 72.3158 136.405 72.2956C136.607 72.2181 136.809 72.1406 137.011 72.053C137.213 71.9655 137.274 71.6522 137.163 71.477C137.028 71.2648 136.802 71.2311 136.587 71.3254C136.543 71.3456 136.539 71.3456 136.58 71.3288C136.556 71.3389 136.533 71.349 136.509 71.3591C136.462 71.3793 136.411 71.3962 136.364 71.4164C136.28 71.4501 136.196 71.4804 136.112 71.5141C135.906 71.5949 135.707 71.6859 135.515 71.7869C135.162 71.9722 134.825 72.1844 134.481 72.3865C134.293 72.4977 134.208 72.7706 134.33 72.9626C134.451 73.1479 134.7 73.2253 134.902 73.1074Z" fill="url(#paint33_linear_578_1588)"/>
<path d="M131.823 74.9535C132.059 74.7446 132.284 74.5223 132.524 74.3202C132.551 74.2966 132.577 74.273 132.608 74.2528C132.625 74.2393 132.641 74.2258 132.662 74.209C132.672 74.2022 132.722 74.1618 132.672 74.1989C132.621 74.2393 132.672 74.1989 132.682 74.1921C132.699 74.1787 132.719 74.1652 132.736 74.1517C132.766 74.1315 132.793 74.1113 132.823 74.0911C132.978 73.9867 133.13 73.8822 133.275 73.7643C133.352 73.7003 133.399 73.5622 133.399 73.4679C133.399 73.3635 133.352 73.2422 133.275 73.1714C133.194 73.0973 133.09 73.0434 132.978 73.0468C132.86 73.0535 132.773 73.0973 132.682 73.1714C132.638 73.2051 132.689 73.1647 132.705 73.1546C132.689 73.1647 132.668 73.1815 132.652 73.195C132.625 73.2152 132.594 73.2354 132.564 73.2557C132.5 73.2994 132.433 73.3432 132.369 73.3904C132.217 73.4948 132.072 73.6094 131.934 73.7273C131.695 73.9294 131.469 74.1517 131.233 74.3606C131.068 74.5088 131.072 74.8086 131.233 74.9568C131.405 75.1152 131.648 75.1084 131.823 74.9535Z" fill="url(#paint34_linear_578_1588)"/>
<path d="M11.4131 61.0105C11.2885 62.1559 11.0224 63.2844 10.9752 64.4365C10.9651 64.6656 11.1773 64.8576 11.3963 64.8576C11.6321 64.8576 11.8073 64.6656 11.8174 64.4365C11.8679 63.2844 12.1307 62.1559 12.2553 61.0105C12.2789 60.7848 12.0431 60.5895 11.8342 60.5895C11.5883 60.5895 11.4401 60.7848 11.4131 61.0105Z" fill="url(#paint35_linear_578_1588)"/>
<path d="M10.7126 66.9866C10.7126 67.6906 10.7126 68.3913 10.7126 69.0954C10.7126 69.3143 10.9047 69.5265 11.1337 69.5164C11.3628 69.5063 11.5548 69.3312 11.5548 69.0954C11.5548 68.3913 11.5548 67.6906 11.5548 66.9866C11.5548 66.7676 11.3628 66.5554 11.1337 66.5655C10.9047 66.5756 10.7126 66.7508 10.7126 66.9866Z" fill="url(#paint36_linear_578_1588)"/>
<path d="M11.3426 72.2855C11.6189 73.2388 11.9827 74.1618 12.3094 75.0983C12.3835 75.3139 12.5958 75.4554 12.8282 75.3914C13.0371 75.3341 13.1988 75.0882 13.1213 74.8726C12.7945 73.9361 12.4307 73.0131 12.1545 72.0598C12.0905 71.8408 11.858 71.7061 11.6357 71.7667C11.4167 71.8274 11.2786 72.0632 11.3426 72.2855Z" fill="url(#paint37_linear_578_1588)"/>
<path d="M14.4584 77.3048C14.8121 77.7697 15.176 78.2312 15.5128 78.7095C15.5768 78.8005 15.6543 78.8712 15.7655 78.9016C15.8665 78.9285 16.0013 78.9184 16.0889 78.8578C16.2674 78.7432 16.3752 78.4737 16.2405 78.2817C15.9036 77.8034 15.5398 77.3419 15.1861 76.877C15.1153 76.786 15.048 76.7153 14.9334 76.685C14.8324 76.658 14.6976 76.6681 14.61 76.7288C14.5191 76.786 14.4416 76.8736 14.418 76.9814C14.3944 77.0825 14.3944 77.2172 14.4584 77.3048Z" fill="url(#paint38_linear_578_1588)"/>
<path d="M18.3157 80.1345C19.4004 80.3669 20.4918 80.5522 21.59 80.6768C21.8157 80.7038 22.0111 80.4646 22.0111 80.2557C22.0111 80.0065 21.8157 79.8616 21.59 79.8347C20.5659 79.7168 19.5486 79.5382 18.538 79.3226C18.3157 79.2755 18.0832 79.39 18.0192 79.6157C17.962 79.8279 18.09 80.0873 18.3157 80.1345Z" fill="url(#paint39_linear_578_1588)"/>
<path d="M24.6891 80.0469C25.1574 79.8549 25.6357 79.6864 26.104 79.4877C26.3095 79.4001 26.5183 79.3092 26.7103 79.198C26.7979 79.1441 26.8889 79.0936 26.9765 79.0397C27.0203 79.0195 27.0236 79.0161 26.9798 79.0363C27.0034 79.0262 27.027 79.0195 27.0506 79.0127C27.1011 79.0026 27.0977 79.0026 27.0506 79.0093C27.0775 79.006 27.1011 79.0093 27.128 79.0093C27.347 79.0195 27.5592 78.8072 27.5491 78.5883C27.539 78.3525 27.3639 78.1773 27.128 78.1672C26.872 78.1537 26.6329 78.2615 26.4173 78.3895C26.2219 78.5074 26.0198 78.6118 25.8075 78.7062C25.6357 78.7836 25.3831 78.8813 25.1641 78.9622C24.9317 79.0531 24.6959 79.1407 24.4634 79.235C24.2613 79.3193 24.0929 79.518 24.1704 79.7538C24.2344 79.9492 24.4702 80.1379 24.6891 80.0469Z" fill="url(#paint40_linear_578_1588)"/>
<path d="M27.62 75.0175C27.7311 75.1388 27.849 75.2533 27.9636 75.3712C28.0343 75.4419 28.1017 75.516 28.169 75.5902C28.2027 75.6272 28.2364 75.6643 28.2667 75.7047C28.2836 75.7249 28.2971 75.7417 28.3139 75.762C28.351 75.8058 28.2533 75.6777 28.3105 75.7586C28.3644 75.8327 28.4082 75.9102 28.452 75.9877C28.479 76.0382 28.4419 75.9708 28.4385 75.954C28.4419 75.9742 28.4554 76.0011 28.4621 76.018C28.4689 76.0348 28.4689 76.055 28.4756 76.0752C28.452 75.9978 28.4722 76.055 28.4756 76.0854C28.4756 76.1157 28.4756 76.146 28.4756 76.1729C28.4756 76.2807 28.4891 76.1258 28.4756 76.1864C28.4621 76.247 28.452 76.3043 28.4318 76.365C28.3947 76.4829 28.351 76.6008 28.3004 76.7153C28.2162 76.9174 28.3914 77.1869 28.5935 77.2341C28.8394 77.2913 29.0213 77.1566 29.1123 76.941C29.2234 76.6749 29.3211 76.3986 29.3178 76.1056C29.3144 75.8428 29.2167 75.5969 29.0685 75.3813C28.8226 75.0242 28.5025 74.7413 28.2128 74.4212C28.0646 74.2562 27.7648 74.2595 27.6166 74.4212C27.4583 74.5964 27.4616 74.8423 27.62 75.0175Z" fill="url(#paint41_linear_578_1588)"/>
<path d="M24.3792 73.4578C25.0226 73.6936 25.6526 73.9698 26.3128 74.1618C26.5251 74.2225 26.7811 74.0877 26.8316 73.8688C26.8821 73.6431 26.7642 73.4174 26.5385 73.35C25.8783 73.158 25.2483 72.8817 24.6049 72.6459C24.3961 72.5718 24.1333 72.7301 24.0861 72.939C24.0289 73.1782 24.1569 73.3769 24.3792 73.4578Z" fill="url(#paint42_linear_578_1588)"/>
<path d="M20.7984 73.2085C21.3845 73.158 21.9673 73.1074 22.5568 73.1209C22.7758 73.1243 22.988 72.9255 22.9779 72.6998C22.9678 72.4674 22.7926 72.2821 22.5568 72.2787C21.9707 72.2653 21.3845 72.3158 20.7984 72.3663C20.5794 72.3865 20.3672 72.5482 20.3773 72.7874C20.3874 72.9996 20.5626 73.2287 20.7984 73.2085Z" fill="url(#paint43_linear_578_1588)"/>
<path d="M17.3187 75.8967C17.5309 75.671 17.7364 75.4318 17.9588 75.2162C18.0127 75.1657 18.0666 75.1152 18.1205 75.068C18.1474 75.0444 18.1777 75.0208 18.2047 74.9973C18.2148 74.9905 18.2754 74.9434 18.2148 74.9905C18.1575 75.0343 18.2114 74.9939 18.2249 74.9838C18.3563 74.8895 18.4944 74.8052 18.6392 74.7345C18.838 74.6368 18.9054 74.3404 18.7908 74.1585C18.6594 73.9563 18.427 73.9024 18.2148 74.0069C17.6051 74.3033 17.1772 74.8187 16.7225 75.3038C16.5709 75.4655 16.5507 75.7417 16.7225 75.9001C16.8875 76.0483 17.157 76.0685 17.3187 75.8967Z" fill="url(#paint44_linear_578_1588)"/>
<path d="M14.5934 80.4579C14.7113 80.8655 14.7989 81.2832 14.9572 81.6807C15.0414 81.8929 15.1357 82.1052 15.2637 82.2904C15.4052 82.4959 15.5804 82.6644 15.7556 82.8395C15.9105 82.9979 16.1969 83.008 16.3518 82.8395C16.5068 82.6711 16.5169 82.4117 16.3518 82.2433C16.2811 82.1725 16.2103 82.1052 16.1396 82.031C16.1025 81.9906 16.0655 81.9502 16.0284 81.9098C16.0217 81.903 15.9745 81.8458 16.0048 81.8795C16.0318 81.9165 15.988 81.8525 15.9813 81.8458C15.9274 81.7683 15.8802 81.6841 15.8364 81.5999C15.8162 81.5561 15.796 81.5123 15.7758 81.4685C15.7488 81.4112 15.7994 81.5291 15.7758 81.4685C15.7657 81.4415 15.7522 81.4112 15.7421 81.3843C15.6006 81.0103 15.513 80.6162 15.4052 80.2322C15.3446 80.02 15.1054 79.8684 14.8864 79.9391C14.6708 80.0098 14.5294 80.2288 14.5934 80.4579Z" fill="url(#paint45_linear_578_1588)"/>
<path d="M18.1268 85.3862C18.7196 85.8747 19.3024 86.3834 19.9694 86.7708C20.1614 86.8819 20.4377 86.8213 20.5455 86.6192C20.6533 86.417 20.5994 86.161 20.3939 86.0431C20.2355 85.9522 20.084 85.8545 19.9324 85.7501C19.8583 85.6995 19.7875 85.6456 19.7134 85.5951C19.6797 85.5715 19.646 85.5446 19.6123 85.521C19.5955 85.5075 19.5787 85.494 19.5618 85.4839C19.5146 85.4469 19.6427 85.5446 19.5584 85.4839C19.2721 85.2616 18.9959 85.0258 18.7196 84.7967C18.6321 84.7226 18.5411 84.6721 18.4232 84.6721C18.3188 84.6721 18.1975 84.7192 18.1268 84.7967C17.9853 84.9483 17.9482 85.238 18.1268 85.3862Z" fill="url(#paint46_linear_578_1588)"/>
</g>
<defs>
<linearGradient id="paint0_linear_578_1588" x1="85.4938" y1="220.698" x2="85.4938" y2="-26.3003" gradientUnits="userSpaceOnUse">
<stop offset="0.489563" stop-color="#6ED4F4"/>
<stop offset="1" stop-color="#168FFF"/>
</linearGradient>
<linearGradient id="paint1_linear_578_1588" x1="77.8301" y1="23.741" x2="77.8301" y2="140.165" gradientUnits="userSpaceOnUse">
<stop stop-color="#FFDB5C"/>
<stop offset="1" stop-color="#C4C4C4" stop-opacity="0"/>
</linearGradient>
<linearGradient id="paint2_linear_578_1588" x1="79.75" y1="125" x2="79.75" y2="228.5" gradientUnits="userSpaceOnUse">
<stop stop-color="#31C9C0"/>
<stop offset="1" stop-color="#4839A4" stop-opacity="0.38"/>
</linearGradient>
<linearGradient id="paint3_linear_578_1588" x1="22.9109" y1="130.462" x2="44.6764" y2="130.462" gradientUnits="userSpaceOnUse">
<stop offset="0.0159" stop-color="#6661AB"/>
<stop offset="0.9983" stop-color="#462F7E"/>
</linearGradient>
<linearGradient id="paint4_linear_578_1588" x1="103.107" y1="96.1669" x2="148.677" y2="96.1669" gradientUnits="userSpaceOnUse">
<stop offset="0.0159" stop-color="#6661AB"/>
<stop offset="0.9983" stop-color="#462F7E"/>
</linearGradient>
<linearGradient id="paint5_linear_578_1588" x1="111.551" y1="129.917" x2="133.316" y2="129.917" gradientUnits="userSpaceOnUse">
<stop stop-color="#F68D64"/>
<stop offset="1" stop-color="#D94626"/>
</linearGradient>
<linearGradient id="paint6_linear_578_1588" x1="79.3029" y1="76.7627" x2="79.3029" y2="128.301" gradientUnits="userSpaceOnUse">
<stop stop-color="#F68D64"/>
<stop offset="1" stop-color="#D94627"/>
</linearGradient>
<linearGradient id="paint7_linear_578_1588" x1="72.9841" y1="111.688" x2="83.124" y2="111.688" gradientUnits="userSpaceOnUse">
<stop stop-color="#F68D64"/>
<stop offset="1" stop-color="#D94627"/>
</linearGradient>
<linearGradient id="paint8_linear_578_1588" x1="64.6494" y1="80.5314" x2="89.9323" y2="79.6129" gradientUnits="userSpaceOnUse">
<stop stop-color="#F68D64"/>
<stop offset="1" stop-color="#D94627"/>
</linearGradient>
<linearGradient id="paint9_linear_578_1588" x1="70.4937" y1="75.3134" x2="82.6534" y2="74.8717" gradientUnits="userSpaceOnUse">
<stop stop-color="#F68D64"/>
<stop offset="1" stop-color="#D94627"/>
</linearGradient>
<linearGradient id="paint10_linear_578_1588" x1="110.843" y1="74.3059" x2="102.449" y2="74.6108" gradientUnits="userSpaceOnUse">
<stop stop-color="#F68D64"/>
<stop offset="1" stop-color="#D94627"/>
</linearGradient>
<linearGradient id="paint11_linear_578_1588" x1="107.37" y1="79.6513" x2="99.914" y2="79.9221" gradientUnits="userSpaceOnUse">
<stop stop-color="#F68D64"/>
<stop offset="1" stop-color="#D94627"/>
</linearGradient>
<linearGradient id="paint12_linear_578_1588" x1="103.182" y1="83.4711" x2="97.4178" y2="83.6805" gradientUnits="userSpaceOnUse">
<stop stop-color="#F68D64"/>
<stop offset="1" stop-color="#D94627"/>
</linearGradient>
<linearGradient id="paint13_linear_578_1588" x1="43.9213" y1="75.1265" x2="52.3156" y2="74.8215" gradientUnits="userSpaceOnUse">
<stop stop-color="#F68D64"/>
<stop offset="1" stop-color="#D94627"/>
</linearGradient>
<linearGradient id="paint14_linear_578_1588" x1="47.7732" y1="80.2061" x2="55.2288" y2="79.9353" gradientUnits="userSpaceOnUse">
<stop stop-color="#F68D64"/>
<stop offset="1" stop-color="#D94627"/>
</linearGradient>
<linearGradient id="paint15_linear_578_1588" x1="52.2267" y1="83.7118" x2="57.9911" y2="83.5024" gradientUnits="userSpaceOnUse">
<stop stop-color="#F68D64"/>
<stop offset="1" stop-color="#D94627"/>
</linearGradient>
<linearGradient id="paint16_linear_578_1588" x1="50.7555" y1="34.6324" x2="41.1842" y2="41.231" gradientUnits="userSpaceOnUse">
<stop stop-color="#F68D64"/>
<stop offset="1" stop-color="#D94627"/>
</linearGradient>
<linearGradient id="paint17_linear_578_1588" x1="104.545" y1="34.6267" x2="114.116" y2="41.2253" gradientUnits="userSpaceOnUse">
<stop stop-color="#F68D64"/>
<stop offset="1" stop-color="#D94627"/>
</linearGradient>
<linearGradient id="paint18_linear_578_1588" x1="57.4711" y1="62.6776" x2="67.685" y2="62.6776" gradientUnits="userSpaceOnUse">
<stop stop-color="#47307E"/>
<stop offset="1" stop-color="#D94627"/>
</linearGradient>
<linearGradient id="paint19_linear_578_1588" x1="89.4255" y1="61.882" x2="99.7659" y2="61.882" gradientUnits="userSpaceOnUse">
<stop stop-color="#47307E"/>
<stop offset="1" stop-color="#D94627"/>
</linearGradient>
<linearGradient id="paint20_linear_578_1588" x1="130.778" y1="48.3926" x2="153.629" y2="48.3926" gradientUnits="userSpaceOnUse">
<stop offset="0.0159" stop-color="#6661AB"/>
<stop offset="0.9983" stop-color="#462F7E"/>
</linearGradient>
<linearGradient id="paint21_linear_578_1588" x1="3.29813" y1="56.0005" x2="23.7536" y2="56.0005" gradientUnits="userSpaceOnUse">
<stop offset="0.0159" stop-color="#6661AB"/>
<stop offset="0.9983" stop-color="#462F7E"/>
</linearGradient>
<linearGradient id="paint22_linear_578_1588" x1="145.536" y1="56.3299" x2="147.295" y2="56.3299" gradientUnits="userSpaceOnUse">
<stop stop-color="#F68D64"/>
<stop offset="1" stop-color="#D94626"/>
</linearGradient>
<linearGradient id="paint23_linear_578_1588" x1="147.512" y1="60.2865" x2="149.021" y2="60.2865" gradientUnits="userSpaceOnUse">
<stop stop-color="#F68D64"/>
<stop offset="1" stop-color="#D94626"/>
</linearGradient>
<linearGradient id="paint24_linear_578_1588" x1="149.035" y1="64.2073" x2="150.17" y2="64.2073" gradientUnits="userSpaceOnUse">
<stop stop-color="#F68D64"/>
<stop offset="1" stop-color="#D94626"/>
</linearGradient>
<linearGradient id="paint25_linear_578_1588" x1="144.157" y1="67.4741" x2="147.24" y2="67.4741" gradientUnits="userSpaceOnUse">
<stop stop-color="#F68D64"/>
<stop offset="1" stop-color="#D94626"/>
</linearGradient>
<linearGradient id="paint26_linear_578_1588" x1="142.308" y1="64.538" x2="143.344" y2="64.538" gradientUnits="userSpaceOnUse">
<stop stop-color="#F68D64"/>
<stop offset="1" stop-color="#D94626"/>
</linearGradient>
<linearGradient id="paint27_linear_578_1588" x1="143.695" y1="61.2045" x2="146.183" y2="61.2045" gradientUnits="userSpaceOnUse">
<stop stop-color="#F68D64"/>
<stop offset="1" stop-color="#D94626"/>
</linearGradient>
<linearGradient id="paint28_linear_578_1588" x1="149.761" y1="60.322" x2="152.175" y2="60.322" gradientUnits="userSpaceOnUse">
<stop stop-color="#F68D64"/>
<stop offset="1" stop-color="#D94626"/>
</linearGradient>
<linearGradient id="paint29_linear_578_1588" x1="152.589" y1="63.0877" x2="153.566" y2="63.0877" gradientUnits="userSpaceOnUse">
<stop stop-color="#F68D64"/>
<stop offset="1" stop-color="#D94626"/>
</linearGradient>
<linearGradient id="paint30_linear_578_1588" x1="150.482" y1="67.5382" x2="153.16" y2="67.5382" gradientUnits="userSpaceOnUse">
<stop stop-color="#F68D64"/>
<stop offset="1" stop-color="#D94626"/>
</linearGradient>
<linearGradient id="paint31_linear_578_1588" x1="144.894" y1="69.9393" x2="149.084" y2="69.9393" gradientUnits="userSpaceOnUse">
<stop stop-color="#F68D64"/>
<stop offset="1" stop-color="#D94626"/>
</linearGradient>
<linearGradient id="paint32_linear_578_1588" x1="138.686" y1="71.1259" x2="142.623" y2="71.1259" gradientUnits="userSpaceOnUse">
<stop stop-color="#F68D64"/>
<stop offset="1" stop-color="#D94626"/>
</linearGradient>
<linearGradient id="paint33_linear_578_1588" x1="134.268" y1="72.2194" x2="137.219" y2="72.2194" gradientUnits="userSpaceOnUse">
<stop stop-color="#F68D64"/>
<stop offset="1" stop-color="#D94626"/>
</linearGradient>
<linearGradient id="paint34_linear_578_1588" x1="131.106" y1="74.0593" x2="133.397" y2="74.0593" gradientUnits="userSpaceOnUse">
<stop stop-color="#F68D64"/>
<stop offset="1" stop-color="#D94626"/>
</linearGradient>
<linearGradient id="paint35_linear_578_1588" x1="10.9746" y1="62.7251" x2="12.2583" y2="62.7251" gradientUnits="userSpaceOnUse">
<stop stop-color="#F68D64"/>
<stop offset="1" stop-color="#D94626"/>
</linearGradient>
<linearGradient id="paint36_linear_578_1588" x1="10.7115" y1="68.0417" x2="11.5537" y2="68.0417" gradientUnits="userSpaceOnUse">
<stop stop-color="#F68D64"/>
<stop offset="1" stop-color="#D94626"/>
</linearGradient>
<linearGradient id="paint37_linear_578_1588" x1="11.3264" y1="73.5784" x2="13.1394" y2="73.5784" gradientUnits="userSpaceOnUse">
<stop stop-color="#F68D64"/>
<stop offset="1" stop-color="#D94626"/>
</linearGradient>
<linearGradient id="paint38_linear_578_1588" x1="14.4028" y1="77.7962" x2="16.3025" y2="77.7962" gradientUnits="userSpaceOnUse">
<stop stop-color="#F68D64"/>
<stop offset="1" stop-color="#D94626"/>
</linearGradient>
<linearGradient id="paint39_linear_578_1588" x1="18.0067" y1="79.9963" x2="22.0111" y2="79.9963" gradientUnits="userSpaceOnUse">
<stop stop-color="#F68D64"/>
<stop offset="1" stop-color="#D94626"/>
</linearGradient>
<linearGradient id="paint40_linear_578_1588" x1="24.1532" y1="79.1178" x2="27.5478" y2="79.1178" gradientUnits="userSpaceOnUse">
<stop stop-color="#F68D64"/>
<stop offset="1" stop-color="#D94626"/>
</linearGradient>
<linearGradient id="paint41_linear_578_1588" x1="27.5001" y1="75.7746" x2="29.3191" y2="75.7746" gradientUnits="userSpaceOnUse">
<stop stop-color="#F68D64"/>
<stop offset="1" stop-color="#D94626"/>
</linearGradient>
<linearGradient id="paint42_linear_578_1588" x1="24.0715" y1="73.4001" x2="26.8411" y2="73.4001" gradientUnits="userSpaceOnUse">
<stop stop-color="#F68D64"/>
<stop offset="1" stop-color="#D94626"/>
</linearGradient>
<linearGradient id="paint43_linear_578_1588" x1="20.3777" y1="72.7429" x2="22.9781" y2="72.7429" gradientUnits="userSpaceOnUse">
<stop stop-color="#F68D64"/>
<stop offset="1" stop-color="#D94626"/>
</linearGradient>
<linearGradient id="paint44_linear_578_1588" x1="16.6019" y1="74.9856" x2="18.847" y2="74.9856" gradientUnits="userSpaceOnUse">
<stop stop-color="#F68D64"/>
<stop offset="1" stop-color="#D94626"/>
</linearGradient>
<linearGradient id="paint45_linear_578_1588" x1="14.5775" y1="81.441" x2="16.4718" y2="81.441" gradientUnits="userSpaceOnUse">
<stop stop-color="#F68D64"/>
<stop offset="1" stop-color="#D94626"/>
</linearGradient>
<linearGradient id="paint46_linear_578_1588" x1="18.0067" y1="85.7479" x2="20.6007" y2="85.7479" gradientUnits="userSpaceOnUse">
<stop stop-color="#F68D64"/>
<stop offset="1" stop-color="#D94626"/>
</linearGradient>
</defs>
</svg>
