<svg width="24" height="24" viewBox="0 0 24 24" fill="none" xmlns="http://www.w3.org/2000/svg">
<path fill-rule="evenodd" clip-rule="evenodd" d="M9.67425 2.0749C9.58315 2.1156 9.48256 2.18994 9.45069 2.24006C9.41675 2.29342 9.30675 2.90673 9.18556 3.71801C9.07159 4.48074 8.97573 5.10682 8.97248 5.10932C8.96922 5.11178 8.81472 5.18365 8.62915 5.26897C8.44357 5.35433 8.06067 5.5764 7.77824 5.76251C7.49576 5.94865 7.24909 6.10092 7.23004 6.10092C7.21099 6.10092 6.6362 5.87239 5.95272 5.59308C5.12582 5.25518 4.66107 5.08525 4.56373 5.08525C4.39535 5.08525 4.2399 5.15545 4.11787 5.28663C3.96941 5.44616 2 8.88732 2 8.98717C2 9.22616 2.16605 9.38535 3.28963 10.2235L4.38745 11.0425L4.36216 11.2574C4.28511 11.911 4.27594 12.113 4.30587 12.4961C4.32397 12.7279 4.34398 12.9509 4.35033 12.9915C4.35898 13.0468 4.09223 13.2807 3.29368 13.9181C2.70614 14.3871 2.19272 14.8197 2.15267 14.8794C1.99468 15.1152 2.00762 15.1444 3.12842 17.0814C4.28213 19.0753 4.26804 19.0568 4.60661 19.0149C4.69755 19.0037 5.26916 18.7987 5.87686 18.5595C6.48456 18.3202 7.06515 18.092 7.16708 18.0523L7.35238 17.9801L7.52434 18.1086C7.74191 18.2711 8.35716 18.6262 8.75979 18.8216C8.96291 18.9202 9.07533 18.9987 9.08731 19.0503C9.09732 19.0934 9.19556 19.7087 9.30564 20.4174C9.42858 21.2094 9.52924 21.7414 9.56672 21.7977C9.6995 21.9971 9.73419 22 12.0324 22C14.035 22 14.1764 21.9955 14.3049 21.9277C14.5599 21.7931 14.5681 21.7661 14.7928 20.3282L15.0021 18.9884L15.4974 18.7323C15.7698 18.5915 16.1598 18.3681 16.364 18.2361C16.5682 18.104 16.7558 18.0001 16.7808 18.0052C16.8058 18.0103 17.3622 18.226 18.0171 18.4845C19.4832 19.0632 19.4574 19.0558 19.6751 18.961C19.8392 18.8896 19.8702 18.8418 20.8953 17.0803C21.4737 16.0863 21.9629 15.2159 21.9823 15.1461C22.0017 15.0764 22.0058 14.9573 21.9914 14.8815C21.9667 14.7524 21.8878 14.6914 20.7341 13.9088L19.503 13.0739L19.5341 12.7809C19.5739 12.4063 19.5745 11.3587 19.5351 11.1766L19.5048 11.0372L20.5981 10.1666C21.1993 9.6877 21.7175 9.24589 21.7497 9.18479C21.7818 9.12366 21.8081 9.02287 21.8081 8.96084C21.8081 8.79556 19.746 5.24565 19.5967 5.15381C19.3831 5.02251 19.2395 5.05924 17.8797 5.59308C17.1682 5.87239 16.5717 6.10092 16.5541 6.10092C16.5365 6.10092 16.3494 5.98904 16.1383 5.85228C15.9272 5.71555 15.5389 5.49269 15.2755 5.35706L14.7965 5.11045L14.6044 3.87712C14.4986 3.19877 14.4077 2.56218 14.4023 2.46249C14.3896 2.22807 14.3394 2.14107 14.172 2.06286C14.0512 2.00646 13.796 1.99931 11.9377 2.00005C9.9647 2.00087 9.83002 2.00532 9.67425 2.0749ZM12.3219 8.56281C13.7468 8.73196 14.9022 9.68184 15.3619 11.0621C15.4637 11.3677 15.4727 11.4439 15.4746 12.0191C15.4763 12.5558 15.464 12.6871 15.3871 12.9482C15.132 13.8141 14.5563 14.5628 13.7697 15.0514C13.6824 15.1056 13.4591 15.2134 13.2735 15.2909C11.5357 16.0163 9.50376 15.2102 8.68857 13.472C8.06412 12.1405 8.38141 10.5785 9.48808 9.53586C10.1661 8.89713 10.886 8.59489 11.8852 8.52945C11.9404 8.52586 12.1369 8.54086 12.3219 8.56281Z" fill="black"/>
</svg>
